999
dxflib 3.17.0.0
  0
SECTION
  2
HEADER
  9
$ACADVER
  1
AC1015
  9
$HANDSEED
  5
FFFF
  9
$DIMADEC
 70
0
  9
$DIMASZ
 40
2.5
  9
$DIMAUNIT
 70
0
  9
$DIMAZIN
 70
2
  9
$DIMDEC
 70
4
  9
$DIMDSEP
 70
46
  9
$DIMEXE
 40
1.25
  9
$DIMEXO
 40
0.625
  9
$DIMGAP
 40
0.625
  9
$DIMLUNIT
 70
2
  9
$DIMSCALE
 40
1.0
  9
$DIMTSZ
 40
0.0
  9
$DIMTXT
 40
2.5
  9
$DIMZIN
 70
8
  9
$DWGCODEPAGE
  3
ANSI_1252
  9
$INSUNITS
 70
4
  9
$LTSCALE
 40
1.0
  9
$MAXACTVP
 70
32
  9
$MEASUREMENT
 70
1
  9
$PDMODE
 70
0
  9
$PDSIZE
 40
0
  0
ENDSEC
  0
SECTION
  2
TABLES
  0
TABLE
  2
VPORT
  5
8
100
AcDbSymbolTable
 70
1
  0
VPORT
  5
30
100
AcDbSymbolTableRecord
100
AcDbViewportTableRecord
  2
*Active
 70
0
 10
0.0
 20
0.0
 11
1.0
 21
1.0
 12
286.3055555555554861
 22
148.5
 13
0.0
 23
0.0
 14
10.0
 24
10.0
 15
10.0
 25
10.0
 16
0.0
 26
0.0
 36
1.0
 17
0.0
 27
0.0
 37
0.0
 40
297.0
 41
1.92798353909465
 42
50.0
 43
0.0
 44
0.0
 50
0.0
 51
0.0
 71
0
 72
100
 73
1
 74
3
 75
1
 76
1
 77
0
 78
0
281
0
 65
1
110
0.0
120
0.0
130
0.0
111
1.0
121
0.0
131
0.0
112
0.0
122
1.0
132
0.0
 79
0
146
0.0
  0
ENDTAB
  0
TABLE
  2
LTYPE
  5
5
100
AcDbSymbolTable
 70
41
  0
LTYPE
  5
16
100
AcDbSymbolTableRecord
100
AcDbLinetypeTableRecord
  2
Continuous
 70
0
  3
Solid line
 72
65
 73
0
 40
0.0
  0
LTYPE
  5
31
100
AcDbSymbolTableRecord
100
AcDbLinetypeTableRecord
  2
ACAD_ISO12W100
 70
0
  3
ISO dash double-dot __ . . __ . . __ . . __ . . 
 72
65
 73
6
 40
21.0
 49
12.0
 74
0
 49
-3.0
 74
0
 49
0.0
 74
0
 49
-3.0
 74
0
 49
0.0
 74
0
 49
-3.0
 74
0
  0
LTYPE
  5
32
100
AcDbSymbolTableRecord
100
AcDbLinetypeTableRecord
  2
DOT2
 70
0
  3
Dot (.5x) ........................................
 72
65
 73
2
 40
3.1749999999999998
 49
0.0
 74
0
 49
-3.1749999999999998
 74
0
  0
LTYPE
  5
33
100
AcDbSymbolTableRecord
100
AcDbLinetypeTableRecord
  2
DOTX2
 70
0
  3
Dot (2x) .  .  .  .  .  .  .  .  .  .  .  .  .  .
 72
65
 73
2
 40
12.6999999999999993
 49
0.0
 74
0
 49
-12.6999999999999993
 74
0
  0
LTYPE
  5
14
100
AcDbSymbolTableRecord
100
AcDbLinetypeTableRecord
  2
BYBLOCK
 70
0
  3

 72
65
 73
0
 40
0.0
  0
LTYPE
  5
34
100
AcDbSymbolTableRecord
100
AcDbLinetypeTableRecord
  2
ACAD_ISO15W100
 70
0
  3
ISO double-dash triple-dot __ __ . . . __ __ . .
 72
65
 73
10
 40
39.0
 49
12.0
 74
0
 49
-3.0
 74
0
 49
12.0
 74
0
 49
-3.0
 74
0
 49
0.0
 74
0
 49
-3.0
 74
0
 49
0.0
 74
0
 49
-3.0
 74
0
 49
0.0
 74
0
 49
-3.0
 74
0
  0
LTYPE
  5
35
100
AcDbSymbolTableRecord
100
AcDbLinetypeTableRecord
  2
ACAD_ISO07W100
 70
0
  3
ISO dot . . . . . . . . . . . . . . . . . . . . 
 72
65
 73
2
 40
3.0
 49
0.0
 74
0
 49
-3.0
 74
0
  0
LTYPE
  5
36
100
AcDbSymbolTableRecord
100
AcDbLinetypeTableRecord
  2
ACAD_ISO02W100
 70
0
  3
ISO dash __ __ __ __ __ __ __ __ __ __ __ __ __
 72
65
 73
2
 40
15.0
 49
12.0
 74
0
 49
-3.0
 74
0
  0
LTYPE
  5
37
100
AcDbSymbolTableRecord
100
AcDbLinetypeTableRecord
  2
DASHED
 70
0
  3
Dashed __ __ __ __ __ __ __ __ __ __ __ __ __ _
 72
65
 73
2
 40
19.0499999999999972
 49
12.6999999999999993
 74
0
 49
-6.3499999999999996
 74
0
  0
LTYPE
  5
38
100
AcDbSymbolTableRecord
100
AcDbLinetypeTableRecord
  2
HIDDEN
 70
0
  3
Hidden __ __ __ __ __ __ __ __ __ __ __ __ __ __
 72
65
 73
2
 40
9.5249999999999986
 49
6.3499999999999996
 74
0
 49
-3.1749999999999998
 74
0
  0
LTYPE
  5
39
100
AcDbSymbolTableRecord
100
AcDbLinetypeTableRecord
  2
DOT
 70
0
  3
Dot . . . . . . . . . . . . . . . . . . . . . . . .
 72
65
 73
2
 40
6.3499999999999996
 49
0.0
 74
0
 49
-6.3499999999999996
 74
0
  0
LTYPE
  5
3A
100
AcDbSymbolTableRecord
100
AcDbLinetypeTableRecord
  2
ACAD_ISO05W100
 70
0
  3
ISO long-dash double-dot ____ .. ____ .. ____ . 
 72
65
 73
6
 40
33.0
 49
24.0
 74
0
 49
-3.0
 74
0
 49
0.0
 74
0
 49
-3.0
 74
0
 49
0.0
 74
0
 49
-3.0
 74
0
  0
LTYPE
  5
3B
100
AcDbSymbolTableRecord
100
AcDbLinetypeTableRecord
  2
CENTER
 70
0
  3
Center ____ _ ____ _ ____ _ ____ _ ____ _ ____
 72
65
 73
4
 40
50.8000000000000043
 49
31.75
 74
0
 49
-6.3499999999999996
 74
0
 49
6.3499999999999996
 74
0
 49
-6.3499999999999996
 74
0
  0
LTYPE
  5
3C
100
AcDbSymbolTableRecord
100
AcDbLinetypeTableRecord
  2
DASHDOT2
 70
0
  3
Dash dot (.5x) _._._._._._._._._._._._._._._.
 72
65
 73
4
 40
12.6999999999999993
 49
6.3499999999999996
 74
0
 49
-3.1749999999999998
 74
0
 49
0.0
 74
0
 49
-3.1749999999999998
 74
0
  0
LTYPE
  5
3D
100
AcDbSymbolTableRecord
100
AcDbLinetypeTableRecord
  2
DASHDOTX2
 70
0
  3
Dash dot (2x) ____  .  ____  .  ____  .  ___
 72
65
 73
4
 40
50.7999999999999972
 49
25.3999999999999986
 74
0
 49
-12.6999999999999993
 74
0
 49
0.0
 74
0
 49
-12.6999999999999993
 74
0
  0
LTYPE
  5
3E
100
AcDbSymbolTableRecord
100
AcDbLinetypeTableRecord
  2
CENTER2
 70
0
  3
Center (.5x) ___ _ ___ _ ___ _ ___ _ ___ _ ___
 72
65
 73
4
 40
28.5750000000000028
 49
19.0500000000000007
 74
0
 49
-3.1749999999999998
 74
0
 49
3.1749999999999998
 74
0
 49
-3.1749999999999998
 74
0
  0
LTYPE
  5
3F
100
AcDbSymbolTableRecord
100
AcDbLinetypeTableRecord
  2
ACAD_ISO06W100
 70
0
  3
ISO long-dash triple-dot ____ ... ____ ... ____
 72
65
 73
8
 40
36.0
 49
24.0
 74
0
 49
-3.0
 74
0
 49
0.0
 74
0
 49
-3.0
 74
0
 49
0.0
 74
0
 49
-3.0
 74
0
 49
0.0
 74
0
 49
-3.0
 74
0
  0
LTYPE
  5
40
100
AcDbSymbolTableRecord
100
AcDbLinetypeTableRecord
  2
DASHEDX2
 70
0
  3
Dashed (2x) ____  ____  ____  ____  ____  ___
 72
65
 73
2
 40
38.0999999999999943
 49
25.3999999999999986
 74
0
 49
-12.6999999999999993
 74
0
  0
LTYPE
  5
41
100
AcDbSymbolTableRecord
100
AcDbLinetypeTableRecord
  2
ACAD_ISO13W100
 70
0
  3
ISO double-dash double-dot __ __ . . __ __ . . _
 72
65
 73
8
 40
36.0
 49
12.0
 74
0
 49
-3.0
 74
0
 49
12.0
 74
0
 49
-3.0
 74
0
 49
0.0
 74
0
 49
-3.0
 74
0
 49
0.0
 74
0
 49
-3.0
 74
0
  0
LTYPE
  5
42
100
AcDbSymbolTableRecord
100
AcDbLinetypeTableRecord
  2
DASHED2
 70
0
  3
Dashed (.5x) _ _ _ _ _ _ _ _ _ _ _ _ _ _ _ _ _ 
 72
65
 73
2
 40
9.5249999999999986
 49
6.3499999999999996
 74
0
 49
-3.1749999999999998
 74
0
  0
LTYPE
  5
43
100
AcDbSymbolTableRecord
100
AcDbLinetypeTableRecord
  2
HIDDEN2
 70
0
  3
Hidden (.5x) _ _ _ _ _ _ _ _ _ _ _ _ _ _ _ _ _ 
 72
65
 73
2
 40
4.7624999999999993
 49
3.1749999999999998
 74
0
 49
-1.5874999999999999
 74
0
  0
LTYPE
  5
44
100
AcDbSymbolTableRecord
100
AcDbLinetypeTableRecord
  2
PHANTOM
 70
0
  3
Phantom ______  __  __  ______  __  __  ______ 
 72
65
 73
6
 40
63.5000000000000071
 49
31.75
 74
0
 49
-6.3499999999999996
 74
0
 49
6.3499999999999996
 74
0
 49
-6.3499999999999996
 74
0
 49
6.3499999999999996
 74
0
 49
-6.3499999999999996
 74
0
  0
LTYPE
  5
45
100
AcDbSymbolTableRecord
100
AcDbLinetypeTableRecord
  2
ACAD_ISO11W100
 70
0
  3
ISO double-dash dot __ __ . __ __ . __ __ . __ _
 72
65
 73
6
 40
33.0
 49
12.0
 74
0
 49
-3.0
 74
0
 49
12.0
 74
0
 49
-3.0
 74
0
 49
0.0
 74
0
 49
-3.0
 74
0
  0
LTYPE
  5
46
100
AcDbSymbolTableRecord
100
AcDbLinetypeTableRecord
  2
PHANTOMX2
 70
0
  3
Phantom (2x) ____________    ____    ____   _
 72
65
 73
6
 40
127.0000000000000142
 49
63.5
 74
0
 49
-12.6999999999999993
 74
0
 49
12.6999999999999993
 74
0
 49
-12.6999999999999993
 74
0
 49
12.6999999999999993
 74
0
 49
-12.6999999999999993
 74
0
  0
LTYPE
  5
47
100
AcDbSymbolTableRecord
100
AcDbLinetypeTableRecord
  2
DIVIDE
 70
0
  3
Divide ____ . . ____ . . ____ . . ____ . . ____
 72
65
 73
6
 40
31.75
 49
12.6999999999999993
 74
0
 49
-6.3499999999999996
 74
0
 49
0.0
 74
0
 49
-6.3499999999999996
 74
0
 49
0.0
 74
0
 49
-6.3499999999999996
 74
0
  0
LTYPE
  5
48
100
AcDbSymbolTableRecord
100
AcDbLinetypeTableRecord
  2
BORDERX2
 70
0
  3
Border (2x) ____  ____  .  ____  ____  .  ___
 72
65
 73
6
 40
88.8999999999999915
 49
25.3999999999999986
 74
0
 49
-12.6999999999999993
 74
0
 49
25.3999999999999986
 74
0
 49
-12.6999999999999993
 74
0
 49
0.0
 74
0
 49
-12.6999999999999993
 74
0
  0
LTYPE
  5
49
100
AcDbSymbolTableRecord
100
AcDbLinetypeTableRecord
  2
ACAD_ISO08W100
 70
0
  3
ISO long-dash short-dash ____ __ ____ __ ____ _
 72
65
 73
4
 40
36.0
 49
24.0
 74
0
 49
-3.0
 74
0
 49
6.0
 74
0
 49
-3.0
 74
0
  0
LTYPE
  5
4A
100
AcDbSymbolTableRecord
100
AcDbLinetypeTableRecord
  2
DIVIDEX2
 70
0
  3
Divide (2x) ________  .  .  ________  .  .  _
 72
65
 73
6
 40
63.5
 49
25.3999999999999986
 74
0
 49
-12.6999999999999993
 74
0
 49
0.0
 74
0
 49
-12.6999999999999993
 74
0
 49
0.0
 74
0
 49
-12.6999999999999993
 74
0
  0
LTYPE
  5
15
100
AcDbSymbolTableRecord
100
AcDbLinetypeTableRecord
  2
BYLAYER
 70
0
  3

 72
65
 73
0
 40
0.0
  0
LTYPE
  5
4B
100
AcDbSymbolTableRecord
100
AcDbLinetypeTableRecord
  2
ACAD_ISO14W100
 70
0
  3
ISO dash triple-dot __ . . . __ . . . __ . . . _
 72
65
 73
8
 40
24.0
 49
12.0
 74
0
 49
-3.0
 74
0
 49
0.0
 74
0
 49
-3.0
 74
0
 49
0.0
 74
0
 49
-3.0
 74
0
 49
0.0
 74
0
 49
-3.0
 74
0
  0
LTYPE
  5
4C
100
AcDbSymbolTableRecord
100
AcDbLinetypeTableRecord
  2
CENTERX2
 70
0
  3
Center (2x) ________  __  ________  __  _____
 72
65
 73
4
 40
101.6000000000000085
 49
63.5
 74
0
 49
-12.6999999999999993
 74
0
 49
12.6999999999999993
 74
0
 49
-12.6999999999999993
 74
0
  0
LTYPE
  5
4D
100
AcDbSymbolTableRecord
100
AcDbLinetypeTableRecord
  2
BORDER2
 70
0
  3
Border (.5x) __.__.__.__.__.__.__.__.__.__.__.
 72
65
 73
6
 40
22.2249999999999979
 49
6.3499999999999996
 74
0
 49
-3.1749999999999998
 74
0
 49
6.3499999999999996
 74
0
 49
-3.1749999999999998
 74
0
 49
0.0
 74
0
 49
-3.1749999999999998
 74
0
  0
LTYPE
  5
4E
100
AcDbSymbolTableRecord
100
AcDbLinetypeTableRecord
  2
BORDER
 70
0
  3
Border __ __ . __ __ . __ __ . __ __ . __ __ .
 72
65
 73
6
 40
44.4499999999999957
 49
12.6999999999999993
 74
0
 49
-6.3499999999999996
 74
0
 49
12.6999999999999993
 74
0
 49
-6.3499999999999996
 74
0
 49
0.0
 74
0
 49
-6.3499999999999996
 74
0
  0
LTYPE
  5
4F
100
AcDbSymbolTableRecord
100
AcDbLinetypeTableRecord
  2
ACAD_ISO04W100
 70
0
  3
ISO long-dash dot ____ . ____ . ____ . ____ . _
 72
65
 73
4
 40
30.0
 49
24.0
 74
0
 49
-3.0
 74
0
 49
0.0
 74
0
 49
-3.0
 74
0
  0
LTYPE
  5
50
100
AcDbSymbolTableRecord
100
AcDbLinetypeTableRecord
  2
ACAD_ISO10W100
 70
0
  3
ISO dash dot __ . __ . __ . __ . __ . __ . __ . 
 72
65
 73
4
 40
18.0
 49
12.0
 74
0
 49
-3.0
 74
0
 49
0.0
 74
0
 49
-3.0
 74
0
  0
LTYPE
  5
51
100
AcDbSymbolTableRecord
100
AcDbLinetypeTableRecord
  2
DASHDOT
 70
0
  3
Dash dot __ . __ . __ . __ . __ . __ . __ . __
 72
65
 73
4
 40
25.3999999999999986
 49
12.6999999999999993
 74
0
 49
-6.3499999999999996
 74
0
 49
0.0
 74
0
 49
-6.3499999999999996
 74
0
  0
LTYPE
  5
52
100
AcDbSymbolTableRecord
100
AcDbLinetypeTableRecord
  2
DIVIDE2
 70
0
  3
Divide (.5x) __..__..__..__..__..__..__..__.._
 72
65
 73
6
 40
15.875
 49
6.3499999999999996
 74
0
 49
-3.1749999999999998
 74
0
 49
0.0
 74
0
 49
-3.1749999999999998
 74
0
 49
0.0
 74
0
 49
-3.1749999999999998
 74
0
  0
LTYPE
  5
53
100
AcDbSymbolTableRecord
100
AcDbLinetypeTableRecord
  2
HIDDENX2
 70
0
  3
Hidden (2x) ____ ____ ____ ____ ____ ____ ____ 
 72
65
 73
2
 40
19.0499999999999972
 49
12.6999999999999993
 74
0
 49
-6.3499999999999996
 74
0
  0
LTYPE
  5
54
100
AcDbSymbolTableRecord
100
AcDbLinetypeTableRecord
  2
PHANTOM2
 70
0
  3
Phantom (.5x) ___ _ _ ___ _ _ ___ _ _ ___ _ _
 72
65
 73
6
 40
31.7500000000000036
 49
15.875
 74
0
 49
-3.1749999999999998
 74
0
 49
3.1749999999999998
 74
0
 49
-3.1749999999999998
 74
0
 49
3.1749999999999998
 74
0
 49
-3.1749999999999998
 74
0
  0
LTYPE
  5
55
100
AcDbSymbolTableRecord
100
AcDbLinetypeTableRecord
  2
ACAD_ISO03W100
 70
0
  3
ISO dash space __    __    __    __    __    __
 72
65
 73
2
 40
30.0
 49
12.0
 74
0
 49
-18.0
 74
0
  0
LTYPE
  5
56
100
AcDbSymbolTableRecord
100
AcDbLinetypeTableRecord
  2
ACAD_ISO09W100
 70
0
  3
ISO long-dash double-short-dash ____ __ __ ____
 72
65
 73
6
 40
45.0
 49
24.0
 74
0
 49
-3.0
 74
0
 49
6.0
 74
0
 49
-3.0
 74
0
 49
6.0
 74
0
 49
-3.0
 74
0
  0
ENDTAB
  0
TABLE
  2
LAYER
  5
2
100
AcDbSymbolTable
 70
1
  0
LAYER
  5
10
100
AcDbSymbolTableRecord
100
AcDbLayerTableRecord
  2
0
 70
0
 62
7
420
0
  6
Continuous
370
25
390
F
  0
ENDTAB
  0
TABLE
  2
STYLE
  5
3
100
AcDbSymbolTable
 70
17
  0
STYLE
  5
57
100
AcDbSymbolTableRecord
100
AcDbTextStyleTableRecord
  2
Standard
 70
0
 40
0.0
 41
1.0
 50
0.0
 71
0
 42
2.5
  3

  4

1001
ACAD
1000
txt
1071
0
  0
STYLE
  5
58
100
AcDbSymbolTableRecord
100
AcDbTextStyleTableRecord
  2
textstyle0
 70
0
 40
0.0
 41
1.0
 50
0.0
 71
0
 42
1.0
  3

  4

1001
ACAD
1000
HelveticaNeueLT Std Lt
1071
0
  0
STYLE
  5
59
100
AcDbSymbolTableRecord
100
AcDbTextStyleTableRecord
  2
textstyle1
 70
0
 40
0.0
 41
1.0
 50
0.0
 71
0
 42
1.0
  3

  4

1001
ACAD
1000
HelveticaNeueLT Std Lt
1071
0
  0
STYLE
  5
5A
100
AcDbSymbolTableRecord
100
AcDbTextStyleTableRecord
  2
textstyle2
 70
0
 40
0.0
 41
1.0
 50
0.0
 71
0
 42
1.0
  3

  4

1001
ACAD
1000
HelveticaNeueLT Std Lt
1071
0
  0
STYLE
  5
5B
100
AcDbSymbolTableRecord
100
AcDbTextStyleTableRecord
  2
textstyle3
 70
0
 40
0.0
 41
1.0
 50
0.0
 71
0
 42
1.0
  3

  4

1001
ACAD
1000
HelveticaNeueLT Std Lt
1071
0
  0
STYLE
  5
5C
100
AcDbSymbolTableRecord
100
AcDbTextStyleTableRecord
  2
textstyle4
 70
0
 40
0.0
 41
1.0
 50
0.0
 71
0
 42
1.0
  3

  4

1001
ACAD
1000
HelveticaNeueLT Std Lt
1071
0
  0
STYLE
  5
5D
100
AcDbSymbolTableRecord
100
AcDbTextStyleTableRecord
  2
textstyle5
 70
0
 40
0.0
 41
1.0
 50
0.0
 71
0
 42
1.0
  3

  4

1001
ACAD
1000
HelveticaNeueLT Std Lt
1071
0
  0
STYLE
  5
5E
100
AcDbSymbolTableRecord
100
AcDbTextStyleTableRecord
  2
textstyle6
 70
0
 40
0.0
 41
1.0
 50
0.0
 71
0
 42
1.0
  3

  4

1001
ACAD
1000
HelveticaNeueLT Std Lt
1071
0
  0
STYLE
  5
5F
100
AcDbSymbolTableRecord
100
AcDbTextStyleTableRecord
  2
textstyle7
 70
0
 40
0.0
 41
1.0
 50
0.0
 71
0
 42
1.0
  3

  4

1001
ACAD
1000
HelveticaNeueLT Std Lt
1071
0
  0
STYLE
  5
60
100
AcDbSymbolTableRecord
100
AcDbTextStyleTableRecord
  2
textstyle8
 70
0
 40
0.0
 41
1.0
 50
0.0
 71
0
 42
1.0
  3

  4

1001
ACAD
1000
HelveticaNeueLT Std Lt
1071
0
  0
STYLE
  5
61
100
AcDbSymbolTableRecord
100
AcDbTextStyleTableRecord
  2
textstyle9
 70
0
 40
0.0
 41
1.0
 50
0.0
 71
0
 42
1.0
  3

  4

1001
ACAD
1000
HelveticaNeueLT Std Lt
1071
0
  0
STYLE
  5
62
100
AcDbSymbolTableRecord
100
AcDbTextStyleTableRecord
  2
textstyle10
 70
0
 40
0.0
 41
1.0
 50
0.0
 71
0
 42
1.0
  3

  4

1001
ACAD
1000
HelveticaNeueLT Std Lt
1071
0
  0
STYLE
  5
63
100
AcDbSymbolTableRecord
100
AcDbTextStyleTableRecord
  2
textstyle11
 70
0
 40
0.0
 41
1.0
 50
0.0
 71
0
 42
1.0
  3

  4

1001
ACAD
1000
HelveticaNeueLT Std Lt
1071
0
  0
STYLE
  5
64
100
AcDbSymbolTableRecord
100
AcDbTextStyleTableRecord
  2
textstyle12
 70
0
 40
0.0
 41
1.0
 50
0.0
 71
0
 42
1.0
  3

  4

1001
ACAD
1000
HelveticaNeueLT Std Lt
1071
0
  0
STYLE
  5
65
100
AcDbSymbolTableRecord
100
AcDbTextStyleTableRecord
  2
textstyle13
 70
0
 40
0.0
 41
1.0
 50
0.0
 71
0
 42
1.0
  3

  4

1001
ACAD
1000
HelveticaNeueLT Std Lt
1071
0
  0
STYLE
  5
66
100
AcDbSymbolTableRecord
100
AcDbTextStyleTableRecord
  2
textstyle14
 70
0
 40
0.0
 41
1.0
 50
0.0
 71
0
 42
1.0
  3

  4

1001
ACAD
1000
HelveticaNeueLT Std Lt
1071
0
  0
STYLE
  5
67
100
AcDbSymbolTableRecord
100
AcDbTextStyleTableRecord
  2
textstyle15
 70
0
 40
0.0
 41
1.0
 50
0.0
 71
0
 42
1.0
  3

  4

1001
ACAD
1000
HelveticaNeueLT Std Lt
1071
0
  0
ENDTAB
  0
TABLE
  2
VIEW
  5
6
100
AcDbSymbolTable
 70
0
  0
ENDTAB
  0
TABLE
  2
UCS
  5
7
100
AcDbSymbolTable
 70
0
  0
ENDTAB
  0
TABLE
  2
APPID
  5
9
100
AcDbSymbolTable
 70
1
  0
APPID
  5
12
100
AcDbSymbolTableRecord
100
AcDbRegAppTableRecord
  2
ACAD
 70
0
  0
APPID
  5
68
100
AcDbSymbolTableRecord
100
AcDbRegAppTableRecord
  2
QCAD
 70
0
  0
ENDTAB
  0
TABLE
  2
DIMSTYLE
  5
A
100
AcDbSymbolTable
 70
1
100
AcDbDimStyleTable
 71
0
  0
DIMSTYLE
105
27
100
AcDbSymbolTableRecord
100
AcDbDimStyleTableRecord
  2
Standard
 41
2.5
 42
0.625
 43
3.75
 44
1.25
 70
0
 73
0
 74
0
 77
1
 78
8
140
2.5
141
2.5
143
0.03937007874016
147
0.625
171
3
172
1
271
2
272
2
274
3
278
44
283
0
284
8
340
57
  0
ENDTAB
  0
TABLE
  2
BLOCK_RECORD
  5
1
100
AcDbSymbolTable
 70
1
  0
BLOCK_RECORD
  5
1F
100
AcDbSymbolTableRecord
100
AcDbBlockTableRecord
  2
*Model_Space
340
22
  0
BLOCK_RECORD
  5
1B
100
AcDbSymbolTableRecord
100
AcDbBlockTableRecord
  2
*Paper_Space
340
1E
  0
BLOCK_RECORD
  5
23
100
AcDbSymbolTableRecord
100
AcDbBlockTableRecord
  2
*Paper_Space0
340
26
  0
ENDTAB
  0
ENDSEC
  0
SECTION
  2
BLOCKS
  0
BLOCK
  5
20
100
AcDbEntity
  8
0
100
AcDbBlockBegin
  2
*Model_Space
 70
0
 10
0.0
 20
0.0
 30
0.0
  3
*Model_Space
  1

  0
ENDBLK
  5
21
100
AcDbEntity
  8
0
100
AcDbBlockEnd
  0
BLOCK
  5
1C
100
AcDbEntity
 67
1
  8
0
100
AcDbBlockBegin
  2
*Paper_Space
 70
0
 10
0.0
 20
0.0
 30
0.0
  3
*Paper_Space
  1

  0
ENDBLK
  5
1D
100
AcDbEntity
 67
1
  8
0
100
AcDbBlockEnd
  0
BLOCK
  5
24
100
AcDbEntity
  8
0
100
AcDbBlockBegin
  2
*Paper_Space0
 70
0
 10
0.0
 20
0.0
 30
0.0
  3
*Paper_Space0
  1

  0
ENDBLK
  5
25
100
AcDbEntity
  8
0
100
AcDbBlockEnd
  0
ENDSEC
  0
SECTION
  2
ENTITIES
  0
LINE
  5
69
100
AcDbEntity
  8
0
 62
13
420
11031872
370
-1
 48
1.0
  6
BYLAYER
100
AcDbLine
 10
143.755772287999946
 20
230.9543018239998275
 30
0.0
 11
143.755772287999946
 21
243.4543018239998275
 31
0.0
  0
LINE
  5
6A
100
AcDbEntity
  8
0
 62
13
420
11031872
370
-1
 48
1.0
  6
BYLAYER
100
AcDbLine
 10
113.3429722879999417
 20
230.9543018239998275
 30
0.0
 11
113.3429722879999417
 21
243.4543018239998275
 31
0.0
  0
LINE
  5
6B
100
AcDbEntity
  8
0
 62
13
420
11031872
370
-1
 48
1.0
  6
BYLAYER
100
AcDbLine
 10
53.5541722879999611
 20
200.3687018239998281
 30
0.0
 11
53.5541722879999611
 21
212.8687018239998281
 31
0.0
  0
LINE
  5
6C
100
AcDbEntity
  8
0
 62
13
420
11031872
370
-1
 48
1.0
  6
BYLAYER
100
AcDbLine
 10
22.6229722879999713
 20
200.5415018239998233
 30
0.0
 11
22.6229722879999713
 21
213.0415018239998233
 31
0.0
  0
LINE
  5
6D
100
AcDbEntity
  8
0
 62
13
420
11031872
370
-1
 48
1.0
  6
BYLAYER
100
AcDbLine
 10
174.341372287999917
 20
230.7815018239998039
 30
0.0
 11
174.341372287999917
 21
243.2815018239998039
 31
0.0
  0
LINE
  5
6E
100
AcDbEntity
  8
0
 62
13
420
11031872
370
-1
 48
1.0
  6
BYLAYER
100
AcDbLine
 10
144.2741722879999315
 20
199.8503018239998141
 30
0.0
 11
144.2741722879999315
 21
212.3503018239998141
 31
0.0
  0
LINE
  5
6F
100
AcDbEntity
  8
0
 62
13
420
11031872
370
-1
 48
1.0
  6
BYLAYER
100
AcDbLine
 10
114.5525722879999506
 20
199.8503018239998141
 30
0.0
 11
114.5525722879999506
 21
212.3503018239998141
 31
0.0
  0
LINE
  5
70
100
AcDbEntity
  8
0
 62
13
420
11031872
370
-1
 48
1.0
  6
BYLAYER
100
AcDbLine
 10
84.1397722879999463
 20
199.8503018239998141
 30
0.0
 11
84.1397722879999463
 21
212.3503018239998141
 31
0.0
  0
LINE
  5
71
100
AcDbEntity
  8
0
 62
13
420
11031872
370
-1
 48
1.0
  6
BYLAYER
100
AcDbLine
 10
175.0325722879999262
 20
199.8503018239998141
 30
0.0
 11
175.0325722879999262
 21
212.3503018239998141
 31
0.0
  0
LINE
  5
72
100
AcDbEntity
  8
0
 62
13
420
11031872
370
-1
 48
1.0
  6
BYLAYER
100
AcDbLine
 10
22.5426449835193026
 20
261.516466485015826
 30
0.0
 11
22.5426449835193026
 21
274.016466485015826
 31
0.0
  0
LINE
  5
73
100
AcDbEntity
  8
0
 62
13
420
11031872
370
-1
 48
1.0
  6
BYLAYER
100
AcDbLine
 10
82.7573722879999423
 20
261.1943018239998082
 30
0.0
 11
82.7573722879999423
 21
273.6943018239998082
 31
0.0
  0
LINE
  5
74
100
AcDbEntity
  8
0
 62
13
420
11031872
370
-1
 48
1.0
  6
BYLAYER
100
AcDbLine
 10
52.6901722879999568
 20
261.1943018239998082
 30
0.0
 11
52.6901722879999568
 21
273.6943018239998082
 31
0.0
  0
LINE
  5
75
100
AcDbEntity
  8
0
 62
13
420
11031872
370
-1
 48
1.0
  6
BYLAYER
100
AcDbLine
 10
173.4773722879999411
 20
261.3671018239998034
 30
0.0
 11
173.4773722879999411
 21
273.8671018239998034
 31
0.0
  0
LINE
  5
76
100
AcDbEntity
  8
0
 62
13
420
11031872
370
-1
 48
1.0
  6
BYLAYER
100
AcDbLine
 10
143.0645722879999369
 20
261.3671018239998034
 30
0.0
 11
143.0645722879999369
 21
273.8671018239998034
 31
0.0
  0
LINE
  5
77
100
AcDbEntity
  8
0
 62
13
420
11031872
370
-1
 48
1.0
  6
BYLAYER
100
AcDbLine
 10
112.8245722879999562
 20
261.3671018239998034
 30
0.0
 11
112.8245722879999562
 21
273.8671018239998034
 31
0.0
  0
LINE
  5
78
100
AcDbEntity
  8
0
 62
13
420
11031872
370
-1
 48
1.0
  6
BYLAYER
100
AcDbLine
 10
82.5845722879999471
 20
231.1271018239998227
 30
0.0
 11
82.5845722879999471
 21
243.6271018239998227
 31
0.0
  0
LINE
  5
79
100
AcDbEntity
  8
0
 62
13
420
11031872
370
-1
 48
1.0
  6
BYLAYER
100
AcDbLine
 10
52.6901722879999639
 20
231.1271018239998227
 30
0.0
 11
52.6901722879999639
 21
243.6271018239998227
 31
0.0
  0
LINE
  5
7A
100
AcDbEntity
  8
0
 62
13
420
11031872
370
-1
 48
1.0
  6
BYLAYER
100
AcDbLine
 10
22.6229722879999713
 20
230.9543018239998275
 30
0.0
 11
22.6229722879999713
 21
243.4543018239998275
 31
0.0
  0
LINE
  5
7B
100
AcDbEntity
  8
0
 62
13
420
11031872
370
-1
 48
1.0
  6
BYLAYER
100
AcDbLine
 10
143.755772287999946
 20
243.4543018239998275
 30
0.0
 11
156.255772287999946
 21
243.4543018239998275
 31
0.0
  0
LINE
  5
7C
100
AcDbEntity
  8
0
 62
13
420
11031872
370
-1
 48
1.0
  6
BYLAYER
100
AcDbLine
 10
113.3429722879999417
 20
243.4543018239998275
 30
0.0
 11
125.8429722879999417
 21
243.4543018239998275
 31
0.0
  0
LINE
  5
7D
100
AcDbEntity
  8
0
 62
13
420
11031872
370
-1
 48
1.0
  6
BYLAYER
100
AcDbLine
 10
53.5541722879999611
 20
212.8687018239998281
 30
0.0
 11
66.0541722879999611
 21
212.8687018239998281
 31
0.0
  0
LINE
  5
7E
100
AcDbEntity
  8
0
 62
13
420
11031872
370
-1
 48
1.0
  6
BYLAYER
100
AcDbLine
 10
22.6229722879999713
 20
213.0415018239998233
 30
0.0
 11
35.1229722879999713
 21
213.0415018239998233
 31
0.0
  0
LINE
  5
7F
100
AcDbEntity
  8
0
 62
13
420
11031872
370
-1
 48
1.0
  6
BYLAYER
100
AcDbLine
 10
174.341372287999917
 20
243.2815018239998039
 30
0.0
 11
186.841372287999917
 21
243.2815018239998039
 31
0.0
  0
LINE
  5
80
100
AcDbEntity
  8
0
 62
13
420
11031872
370
-1
 48
1.0
  6
BYLAYER
100
AcDbLine
 10
144.2741722879999315
 20
212.3503018239998141
 30
0.0
 11
156.7741722879999315
 21
212.3503018239998141
 31
0.0
  0
LINE
  5
81
100
AcDbEntity
  8
0
 62
13
420
11031872
370
-1
 48
1.0
  6
BYLAYER
100
AcDbLine
 10
114.5525722879999506
 20
212.3503018239998141
 30
0.0
 11
127.0525722879999506
 21
212.3503018239998141
 31
0.0
  0
LINE
  5
82
100
AcDbEntity
  8
0
 62
13
420
11031872
370
-1
 48
1.0
  6
BYLAYER
100
AcDbLine
 10
84.1397722879999463
 20
212.3503018239998141
 30
0.0
 11
96.6397722879999463
 21
212.3503018239998141
 31
0.0
  0
LINE
  5
83
100
AcDbEntity
  8
0
 62
13
420
11031872
370
-1
 48
1.0
  6
BYLAYER
100
AcDbLine
 10
175.0325722879999262
 20
212.3503018239998141
 30
0.0
 11
187.5325722879999262
 21
212.3503018239998141
 31
0.0
  0
LINE
  5
84
100
AcDbEntity
  8
0
 62
13
420
11031872
370
-1
 48
1.0
  6
BYLAYER
100
AcDbLine
 10
22.5426449835193026
 20
274.016466485015826
 30
0.0
 11
35.0426449835193026
 21
274.016466485015826
 31
0.0
  0
LINE
  5
85
100
AcDbEntity
  8
0
 62
13
420
11031872
370
-1
 48
1.0
  6
BYLAYER
100
AcDbLine
 10
82.7573722879999423
 20
273.6943018239998082
 30
0.0
 11
95.2573722879999423
 21
273.6943018239998082
 31
0.0
  0
LINE
  5
86
100
AcDbEntity
  8
0
 62
13
420
11031872
370
-1
 48
1.0
  6
BYLAYER
100
AcDbLine
 10
52.6901722879999568
 20
273.6943018239998082
 30
0.0
 11
65.1901722879999568
 21
273.6943018239998082
 31
0.0
  0
LINE
  5
87
100
AcDbEntity
  8
0
 62
13
420
11031872
370
-1
 48
1.0
  6
BYLAYER
100
AcDbLine
 10
173.4773722879999411
 20
273.8671018239998034
 30
0.0
 11
185.9773722879999411
 21
273.8671018239998034
 31
0.0
  0
LINE
  5
88
100
AcDbEntity
  8
0
 62
13
420
11031872
370
-1
 48
1.0
  6
BYLAYER
100
AcDbLine
 10
143.0645722879999369
 20
273.8671018239998034
 30
0.0
 11
155.5645722879999369
 21
273.8671018239998034
 31
0.0
  0
LINE
  5
89
100
AcDbEntity
  8
0
 62
13
420
11031872
370
-1
 48
1.0
  6
BYLAYER
100
AcDbLine
 10
112.8245722879999562
 20
273.8671018239998034
 30
0.0
 11
125.3245722879999562
 21
273.8671018239998034
 31
0.0
  0
LINE
  5
8A
100
AcDbEntity
  8
0
 62
13
420
11031872
370
-1
 48
1.0
  6
BYLAYER
100
AcDbLine
 10
82.5845722879999471
 20
243.6271018239998227
 30
0.0
 11
95.0845722879999471
 21
243.6271018239998227
 31
0.0
  0
LINE
  5
8B
100
AcDbEntity
  8
0
 62
13
420
11031872
370
-1
 48
1.0
  6
BYLAYER
100
AcDbLine
 10
52.6901722879999639
 20
243.6271018239998227
 30
0.0
 11
65.1901722879999568
 21
243.6271018239998227
 31
0.0
  0
LINE
  5
8C
100
AcDbEntity
  8
0
 62
13
420
11031872
370
-1
 48
1.0
  6
BYLAYER
100
AcDbLine
 10
22.6229722879999713
 20
243.4543018239998275
 30
0.0
 11
35.1229722879999713
 21
243.4543018239998275
 31
0.0
  0
LINE
  5
8D
100
AcDbEntity
  8
0
 62
13
420
11031872
370
-1
 48
1.0
  6
BYLAYER
100
AcDbLine
 10
156.255772287999946
 20
243.4543018239998275
 30
0.0
 11
156.255772287999946
 21
230.9543018239998275
 31
0.0
  0
LINE
  5
8E
100
AcDbEntity
  8
0
 62
13
420
11031872
370
-1
 48
1.0
  6
BYLAYER
100
AcDbLine
 10
125.8429722879999417
 20
243.4543018239998275
 30
0.0
 11
125.8429722879999417
 21
230.9543018239998275
 31
0.0
  0
LINE
  5
8F
100
AcDbEntity
  8
0
 62
13
420
11031872
370
-1
 48
1.0
  6
BYLAYER
100
AcDbLine
 10
66.0541722879999611
 20
212.8687018239998281
 30
0.0
 11
66.0541722879999611
 21
200.3687018239998281
 31
0.0
  0
LINE
  5
90
100
AcDbEntity
  8
0
 62
13
420
11031872
370
-1
 48
1.0
  6
BYLAYER
100
AcDbLine
 10
35.1229722879999713
 20
213.0415018239998233
 30
0.0
 11
35.1229722879999713
 21
200.5415018239998233
 31
0.0
  0
LINE
  5
91
100
AcDbEntity
  8
0
 62
13
420
11031872
370
-1
 48
1.0
  6
BYLAYER
100
AcDbLine
 10
186.841372287999917
 20
243.2815018239998039
 30
0.0
 11
186.841372287999917
 21
230.7815018239998039
 31
0.0
  0
LINE
  5
92
100
AcDbEntity
  8
0
 62
13
420
11031872
370
-1
 48
1.0
  6
BYLAYER
100
AcDbLine
 10
156.7741722879999315
 20
212.3503018239998141
 30
0.0
 11
156.7741722879999315
 21
199.8503018239998141
 31
0.0
  0
LINE
  5
93
100
AcDbEntity
  8
0
 62
13
420
11031872
370
-1
 48
1.0
  6
BYLAYER
100
AcDbLine
 10
127.0525722879999506
 20
212.3503018239998141
 30
0.0
 11
127.0525722879999506
 21
199.8503018239998141
 31
0.0
  0
LINE
  5
94
100
AcDbEntity
  8
0
 62
13
420
11031872
370
-1
 48
1.0
  6
BYLAYER
100
AcDbLine
 10
96.6397722879999463
 20
212.3503018239998141
 30
0.0
 11
96.6397722879999463
 21
199.8503018239998141
 31
0.0
  0
LINE
  5
95
100
AcDbEntity
  8
0
 62
13
420
11031872
370
-1
 48
1.0
  6
BYLAYER
100
AcDbLine
 10
187.5325722879999262
 20
212.3503018239998141
 30
0.0
 11
187.5325722879999262
 21
199.8503018239998141
 31
0.0
  0
LINE
  5
96
100
AcDbEntity
  8
0
 62
13
420
11031872
370
-1
 48
1.0
  6
BYLAYER
100
AcDbLine
 10
35.0426449835193026
 20
274.016466485015826
 30
0.0
 11
35.0426449835193026
 21
261.516466485015826
 31
0.0
  0
LINE
  5
97
100
AcDbEntity
  8
0
 62
13
420
11031872
370
-1
 48
1.0
  6
BYLAYER
100
AcDbLine
 10
95.2573722879999423
 20
273.6943018239998082
 30
0.0
 11
95.2573722879999423
 21
261.1943018239998082
 31
0.0
  0
LINE
  5
98
100
AcDbEntity
  8
0
 62
13
420
11031872
370
-1
 48
1.0
  6
BYLAYER
100
AcDbLine
 10
65.1901722879999568
 20
273.6943018239998082
 30
0.0
 11
65.1901722879999568
 21
261.1943018239998082
 31
0.0
  0
LINE
  5
99
100
AcDbEntity
  8
0
 62
13
420
11031872
370
-1
 48
1.0
  6
BYLAYER
100
AcDbLine
 10
185.9773722879999411
 20
273.8671018239998034
 30
0.0
 11
185.9773722879999411
 21
261.3671018239998034
 31
0.0
  0
LINE
  5
9A
100
AcDbEntity
  8
0
 62
13
420
11031872
370
-1
 48
1.0
  6
BYLAYER
100
AcDbLine
 10
155.5645722879999369
 20
273.8671018239998034
 30
0.0
 11
155.5645722879999369
 21
261.3671018239998034
 31
0.0
  0
LINE
  5
9B
100
AcDbEntity
  8
0
 62
13
420
11031872
370
-1
 48
1.0
  6
BYLAYER
100
AcDbLine
 10
125.3245722879999562
 20
273.8671018239998034
 30
0.0
 11
125.3245722879999562
 21
261.3671018239998034
 31
0.0
  0
LINE
  5
9C
100
AcDbEntity
  8
0
 62
13
420
11031872
370
-1
 48
1.0
  6
BYLAYER
100
AcDbLine
 10
95.0845722879999471
 20
243.6271018239998227
 30
0.0
 11
95.0845722879999471
 21
231.1271018239998227
 31
0.0
  0
LINE
  5
9D
100
AcDbEntity
  8
0
 62
13
420
11031872
370
-1
 48
1.0
  6
BYLAYER
100
AcDbLine
 10
65.1901722879999568
 20
243.6271018239998227
 30
0.0
 11
65.1901722879999568
 21
231.1271018239998227
 31
0.0
  0
LINE
  5
9E
100
AcDbEntity
  8
0
 62
13
420
11031872
370
-1
 48
1.0
  6
BYLAYER
100
AcDbLine
 10
35.1229722879999713
 20
243.4543018239998275
 30
0.0
 11
35.1229722879999713
 21
230.9543018239998275
 31
0.0
  0
LINE
  5
9F
100
AcDbEntity
  8
0
 62
13
420
11031872
370
-1
 48
1.0
  6
BYLAYER
100
AcDbLine
 10
156.255772287999946
 20
230.9543018239998275
 30
0.0
 11
143.755772287999946
 21
230.9543018239998275
 31
0.0
  0
LINE
  5
A0
100
AcDbEntity
  8
0
 62
13
420
11031872
370
-1
 48
1.0
  6
BYLAYER
100
AcDbLine
 10
125.8429722879999417
 20
230.9543018239998275
 30
0.0
 11
113.3429722879999417
 21
230.9543018239998275
 31
0.0
  0
LINE
  5
A1
100
AcDbEntity
  8
0
 62
13
420
11031872
370
-1
 48
1.0
  6
BYLAYER
100
AcDbLine
 10
66.0541722879999611
 20
200.3687018239998281
 30
0.0
 11
53.5541722879999611
 21
200.3687018239998281
 31
0.0
  0
LINE
  5
A2
100
AcDbEntity
  8
0
 62
13
420
11031872
370
-1
 48
1.0
  6
BYLAYER
100
AcDbLine
 10
35.1229722879999713
 20
200.5415018239998233
 30
0.0
 11
22.6229722879999713
 21
200.5415018239998233
 31
0.0
  0
LINE
  5
A3
100
AcDbEntity
  8
0
 62
13
420
11031872
370
-1
 48
1.0
  6
BYLAYER
100
AcDbLine
 10
186.841372287999917
 20
230.7815018239998039
 30
0.0
 11
174.341372287999917
 21
230.7815018239998039
 31
0.0
  0
LINE
  5
A4
100
AcDbEntity
  8
0
 62
13
420
11031872
370
-1
 48
1.0
  6
BYLAYER
100
AcDbLine
 10
156.7741722879999315
 20
199.8503018239998141
 30
0.0
 11
144.2741722879999315
 21
199.8503018239998141
 31
0.0
  0
LINE
  5
A5
100
AcDbEntity
  8
0
 62
13
420
11031872
370
-1
 48
1.0
  6
BYLAYER
100
AcDbLine
 10
127.0525722879999506
 20
199.8503018239998141
 30
0.0
 11
114.5525722879999506
 21
199.8503018239998141
 31
0.0
  0
LINE
  5
A6
100
AcDbEntity
  8
0
 62
13
420
11031872
370
-1
 48
1.0
  6
BYLAYER
100
AcDbLine
 10
96.6397722879999463
 20
199.8503018239998141
 30
0.0
 11
84.1397722879999463
 21
199.8503018239998141
 31
0.0
  0
LINE
  5
A7
100
AcDbEntity
  8
0
 62
13
420
11031872
370
-1
 48
1.0
  6
BYLAYER
100
AcDbLine
 10
187.5325722879999262
 20
199.8503018239998141
 30
0.0
 11
175.0325722879999262
 21
199.8503018239998141
 31
0.0
  0
LINE
  5
A8
100
AcDbEntity
  8
0
 62
13
420
11031872
370
-1
 48
1.0
  6
BYLAYER
100
AcDbLine
 10
35.0426449835193026
 20
261.516466485015826
 30
0.0
 11
22.5426449835193026
 21
261.516466485015826
 31
0.0
  0
LINE
  5
A9
100
AcDbEntity
  8
0
 62
13
420
11031872
370
-1
 48
1.0
  6
BYLAYER
100
AcDbLine
 10
95.2573722879999423
 20
261.1943018239998082
 30
0.0
 11
82.7573722879999423
 21
261.1943018239998082
 31
0.0
  0
LINE
  5
AA
100
AcDbEntity
  8
0
 62
13
420
11031872
370
-1
 48
1.0
  6
BYLAYER
100
AcDbLine
 10
65.1901722879999568
 20
261.1943018239998082
 30
0.0
 11
52.6901722879999568
 21
261.1943018239998082
 31
0.0
  0
LINE
  5
AB
100
AcDbEntity
  8
0
 62
13
420
11031872
370
-1
 48
1.0
  6
BYLAYER
100
AcDbLine
 10
185.9773722879999411
 20
261.3671018239998034
 30
0.0
 11
173.4773722879999411
 21
261.3671018239998034
 31
0.0
  0
LINE
  5
AC
100
AcDbEntity
  8
0
 62
13
420
11031872
370
-1
 48
1.0
  6
BYLAYER
100
AcDbLine
 10
155.5645722879999369
 20
261.3671018239998034
 30
0.0
 11
143.0645722879999369
 21
261.3671018239998034
 31
0.0
  0
LINE
  5
AD
100
AcDbEntity
  8
0
 62
13
420
11031872
370
-1
 48
1.0
  6
BYLAYER
100
AcDbLine
 10
125.3245722879999562
 20
261.3671018239998034
 30
0.0
 11
112.8245722879999562
 21
261.3671018239998034
 31
0.0
  0
LINE
  5
AE
100
AcDbEntity
  8
0
 62
13
420
11031872
370
-1
 48
1.0
  6
BYLAYER
100
AcDbLine
 10
95.0845722879999471
 20
231.1271018239998227
 30
0.0
 11
82.5845722879999471
 21
231.1271018239998227
 31
0.0
  0
LINE
  5
AF
100
AcDbEntity
  8
0
 62
13
420
11031872
370
-1
 48
1.0
  6
BYLAYER
100
AcDbLine
 10
65.1901722879999568
 20
231.1271018239998227
 30
0.0
 11
52.6901722879999639
 21
231.1271018239998227
 31
0.0
  0
LINE
  5
B0
100
AcDbEntity
  8
0
 62
13
420
11031872
370
-1
 48
1.0
  6
BYLAYER
100
AcDbLine
 10
35.1229722879999713
 20
230.9543018239998275
 30
0.0
 11
22.6229722879999713
 21
230.9543018239998275
 31
0.0
  0
LINE
  5
B1
100
AcDbEntity
  8
0
 62
13
420
11031872
370
-1
 48
1.0
  6
BYLAYER
100
AcDbLine
 10
135.8557722879999119
 20
228.3874362237598632
 30
0.0
 11
135.8557722879999403
 21
251.9043018239998162
 31
0.0
  0
LINE
  5
B2
100
AcDbEntity
  8
0
 62
13
420
11031872
370
-1
 48
1.0
  6
BYLAYER
100
AcDbLine
 10
105.4429722879999218
 20
228.3874362237598632
 30
0.0
 11
105.442972287999936
 21
251.9043018239998162
 31
0.0
  0
LINE
  5
B3
100
AcDbEntity
  8
0
 62
13
420
11031872
370
-1
 48
1.0
  6
BYLAYER
100
AcDbLine
 10
45.6541722879999412
 20
197.8018362237598637
 30
0.0
 11
45.6541722879999554
 21
221.3187018239998167
 31
0.0
  0
LINE
  5
B4
100
AcDbEntity
  8
0
 62
13
420
11031872
370
-1
 48
1.0
  6
BYLAYER
100
AcDbLine
 10
14.7229722879999514
 20
197.9746362237598589
 30
0.0
 11
14.7229722879999656
 21
221.4915018239998119
 31
0.0
  0
LINE
  5
B5
100
AcDbEntity
  8
0
 62
13
420
11031872
370
-1
 48
1.0
  6
BYLAYER
100
AcDbLine
 10
166.4413722879999114
 20
228.2146362237598396
 30
0.0
 11
166.4413722879999114
 21
251.7315018239997926
 31
0.0
  0
LINE
  5
B6
100
AcDbEntity
  8
0
 62
13
420
11031872
370
-1
 48
1.0
  6
BYLAYER
100
AcDbLine
 10
136.3741722879998974
 20
197.2834362237598498
 30
0.0
 11
136.3741722879999259
 21
220.8003018239998028
 31
0.0
  0
LINE
  5
B7
100
AcDbEntity
  8
0
 62
13
420
11031872
370
-1
 48
1.0
  6
BYLAYER
100
AcDbLine
 10
106.6525722879999307
 20
197.2834362237598498
 30
0.0
 11
106.6525722879999449
 21
220.8003018239998028
 31
0.0
  0
LINE
  5
B8
100
AcDbEntity
  8
0
 62
13
420
11031872
370
-1
 48
1.0
  6
BYLAYER
100
AcDbLine
 10
76.2397722879999264
 20
197.2834362237598498
 30
0.0
 11
76.2397722879999407
 21
220.8003018239998028
 31
0.0
  0
LINE
  5
B9
100
AcDbEntity
  8
0
 62
13
420
11031872
370
-1
 48
1.0
  6
BYLAYER
100
AcDbLine
 10
167.1325722879998921
 20
197.2834362237598498
 30
0.0
 11
167.1325722879999205
 21
220.8003018239998028
 31
0.0
  0
LINE
  5
BA
100
AcDbEntity
  8
0
 62
13
420
11031872
370
-1
 48
1.0
  6
BYLAYER
100
AcDbLine
 10
14.6426449835192827
 20
258.9496008847758617
 30
0.0
 11
14.6426449835192969
 21
282.4664664850158147
 31
0.0
  0
LINE
  5
BB
100
AcDbEntity
  8
0
 62
13
420
11031872
370
-1
 48
1.0
  6
BYLAYER
100
AcDbLine
 10
74.8573722879999224
 20
258.6274362237598439
 30
0.0
 11
74.8573722879999366
 21
282.1443018239997969
 31
0.0
  0
LINE
  5
BC
100
AcDbEntity
  8
0
 62
13
420
11031872
370
-1
 48
1.0
  6
BYLAYER
100
AcDbLine
 10
44.7901722879999369
 20
258.6274362237598439
 30
0.0
 11
44.7901722879999511
 21
282.1443018239997969
 31
0.0
  0
LINE
  5
BD
100
AcDbEntity
  8
0
 62
13
420
11031872
370
-1
 48
1.0
  6
BYLAYER
100
AcDbLine
 10
165.5773722879999355
 20
258.800236223759839
 30
0.0
 11
165.5773722879999355
 21
282.317101823999792
 31
0.0
  0
LINE
  5
BE
100
AcDbEntity
  8
0
 62
13
420
11031872
370
-1
 48
1.0
  6
BYLAYER
100
AcDbLine
 10
135.1645722879999312
 20
258.800236223759839
 30
0.0
 11
135.1645722879999312
 21
282.317101823999792
 31
0.0
  0
LINE
  5
BF
100
AcDbEntity
  8
0
 62
13
420
11031872
370
-1
 48
1.0
  6
BYLAYER
100
AcDbLine
 10
104.9245722879999363
 20
258.800236223759839
 30
0.0
 11
104.9245722879999505
 21
282.317101823999792
 31
0.0
  0
LINE
  5
C0
100
AcDbEntity
  8
0
 62
13
420
11031872
370
-1
 48
1.0
  6
BYLAYER
100
AcDbLine
 10
74.6845722879999272
 20
228.5602362237598584
 30
0.0
 11
74.6845722879999414
 21
252.0771018239998114
 31
0.0
  0
LINE
  5
C1
100
AcDbEntity
  8
0
 62
13
420
11031872
370
-1
 48
1.0
  6
BYLAYER
100
AcDbLine
 10
44.790172287999944
 20
228.5602362237598584
 30
0.0
 11
44.7901722879999582
 21
252.0771018239998114
 31
0.0
  0
LINE
  5
C2
100
AcDbEntity
  8
0
 62
13
420
11031872
370
-1
 48
1.0
  6
BYLAYER
100
AcDbLine
 10
14.7229722879999514
 20
228.3874362237598632
 30
0.0
 11
14.7229722879999656
 21
251.9043018239998162
 31
0.0
  0
LINE
  5
C3
100
AcDbEntity
  8
0
 62
13
420
11031872
370
-1
 48
1.0
  6
BYLAYER
100
AcDbLine
 10
164.1557722879999233
 20
246.0211674242397919
 30
0.0
 11
164.1557722879999517
 21
222.5043018239998389
 31
0.0
  0
LINE
  5
C4
100
AcDbEntity
  8
0
 62
13
420
11031872
370
-1
 48
1.0
  6
BYLAYER
100
AcDbLine
 10
133.742972287999919
 20
246.0211674242397919
 30
0.0
 11
133.7429722879999474
 21
222.5043018239998389
 31
0.0
  0
LINE
  5
C5
100
AcDbEntity
  8
0
 62
13
420
11031872
370
-1
 48
1.0
  6
BYLAYER
100
AcDbLine
 10
73.9541722879999526
 20
215.4355674242397924
 30
0.0
 11
73.9541722879999668
 21
191.9187018239998395
 31
0.0
  0
LINE
  5
C6
100
AcDbEntity
  8
0
 62
13
420
11031872
370
-1
 48
1.0
  6
BYLAYER
100
AcDbLine
 10
43.0229722879999628
 20
215.6083674242397876
 30
0.0
 11
43.022972287999977
 21
192.0915018239998346
 31
0.0
  0
LINE
  5
C7
100
AcDbEntity
  8
0
 62
13
420
11031872
370
-1
 48
1.0
  6
BYLAYER
100
AcDbLine
 10
194.7413722879999227
 20
245.8483674242397683
 30
0.0
 11
194.7413722879999227
 21
222.3315018239998153
 31
0.0
  0
LINE
  5
C8
100
AcDbEntity
  8
0
 62
13
420
11031872
370
-1
 48
1.0
  6
BYLAYER
100
AcDbLine
 10
164.6741722879999088
 20
214.9171674242397785
 30
0.0
 11
164.6741722879999372
 21
191.4003018239998255
 31
0.0
  0
LINE
  5
C9
100
AcDbEntity
  8
0
 62
13
420
11031872
370
-1
 48
1.0
  6
BYLAYER
100
AcDbLine
 10
134.9525722879999421
 20
214.9171674242397785
 30
0.0
 11
134.9525722879999421
 21
191.4003018239998255
 31
0.0
  0
LINE
  5
CA
100
AcDbEntity
  8
0
 62
13
420
11031872
370
-1
 48
1.0
  6
BYLAYER
100
AcDbLine
 10
104.5397722879999378
 20
214.9171674242397785
 30
0.0
 11
104.539772287999952
 21
191.4003018239998255
 31
0.0
  0
LINE
  5
CB
100
AcDbEntity
  8
0
 62
13
420
11031872
370
-1
 48
1.0
  6
BYLAYER
100
AcDbLine
 10
195.4325722879999034
 20
214.9171674242397785
 30
0.0
 11
195.4325722879999319
 21
191.4003018239998255
 31
0.0
  0
LINE
  5
CC
100
AcDbEntity
  8
0
 62
13
420
11031872
370
-1
 48
1.0
  6
BYLAYER
100
AcDbLine
 10
42.942644983519294
 20
276.5833320852557904
 30
0.0
 11
42.9426449835193083
 21
253.0664664850158374
 31
0.0
  0
LINE
  5
CD
100
AcDbEntity
  8
0
 62
13
420
11031872
370
-1
 48
1.0
  6
BYLAYER
100
AcDbLine
 10
103.1573722879999337
 20
276.2611674242397726
 30
0.0
 11
103.157372287999948
 21
252.7443018239998196
 31
0.0
  0
LINE
  5
CE
100
AcDbEntity
  8
0
 62
13
420
11031872
370
-1
 48
1.0
  6
BYLAYER
100
AcDbLine
 10
73.0901722879999483
 20
276.2611674242397726
 30
0.0
 11
73.0901722879999625
 21
252.7443018239998196
 31
0.0
  0
LINE
  5
CF
100
AcDbEntity
  8
0
 62
13
420
11031872
370
-1
 48
1.0
  6
BYLAYER
100
AcDbLine
 10
193.8773722879999468
 20
276.4339674242397678
 30
0.0
 11
193.8773722879999468
 21
252.9171018239998148
 31
0.0
  0
LINE
  5
D0
100
AcDbEntity
  8
0
 62
13
420
11031872
370
-1
 48
1.0
  6
BYLAYER
100
AcDbLine
 10
163.4645722879999425
 20
276.4339674242397678
 30
0.0
 11
163.4645722879999425
 21
252.9171018239998148
 31
0.0
  0
LINE
  5
D1
100
AcDbEntity
  8
0
 62
13
420
11031872
370
-1
 48
1.0
  6
BYLAYER
100
AcDbLine
 10
133.2245722879999335
 20
276.4339674242397678
 30
0.0
 11
133.2245722879999619
 21
252.9171018239998148
 31
0.0
  0
LINE
  5
D2
100
AcDbEntity
  8
0
 62
13
420
11031872
370
-1
 48
1.0
  6
BYLAYER
100
AcDbLine
 10
102.9845722879999386
 20
246.1939674242397871
 30
0.0
 11
102.9845722879999528
 21
222.6771018239998341
 31
0.0
  0
LINE
  5
D3
100
AcDbEntity
  8
0
 62
13
420
11031872
370
-1
 48
1.0
  6
BYLAYER
100
AcDbLine
 10
73.0901722879999625
 20
246.1939674242397871
 30
0.0
 11
73.0901722879999625
 21
222.6771018239998341
 31
0.0
  0
LINE
  5
D4
100
AcDbEntity
  8
0
 62
13
420
11031872
370
-1
 48
1.0
  6
BYLAYER
100
AcDbLine
 10
43.0229722879999628
 20
246.0211674242397919
 30
0.0
 11
43.022972287999977
 21
222.5043018239998389
 31
0.0
  0
LINE
  5
D5
100
AcDbEntity
  8
0
 62
13
420
11031872
370
-1
 48
1.0
  6
BYLAYER
100
AcDbLine
 10
141.1889066877599817
 20
251.3543018239998617
 30
0.0
 11
164.7289066877600021
 21
251.3543018239998617
 31
0.0
  0
LINE
  5
D6
100
AcDbEntity
  8
0
 62
13
420
11031872
370
-1
 48
1.0
  6
BYLAYER
100
AcDbLine
 10
110.7761066877599916
 20
251.3543018239998617
 30
0.0
 11
134.3161066877599978
 21
251.3543018239998617
 31
0.0
  0
LINE
  5
D7
100
AcDbEntity
  8
0
 62
13
420
11031872
370
-1
 48
1.0
  6
BYLAYER
100
AcDbLine
 10
50.987306687760011
 20
220.7687018239998622
 30
0.0
 11
74.5273066877600172
 21
220.7687018239998622
 31
0.0
  0
LINE
  5
D8
100
AcDbEntity
  8
0
 62
13
420
11031872
370
-1
 48
1.0
  6
BYLAYER
100
AcDbLine
 10
20.0561066877600211
 20
220.9415018239998574
 30
0.0
 11
43.5961066877600345
 21
220.9415018239998574
 31
0.0
  0
LINE
  5
D9
100
AcDbEntity
  8
0
 62
13
420
11031872
370
-1
 48
1.0
  6
BYLAYER
100
AcDbLine
 10
171.7745066877599811
 20
251.1815018239998381
 30
0.0
 11
195.3145066877599731
 21
251.1815018239998381
 31
0.0
  0
LINE
  5
DA
100
AcDbEntity
  8
0
 62
13
420
11031872
370
-1
 48
1.0
  6
BYLAYER
100
AcDbLine
 10
141.7073066877599672
 20
220.2503018239998482
 30
0.0
 11
165.2473066877599877
 21
220.2503018239998482
 31
0.0
  0
LINE
  5
DB
100
AcDbEntity
  8
0
 62
13
420
11031872
370
-1
 48
1.0
  6
BYLAYER
100
AcDbLine
 10
111.9857066877600005
 20
220.2503018239998482
 30
0.0
 11
135.5257066877600209
 21
220.2503018239998482
 31
0.0
  0
LINE
  5
DC
100
AcDbEntity
  8
0
 62
13
420
11031872
370
-1
 48
1.0
  6
BYLAYER
100
AcDbLine
 10
81.5729066877599962
 20
220.2503018239998482
 30
0.0
 11
105.1129066877600167
 21
220.2503018239998482
 31
0.0
  0
LINE
  5
DD
100
AcDbEntity
  8
0
 62
13
420
11031872
370
-1
 48
1.0
  6
BYLAYER
100
AcDbLine
 10
172.4657066877599618
 20
220.2503018239998482
 30
0.0
 11
196.0057066877599823
 21
220.2503018239998482
 31
0.0
  0
LINE
  5
DE
100
AcDbEntity
  8
0
 62
13
420
11031872
370
-1
 48
1.0
  6
BYLAYER
100
AcDbLine
 10
19.9757793832793524
 20
281.9164664850158601
 30
0.0
 11
43.5157793832793658
 21
281.9164664850158601
 31
0.0
  0
LINE
  5
DF
100
AcDbEntity
  8
0
 62
13
420
11031872
370
-1
 48
1.0
  6
BYLAYER
100
AcDbLine
 10
80.1905066877599921
 20
281.5943018239998423
 30
0.0
 11
103.7305066877599984
 21
281.5943018239998423
 31
0.0
  0
LINE
  5
E0
100
AcDbEntity
  8
0
 62
13
420
11031872
370
-1
 48
1.0
  6
BYLAYER
100
AcDbLine
 10
50.1233066877600066
 20
281.5943018239998423
 30
0.0
 11
73.6633066877600129
 21
281.5943018239998423
 31
0.0
  0
LINE
  5
E1
100
AcDbEntity
  8
0
 62
13
420
11031872
370
-1
 48
1.0
  6
BYLAYER
100
AcDbLine
 10
170.9105066877600052
 20
281.7671018239998375
 30
0.0
 11
194.4505066877599972
 21
281.7671018239998375
 31
0.0
  0
LINE
  5
E2
100
AcDbEntity
  8
0
 62
13
420
11031872
370
-1
 48
1.0
  6
BYLAYER
100
AcDbLine
 10
140.4977066877600009
 20
281.7671018239998375
 30
0.0
 11
164.037706687759993
 21
281.7671018239998375
 31
0.0
  0
LINE
  5
E3
100
AcDbEntity
  8
0
 62
13
420
11031872
370
-1
 48
1.0
  6
BYLAYER
100
AcDbLine
 10
110.257706687760006
 20
281.7671018239998375
 30
0.0
 11
133.7977066877600123
 21
281.7671018239998375
 31
0.0
  0
LINE
  5
E4
100
AcDbEntity
  8
0
 62
13
420
11031872
370
-1
 48
1.0
  6
BYLAYER
100
AcDbLine
 10
80.017706687759997
 20
251.5271018239998568
 30
0.0
 11
103.5577066877600032
 21
251.5271018239998568
 31
0.0
  0
LINE
  5
E5
100
AcDbEntity
  8
0
 62
13
420
11031872
370
-1
 48
1.0
  6
BYLAYER
100
AcDbLine
 10
50.1233066877600137
 20
251.5271018239998568
 30
0.0
 11
73.6633066877600271
 21
251.5271018239998568
 31
0.0
  0
LINE
  5
E6
100
AcDbEntity
  8
0
 62
13
420
11031872
370
-1
 48
1.0
  6
BYLAYER
100
AcDbLine
 10
20.0561066877600211
 20
251.3543018239998617
 30
0.0
 11
43.5961066877600345
 21
251.3543018239998617
 31
0.0
  0
LINE
  5
E7
100
AcDbEntity
  8
0
 62
13
420
11031872
370
-1
 48
1.0
  6
BYLAYER
100
AcDbLine
 10
158.8226378882399104
 20
223.0543018239998219
 30
0.0
 11
135.3057722879999574
 21
223.0543018239998503
 31
0.0
  0
LINE
  5
E8
100
AcDbEntity
  8
0
 62
13
420
11031872
370
-1
 48
1.0
  6
BYLAYER
100
AcDbLine
 10
128.4098378882399061
 20
223.0543018239998219
 30
0.0
 11
104.8929722879999531
 21
223.0543018239998503
 31
0.0
  0
LINE
  5
E9
100
AcDbEntity
  8
0
 62
13
420
11031872
370
-1
 48
1.0
  6
BYLAYER
100
AcDbLine
 10
68.6210378882399255
 20
192.4687018239998224
 30
0.0
 11
45.1041722879999725
 21
192.4687018239998508
 31
0.0
  0
LINE
  5
EA
100
AcDbEntity
  8
0
 62
13
420
11031872
370
-1
 48
1.0
  6
BYLAYER
100
AcDbLine
 10
37.6898378882399356
 20
192.6415018239998176
 30
0.0
 11
14.1729722879999827
 21
192.641501823999846
 31
0.0
  0
LINE
  5
EB
100
AcDbEntity
  8
0
 62
13
420
11031872
370
-1
 48
1.0
  6
BYLAYER
100
AcDbLine
 10
189.4082378882398814
 20
222.8815018239997983
 30
0.0
 11
165.8913722879999284
 21
222.8815018239998267
 31
0.0
  0
LINE
  5
EC
100
AcDbEntity
  8
0
 62
13
420
11031872
370
-1
 48
1.0
  6
BYLAYER
100
AcDbLine
 10
159.3410378882398959
 20
191.9503018239998084
 30
0.0
 11
135.8241722879999429
 21
191.9503018239998369
 31
0.0
  0
LINE
  5
ED
100
AcDbEntity
  8
0
 62
13
420
11031872
370
-1
 48
1.0
  6
BYLAYER
100
AcDbLine
 10
129.6194378882399292
 20
191.9503018239998084
 30
0.0
 11
106.102572287999962
 21
191.9503018239998369
 31
0.0
  0
LINE
  5
EE
100
AcDbEntity
  8
0
 62
13
420
11031872
370
-1
 48
1.0
  6
BYLAYER
100
AcDbLine
 10
99.2066378882399107
 20
191.9503018239998084
 30
0.0
 11
75.6897722879999577
 21
191.9503018239998369
 31
0.0
  0
LINE
  5
EF
100
AcDbEntity
  8
0
 62
13
420
11031872
370
-1
 48
1.0
  6
BYLAYER
100
AcDbLine
 10
190.0994378882398905
 20
191.9503018239998084
 30
0.0
 11
166.5825722879999375
 21
191.9503018239998369
 31
0.0
  0
LINE
  5
F0
100
AcDbEntity
  8
0
 62
13
420
11031872
370
-1
 48
1.0
  6
BYLAYER
100
AcDbLine
 10
37.6095105837592669
 20
253.6164664850158204
 30
0.0
 11
14.0926449835193139
 21
253.6164664850158488
 31
0.0
  0
LINE
  5
F1
100
AcDbEntity
  8
0
 62
13
420
11031872
370
-1
 48
1.0
  6
BYLAYER
100
AcDbLine
 10
97.8242378882399066
 20
253.2943018239998025
 30
0.0
 11
74.3073722879999536
 21
253.294301823999831
 31
0.0
  0
LINE
  5
F2
100
AcDbEntity
  8
0
 62
13
420
11031872
370
-1
 48
1.0
  6
BYLAYER
100
AcDbLine
 10
67.7570378882399211
 20
253.2943018239998025
 30
0.0
 11
44.2401722879999681
 21
253.294301823999831
 31
0.0
  0
LINE
  5
F3
100
AcDbEntity
  8
0
 62
13
420
11031872
370
-1
 48
1.0
  6
BYLAYER
100
AcDbLine
 10
188.5442378882399055
 20
253.4671018239997977
 30
0.0
 11
165.0273722879999525
 21
253.4671018239998261
 31
0.0
  0
LINE
  5
F4
100
AcDbEntity
  8
0
 62
13
420
11031872
370
-1
 48
1.0
  6
BYLAYER
100
AcDbLine
 10
158.1314378882399012
 20
253.4671018239997977
 30
0.0
 11
134.6145722879999482
 21
253.4671018239998261
 31
0.0
  0
LINE
  5
F5
100
AcDbEntity
  8
0
 62
13
420
11031872
370
-1
 48
1.0
  6
BYLAYER
100
AcDbLine
 10
127.8914378882399205
 20
253.4671018239997977
 30
0.0
 11
104.3745722879999676
 21
253.4671018239998261
 31
0.0
  0
LINE
  5
F6
100
AcDbEntity
  8
0
 62
13
420
11031872
370
-1
 48
1.0
  6
BYLAYER
100
AcDbLine
 10
97.6514378882399114
 20
223.227101823999817
 30
0.0
 11
74.1345722879999585
 21
223.2271018239998455
 31
0.0
  0
LINE
  5
F7
100
AcDbEntity
  8
0
 62
13
420
11031872
370
-1
 48
1.0
  6
BYLAYER
100
AcDbLine
 10
67.7570378882399211
 20
223.227101823999817
 30
0.0
 11
44.2401722879999753
 21
223.2271018239998455
 31
0.0
  0
LINE
  5
F8
100
AcDbEntity
  8
0
 62
13
420
11031872
370
-1
 48
1.0
  6
BYLAYER
100
AcDbLine
 10
37.6898378882399356
 20
223.0543018239998219
 30
0.0
 11
14.1729722879999827
 21
223.0543018239998503
 31
0.0
  0
LINE
  5
F9
100
AcDbEntity
  8
0
 62
1
420
16711680
370
-1
 48
1.0
  6
ACAD_ISO10W100
100
AcDbLine
 10
113.3429722879999417
 20
230.9543018239998275
 30
0.0
 11
109.6347683555005688
 21
219.5416236284580123
 31
0.0
  0
LINE
  5
FA
100
AcDbEntity
  8
0
 62
1
420
16711680
370
-1
 48
1.0
  6
ACAD_ISO10W100
100
AcDbLine
 10
82.5845722879999471
 20
231.1271018239998227
 30
0.0
 11
78.8763683555005741
 21
219.7144236284580074
 31
0.0
  0
LINE
  5
FB
100
AcDbEntity
  8
0
 62
1
420
16711680
370
-1
 48
1.0
  6
ACAD_ISO10W100
100
AcDbLine
 10
53.5541722879999611
 20
200.3687018239998281
 30
0.0
 11
49.8459683555005881
 21
188.9560236284580128
 31
0.0
  0
LINE
  5
FC
100
AcDbEntity
  8
0
 62
1
420
16711680
370
-1
 48
1.0
  6
ACAD_ISO10W100
100
AcDbLine
 10
22.6229722879999713
 20
200.5415018239998233
 30
0.0
 11
18.9147683555005983
 21
189.128823628458008
 31
0.0
  0
LINE
  5
FD
100
AcDbEntity
  8
0
 62
1
420
16711680
370
-1
 48
1.0
  6
ACAD_ISO10W100
100
AcDbLine
 10
174.341372287999917
 20
230.7815018239998039
 30
0.0
 11
170.6331683555005441
 21
219.3688236284579887
 31
0.0
  0
LINE
  5
FE
100
AcDbEntity
  8
0
 62
1
420
16711680
370
-1
 48
1.0
  6
ACAD_ISO10W100
100
AcDbLine
 10
114.5525722879999506
 20
199.8503018239998141
 30
0.0
 11
110.8443683555005776
 21
188.4376236284579988
 31
0.0
  0
LINE
  5
FF
100
AcDbEntity
  8
0
 62
1
420
16711680
370
-1
 48
1.0
  6
ACAD_ISO10W100
100
AcDbLine
 10
84.1397722879999463
 20
199.8503018239998141
 30
0.0
 11
80.4315683555005734
 21
188.4376236284579988
 31
0.0
  0
LINE
  5
100
100
AcDbEntity
  8
0
 62
1
420
16711680
370
-1
 48
1.0
  6
ACAD_ISO10W100
100
AcDbLine
 10
175.0325722879999262
 20
199.8503018239998141
 30
0.0
 11
171.3243683555005532
 21
188.4376236284579988
 31
0.0
  0
LINE
  5
101
100
AcDbEntity
  8
0
 62
1
420
16711680
370
-1
 48
1.0
  6
ACAD_ISO10W100
100
AcDbLine
 10
144.2741722879999315
 20
199.8503018239998141
 30
0.0
 11
140.5659683555005586
 21
188.4376236284579988
 31
0.0
  0
LINE
  5
102
100
AcDbEntity
  8
0
 62
1
420
16711680
370
-1
 48
1.0
  6
ACAD_ISO10W100
100
AcDbLine
 10
22.5426449835193026
 20
261.516466485015826
 30
0.0
 11
18.8344410510199296
 21
250.1037882894740108
 31
0.0
  0
LINE
  5
103
100
AcDbEntity
  8
0
 62
1
420
16711680
370
-1
 48
1.0
  6
ACAD_ISO10W100
100
AcDbLine
 10
82.7573722879999423
 20
261.1943018239998082
 30
0.0
 11
79.0491683555005693
 21
249.7816236284579929
 31
0.0
  0
LINE
  5
104
100
AcDbEntity
  8
0
 62
1
420
16711680
370
-1
 48
1.0
  6
ACAD_ISO10W100
100
AcDbLine
 10
52.6901722879999568
 20
261.1943018239998082
 30
0.0
 11
48.9819683555005838
 21
249.7816236284579929
 31
0.0
  0
LINE
  5
105
100
AcDbEntity
  8
0
 62
1
420
16711680
370
-1
 48
1.0
  6
ACAD_ISO10W100
100
AcDbLine
 10
173.4773722879999411
 20
261.3671018239998034
 30
0.0
 11
169.7691683555005682
 21
249.9544236284579881
 31
0.0
  0
LINE
  5
106
100
AcDbEntity
  8
0
 62
1
420
16711680
370
-1
 48
1.0
  6
ACAD_ISO10W100
100
AcDbLine
 10
143.0645722879999369
 20
261.3671018239998034
 30
0.0
 11
139.3563683555005639
 21
249.9544236284579881
 31
0.0
  0
LINE
  5
107
100
AcDbEntity
  8
0
 62
1
420
16711680
370
-1
 48
1.0
  6
ACAD_ISO10W100
100
AcDbLine
 10
112.8245722879999562
 20
261.3671018239998034
 30
0.0
 11
109.1163683555005832
 21
249.9544236284579881
 31
0.0
  0
LINE
  5
108
100
AcDbEntity
  8
0
 62
1
420
16711680
370
-1
 48
1.0
  6
ACAD_ISO10W100
100
AcDbLine
 10
52.6901722879999639
 20
231.1271018239998227
 30
0.0
 11
48.9819683555005909
 21
219.7144236284580074
 31
0.0
  0
LINE
  5
109
100
AcDbEntity
  8
0
 62
1
420
16711680
370
-1
 48
1.0
  6
ACAD_ISO10W100
100
AcDbLine
 10
22.6229722879999713
 20
230.9543018239998275
 30
0.0
 11
18.9147683555005983
 21
219.5416236284580123
 31
0.0
  0
LINE
  5
10A
100
AcDbEntity
  8
0
 62
1
420
16711680
370
-1
 48
1.0
  6
ACAD_ISO10W100
100
AcDbLine
 10
143.755772287999946
 20
230.9543018239998275
 30
0.0
 11
140.047568355500573
 21
219.5416236284580123
 31
0.0
  0
LINE
  5
10B
100
AcDbEntity
  8
0
 62
13
420
11031872
370
-1
 48
1.0
  6
BYLAYER
100
AcDbLine
 10
113.3429722879999417
 20
230.9543018239998275
 30
0.0
 11
105.4429722879999218
 21
228.3874362237598064
 31
0.0
  0
LINE
  5
10C
100
AcDbEntity
  8
0
 62
13
420
11031872
370
-1
 48
1.0
  6
BYLAYER
100
AcDbLine
 10
82.5845722879999471
 20
231.1271018239998227
 30
0.0
 11
74.6845722879999272
 21
228.5602362237598015
 31
0.0
  0
LINE
  5
10D
100
AcDbEntity
  8
0
 62
13
420
11031872
370
-1
 48
1.0
  6
BYLAYER
100
AcDbLine
 10
53.5541722879999611
 20
200.3687018239998281
 30
0.0
 11
45.6541722879999412
 21
197.8018362237598069
 31
0.0
  0
LINE
  5
10E
100
AcDbEntity
  8
0
 62
13
420
11031872
370
-1
 48
1.0
  6
BYLAYER
100
AcDbLine
 10
22.6229722879999713
 20
200.5415018239998233
 30
0.0
 11
14.7229722879999478
 21
197.9746362237598021
 31
0.0
  0
LINE
  5
10F
100
AcDbEntity
  8
0
 62
13
420
11031872
370
-1
 48
1.0
  6
BYLAYER
100
AcDbLine
 10
174.341372287999917
 20
230.7815018239998039
 30
0.0
 11
166.4413722879998829
 21
228.2146362237597828
 31
0.0
  0
LINE
  5
110
100
AcDbEntity
  8
0
 62
13
420
11031872
370
-1
 48
1.0
  6
BYLAYER
100
AcDbLine
 10
114.5525722879999506
 20
199.8503018239998141
 30
0.0
 11
106.6525722879999307
 21
197.2834362237597929
 31
0.0
  0
LINE
  5
111
100
AcDbEntity
  8
0
 62
13
420
11031872
370
-1
 48
1.0
  6
BYLAYER
100
AcDbLine
 10
84.1397722879999463
 20
199.8503018239998141
 30
0.0
 11
76.2397722879999264
 21
197.2834362237597929
 31
0.0
  0
LINE
  5
112
100
AcDbEntity
  8
0
 62
13
420
11031872
370
-1
 48
1.0
  6
BYLAYER
100
AcDbLine
 10
175.0325722879999262
 20
199.8503018239998141
 30
0.0
 11
167.1325722879998921
 21
197.2834362237597929
 31
0.0
  0
LINE
  5
113
100
AcDbEntity
  8
0
 62
13
420
11031872
370
-1
 48
1.0
  6
BYLAYER
100
AcDbLine
 10
144.2741722879999315
 20
199.8503018239998141
 30
0.0
 11
136.3741722879998974
 21
197.2834362237597929
 31
0.0
  0
LINE
  5
114
100
AcDbEntity
  8
0
 62
13
420
11031872
370
-1
 48
1.0
  6
BYLAYER
100
AcDbLine
 10
22.5426449835193026
 20
261.516466485015826
 30
0.0
 11
14.6426449835192791
 21
258.9496008847758048
 31
0.0
  0
LINE
  5
115
100
AcDbEntity
  8
0
 62
13
420
11031872
370
-1
 48
1.0
  6
BYLAYER
100
AcDbLine
 10
82.7573722879999423
 20
261.1943018239998082
 30
0.0
 11
74.8573722879999224
 21
258.627436223759787
 31
0.0
  0
LINE
  5
116
100
AcDbEntity
  8
0
 62
13
420
11031872
370
-1
 48
1.0
  6
BYLAYER
100
AcDbLine
 10
52.6901722879999568
 20
261.1943018239998082
 30
0.0
 11
44.7901722879999369
 21
258.627436223759787
 31
0.0
  0
LINE
  5
117
100
AcDbEntity
  8
0
 62
13
420
11031872
370
-1
 48
1.0
  6
BYLAYER
100
AcDbLine
 10
173.4773722879999411
 20
261.3671018239998034
 30
0.0
 11
165.577372287999907
 21
258.8002362237597822
 31
0.0
  0
LINE
  5
118
100
AcDbEntity
  8
0
 62
13
420
11031872
370
-1
 48
1.0
  6
BYLAYER
100
AcDbLine
 10
143.0645722879999369
 20
261.3671018239998034
 30
0.0
 11
135.1645722879999028
 21
258.8002362237597822
 31
0.0
  0
LINE
  5
119
100
AcDbEntity
  8
0
 62
13
420
11031872
370
-1
 48
1.0
  6
BYLAYER
100
AcDbLine
 10
112.8245722879999562
 20
261.3671018239998034
 30
0.0
 11
104.9245722879999363
 21
258.8002362237597822
 31
0.0
  0
LINE
  5
11A
100
AcDbEntity
  8
0
 62
13
420
11031872
370
-1
 48
1.0
  6
BYLAYER
100
AcDbLine
 10
52.6901722879999639
 20
231.1271018239998227
 30
0.0
 11
44.7901722879999369
 21
228.5602362237598015
 31
0.0
  0
LINE
  5
11B
100
AcDbEntity
  8
0
 62
13
420
11031872
370
-1
 48
1.0
  6
BYLAYER
100
AcDbLine
 10
22.6229722879999713
 20
230.9543018239998275
 30
0.0
 11
14.7229722879999478
 21
228.3874362237598064
 31
0.0
  0
LINE
  5
11C
100
AcDbEntity
  8
0
 62
13
420
11031872
370
-1
 48
1.0
  6
BYLAYER
100
AcDbLine
 10
143.755772287999946
 20
230.9543018239998275
 30
0.0
 11
135.8557722879999119
 21
228.3874362237598064
 31
0.0
  0
LINE
  5
11D
100
AcDbEntity
  8
0
 62
1
420
16711680
370
-1
 48
1.0
  6
ACAD_ISO10W100
100
AcDbLine
 10
113.3429722879999417
 20
243.4543018239998275
 30
0.0
 11
101.930294092458098
 21
247.1625057564992005
 31
0.0
  0
LINE
  5
11E
100
AcDbEntity
  8
0
 62
1
420
16711680
370
-1
 48
1.0
  6
ACAD_ISO10W100
100
AcDbLine
 10
82.5845722879999471
 20
243.6271018239998227
 30
0.0
 11
71.1718940924581034
 21
247.3353057564991957
 31
0.0
  0
LINE
  5
11F
100
AcDbEntity
  8
0
 62
1
420
16711680
370
-1
 48
1.0
  6
ACAD_ISO10W100
100
AcDbLine
 10
53.5541722879999611
 20
212.8687018239998281
 30
0.0
 11
42.1414940924581174
 21
216.5769057564992011
 31
0.0
  0
LINE
  5
120
100
AcDbEntity
  8
0
 62
1
420
16711680
370
-1
 48
1.0
  6
ACAD_ISO10W100
100
AcDbLine
 10
22.6229722879999713
 20
213.0415018239998233
 30
0.0
 11
11.2102940924581276
 21
216.7497057564991962
 31
0.0
  0
LINE
  5
121
100
AcDbEntity
  8
0
 62
1
420
16711680
370
-1
 48
1.0
  6
ACAD_ISO10W100
100
AcDbLine
 10
174.341372287999917
 20
243.2815018239998039
 30
0.0
 11
162.9286940924580733
 21
246.9897057564991769
 31
0.0
  0
LINE
  5
122
100
AcDbEntity
  8
0
 62
1
420
16711680
370
-1
 48
1.0
  6
ACAD_ISO10W100
100
AcDbLine
 10
114.5525722879999506
 20
212.3503018239998141
 30
0.0
 11
103.1398940924581069
 21
216.0585057564991871
 31
0.0
  0
LINE
  5
123
100
AcDbEntity
  8
0
 62
1
420
16711680
370
-1
 48
1.0
  6
ACAD_ISO10W100
100
AcDbLine
 10
84.1397722879999463
 20
212.3503018239998141
 30
0.0
 11
72.7270940924581026
 21
216.0585057564991871
 31
0.0
  0
LINE
  5
124
100
AcDbEntity
  8
0
 62
1
420
16711680
370
-1
 48
1.0
  6
ACAD_ISO10W100
100
AcDbLine
 10
175.0325722879999262
 20
212.3503018239998141
 30
0.0
 11
163.6198940924580825
 21
216.0585057564991871
 31
0.0
  0
LINE
  5
125
100
AcDbEntity
  8
0
 62
1
420
16711680
370
-1
 48
1.0
  6
ACAD_ISO10W100
100
AcDbLine
 10
144.2741722879999315
 20
212.3503018239998141
 30
0.0
 11
132.8614940924580878
 21
216.0585057564991871
 31
0.0
  0
LINE
  5
126
100
AcDbEntity
  8
0
 62
1
420
16711680
370
-1
 48
1.0
  6
ACAD_ISO10W100
100
AcDbLine
 10
22.5426449835193026
 20
274.016466485015826
 30
0.0
 11
11.1299667879774589
 21
277.724670417515199
 31
0.0
  0
LINE
  5
127
100
AcDbEntity
  8
0
 62
1
420
16711680
370
-1
 48
1.0
  6
ACAD_ISO10W100
100
AcDbLine
 10
82.7573722879999423
 20
273.6943018239998082
 30
0.0
 11
71.3446940924580986
 21
277.4025057564991812
 31
0.0
  0
LINE
  5
128
100
AcDbEntity
  8
0
 62
1
420
16711680
370
-1
 48
1.0
  6
ACAD_ISO10W100
100
AcDbLine
 10
52.6901722879999568
 20
273.6943018239998082
 30
0.0
 11
41.2774940924581131
 21
277.4025057564991812
 31
0.0
  0
LINE
  5
129
100
AcDbEntity
  8
0
 62
1
420
16711680
370
-1
 48
1.0
  6
ACAD_ISO10W100
100
AcDbLine
 10
173.4773722879999411
 20
273.8671018239998034
 30
0.0
 11
162.0646940924580974
 21
277.5753057564991764
 31
0.0
  0
LINE
  5
12A
100
AcDbEntity
  8
0
 62
1
420
16711680
370
-1
 48
1.0
  6
ACAD_ISO10W100
100
AcDbLine
 10
143.0645722879999369
 20
273.8671018239998034
 30
0.0
 11
131.6518940924580932
 21
277.5753057564991764
 31
0.0
  0
LINE
  5
12B
100
AcDbEntity
  8
0
 62
1
420
16711680
370
-1
 48
1.0
  6
ACAD_ISO10W100
100
AcDbLine
 10
112.8245722879999562
 20
273.8671018239998034
 30
0.0
 11
101.4118940924581125
 21
277.5753057564991764
 31
0.0
  0
LINE
  5
12C
100
AcDbEntity
  8
0
 62
1
420
16711680
370
-1
 48
1.0
  6
ACAD_ISO10W100
100
AcDbLine
 10
52.6901722879999639
 20
243.6271018239998227
 30
0.0
 11
41.2774940924581202
 21
247.3353057564991957
 31
0.0
  0
LINE
  5
12D
100
AcDbEntity
  8
0
 62
1
420
16711680
370
-1
 48
1.0
  6
ACAD_ISO10W100
100
AcDbLine
 10
22.6229722879999713
 20
243.4543018239998275
 30
0.0
 11
11.2102940924581276
 21
247.1625057564992005
 31
0.0
  0
LINE
  5
12E
100
AcDbEntity
  8
0
 62
1
420
16711680
370
-1
 48
1.0
  6
ACAD_ISO10W100
100
AcDbLine
 10
143.755772287999946
 20
243.4543018239998275
 30
0.0
 11
132.3430940924581023
 21
247.1625057564992005
 31
0.0
  0
LINE
  5
12F
100
AcDbEntity
  8
0
 62
13
420
11031872
370
-1
 48
1.0
  6
BYLAYER
100
AcDbLine
 10
113.3429722879999701
 20
243.4543018239998275
 30
0.0
 11
110.7450650558240142
 21
251.4498381435763292
 31
0.0
  0
LINE
  5
130
100
AcDbEntity
  8
0
 62
13
420
11031872
370
-1
 48
1.0
  6
BYLAYER
100
AcDbLine
 10
82.5845722879999755
 20
243.6271018239998227
 30
0.0
 11
79.9866650558240195
 21
251.6226381435763244
 31
0.0
  0
LINE
  5
131
100
AcDbEntity
  8
0
 62
13
420
11031872
370
-1
 48
1.0
  6
BYLAYER
100
AcDbLine
 10
53.5541722879999895
 20
212.8687018239998281
 30
0.0
 11
50.9562650558240335
 21
220.8642381435763298
 31
0.0
  0
LINE
  5
132
100
AcDbEntity
  8
0
 62
13
420
11031872
370
-1
 48
1.0
  6
BYLAYER
100
AcDbLine
 10
22.6229722879999997
 20
213.0415018239998233
 30
0.0
 11
20.0250650558240437
 21
221.037038143576325
 31
0.0
  0
LINE
  5
133
100
AcDbEntity
  8
0
 62
13
420
11031872
370
-1
 48
1.0
  6
BYLAYER
100
AcDbLine
 10
174.3413722879999455
 20
243.2815018239998039
 30
0.0
 11
171.7434650558240037
 21
251.2770381435763056
 31
0.0
  0
LINE
  5
134
100
AcDbEntity
  8
0
 62
13
420
11031872
370
-1
 48
1.0
  6
BYLAYER
100
AcDbLine
 10
114.552572287999979
 20
212.3503018239998141
 30
0.0
 11
111.9546650558240231
 21
220.3458381435763158
 31
0.0
  0
LINE
  5
135
100
AcDbEntity
  8
0
 62
13
420
11031872
370
-1
 48
1.0
  6
BYLAYER
100
AcDbLine
 10
84.1397722879999748
 20
212.3503018239998141
 30
0.0
 11
81.5418650558240188
 21
220.3458381435763158
 31
0.0
  0
LINE
  5
136
100
AcDbEntity
  8
0
 62
13
420
11031872
370
-1
 48
1.0
  6
BYLAYER
100
AcDbLine
 10
175.0325722879999546
 20
212.3503018239998141
 30
0.0
 11
172.4346650558239844
 21
220.3458381435763158
 31
0.0
  0
LINE
  5
137
100
AcDbEntity
  8
0
 62
13
420
11031872
370
-1
 48
1.0
  6
BYLAYER
100
AcDbLine
 10
144.27417228799996
 20
212.3503018239998141
 30
0.0
 11
141.6762650558239898
 21
220.3458381435763158
 31
0.0
  0
LINE
  5
138
100
AcDbEntity
  8
0
 62
13
420
11031872
370
-1
 48
1.0
  6
BYLAYER
100
AcDbLine
 10
22.542644983519331
 20
274.016466485015826
 30
0.0
 11
19.944737751343375
 21
282.0120028045923277
 31
0.0
  0
LINE
  5
139
100
AcDbEntity
  8
0
 62
13
420
11031872
370
-1
 48
1.0
  6
BYLAYER
100
AcDbLine
 10
82.7573722879999707
 20
273.6943018239998082
 30
0.0
 11
80.1594650558240147
 21
281.6898381435763099
 31
0.0
  0
LINE
  5
13A
100
AcDbEntity
  8
0
 62
13
420
11031872
370
-1
 48
1.0
  6
BYLAYER
100
AcDbLine
 10
52.6901722879999852
 20
273.6943018239998082
 30
0.0
 11
50.0922650558240292
 21
281.6898381435763099
 31
0.0
  0
LINE
  5
13B
100
AcDbEntity
  8
0
 62
13
420
11031872
370
-1
 48
1.0
  6
BYLAYER
100
AcDbLine
 10
173.4773722879999696
 20
273.8671018239998034
 30
0.0
 11
170.8794650558240278
 21
281.8626381435763051
 31
0.0
  0
LINE
  5
13C
100
AcDbEntity
  8
0
 62
13
420
11031872
370
-1
 48
1.0
  6
BYLAYER
100
AcDbLine
 10
143.0645722879999653
 20
273.8671018239998034
 30
0.0
 11
140.4666650558240235
 21
281.8626381435763051
 31
0.0
  0
LINE
  5
13D
100
AcDbEntity
  8
0
 62
13
420
11031872
370
-1
 48
1.0
  6
BYLAYER
100
AcDbLine
 10
112.8245722879999846
 20
273.8671018239998034
 30
0.0
 11
110.2266650558240286
 21
281.8626381435763051
 31
0.0
  0
LINE
  5
13E
100
AcDbEntity
  8
0
 62
13
420
11031872
370
-1
 48
1.0
  6
BYLAYER
100
AcDbLine
 10
52.6901722879999923
 20
243.6271018239998227
 30
0.0
 11
50.0922650558240363
 21
251.6226381435763244
 31
0.0
  0
LINE
  5
13F
100
AcDbEntity
  8
0
 62
13
420
11031872
370
-1
 48
1.0
  6
BYLAYER
100
AcDbLine
 10
22.6229722879999997
 20
243.4543018239998275
 30
0.0
 11
20.0250650558240437
 21
251.4498381435763292
 31
0.0
  0
LINE
  5
140
100
AcDbEntity
  8
0
 62
13
420
11031872
370
-1
 48
1.0
  6
BYLAYER
100
AcDbLine
 10
143.7557722879999744
 20
243.4543018239998275
 30
0.0
 11
141.1578650558240042
 21
251.4498381435763292
 31
0.0
  0
LINE
  5
141
100
AcDbEntity
  8
0
 62
1
420
16711680
370
-1
 48
1.0
  6
ACAD_ISO10W100
100
AcDbLine
 10
125.8429722879999417
 20
243.4543018239998275
 30
0.0
 11
129.5511762204993147
 21
254.8669800195417281
 31
0.0
  0
LINE
  5
142
100
AcDbEntity
  8
0
 62
1
420
16711680
370
-1
 48
1.0
  6
ACAD_ISO10W100
100
AcDbLine
 10
95.0845722879999471
 20
243.6271018239998227
 30
0.0
 11
98.7927762204993201
 21
255.0397800195417233
 31
0.0
  0
LINE
  5
143
100
AcDbEntity
  8
0
 62
1
420
16711680
370
-1
 48
1.0
  6
ACAD_ISO10W100
100
AcDbLine
 10
66.0541722879999611
 20
212.8687018239998281
 30
0.0
 11
69.7623762204993341
 21
224.2813800195417286
 31
0.0
  0
LINE
  5
144
100
AcDbEntity
  8
0
 62
1
420
16711680
370
-1
 48
1.0
  6
ACAD_ISO10W100
100
AcDbLine
 10
35.1229722879999713
 20
213.0415018239998233
 30
0.0
 11
38.8311762204993443
 21
224.4541800195417238
 31
0.0
  0
LINE
  5
145
100
AcDbEntity
  8
0
 62
1
420
16711680
370
-1
 48
1.0
  6
ACAD_ISO10W100
100
AcDbLine
 10
186.841372287999917
 20
243.2815018239998039
 30
0.0
 11
190.54957622049929
 21
254.6941800195417045
 31
0.0
  0
LINE
  5
146
100
AcDbEntity
  8
0
 62
1
420
16711680
370
-1
 48
1.0
  6
ACAD_ISO10W100
100
AcDbLine
 10
127.0525722879999506
 20
212.3503018239998141
 30
0.0
 11
130.7607762204993378
 21
223.7629800195417147
 31
0.0
  0
LINE
  5
147
100
AcDbEntity
  8
0
 62
1
420
16711680
370
-1
 48
1.0
  6
ACAD_ISO10W100
100
AcDbLine
 10
96.6397722879999463
 20
212.3503018239998141
 30
0.0
 11
100.3479762204993193
 21
223.7629800195417147
 31
0.0
  0
LINE
  5
148
100
AcDbEntity
  8
0
 62
1
420
16711680
370
-1
 48
1.0
  6
ACAD_ISO10W100
100
AcDbLine
 10
187.5325722879999262
 20
212.3503018239998141
 30
0.0
 11
191.2407762204992991
 21
223.7629800195417147
 31
0.0
  0
LINE
  5
149
100
AcDbEntity
  8
0
 62
1
420
16711680
370
-1
 48
1.0
  6
ACAD_ISO10W100
100
AcDbLine
 10
156.7741722879999315
 20
212.3503018239998141
 30
0.0
 11
160.4823762204993045
 21
223.7629800195417147
 31
0.0
  0
LINE
  5
14A
100
AcDbEntity
  8
0
 62
1
420
16711680
370
-1
 48
1.0
  6
ACAD_ISO10W100
100
AcDbLine
 10
35.0426449835193026
 20
274.016466485015826
 30
0.0
 11
38.7508489160186755
 21
285.4291446805577266
 31
0.0
  0
LINE
  5
14B
100
AcDbEntity
  8
0
 62
1
420
16711680
370
-1
 48
1.0
  6
ACAD_ISO10W100
100
AcDbLine
 10
95.2573722879999423
 20
273.6943018239998082
 30
0.0
 11
98.9655762204993152
 21
285.1069800195417088
 31
0.0
  0
LINE
  5
14C
100
AcDbEntity
  8
0
 62
1
420
16711680
370
-1
 48
1.0
  6
ACAD_ISO10W100
100
AcDbLine
 10
65.1901722879999568
 20
273.6943018239998082
 30
0.0
 11
68.8983762204993297
 21
285.1069800195417088
 31
0.0
  0
LINE
  5
14D
100
AcDbEntity
  8
0
 62
1
420
16711680
370
-1
 48
1.0
  6
ACAD_ISO10W100
100
AcDbLine
 10
185.9773722879999411
 20
273.8671018239998034
 30
0.0
 11
189.6855762204993141
 21
285.279780019541704
 31
0.0
  0
LINE
  5
14E
100
AcDbEntity
  8
0
 62
1
420
16711680
370
-1
 48
1.0
  6
ACAD_ISO10W100
100
AcDbLine
 10
155.5645722879999369
 20
273.8671018239998034
 30
0.0
 11
159.2727762204993098
 21
285.279780019541704
 31
0.0
  0
LINE
  5
14F
100
AcDbEntity
  8
0
 62
1
420
16711680
370
-1
 48
1.0
  6
ACAD_ISO10W100
100
AcDbLine
 10
125.3245722879999562
 20
273.8671018239998034
 30
0.0
 11
129.0327762204993292
 21
285.279780019541704
 31
0.0
  0
LINE
  5
150
100
AcDbEntity
  8
0
 62
1
420
16711680
370
-1
 48
1.0
  6
ACAD_ISO10W100
100
AcDbLine
 10
65.1901722879999568
 20
243.6271018239998227
 30
0.0
 11
68.8983762204993297
 21
255.0397800195417233
 31
0.0
  0
LINE
  5
151
100
AcDbEntity
  8
0
 62
1
420
16711680
370
-1
 48
1.0
  6
ACAD_ISO10W100
100
AcDbLine
 10
35.1229722879999713
 20
243.4543018239998275
 30
0.0
 11
38.8311762204993443
 21
254.8669800195417281
 31
0.0
  0
LINE
  5
152
100
AcDbEntity
  8
0
 62
1
420
16711680
370
-1
 48
1.0
  6
ACAD_ISO10W100
100
AcDbLine
 10
156.255772287999946
 20
243.4543018239998275
 30
0.0
 11
159.963976220499319
 21
254.8669800195417281
 31
0.0
  0
LINE
  5
153
100
AcDbEntity
  8
0
 62
13
420
11031872
370
-1
 48
1.0
  6
BYLAYER
100
AcDbLine
 10
125.8429722879999417
 20
243.4543018239998275
 30
0.0
 11
133.8385086075764434
 21
246.0522090561757693
 31
0.0
  0
LINE
  5
154
100
AcDbEntity
  8
0
 62
13
420
11031872
370
-1
 48
1.0
  6
BYLAYER
100
AcDbLine
 10
95.0845722879999471
 20
243.6271018239998227
 30
0.0
 11
103.0801086075764346
 21
246.2250090561757645
 31
0.0
  0
LINE
  5
155
100
AcDbEntity
  8
0
 62
13
420
11031872
370
-1
 48
1.0
  6
BYLAYER
100
AcDbLine
 10
66.0541722879999611
 20
212.8687018239998281
 30
0.0
 11
74.0497086075764486
 21
215.4666090561757699
 31
0.0
  0
LINE
  5
156
100
AcDbEntity
  8
0
 62
13
420
11031872
370
-1
 48
1.0
  6
BYLAYER
100
AcDbLine
 10
35.1229722879999713
 20
213.0415018239998233
 30
0.0
 11
43.1185086075764588
 21
215.639409056175765
 31
0.0
  0
LINE
  5
157
100
AcDbEntity
  8
0
 62
13
420
11031872
370
-1
 48
1.0
  6
BYLAYER
100
AcDbLine
 10
186.841372287999917
 20
243.2815018239998039
 30
0.0
 11
194.8369086075763903
 21
245.8794090561757457
 31
0.0
  0
LINE
  5
158
100
AcDbEntity
  8
0
 62
13
420
11031872
370
-1
 48
1.0
  6
BYLAYER
100
AcDbLine
 10
127.0525722879999506
 20
212.3503018239998141
 30
0.0
 11
135.0481086075764381
 21
214.9482090561757559
 31
0.0
  0
LINE
  5
159
100
AcDbEntity
  8
0
 62
13
420
11031872
370
-1
 48
1.0
  6
BYLAYER
100
AcDbLine
 10
96.6397722879999463
 20
212.3503018239998141
 30
0.0
 11
104.6353086075764338
 21
214.9482090561757559
 31
0.0
  0
LINE
  5
15A
100
AcDbEntity
  8
0
 62
13
420
11031872
370
-1
 48
1.0
  6
BYLAYER
100
AcDbLine
 10
187.5325722879999262
 20
212.3503018239998141
 30
0.0
 11
195.5281086075764279
 21
214.9482090561757559
 31
0.0
  0
LINE
  5
15B
100
AcDbEntity
  8
0
 62
13
420
11031872
370
-1
 48
1.0
  6
BYLAYER
100
AcDbLine
 10
156.7741722879999315
 20
212.3503018239998141
 30
0.0
 11
164.7697086075764332
 21
214.9482090561757559
 31
0.0
  0
LINE
  5
15C
100
AcDbEntity
  8
0
 62
13
420
11031872
370
-1
 48
1.0
  6
BYLAYER
100
AcDbLine
 10
35.0426449835193026
 20
274.016466485015826
 30
0.0
 11
43.03818130309579
 21
276.6143737171917678
 31
0.0
  0
LINE
  5
15D
100
AcDbEntity
  8
0
 62
13
420
11031872
370
-1
 48
1.0
  6
BYLAYER
100
AcDbLine
 10
95.2573722879999423
 20
273.6943018239998082
 30
0.0
 11
103.2529086075764297
 21
276.29220905617575
 31
0.0
  0
LINE
  5
15E
100
AcDbEntity
  8
0
 62
13
420
11031872
370
-1
 48
1.0
  6
BYLAYER
100
AcDbLine
 10
65.1901722879999568
 20
273.6943018239998082
 30
0.0
 11
73.1857086075764443
 21
276.29220905617575
 31
0.0
  0
LINE
  5
15F
100
AcDbEntity
  8
0
 62
13
420
11031872
370
-1
 48
1.0
  6
BYLAYER
100
AcDbLine
 10
185.9773722879999411
 20
273.8671018239998034
 30
0.0
 11
193.9729086075764144
 21
276.4650090561757452
 31
0.0
  0
LINE
  5
160
100
AcDbEntity
  8
0
 62
13
420
11031872
370
-1
 48
1.0
  6
BYLAYER
100
AcDbLine
 10
155.5645722879999369
 20
273.8671018239998034
 30
0.0
 11
163.5601086075764101
 21
276.4650090561757452
 31
0.0
  0
LINE
  5
161
100
AcDbEntity
  8
0
 62
13
420
11031872
370
-1
 48
1.0
  6
BYLAYER
100
AcDbLine
 10
125.3245722879999562
 20
273.8671018239998034
 30
0.0
 11
133.3201086075764579
 21
276.4650090561757452
 31
0.0
  0
LINE
  5
162
100
AcDbEntity
  8
0
 62
13
420
11031872
370
-1
 48
1.0
  6
BYLAYER
100
AcDbLine
 10
65.1901722879999568
 20
243.6271018239998227
 30
0.0
 11
73.1857086075764585
 21
246.2250090561757645
 31
0.0
  0
LINE
  5
163
100
AcDbEntity
  8
0
 62
13
420
11031872
370
-1
 48
1.0
  6
BYLAYER
100
AcDbLine
 10
35.1229722879999713
 20
243.4543018239998275
 30
0.0
 11
43.1185086075764588
 21
246.0522090561757693
 31
0.0
  0
LINE
  5
164
100
AcDbEntity
  8
0
 62
13
420
11031872
370
-1
 48
1.0
  6
BYLAYER
100
AcDbLine
 10
156.255772287999946
 20
243.4543018239998275
 30
0.0
 11
164.2513086075764477
 21
246.0522090561757693
 31
0.0
  0
LINE
  5
165
100
AcDbEntity
  8
0
 62
1
420
16711680
370
-1
 48
1.0
  6
ACAD_ISO10W100
100
AcDbLine
 10
125.8429722879999417
 20
230.9543018239998275
 30
0.0
 11
137.2556504835417854
 21
227.2460978915004546
 31
0.0
  0
LINE
  5
166
100
AcDbEntity
  8
0
 62
1
420
16711680
370
-1
 48
1.0
  6
ACAD_ISO10W100
100
AcDbLine
 10
95.0845722879999471
 20
231.1271018239998227
 30
0.0
 11
106.4972504835417908
 21
227.4188978915004498
 31
0.0
  0
LINE
  5
167
100
AcDbEntity
  8
0
 62
1
420
16711680
370
-1
 48
1.0
  6
ACAD_ISO10W100
100
AcDbLine
 10
66.0541722879999611
 20
200.3687018239998281
 30
0.0
 11
77.4668504835418048
 21
196.6604978915004551
 31
0.0
  0
LINE
  5
168
100
AcDbEntity
  8
0
 62
1
420
16711680
370
-1
 48
1.0
  6
ACAD_ISO10W100
100
AcDbLine
 10
35.1229722879999713
 20
200.5415018239998233
 30
0.0
 11
46.535650483541815
 21
196.8332978915004503
 31
0.0
  0
LINE
  5
169
100
AcDbEntity
  8
0
 62
1
420
16711680
370
-1
 48
1.0
  6
ACAD_ISO10W100
100
AcDbLine
 10
186.841372287999917
 20
230.7815018239998039
 30
0.0
 11
198.2540504835417607
 21
227.073297891500431
 31
0.0
  0
LINE
  5
16A
100
AcDbEntity
  8
0
 62
1
420
16711680
370
-1
 48
1.0
  6
ACAD_ISO10W100
100
AcDbLine
 10
127.0525722879999506
 20
199.8503018239998141
 30
0.0
 11
138.4652504835418085
 21
196.1420978915004412
 31
0.0
  0
LINE
  5
16B
100
AcDbEntity
  8
0
 62
1
420
16711680
370
-1
 48
1.0
  6
ACAD_ISO10W100
100
AcDbLine
 10
96.6397722879999463
 20
199.8503018239998141
 30
0.0
 11
108.05245048354179
 21
196.1420978915004412
 31
0.0
  0
LINE
  5
16C
100
AcDbEntity
  8
0
 62
1
420
16711680
370
-1
 48
1.0
  6
ACAD_ISO10W100
100
AcDbLine
 10
187.5325722879999262
 20
199.8503018239998141
 30
0.0
 11
198.9452504835417699
 21
196.1420978915004412
 31
0.0
  0
LINE
  5
16D
100
AcDbEntity
  8
0
 62
1
420
16711680
370
-1
 48
1.0
  6
ACAD_ISO10W100
100
AcDbLine
 10
156.7741722879999315
 20
199.8503018239998141
 30
0.0
 11
168.1868504835417752
 21
196.1420978915004412
 31
0.0
  0
LINE
  5
16E
100
AcDbEntity
  8
0
 62
1
420
16711680
370
-1
 48
1.0
  6
ACAD_ISO10W100
100
AcDbLine
 10
35.0426449835193026
 20
261.516466485015826
 30
0.0
 11
46.4553231790611463
 21
257.8082625525164531
 31
0.0
  0
LINE
  5
16F
100
AcDbEntity
  8
0
 62
1
420
16711680
370
-1
 48
1.0
  6
ACAD_ISO10W100
100
AcDbLine
 10
95.2573722879999423
 20
261.1943018239998082
 30
0.0
 11
106.670050483541786
 21
257.4860978915004353
 31
0.0
  0
LINE
  5
170
100
AcDbEntity
  8
0
 62
1
420
16711680
370
-1
 48
1.0
  6
ACAD_ISO10W100
100
AcDbLine
 10
65.1901722879999568
 20
261.1943018239998082
 30
0.0
 11
76.6028504835418005
 21
257.4860978915004353
 31
0.0
  0
LINE
  5
171
100
AcDbEntity
  8
0
 62
1
420
16711680
370
-1
 48
1.0
  6
ACAD_ISO10W100
100
AcDbLine
 10
185.9773722879999411
 20
261.3671018239998034
 30
0.0
 11
197.3900504835417848
 21
257.6588978915004304
 31
0.0
  0
LINE
  5
172
100
AcDbEntity
  8
0
 62
1
420
16711680
370
-1
 48
1.0
  6
ACAD_ISO10W100
100
AcDbLine
 10
155.5645722879999369
 20
261.3671018239998034
 30
0.0
 11
166.9772504835417806
 21
257.6588978915004304
 31
0.0
  0
LINE
  5
173
100
AcDbEntity
  8
0
 62
1
420
16711680
370
-1
 48
1.0
  6
ACAD_ISO10W100
100
AcDbLine
 10
125.3245722879999562
 20
261.3671018239998034
 30
0.0
 11
136.7372504835417999
 21
257.6588978915004304
 31
0.0
  0
LINE
  5
174
100
AcDbEntity
  8
0
 62
1
420
16711680
370
-1
 48
1.0
  6
ACAD_ISO10W100
100
AcDbLine
 10
65.1901722879999568
 20
231.1271018239998227
 30
0.0
 11
76.6028504835418005
 21
227.4188978915004498
 31
0.0
  0
LINE
  5
175
100
AcDbEntity
  8
0
 62
1
420
16711680
370
-1
 48
1.0
  6
ACAD_ISO10W100
100
AcDbLine
 10
35.1229722879999713
 20
230.9543018239998275
 30
0.0
 11
46.535650483541815
 21
227.2460978915004546
 31
0.0
  0
LINE
  5
176
100
AcDbEntity
  8
0
 62
1
420
16711680
370
-1
 48
1.0
  6
ACAD_ISO10W100
100
AcDbLine
 10
156.255772287999946
 20
230.9543018239998275
 30
0.0
 11
167.6684504835417897
 21
227.2460978915004546
 31
0.0
  0
LINE
  5
177
100
AcDbEntity
  8
0
 62
13
420
11031872
370
-1
 48
1.0
  6
BYLAYER
100
AcDbLine
 10
125.8429722879999417
 20
230.9543018239998275
 30
0.0
 11
128.4098378882399061
 21
223.0543018239998503
 31
0.0
  0
LINE
  5
178
100
AcDbEntity
  8
0
 62
13
420
11031872
370
-1
 48
1.0
  6
BYLAYER
100
AcDbLine
 10
95.0845722879999471
 20
231.1271018239998227
 30
0.0
 11
97.6514378882399257
 21
223.2271018239998455
 31
0.0
  0
LINE
  5
179
100
AcDbEntity
  8
0
 62
13
420
11031872
370
-1
 48
1.0
  6
BYLAYER
100
AcDbLine
 10
66.0541722879999611
 20
200.3687018239998281
 30
0.0
 11
68.6210378882399397
 21
192.4687018239998508
 31
0.0
  0
LINE
  5
17A
100
AcDbEntity
  8
0
 62
13
420
11031872
370
-1
 48
1.0
  6
BYLAYER
100
AcDbLine
 10
35.1229722879999713
 20
200.5415018239998233
 30
0.0
 11
37.6898378882399498
 21
192.641501823999846
 31
0.0
  0
LINE
  5
17B
100
AcDbEntity
  8
0
 62
13
420
11031872
370
-1
 48
1.0
  6
BYLAYER
100
AcDbLine
 10
186.841372287999917
 20
230.7815018239998039
 30
0.0
 11
189.4082378882399098
 21
222.8815018239998267
 31
0.0
  0
LINE
  5
17C
100
AcDbEntity
  8
0
 62
13
420
11031872
370
-1
 48
1.0
  6
BYLAYER
100
AcDbLine
 10
127.0525722879999506
 20
199.8503018239998141
 30
0.0
 11
129.6194378882399292
 21
191.9503018239998369
 31
0.0
  0
LINE
  5
17D
100
AcDbEntity
  8
0
 62
13
420
11031872
370
-1
 48
1.0
  6
BYLAYER
100
AcDbLine
 10
96.6397722879999463
 20
199.8503018239998141
 30
0.0
 11
99.2066378882399249
 21
191.9503018239998369
 31
0.0
  0
LINE
  5
17E
100
AcDbEntity
  8
0
 62
13
420
11031872
370
-1
 48
1.0
  6
BYLAYER
100
AcDbLine
 10
187.5325722879999262
 20
199.8503018239998141
 30
0.0
 11
190.0994378882398905
 21
191.9503018239998369
 31
0.0
  0
LINE
  5
17F
100
AcDbEntity
  8
0
 62
13
420
11031872
370
-1
 48
1.0
  6
BYLAYER
100
AcDbLine
 10
156.7741722879999315
 20
199.8503018239998141
 30
0.0
 11
159.3410378882398959
 21
191.9503018239998369
 31
0.0
  0
LINE
  5
180
100
AcDbEntity
  8
0
 62
13
420
11031872
370
-1
 48
1.0
  6
BYLAYER
100
AcDbLine
 10
35.0426449835193026
 20
261.516466485015826
 30
0.0
 11
37.6095105837592811
 21
253.6164664850158488
 31
0.0
  0
LINE
  5
181
100
AcDbEntity
  8
0
 62
13
420
11031872
370
-1
 48
1.0
  6
BYLAYER
100
AcDbLine
 10
95.2573722879999423
 20
261.1943018239998082
 30
0.0
 11
97.8242378882399208
 21
253.294301823999831
 31
0.0
  0
LINE
  5
182
100
AcDbEntity
  8
0
 62
13
420
11031872
370
-1
 48
1.0
  6
BYLAYER
100
AcDbLine
 10
65.1901722879999568
 20
261.1943018239998082
 30
0.0
 11
67.7570378882399353
 21
253.294301823999831
 31
0.0
  0
LINE
  5
183
100
AcDbEntity
  8
0
 62
13
420
11031872
370
-1
 48
1.0
  6
BYLAYER
100
AcDbLine
 10
185.9773722879999411
 20
261.3671018239998034
 30
0.0
 11
188.5442378882399339
 21
253.4671018239998261
 31
0.0
  0
LINE
  5
184
100
AcDbEntity
  8
0
 62
13
420
11031872
370
-1
 48
1.0
  6
BYLAYER
100
AcDbLine
 10
155.5645722879999369
 20
261.3671018239998034
 30
0.0
 11
158.1314378882399296
 21
253.4671018239998261
 31
0.0
  0
LINE
  5
185
100
AcDbEntity
  8
0
 62
13
420
11031872
370
-1
 48
1.0
  6
BYLAYER
100
AcDbLine
 10
125.3245722879999562
 20
261.3671018239998034
 30
0.0
 11
127.8914378882399348
 21
253.4671018239998261
 31
0.0
  0
LINE
  5
186
100
AcDbEntity
  8
0
 62
13
420
11031872
370
-1
 48
1.0
  6
BYLAYER
100
AcDbLine
 10
65.1901722879999568
 20
231.1271018239998227
 30
0.0
 11
67.7570378882399496
 21
223.2271018239998455
 31
0.0
  0
LINE
  5
187
100
AcDbEntity
  8
0
 62
13
420
11031872
370
-1
 48
1.0
  6
BYLAYER
100
AcDbLine
 10
35.1229722879999713
 20
230.9543018239998275
 30
0.0
 11
37.6898378882399498
 21
223.0543018239998503
 31
0.0
  0
LINE
  5
188
100
AcDbEntity
  8
0
 62
13
420
11031872
370
-1
 48
1.0
  6
BYLAYER
100
AcDbLine
 10
156.255772287999946
 20
230.9543018239998275
 30
0.0
 11
158.8226378882399104
 21
223.0543018239998503
 31
0.0
  0
LINE
  5
189
100
AcDbEntity
  8
0
 62
13
420
11031872
370
-1
 48
1.0
  6
BYLAYER
100
AcDbLine
 10
113.3429722879999701
 20
230.9543018239998275
 30
0.0
 11
104.8828662560732425
 21
223.065125318903938
 31
0.0
  0
LINE
  5
18A
100
AcDbEntity
  8
0
 62
13
420
11031872
370
-1
 48
1.0
  6
BYLAYER
100
AcDbLine
 10
82.5845722879999755
 20
231.1271018239998227
 30
0.0
 11
74.1244662560732479
 21
223.2379253189039332
 31
0.0
  0
LINE
  5
18B
100
AcDbEntity
  8
0
 62
13
420
11031872
370
-1
 48
1.0
  6
BYLAYER
100
AcDbLine
 10
22.6229722879999997
 20
200.5415018239998233
 30
0.0
 11
14.1628662560732792
 21
192.6523253189039337
 31
0.0
  0
LINE
  5
18C
100
AcDbEntity
  8
0
 62
13
420
11031872
370
-1
 48
1.0
  6
BYLAYER
100
AcDbLine
 10
174.3413722879999455
 20
230.7815018239998039
 30
0.0
 11
165.8812662560732178
 21
222.8923253189039144
 31
0.0
  0
LINE
  5
18D
100
AcDbEntity
  8
0
 62
13
420
11031872
370
-1
 48
1.0
  6
BYLAYER
100
AcDbLine
 10
114.552572287999979
 20
199.8503018239998141
 30
0.0
 11
106.0924662560732656
 21
191.9611253189039246
 31
0.0
  0
LINE
  5
18E
100
AcDbEntity
  8
0
 62
13
420
11031872
370
-1
 48
1.0
  6
BYLAYER
100
AcDbLine
 10
84.1397722879999748
 20
199.8503018239998141
 30
0.0
 11
75.6796662560732614
 21
191.9611253189039246
 31
0.0
  0
LINE
  5
18F
100
AcDbEntity
  8
0
 62
13
420
11031872
370
-1
 48
1.0
  6
BYLAYER
100
AcDbLine
 10
53.5541722879999895
 20
200.3687018239998281
 30
0.0
 11
45.094066256073269
 21
192.4795253189039386
 31
0.0
  0
LINE
  5
190
100
AcDbEntity
  8
0
 62
13
420
11031872
370
-1
 48
1.0
  6
BYLAYER
100
AcDbLine
 10
175.0325722879999546
 20
199.8503018239998141
 30
0.0
 11
166.572466256073227
 21
191.9611253189039246
 31
0.0
  0
LINE
  5
191
100
AcDbEntity
  8
0
 62
13
420
11031872
370
-1
 48
1.0
  6
BYLAYER
100
AcDbLine
 10
144.27417228799996
 20
199.8503018239998141
 30
0.0
 11
135.8140662560732324
 21
191.9611253189039246
 31
0.0
  0
LINE
  5
192
100
AcDbEntity
  8
0
 62
13
420
11031872
370
-1
 48
1.0
  6
BYLAYER
100
AcDbLine
 10
22.542644983519331
 20
261.516466485015826
 30
0.0
 11
14.0825389515926105
 21
253.6272899799199365
 31
0.0
  0
LINE
  5
193
100
AcDbEntity
  8
0
 62
13
420
11031872
370
-1
 48
1.0
  6
BYLAYER
100
AcDbLine
 10
82.7573722879999707
 20
261.1943018239998082
 30
0.0
 11
74.2972662560732431
 21
253.3051253189039187
 31
0.0
  0
LINE
  5
194
100
AcDbEntity
  8
0
 62
13
420
11031872
370
-1
 48
1.0
  6
BYLAYER
100
AcDbLine
 10
52.6901722879999852
 20
261.1943018239998082
 30
0.0
 11
44.2300662560732647
 21
253.3051253189039187
 31
0.0
  0
LINE
  5
195
100
AcDbEntity
  8
0
 62
13
420
11031872
370
-1
 48
1.0
  6
BYLAYER
100
AcDbLine
 10
143.0645722879999653
 20
261.3671018239998034
 30
0.0
 11
134.6044662560732377
 21
253.4779253189039139
 31
0.0
  0
LINE
  5
196
100
AcDbEntity
  8
0
 62
13
420
11031872
370
-1
 48
1.0
  6
BYLAYER
100
AcDbLine
 10
112.8245722879999846
 20
261.3671018239998034
 30
0.0
 11
104.364466256073257
 21
253.4779253189039139
 31
0.0
  0
LINE
  5
197
100
AcDbEntity
  8
0
 62
13
420
11031872
370
-1
 48
1.0
  6
BYLAYER
100
AcDbLine
 10
52.6901722879999923
 20
231.1271018239998227
 30
0.0
 11
44.2300662560732718
 21
223.2379253189039332
 31
0.0
  0
LINE
  5
198
100
AcDbEntity
  8
0
 62
13
420
11031872
370
-1
 48
1.0
  6
BYLAYER
100
AcDbLine
 10
22.6229722879999997
 20
230.9543018239998275
 30
0.0
 11
14.1628662560732792
 21
223.065125318903938
 31
0.0
  0
LINE
  5
199
100
AcDbEntity
  8
0
 62
13
420
11031872
370
-1
 48
1.0
  6
BYLAYER
100
AcDbLine
 10
173.4773722879999696
 20
261.3671018239998034
 30
0.0
 11
165.0172662560732419
 21
253.4779253189039139
 31
0.0
  0
LINE
  5
19A
100
AcDbEntity
  8
0
 62
13
420
11031872
370
-1
 48
1.0
  6
BYLAYER
100
AcDbLine
 10
143.7557722879999744
 20
230.9543018239998275
 30
0.0
 11
135.2956662560732468
 21
223.065125318903938
 31
0.0
  0
LINE
  5
19B
100
AcDbEntity
  8
0
 62
13
420
11031872
370
-1
 48
1.0
  6
BYLAYER
100
AcDbLine
 10
113.3429722879999986
 20
243.4543018239998275
 30
0.0
 11
105.4537957829040806
 21
251.9144078559265552
 31
0.0
  0
LINE
  5
19C
100
AcDbEntity
  8
0
 62
13
420
11031872
370
-1
 48
1.0
  6
BYLAYER
100
AcDbLine
 10
82.5845722880000039
 20
243.6271018239998227
 30
0.0
 11
74.695395782904086
 21
252.0872078559265503
 31
0.0
  0
LINE
  5
19D
100
AcDbEntity
  8
0
 62
13
420
11031872
370
-1
 48
1.0
  6
BYLAYER
100
AcDbLine
 10
22.6229722880000281
 20
213.0415018239998233
 30
0.0
 11
14.7337957829041102
 21
221.5016078559265509
 31
0.0
  0
LINE
  5
19E
100
AcDbEntity
  8
0
 62
13
420
11031872
370
-1
 48
1.0
  6
BYLAYER
100
AcDbLine
 10
174.3413722879999739
 20
243.2815018239998039
 30
0.0
 11
166.4521957829040559
 21
251.7416078559265316
 31
0.0
  0
LINE
  5
19F
100
AcDbEntity
  8
0
 62
13
420
11031872
370
-1
 48
1.0
  6
BYLAYER
100
AcDbLine
 10
114.5525722880000075
 20
212.3503018239998141
 30
0.0
 11
106.6633957829040895
 21
220.8104078559265417
 31
0.0
  0
LINE
  5
1A0
100
AcDbEntity
  8
0
 62
13
420
11031872
370
-1
 48
1.0
  6
BYLAYER
100
AcDbLine
 10
84.1397722880000032
 20
212.3503018239998141
 30
0.0
 11
76.2505957829040852
 21
220.8104078559265417
 31
0.0
  0
LINE
  5
1A1
100
AcDbEntity
  8
0
 62
13
420
11031872
370
-1
 48
1.0
  6
BYLAYER
100
AcDbLine
 10
53.5541722880000179
 20
212.8687018239998281
 30
0.0
 11
45.6649957829041
 21
221.3288078559265557
 31
0.0
  0
LINE
  5
1A2
100
AcDbEntity
  8
0
 62
13
420
11031872
370
-1
 48
1.0
  6
BYLAYER
100
AcDbLine
 10
175.032572287999983
 20
212.3503018239998141
 30
0.0
 11
167.1433957829040651
 21
220.8104078559265417
 31
0.0
  0
LINE
  5
1A3
100
AcDbEntity
  8
0
 62
13
420
11031872
370
-1
 48
1.0
  6
BYLAYER
100
AcDbLine
 10
144.2741722879999884
 20
212.3503018239998141
 30
0.0
 11
136.3849957829040704
 21
220.8104078559265417
 31
0.0
  0
LINE
  5
1A4
100
AcDbEntity
  8
0
 62
13
420
11031872
370
-1
 48
1.0
  6
BYLAYER
100
AcDbLine
 10
82.7573722879999991
 20
273.6943018239998082
 30
0.0
 11
74.8681957829040812
 21
282.1544078559265358
 31
0.0
  0
LINE
  5
1A5
100
AcDbEntity
  8
0
 62
13
420
11031872
370
-1
 48
1.0
  6
BYLAYER
100
AcDbLine
 10
52.6901722880000136
 20
273.6943018239998082
 30
0.0
 11
44.8009957829040957
 21
282.1544078559265358
 31
0.0
  0
LINE
  5
1A6
100
AcDbEntity
  8
0
 62
13
420
11031872
370
-1
 48
1.0
  6
BYLAYER
100
AcDbLine
 10
22.5426449835193594
 20
274.016466485015826
 30
0.0
 11
14.6534684784234415
 21
282.4765725169425536
 31
0.0
  0
LINE
  5
1A7
100
AcDbEntity
  8
0
 62
13
420
11031872
370
-1
 48
1.0
  6
BYLAYER
100
AcDbLine
 10
143.0645722879999937
 20
273.8671018239998034
 30
0.0
 11
135.1753957829040758
 21
282.327207855926531
 31
0.0
  0
LINE
  5
1A8
100
AcDbEntity
  8
0
 62
13
420
11031872
370
-1
 48
1.0
  6
BYLAYER
100
AcDbLine
 10
112.824572288000013
 20
273.8671018239998034
 30
0.0
 11
104.9353957829040951
 21
282.327207855926531
 31
0.0
  0
LINE
  5
1A9
100
AcDbEntity
  8
0
 62
13
420
11031872
370
-1
 48
1.0
  6
BYLAYER
100
AcDbLine
 10
52.6901722880000207
 20
243.6271018239998227
 30
0.0
 11
44.8009957829041028
 21
252.0872078559265503
 31
0.0
  0
LINE
  5
1AA
100
AcDbEntity
  8
0
 62
13
420
11031872
370
-1
 48
1.0
  6
BYLAYER
100
AcDbLine
 10
22.6229722880000281
 20
243.4543018239998275
 30
0.0
 11
14.7337957829041102
 21
251.9144078559265552
 31
0.0
  0
LINE
  5
1AB
100
AcDbEntity
  8
0
 62
13
420
11031872
370
-1
 48
1.0
  6
BYLAYER
100
AcDbLine
 10
173.477372287999998
 20
273.8671018239998034
 30
0.0
 11
165.58819578290408
 21
282.327207855926531
 31
0.0
  0
LINE
  5
1AC
100
AcDbEntity
  8
0
 62
13
420
11031872
370
-1
 48
1.0
  6
BYLAYER
100
AcDbLine
 10
143.7557722880000028
 20
243.4543018239998275
 30
0.0
 11
135.8665957829040849
 21
251.9144078559265552
 31
0.0
  0
LINE
  5
1AD
100
AcDbEntity
  8
0
 62
13
420
11031872
370
-1
 48
1.0
  6
BYLAYER
100
AcDbLine
 10
125.8429722879999701
 20
243.4543018239998844
 30
0.0
 11
134.3146850971949107
 21
251.3543018239998617
 31
0.0
  0
LINE
  5
1AE
100
AcDbEntity
  8
0
 62
13
420
11031872
370
-1
 48
1.0
  6
BYLAYER
100
AcDbLine
 10
95.0845722879999755
 20
243.6271018239998796
 30
0.0
 11
103.556285097194916
 21
251.5271018239998568
 31
0.0
  0
LINE
  5
1AF
100
AcDbEntity
  8
0
 62
13
420
11031872
370
-1
 48
1.0
  6
BYLAYER
100
AcDbLine
 10
35.1229722879999997
 20
213.0415018239998801
 30
0.0
 11
43.5946850971949402
 21
220.9415018239998574
 31
0.0
  0
LINE
  5
1B0
100
AcDbEntity
  8
0
 62
13
420
11031872
370
-1
 48
1.0
  6
BYLAYER
100
AcDbLine
 10
186.8413722879999455
 20
243.2815018239998608
 30
0.0
 11
195.313085097194886
 21
251.1815018239998381
 31
0.0
  0
LINE
  5
1B1
100
AcDbEntity
  8
0
 62
13
420
11031872
370
-1
 48
1.0
  6
BYLAYER
100
AcDbLine
 10
127.052572287999979
 20
212.350301823999871
 30
0.0
 11
135.5242850971949338
 21
220.2503018239998482
 31
0.0
  0
LINE
  5
1B2
100
AcDbEntity
  8
0
 62
13
420
11031872
370
-1
 48
1.0
  6
BYLAYER
100
AcDbLine
 10
96.6397722879999748
 20
212.350301823999871
 30
0.0
 11
105.1114850971949153
 21
220.2503018239998482
 31
0.0
  0
LINE
  5
1B3
100
AcDbEntity
  8
0
 62
13
420
11031872
370
-1
 48
1.0
  6
BYLAYER
100
AcDbLine
 10
66.0541722879999895
 20
212.8687018239998849
 30
0.0
 11
74.52588509719493
 21
220.7687018239998622
 31
0.0
  0
LINE
  5
1B4
100
AcDbEntity
  8
0
 62
13
420
11031872
370
-1
 48
1.0
  6
BYLAYER
100
AcDbLine
 10
187.5325722879999546
 20
212.350301823999871
 30
0.0
 11
196.0042850971948951
 21
220.2503018239998482
 31
0.0
  0
LINE
  5
1B5
100
AcDbEntity
  8
0
 62
13
420
11031872
370
-1
 48
1.0
  6
BYLAYER
100
AcDbLine
 10
156.77417228799996
 20
212.350301823999871
 30
0.0
 11
165.2458850971949005
 21
220.2503018239998482
 31
0.0
  0
LINE
  5
1B6
100
AcDbEntity
  8
0
 62
13
420
11031872
370
-1
 48
1.0
  6
BYLAYER
100
AcDbLine
 10
95.2573722879999707
 20
273.6943018239998651
 30
0.0
 11
103.7290850971949112
 21
281.5943018239998423
 31
0.0
  0
LINE
  5
1B7
100
AcDbEntity
  8
0
 62
13
420
11031872
370
-1
 48
1.0
  6
BYLAYER
100
AcDbLine
 10
65.1901722879999852
 20
273.6943018239998651
 30
0.0
 11
73.6618850971949257
 21
281.5943018239998423
 31
0.0
  0
LINE
  5
1B8
100
AcDbEntity
  8
0
 62
13
420
11031872
370
-1
 48
1.0
  6
BYLAYER
100
AcDbLine
 10
35.042644983519331
 20
274.0164664850158829
 30
0.0
 11
43.5143577927142715
 21
281.9164664850158601
 31
0.0
  0
LINE
  5
1B9
100
AcDbEntity
  8
0
 62
13
420
11031872
370
-1
 48
1.0
  6
BYLAYER
100
AcDbLine
 10
155.5645722879999653
 20
273.8671018239998602
 30
0.0
 11
164.0362850971949058
 21
281.7671018239998375
 31
0.0
  0
LINE
  5
1BA
100
AcDbEntity
  8
0
 62
13
420
11031872
370
-1
 48
1.0
  6
BYLAYER
100
AcDbLine
 10
125.3245722879999846
 20
273.8671018239998602
 30
0.0
 11
133.7962850971949251
 21
281.7671018239998375
 31
0.0
  0
LINE
  5
1BB
100
AcDbEntity
  8
0
 62
13
420
11031872
370
-1
 48
1.0
  6
BYLAYER
100
AcDbLine
 10
65.1901722879999852
 20
243.6271018239998796
 30
0.0
 11
73.6618850971949257
 21
251.5271018239998568
 31
0.0
  0
LINE
  5
1BC
100
AcDbEntity
  8
0
 62
13
420
11031872
370
-1
 48
1.0
  6
BYLAYER
100
AcDbLine
 10
35.1229722879999997
 20
243.4543018239998844
 30
0.0
 11
43.5946850971949402
 21
251.3543018239998617
 31
0.0
  0
LINE
  5
1BD
100
AcDbEntity
  8
0
 62
13
420
11031872
370
-1
 48
1.0
  6
BYLAYER
100
AcDbLine
 10
185.9773722879999696
 20
273.8671018239998602
 30
0.0
 11
194.4490850971949101
 21
281.7671018239998375
 31
0.0
  0
LINE
  5
1BE
100
AcDbEntity
  8
0
 62
13
420
11031872
370
-1
 48
1.0
  6
BYLAYER
100
AcDbLine
 10
156.2557722879999744
 20
243.4543018239998844
 30
0.0
 11
164.7274850971949149
 21
251.3543018239998617
 31
0.0
  0
LINE
  5
1BF
100
AcDbEntity
  8
0
 62
13
420
11031872
370
-1
 48
1.0
  6
BYLAYER
100
AcDbLine
 10
125.8429722879999417
 20
230.9543018239997139
 30
0.0
 11
133.7429722879999474
 21
222.5043018239998389
 31
0.0
  0
LINE
  5
1C0
100
AcDbEntity
  8
0
 62
13
420
11031872
370
-1
 48
1.0
  6
BYLAYER
100
AcDbLine
 10
95.0845722879999471
 20
231.127101823999709
 30
0.0
 11
102.9845722879999528
 21
222.6771018239998341
 31
0.0
  0
LINE
  5
1C1
100
AcDbEntity
  8
0
 62
13
420
11031872
370
-1
 48
1.0
  6
BYLAYER
100
AcDbLine
 10
35.1229722879999713
 20
200.5415018239997096
 30
0.0
 11
43.022972287999977
 21
192.0915018239998346
 31
0.0
  0
LINE
  5
1C2
100
AcDbEntity
  8
0
 62
13
420
11031872
370
-1
 48
1.0
  6
BYLAYER
100
AcDbLine
 10
186.841372287999917
 20
230.7815018239996903
 30
0.0
 11
194.7413722879999227
 21
222.3315018239998153
 31
0.0
  0
LINE
  5
1C3
100
AcDbEntity
  8
0
 62
13
420
11031872
370
-1
 48
1.0
  6
BYLAYER
100
AcDbLine
 10
127.0525722879999506
 20
199.8503018239997004
 30
0.0
 11
134.9525722879999421
 21
191.4003018239998255
 31
0.0
  0
LINE
  5
1C4
100
AcDbEntity
  8
0
 62
13
420
11031872
370
-1
 48
1.0
  6
BYLAYER
100
AcDbLine
 10
96.6397722879999463
 20
199.8503018239997004
 30
0.0
 11
104.539772287999952
 21
191.4003018239998255
 31
0.0
  0
LINE
  5
1C5
100
AcDbEntity
  8
0
 62
13
420
11031872
370
-1
 48
1.0
  6
BYLAYER
100
AcDbLine
 10
66.0541722879999611
 20
200.3687018239997144
 30
0.0
 11
73.9541722879999668
 21
191.9187018239998395
 31
0.0
  0
LINE
  5
1C6
100
AcDbEntity
  8
0
 62
13
420
11031872
370
-1
 48
1.0
  6
BYLAYER
100
AcDbLine
 10
187.5325722879999262
 20
199.8503018239997004
 30
0.0
 11
195.4325722879999319
 21
191.4003018239998255
 31
0.0
  0
LINE
  5
1C7
100
AcDbEntity
  8
0
 62
13
420
11031872
370
-1
 48
1.0
  6
BYLAYER
100
AcDbLine
 10
156.7741722879999315
 20
199.8503018239997004
 30
0.0
 11
164.6741722879999372
 21
191.4003018239998255
 31
0.0
  0
LINE
  5
1C8
100
AcDbEntity
  8
0
 62
13
420
11031872
370
-1
 48
1.0
  6
BYLAYER
100
AcDbLine
 10
95.2573722879999423
 20
261.1943018239996945
 30
0.0
 11
103.157372287999948
 21
252.7443018239998196
 31
0.0
  0
LINE
  5
1C9
100
AcDbEntity
  8
0
 62
13
420
11031872
370
-1
 48
1.0
  6
BYLAYER
100
AcDbLine
 10
65.1901722879999568
 20
261.1943018239996945
 30
0.0
 11
73.0901722879999625
 21
252.7443018239998196
 31
0.0
  0
LINE
  5
1CA
100
AcDbEntity
  8
0
 62
13
420
11031872
370
-1
 48
1.0
  6
BYLAYER
100
AcDbLine
 10
35.0426449835193026
 20
261.5164664850157124
 30
0.0
 11
42.9426449835193083
 21
253.0664664850158374
 31
0.0
  0
LINE
  5
1CB
100
AcDbEntity
  8
0
 62
13
420
11031872
370
-1
 48
1.0
  6
BYLAYER
100
AcDbLine
 10
155.5645722879999369
 20
261.3671018239996897
 30
0.0
 11
163.4645722879999425
 21
252.9171018239998148
 31
0.0
  0
LINE
  5
1CC
100
AcDbEntity
  8
0
 62
13
420
11031872
370
-1
 48
1.0
  6
BYLAYER
100
AcDbLine
 10
125.3245722879999562
 20
261.3671018239996897
 30
0.0
 11
133.2245722879999619
 21
252.9171018239998148
 31
0.0
  0
LINE
  5
1CD
100
AcDbEntity
  8
0
 62
13
420
11031872
370
-1
 48
1.0
  6
BYLAYER
100
AcDbLine
 10
65.1901722879999568
 20
231.127101823999709
 30
0.0
 11
73.0901722879999625
 21
222.6771018239998341
 31
0.0
  0
LINE
  5
1CE
100
AcDbEntity
  8
0
 62
13
420
11031872
370
-1
 48
1.0
  6
BYLAYER
100
AcDbLine
 10
35.1229722879999713
 20
230.9543018239997139
 30
0.0
 11
43.022972287999977
 21
222.5043018239998389
 31
0.0
  0
LINE
  5
1CF
100
AcDbEntity
  8
0
 62
13
420
11031872
370
-1
 48
1.0
  6
BYLAYER
100
AcDbLine
 10
185.9773722879999411
 20
261.3671018239996897
 30
0.0
 11
193.8773722879999468
 21
252.9171018239998148
 31
0.0
  0
LINE
  5
1D0
100
AcDbEntity
  8
0
 62
13
420
11031872
370
-1
 48
1.0
  6
BYLAYER
100
AcDbLine
 10
156.255772287999946
 20
230.9543018239997139
 30
0.0
 11
164.1557722879999517
 21
222.5043018239998389
 31
0.0
  0
LINE
  5
1D1
100
AcDbEntity
  8
0
 62
5
420
255
370
-1
 48
1.0
  6
ACAD_ISO07W100
100
AcDbLine
 10
103.3216519444403048
 20
243.899847080680189
 30
0.0
 11
112.8974270313196513
 21
253.4756221675595214
 31
0.0
  0
LINE
  5
1D2
100
AcDbEntity
  8
0
 62
5
420
255
370
-1
 48
1.0
  6
ACAD_ISO07W100
100
AcDbLine
 10
72.5632519444403101
 20
244.0726470806801842
 30
0.0
 11
82.1390270313196567
 21
253.6484221675595165
 31
0.0
  0
LINE
  5
1D3
100
AcDbEntity
  8
0
 62
5
420
255
370
-1
 48
1.0
  6
ACAD_ISO07W100
100
AcDbLine
 10
12.6016519444403343
 20
213.4870470806801848
 30
0.0
 11
22.1774270313196809
 21
223.0628221675595171
 31
0.0
  0
LINE
  5
1D4
100
AcDbEntity
  8
0
 62
5
420
255
370
-1
 48
1.0
  6
ACAD_ISO07W100
100
AcDbLine
 10
164.3200519444402801
 20
243.7270470806801654
 30
0.0
 11
173.8958270313196408
 21
253.3028221675594978
 31
0.0
  0
LINE
  5
1D5
100
AcDbEntity
  8
0
 62
5
420
255
370
-1
 48
1.0
  6
ACAD_ISO07W100
100
AcDbLine
 10
104.5312519444403137
 20
212.7958470806801756
 30
0.0
 11
114.1070270313196602
 21
222.3716221675595079
 31
0.0
  0
LINE
  5
1D6
100
AcDbEntity
  8
0
 62
5
420
255
370
-1
 48
1.0
  6
ACAD_ISO07W100
100
AcDbLine
 10
74.1184519444403094
 20
212.7958470806801756
 30
0.0
 11
83.6942270313196559
 21
222.3716221675595079
 31
0.0
  0
LINE
  5
1D7
100
AcDbEntity
  8
0
 62
5
420
255
370
-1
 48
1.0
  6
ACAD_ISO07W100
100
AcDbLine
 10
43.5328519444403241
 20
213.3142470806801896
 30
0.0
 11
53.1086270313196707
 21
222.8900221675595219
 31
0.0
  0
LINE
  5
1D8
100
AcDbEntity
  8
0
 62
5
420
255
370
-1
 48
1.0
  6
ACAD_ISO07W100
100
AcDbLine
 10
165.0112519444402892
 20
212.7958470806801756
 30
0.0
 11
174.5870270313196215
 21
222.3716221675595079
 31
0.0
  0
LINE
  5
1D9
100
AcDbEntity
  8
0
 62
5
420
255
370
-1
 48
1.0
  6
ACAD_ISO07W100
100
AcDbLine
 10
134.2528519444402946
 20
212.7958470806801756
 30
0.0
 11
143.8286270313196269
 21
222.3716221675595079
 31
0.0
  0
LINE
  5
1DA
100
AcDbEntity
  8
0
 62
5
420
255
370
-1
 48
1.0
  6
ACAD_ISO07W100
100
AcDbLine
 10
72.7360519444403053
 20
274.1398470806801697
 30
0.0
 11
82.3118270313196518
 21
283.715622167559502
 31
0.0
  0
LINE
  5
1DB
100
AcDbEntity
  8
0
 62
5
420
255
370
-1
 48
1.0
  6
ACAD_ISO07W100
100
AcDbLine
 10
42.6688519444403198
 20
274.1398470806801697
 30
0.0
 11
52.2446270313196663
 21
283.715622167559502
 31
0.0
  0
LINE
  5
1DC
100
AcDbEntity
  8
0
 62
5
420
255
370
-1
 48
1.0
  6
ACAD_ISO07W100
100
AcDbLine
 10
12.5213246399596656
 20
274.4620117416961875
 30
0.0
 11
22.0970997268390121
 21
284.0377868285755198
 31
0.0
  0
LINE
  5
1DD
100
AcDbEntity
  8
0
 62
5
420
255
370
-1
 48
1.0
  6
ACAD_ISO07W100
100
AcDbLine
 10
133.0432519444402999
 20
274.3126470806801649
 30
0.0
 11
142.6190270313196606
 21
283.8884221675594972
 31
0.0
  0
LINE
  5
1DE
100
AcDbEntity
  8
0
 62
5
420
255
370
-1
 48
1.0
  6
ACAD_ISO07W100
100
AcDbLine
 10
102.8032519444403192
 20
274.3126470806801649
 30
0.0
 11
112.3790270313196658
 21
283.8884221675594972
 31
0.0
  0
LINE
  5
1DF
100
AcDbEntity
  8
0
 62
5
420
255
370
-1
 48
1.0
  6
ACAD_ISO07W100
100
AcDbLine
 10
42.6688519444403269
 20
244.0726470806801842
 30
0.0
 11
52.2446270313196734
 21
253.6484221675595165
 31
0.0
  0
LINE
  5
1E0
100
AcDbEntity
  8
0
 62
5
420
255
370
-1
 48
1.0
  6
ACAD_ISO07W100
100
AcDbLine
 10
12.6016519444403343
 20
243.899847080680189
 30
0.0
 11
22.1774270313196809
 21
253.4756221675595214
 31
0.0
  0
LINE
  5
1E1
100
AcDbEntity
  8
0
 62
5
420
255
370
-1
 48
1.0
  6
ACAD_ISO07W100
100
AcDbLine
 10
163.4560519444403042
 20
274.3126470806801649
 30
0.0
 11
173.0318270313196649
 21
283.8884221675594972
 31
0.0
  0
LINE
  5
1E2
100
AcDbEntity
  8
0
 62
5
420
255
370
-1
 48
1.0
  6
ACAD_ISO07W100
100
AcDbLine
 10
133.734451944440309
 20
243.899847080680189
 30
0.0
 11
143.3102270313196414
 21
253.4756221675595214
 31
0.0
  0
LINE
  5
1E3
100
AcDbEntity
  8
0
 62
5
420
255
370
-1
 48
1.0
  6
ACAD_ISO07W100
100
AcDbLine
 10
126.2885175446802748
 20
253.4756221675595214
 30
0.0
 11
135.8642926315595787
 21
243.8998470806801322
 31
0.0
  0
LINE
  5
1E4
100
AcDbEntity
  8
0
 62
5
420
255
370
-1
 48
1.0
  6
ACAD_ISO07W100
100
AcDbLine
 10
95.5301175446802802
 20
253.6484221675595165
 30
0.0
 11
105.1058926315595983
 21
244.0726470806801274
 31
0.0
  0
LINE
  5
1E5
100
AcDbEntity
  8
0
 62
5
420
255
370
-1
 48
1.0
  6
ACAD_ISO07W100
100
AcDbLine
 10
35.5685175446803044
 20
223.0628221675595171
 30
0.0
 11
45.1442926315596225
 21
213.4870470806801279
 31
0.0
  0
LINE
  5
1E6
100
AcDbEntity
  8
0
 62
5
420
255
370
-1
 48
1.0
  6
ACAD_ISO07W100
100
AcDbLine
 10
187.2869175446802501
 20
253.3028221675594978
 30
0.0
 11
196.8626926315595824
 21
243.7270470806801086
 31
0.0
  0
LINE
  5
1E7
100
AcDbEntity
  8
0
 62
5
420
255
370
-1
 48
1.0
  6
ACAD_ISO07W100
100
AcDbLine
 10
127.4981175446802837
 20
222.3716221675595079
 30
0.0
 11
137.0738926315596018
 21
212.7958470806801188
 31
0.0
  0
LINE
  5
1E8
100
AcDbEntity
  8
0
 62
5
420
255
370
-1
 48
1.0
  6
ACAD_ISO07W100
100
AcDbLine
 10
97.0853175446802794
 20
222.3716221675595079
 30
0.0
 11
106.6610926315595975
 21
212.7958470806801188
 31
0.0
  0
LINE
  5
1E9
100
AcDbEntity
  8
0
 62
5
420
255
370
-1
 48
1.0
  6
ACAD_ISO07W100
100
AcDbLine
 10
66.4997175446802942
 20
222.8900221675595219
 30
0.0
 11
76.0754926315596123
 21
213.3142470806801327
 31
0.0
  0
LINE
  5
1EA
100
AcDbEntity
  8
0
 62
5
420
255
370
-1
 48
1.0
  6
ACAD_ISO07W100
100
AcDbLine
 10
187.9781175446802592
 20
222.3716221675595079
 30
0.0
 11
197.5538926315595631
 21
212.7958470806801188
 31
0.0
  0
LINE
  5
1EB
100
AcDbEntity
  8
0
 62
5
420
255
370
-1
 48
1.0
  6
ACAD_ISO07W100
100
AcDbLine
 10
157.2197175446802646
 20
222.3716221675595079
 30
0.0
 11
166.7954926315595685
 21
212.7958470806801188
 31
0.0
  0
LINE
  5
1EC
100
AcDbEntity
  8
0
 62
5
420
255
370
-1
 48
1.0
  6
ACAD_ISO07W100
100
AcDbLine
 10
95.7029175446802753
 20
283.715622167559502
 30
0.0
 11
105.2786926315595935
 21
274.1398470806801129
 31
0.0
  0
LINE
  5
1ED
100
AcDbEntity
  8
0
 62
5
420
255
370
-1
 48
1.0
  6
ACAD_ISO07W100
100
AcDbLine
 10
65.6357175446802898
 20
283.715622167559502
 30
0.0
 11
75.211492631559608
 21
274.1398470806801129
 31
0.0
  0
LINE
  5
1EE
100
AcDbEntity
  8
0
 62
5
420
255
370
-1
 48
1.0
  6
ACAD_ISO07W100
100
AcDbLine
 10
35.4881902401996356
 20
284.0377868285755198
 30
0.0
 11
45.0639653270789537
 21
274.4620117416961307
 31
0.0
  0
LINE
  5
1EF
100
AcDbEntity
  8
0
 62
5
420
255
370
-1
 48
1.0
  6
ACAD_ISO07W100
100
AcDbLine
 10
156.0101175446802699
 20
283.8884221675594972
 30
0.0
 11
165.5858926315596023
 21
274.312647080680108
 31
0.0
  0
LINE
  5
1F0
100
AcDbEntity
  8
0
 62
5
420
255
370
-1
 48
1.0
  6
ACAD_ISO07W100
100
AcDbLine
 10
125.7701175446802893
 20
283.8884221675594972
 30
0.0
 11
135.3458926315595932
 21
274.312647080680108
 31
0.0
  0
LINE
  5
1F1
100
AcDbEntity
  8
0
 62
5
420
255
370
-1
 48
1.0
  6
ACAD_ISO07W100
100
AcDbLine
 10
65.6357175446802898
 20
253.6484221675595165
 30
0.0
 11
75.2114926315596222
 21
244.0726470806801274
 31
0.0
  0
LINE
  5
1F2
100
AcDbEntity
  8
0
 62
5
420
255
370
-1
 48
1.0
  6
ACAD_ISO07W100
100
AcDbLine
 10
35.5685175446803044
 20
253.4756221675595214
 30
0.0
 11
45.1442926315596225
 21
243.8998470806801322
 31
0.0
  0
LINE
  5
1F3
100
AcDbEntity
  8
0
 62
5
420
255
370
-1
 48
1.0
  6
ACAD_ISO07W100
100
AcDbLine
 10
186.4229175446802742
 20
283.8884221675594972
 30
0.0
 11
195.9986926315596065
 21
274.312647080680108
 31
0.0
  0
LINE
  5
1F4
100
AcDbEntity
  8
0
 62
5
420
255
370
-1
 48
1.0
  6
ACAD_ISO07W100
100
AcDbLine
 10
156.7013175446802791
 20
253.4756221675595214
 30
0.0
 11
166.277092631559583
 21
243.8998470806801322
 31
0.0
  0
LINE
  5
1F5
100
AcDbEntity
  8
0
 62
5
420
255
370
-1
 48
1.0
  6
ACAD_ISO07W100
100
AcDbLine
 10
135.8642926315595787
 20
230.5087565673195229
 30
0.0
 11
126.2885175446802606
 21
220.9329814804401622
 31
0.0
  0
LINE
  5
1F6
100
AcDbEntity
  8
0
 62
5
420
255
370
-1
 48
1.0
  6
ACAD_ISO07W100
100
AcDbLine
 10
105.1058926315595841
 20
230.6815565673195181
 30
0.0
 11
95.530117544680266
 21
221.1057814804401573
 31
0.0
  0
LINE
  5
1F7
100
AcDbEntity
  8
0
 62
5
420
255
370
-1
 48
1.0
  6
ACAD_ISO07W100
100
AcDbLine
 10
45.1442926315596083
 20
200.0959565673195186
 30
0.0
 11
35.5685175446802901
 21
190.5201814804401579
 31
0.0
  0
LINE
  5
1F8
100
AcDbEntity
  8
0
 62
5
420
255
370
-1
 48
1.0
  6
ACAD_ISO07W100
100
AcDbLine
 10
196.862692631559554
 20
230.3359565673194993
 30
0.0
 11
187.2869175446802501
 21
220.7601814804401386
 31
0.0
  0
LINE
  5
1F9
100
AcDbEntity
  8
0
 62
5
420
255
370
-1
 48
1.0
  6
ACAD_ISO07W100
100
AcDbLine
 10
137.0738926315596018
 20
199.4047565673195095
 30
0.0
 11
127.4981175446802695
 21
189.8289814804401487
 31
0.0
  0
LINE
  5
1FA
100
AcDbEntity
  8
0
 62
5
420
255
370
-1
 48
1.0
  6
ACAD_ISO07W100
100
AcDbLine
 10
106.6610926315595833
 20
199.4047565673195095
 30
0.0
 11
97.0853175446802652
 21
189.8289814804401487
 31
0.0
  0
LINE
  5
1FB
100
AcDbEntity
  8
0
 62
5
420
255
370
-1
 48
1.0
  6
ACAD_ISO07W100
100
AcDbLine
 10
76.0754926315595981
 20
199.9231565673195234
 30
0.0
 11
66.49971754468028
 21
190.3473814804401627
 31
0.0
  0
LINE
  5
1FC
100
AcDbEntity
  8
0
 62
5
420
255
370
-1
 48
1.0
  6
ACAD_ISO07W100
100
AcDbLine
 10
197.5538926315595631
 20
199.4047565673195095
 30
0.0
 11
187.9781175446802308
 21
189.8289814804401487
 31
0.0
  0
LINE
  5
1FD
100
AcDbEntity
  8
0
 62
5
420
255
370
-1
 48
1.0
  6
ACAD_ISO07W100
100
AcDbLine
 10
166.7954926315595685
 20
199.4047565673195095
 30
0.0
 11
157.2197175446802362
 21
189.8289814804401487
 31
0.0
  0
LINE
  5
1FE
100
AcDbEntity
  8
0
 62
5
420
255
370
-1
 48
1.0
  6
ACAD_ISO07W100
100
AcDbLine
 10
105.2786926315595792
 20
260.7487565673195036
 30
0.0
 11
95.7029175446802611
 21
251.1729814804401428
 31
0.0
  0
LINE
  5
1FF
100
AcDbEntity
  8
0
 62
5
420
255
370
-1
 48
1.0
  6
ACAD_ISO07W100
100
AcDbLine
 10
75.2114926315595937
 20
260.7487565673195036
 30
0.0
 11
65.6357175446802756
 21
251.1729814804401428
 31
0.0
  0
LINE
  5
200
100
AcDbEntity
  8
0
 62
5
420
255
370
-1
 48
1.0
  6
ACAD_ISO07W100
100
AcDbLine
 10
45.0639653270789395
 20
261.0709212283355214
 30
0.0
 11
35.4881902401996214
 21
251.4951461414561606
 31
0.0
  0
LINE
  5
201
100
AcDbEntity
  8
0
 62
5
420
255
370
-1
 48
1.0
  6
ACAD_ISO07W100
100
AcDbLine
 10
165.5858926315595738
 20
260.9215565673194988
 30
0.0
 11
156.0101175446802699
 21
251.345781480440138
 31
0.0
  0
LINE
  5
202
100
AcDbEntity
  8
0
 62
5
420
255
370
-1
 48
1.0
  6
ACAD_ISO07W100
100
AcDbLine
 10
135.3458926315595932
 20
260.9215565673194988
 30
0.0
 11
125.770117544680275
 21
251.345781480440138
 31
0.0
  0
LINE
  5
203
100
AcDbEntity
  8
0
 62
5
420
255
370
-1
 48
1.0
  6
ACAD_ISO07W100
100
AcDbLine
 10
75.2114926315595937
 20
230.6815565673195181
 30
0.0
 11
65.6357175446802898
 21
221.1057814804401573
 31
0.0
  0
LINE
  5
204
100
AcDbEntity
  8
0
 62
5
420
255
370
-1
 48
1.0
  6
ACAD_ISO07W100
100
AcDbLine
 10
45.1442926315596083
 20
230.5087565673195229
 30
0.0
 11
35.5685175446802901
 21
220.9329814804401622
 31
0.0
  0
LINE
  5
205
100
AcDbEntity
  8
0
 62
5
420
255
370
-1
 48
1.0
  6
ACAD_ISO07W100
100
AcDbLine
 10
195.9986926315595781
 20
260.9215565673194988
 30
0.0
 11
186.4229175446802742
 21
251.345781480440138
 31
0.0
  0
LINE
  5
206
100
AcDbEntity
  8
0
 62
5
420
255
370
-1
 48
1.0
  6
ACAD_ISO07W100
100
AcDbLine
 10
166.277092631559583
 20
230.5087565673195229
 30
0.0
 11
156.7013175446802506
 21
220.9329814804401622
 31
0.0
  0
LINE
  5
207
100
AcDbEntity
  8
0
 62
5
420
255
370
-1
 48
1.0
  6
ACAD_ISO07W100
100
AcDbLine
 10
112.8974270313196087
 20
220.9329814804401906
 30
0.0
 11
103.3216519444402621
 21
230.5087565673194661
 31
0.0
  0
LINE
  5
208
100
AcDbEntity
  8
0
 62
5
420
255
370
-1
 48
1.0
  6
ACAD_ISO07W100
100
AcDbLine
 10
82.139027031319614
 20
221.1057814804401858
 30
0.0
 11
72.5632519444402675
 21
230.6815565673194612
 31
0.0
  0
LINE
  5
209
100
AcDbEntity
  8
0
 62
5
420
255
370
-1
 48
1.0
  6
ACAD_ISO07W100
100
AcDbLine
 10
22.1774270313196382
 20
190.5201814804401863
 30
0.0
 11
12.6016519444402917
 21
200.0959565673194618
 31
0.0
  0
LINE
  5
20A
100
AcDbEntity
  8
0
 62
5
420
255
370
-1
 48
1.0
  6
ACAD_ISO07W100
100
AcDbLine
 10
173.895827031319584
 20
220.760181480440167
 30
0.0
 11
164.3200519444402516
 21
230.3359565673194425
 31
0.0
  0
LINE
  5
20B
100
AcDbEntity
  8
0
 62
5
420
255
370
-1
 48
1.0
  6
ACAD_ISO07W100
100
AcDbLine
 10
114.1070270313196175
 20
189.8289814804401772
 30
0.0
 11
104.531251944440271
 21
199.4047565673194526
 31
0.0
  0
LINE
  5
20C
100
AcDbEntity
  8
0
 62
5
420
255
370
-1
 48
1.0
  6
ACAD_ISO07W100
100
AcDbLine
 10
83.6942270313196133
 20
189.8289814804401772
 30
0.0
 11
74.1184519444402667
 21
199.4047565673194526
 31
0.0
  0
LINE
  5
20D
100
AcDbEntity
  8
0
 62
5
420
255
370
-1
 48
1.0
  6
ACAD_ISO07W100
100
AcDbLine
 10
53.108627031319628
 20
190.3473814804401911
 30
0.0
 11
43.5328519444402815
 21
199.9231565673194666
 31
0.0
  0
LINE
  5
20E
100
AcDbEntity
  8
0
 62
5
420
255
370
-1
 48
1.0
  6
ACAD_ISO07W100
100
AcDbLine
 10
174.5870270313195931
 20
189.8289814804401772
 30
0.0
 11
165.0112519444402324
 21
199.4047565673194526
 31
0.0
  0
LINE
  5
20F
100
AcDbEntity
  8
0
 62
5
420
255
370
-1
 48
1.0
  6
ACAD_ISO07W100
100
AcDbLine
 10
143.8286270313195985
 20
189.8289814804401772
 30
0.0
 11
134.2528519444402377
 21
199.4047565673194526
 31
0.0
  0
LINE
  5
210
100
AcDbEntity
  8
0
 62
5
420
255
370
-1
 48
1.0
  6
ACAD_ISO07W100
100
AcDbLine
 10
82.3118270313196092
 20
251.1729814804401713
 30
0.0
 11
72.7360519444402627
 21
260.7487565673194467
 31
0.0
  0
LINE
  5
211
100
AcDbEntity
  8
0
 62
5
420
255
370
-1
 48
1.0
  6
ACAD_ISO07W100
100
AcDbLine
 10
52.2446270313196237
 20
251.1729814804401713
 30
0.0
 11
42.6688519444402772
 21
260.7487565673194467
 31
0.0
  0
LINE
  5
212
100
AcDbEntity
  8
0
 62
5
420
255
370
-1
 48
1.0
  6
ACAD_ISO07W100
100
AcDbLine
 10
22.0970997268389695
 20
251.4951461414561891
 30
0.0
 11
12.521324639959623
 21
261.0709212283354645
 31
0.0
  0
LINE
  5
213
100
AcDbEntity
  8
0
 62
5
420
255
370
-1
 48
1.0
  6
ACAD_ISO07W100
100
AcDbLine
 10
142.6190270313196038
 20
251.3457814804401664
 30
0.0
 11
133.0432519444402715
 21
260.9215565673194419
 31
0.0
  0
LINE
  5
214
100
AcDbEntity
  8
0
 62
5
420
255
370
-1
 48
1.0
  6
ACAD_ISO07W100
100
AcDbLine
 10
112.3790270313196231
 20
251.3457814804401664
 30
0.0
 11
102.8032519444402766
 21
260.9215565673194419
 31
0.0
  0
LINE
  5
215
100
AcDbEntity
  8
0
 62
5
420
255
370
-1
 48
1.0
  6
ACAD_ISO07W100
100
AcDbLine
 10
52.2446270313196308
 20
221.1057814804401858
 30
0.0
 11
42.6688519444402843
 21
230.6815565673194612
 31
0.0
  0
LINE
  5
216
100
AcDbEntity
  8
0
 62
5
420
255
370
-1
 48
1.0
  6
ACAD_ISO07W100
100
AcDbLine
 10
22.1774270313196382
 20
220.9329814804401906
 30
0.0
 11
12.6016519444402917
 21
230.5087565673194661
 31
0.0
  0
LINE
  5
217
100
AcDbEntity
  8
0
 62
5
420
255
370
-1
 48
1.0
  6
ACAD_ISO07W100
100
AcDbLine
 10
173.0318270313196081
 20
251.3457814804401664
 30
0.0
 11
163.4560519444402757
 21
260.9215565673194419
 31
0.0
  0
LINE
  5
218
100
AcDbEntity
  8
0
 62
5
420
255
370
-1
 48
1.0
  6
ACAD_ISO07W100
100
AcDbLine
 10
143.3102270313196129
 20
220.9329814804401906
 30
0.0
 11
133.7344519444402522
 21
230.5087565673194661
 31
0.0
  0
LINE
  5
219
100
AcDbEntity
  8
0
 62
256
370
-1
 48
1.0
  6
BYLAYER
100
AcDbLine
 10
185.977372287999799
 20
261.3671018239998602
 30
0.0
 11
185.977372287999799
 21
261.3671018239998602
 31
0.0
  0
MTEXT
  5
21A
100
AcDbEntity
  8
0
 62
7
420
0
370
-1
 48
1.0
  6
BYLAYER
100
AcDbMText
 10
28.7926449835193594
 20
267.766466485015826
 30
0.0
 40
1.0
 41
0.0
 71
5
 72
1
  1
\H4;Tab
  7
textstyle15
 50
0.0
 73
2
 44
1.0
  0
MTEXT
  5
21B
100
AcDbEntity
  8
0
 62
7
420
0
370
-1
 48
1.0
  6
BYLAYER
100
AcDbMText
 10
58.9401722879999284
 20
267.4443018239998082
 30
0.0
 40
1.0
 41
0.0
 71
5
 72
1
  1
\H4;Esc
  7
textstyle11
 50
0.0
 73
2
 44
1.0
  0
MTEXT
  5
21C
100
AcDbEntity
  8
0
 62
7
420
0
370
-1
 48
1.0
  6
BYLAYER
100
AcDbMText
 10
89.0073722879998854
 20
267.4443018239998082
 30
0.0
 40
1.0
 41
0.0
 71
5
 72
1
  1
\H4;Shift
  7
textstyle12
 50
0.0
 73
2
 44
1.0
  0
MTEXT
  5
21D
100
AcDbEntity
  8
0
 62
7
420
0
370
-1
 48
1.0
  6
BYLAYER
100
AcDbMText
 10
119.0745722879999136
 20
267.6171018239998602
 30
0.0
 40
1.0
 41
0.0
 71
5
 72
1
  1
\H4;Fn
  7
textstyle13
 50
0.0
 73
2
 44
1.0
  0
MTEXT
  5
21E
100
AcDbEntity
  8
0
 62
7
420
0
370
-1
 48
1.0
  6
BYLAYER
100
AcDbMText
 10
149.3145722879999653
 20
267.6171018239998034
 30
0.0
 40
1.0
 41
0.0
 71
5
 72
1
  1
\H4;Ctrl
  7
textstyle14
 50
0.0
 73
2
 44
1.0
  0
MTEXT
  5
21F
100
AcDbEntity
  8
0
 62
7
420
0
370
-1
 48
1.0
  6
BYLAYER
100
AcDbMText
 10
179.7273722879999127
 20
267.6171018239997466
 30
0.0
 40
1.0
 41
0.0
 71
5
 72
1
  1
\H4;Alt
  7
textstyle10
 50
0.0
 73
2
 44
1.0
  0
MTEXT
  5
220
100
AcDbEntity
  8
0
 62
7
420
0
370
-1
 48
1.0
  6
BYLAYER
100
AcDbMText
 10
28.8729722879999393
 20
237.2043018239997991
 30
0.0
 40
1.0
 41
0.0
 71
5
 72
1
  1
\H4;*nix
  7
textstyle3
 50
0.0
 73
2
 44
1.0
  0
MTEXT
  5
221
100
AcDbEntity
  8
0
 62
7
420
0
370
-1
 48
1.0
  6
BYLAYER
100
AcDbMText
 10
58.9401722879999426
 20
237.3771018239997943
 30
0.0
 40
1.0
 41
0.0
 71
5
 72
1
  1
\H3;Lower
  7
textstyle4
 50
0.0
 73
2
 44
1.0
  0
MTEXT
  5
222
100
AcDbEntity
  8
0
 62
7
420
0
370
-1
 48
1.0
  6
BYLAYER
100
AcDbMText
 10
88.8345722879998902
 20
237.3771018239997943
 30
0.0
 40
1.0
 41
0.0
 71
5
 72
1
  1
\H3;Raise
  7
textstyle5
 50
0.0
 73
2
 44
1.0
  0
MTEXT
  5
223
100
AcDbEntity
  8
0
 62
7
420
0
370
-1
 48
1.0
  6
BYLAYER
100
AcDbMText
 10
119.5929722879998849
 20
237.2043018239997423
 30
0.0
 40
1.0
 41
0.0
 71
5
 72
1
  1
\H3;Left
  7
textstyle0
 50
0.0
 73
2
 44
1.0
  0
MTEXT
  5
224
100
AcDbEntity
  8
0
 62
7
420
0
370
-1
 48
1.0
  6
BYLAYER
100
AcDbMText
 10
150.0057722879999176
 20
237.2043018239998275
 30
0.0
 40
1.0
 41
0.0
 71
5
 72
1
  1
\H3;Down
  7
textstyle1
 50
0.0
 73
2
 44
1.0
  0
MTEXT
  5
225
100
AcDbEntity
  8
0
 62
7
420
0
370
-1
 48
1.0
  6
BYLAYER
100
AcDbMText
 10
180.5913722879998602
 20
237.0315018239998039
 30
0.0
 40
1.0
 41
0.0
 71
5
 72
1
  1
\H3;Up
  7
textstyle2
 50
0.0
 73
2
 44
1.0
  0
LINE
  5
226
100
AcDbEntity
  8
0
 62
256
370
-1
 48
1.0
  6
BYLAYER
100
AcDbLine
 10
144.2741722879999884
 20
212.3503018239997573
 30
0.0
 11
156.7741722879997326
 21
199.8503018239998994
 31
0.0
  0
LINE
  5
227
100
AcDbEntity
  8
0
 62
256
370
-1
 48
1.0
  6
BYLAYER
100
AcDbLine
 10
144.2741722879999884
 20
199.850301823999871
 30
0.0
 11
156.7741722879998747
 21
212.3503018239997573
 31
0.0
  0
LINE
  5
228
100
AcDbEntity
  8
0
 62
256
370
-1
 48
1.0
  6
BYLAYER
100
AcDbLine
 10
175.0325722880000399
 20
212.3503018239997573
 30
0.0
 11
187.5325722879999262
 21
199.850301823999672
 31
0.0
  0
LINE
  5
229
100
AcDbEntity
  8
0
 62
256
370
-1
 48
1.0
  6
BYLAYER
100
AcDbLine
 10
187.5325722879998978
 20
212.3503018239998141
 30
0.0
 11
175.032572287999983
 21
199.850301823999871
 31
0.0
  0
MTEXT
  5
22A
100
AcDbEntity
  8
0
 62
7
420
0
370
-1
 48
1.0
  6
BYLAYER
100
AcDbMText
 10
28.8729722880000175
 20
206.7915018239998233
 30
0.0
 40
1.0
 41
0.0
 71
5
 72
1
  1
\H3;Right
  7
textstyle9
 50
0.0
 73
2
 44
1.0
  0
MTEXT
  5
22B
100
AcDbEntity
  8
0
 62
7
420
0
370
-1
 48
1.0
  6
BYLAYER
100
AcDbMText
 10
59.8041722879999114
 20
206.6187018239998565
 30
0.0
 40
1.0
 41
0.0
 71
5
 72
1
  1
\H3;Enter
  7
textstyle6
 50
0.0
 73
2
 44
1.0
  0
MTEXT
  5
22C
100
AcDbEntity
  8
0
 62
7
420
0
370
-1
 48
1.0
  6
BYLAYER
100
AcDbMText
 10
120.8025722879999506
 20
206.1003018239997857
 30
0.0
 40
1.0
 41
0.0
 71
5
 72
1
  1
\H2.5;Backsp
  7
textstyle7
 50
0.0
 73
2
 44
1.0
  0
MTEXT
  5
22D
100
AcDbEntity
  8
0
 62
7
420
0
370
-1
 48
1.0
  6
BYLAYER
100
AcDbMText
 10
90.3897722879999321
 20
206.1003018239997857
 30
0.0
 40
1.0
 41
0.0
 71
5
 72
1
  1
\H5;"\P'
  7
textstyle8
 50
0.0
 73
2
 44
1.0
  0
ENDSEC
  0
SECTION
  2
OBJECTS
  0
DICTIONARY
  5
C
100
AcDbDictionary
280
0
281
1
  3
ACAD_GROUP
350
D
  3
ACAD_LAYOUT
350
1A
  3
ACAD_MLINESTYLE
350
17
  3
ACAD_PLOTSETTINGS
350
19
  3
ACAD_PLOTSTYLENAME
350
E
  3
AcDbVariableDictionary
350
22E
  3
QCAD_OBJECTS
350
22F
  0
DICTIONARY
  5
D
100
AcDbDictionary
280
0
281
1
  0
ACDBDICTIONARYWDFLT
  5
E
100
AcDbDictionary
281
1
  3
Normal
350
F
100
AcDbDictionaryWithDefault
340
F
  0
ACDBPLACEHOLDER
  5
F
  0
DICTIONARY
  5
17
100
AcDbDictionary
280
0
281
1
  3
Standard
350
18
  0
MLINESTYLE
  5
18
100
AcDbMlineStyle
  2
STANDARD
 70
0
  3

 62
256
 51
90.0
 52
90.0
 71
2
 49
0.5
 62
256
  6
BYLAYER
 49
-0.5
 62
256
  6
BYLAYER
  0
DICTIONARY
  5
19
100
AcDbDictionary
280
0
281
1
  0
DICTIONARY
  5
1A
100
AcDbDictionary
281
1
  3
Layout1
350
1E
  3
Layout2
350
26
  3
Model
350
22
  0
LAYOUT
  5
1E
100
AcDbPlotSettings
  1

  2
none_device
  4

  6

 40
0.0
 41
0.0
 42
0.0
 43
0.0
 44
0.0
 45
0.0
 46
0.0
 47
0.0
 48
0.0
 49
0.0
140
0.0
141
0.0
142
1.0
143
1.0
 70
688
 72
0
 73
0
 74
5
  7

 75
16
147
1.0
148
0.0
149
0.0
100
AcDbLayout
  1
Layout1
 70
1
 71
1
 10
0.0
 20
0.0
 11
420.0
 21
297.0
 12
0.0
 22
0.0
 32
0.0
 14
100000000000000000000.0
 24
100000000000000000000.0
 34
100000000000000000000.0
 15
-100000000000000000000.0
 25
-100000000000000000000.0
 35
-100000000000000000000.0
146
0.0
 13
0.0
 23
0.0
 33
0.0
 16
1.0
 26
0.0
 36
0.0
 17
0.0
 27
1.0
 37
0.0
 76
0
330
1B
  0
LAYOUT
  5
22
100
AcDbPlotSettings
  1

  2
none_device
  4

  6

 40
0.0
 41
0.0
 42
0.0
 43
0.0
 44
0.0
 45
0.0
 46
0.0
 47
0.0
 48
0.0
 49
0.0
140
0.0
141
0.0
142
1.0
143
1.0
 70
1712
 72
0
 73
0
 74
0
  7

 75
0
147
1.0
148
0.0
149
0.0
100
AcDbLayout
  1
Model
 70
1
 71
0
 10
0.0
 20
0.0
 11
12.0
 21
9.0
 12
0.0
 22
0.0
 32
0.0
 14
0.0
 24
0.0
 34
0.0
 15
0.0
 25
0.0
 35
0.0
146
0.0
 13
0.0
 23
0.0
 33
0.0
 16
1.0
 26
0.0
 36
0.0
 17
0.0
 27
1.0
 37
0.0
 76
0
330
1F
  0
LAYOUT
  5
26
100
AcDbPlotSettings
  1

  2
none_device
  4

  6

 40
0.0
 41
0.0
 42
0.0
 43
0.0
 44
0.0
 45
0.0
 46
0.0
 47
0.0
 48
0.0
 49
0.0
140
0.0
141
0.0
142
1.0
143
1.0
 70
688
 72
0
 73
0
 74
5
  7

 75
16
147
1.0
148
0.0
149
0.0
100
AcDbLayout
  1
Layout2
 70
1
 71
2
 10
0.0
 20
0.0
 11
12.0
 21
9.0
 12
0.0
 22
0.0
 32
0.0
 14
0.0
 24
0.0
 34
0.0
 15
0.0
 25
0.0
 35
0.0
146
0.0
 13
0.0
 23
0.0
 33
0.0
 16
1.0
 26
0.0
 36
0.0
 17
0.0
 27
1.0
 37
0.0
 76
0
330
23
  0
DICTIONARY
  5
22E
100
AcDbDictionary
281
1
  3
DIMASSOC
350
231
  3
HIDETEXT
350
230
  0
DICTIONARYVAR
  5
230
100
DictionaryVariables
280
0
  1
2
  0
DICTIONARYVAR
  5
231
100
DictionaryVariables
280
0
  1
1
  0
DICTIONARY
  5
22F
100
AcDbDictionary
281
1
  3
ColorSettings/BackgroundColor
350
232
  3
ColorSettings/ColorMode
350
233
  3
Grid/DisplayGrid00
350
234
  3
Grid/DisplayGrid01
350
235
  3
Grid/DisplayGrid02
350
236
  3
Grid/DisplayGrid03
350
237
  3
Grid/GridSpacingX00
350
238
  3
Grid/GridSpacingX01
350
239
  3
Grid/GridSpacingX02
350
23A
  3
Grid/GridSpacingX03
350
23B
  3
Grid/GridSpacingY00
350
23C
  3
Grid/GridSpacingY01
350
23D
  3
Grid/GridSpacingY02
350
23E
  3
Grid/GridSpacingY03
350
23F
  3
Grid/IsometricGrid00
350
240
  3
Grid/IsometricGrid01
350
241
  3
Grid/IsometricGrid02
350
242
  3
Grid/IsometricGrid03
350
243
  3
Grid/IsometricProjection00
350
244
  3
Grid/IsometricProjection01
350
245
  3
Grid/IsometricProjection02
350
246
  3
Grid/IsometricProjection03
350
247
  3
Grid/MetaGridSpacingX00
350
248
  3
Grid/MetaGridSpacingX01
350
249
  3
Grid/MetaGridSpacingX02
350
24A
  3
Grid/MetaGridSpacingX03
350
24B
  3
Grid/MetaGridSpacingY00
350
24C
  3
Grid/MetaGridSpacingY01
350
24D
  3
Grid/MetaGridSpacingY02
350
24E
  3
Grid/MetaGridSpacingY03
350
24F
  3
MultiPageSettings/Columns
350
250
  3
MultiPageSettings/GlueMarginsBottom
350
251
  3
MultiPageSettings/GlueMarginsLeft
350
252
  3
MultiPageSettings/GlueMarginsRight
350
253
  3
MultiPageSettings/GlueMarginsTop
350
254
  3
MultiPageSettings/PrintCropMarks
350
255
  3
MultiPageSettings/Rows
350
256
  3
PageSettings/OffsetX
350
257
  3
PageSettings/OffsetY
350
258
  3
PageSettings/PageOrientation
350
259
  3
PageSettings/PaperHeight
350
25A
  3
PageSettings/PaperWidth
350
25B
  3
PageSettings/Scale
350
25C
  3
PageSettings/ShowPaperBorders
350
25D
  3
QCADVersion
350
25E
  3
UnitSettings/PaperUnit
350
25F
  3
ViewportCenter
350
260
  3
ViewportHeight
350
261
  3
ViewportWidth
350
262
  0
XRECORD
  5
232
330
22F
100
AcDbXrecord
280
1
1000
Weiss
  0
XRECORD
  5
233
330
22F
100
AcDbXrecord
280
1
1000
FullColor
  0
XRECORD
  5
234
330
22F
100
AcDbXrecord
280
1
290
1
  0
XRECORD
  5
235
330
22F
100
AcDbXrecord
280
1
290
1
  0
XRECORD
  5
236
330
22F
100
AcDbXrecord
280
1
290
1
  0
XRECORD
  5
237
330
22F
100
AcDbXrecord
280
1
290
1
  0
XRECORD
  5
238
330
22F
100
AcDbXrecord
280
1
1000
auto
  0
XRECORD
  5
239
330
22F
100
AcDbXrecord
280
1
1000
auto
  0
XRECORD
  5
23A
330
22F
100
AcDbXrecord
280
1
1000
auto
  0
XRECORD
  5
23B
330
22F
100
AcDbXrecord
280
1
1000
auto
  0
XRECORD
  5
23C
330
22F
100
AcDbXrecord
280
1
1000
auto
  0
XRECORD
  5
23D
330
22F
100
AcDbXrecord
280
1
1000
auto
  0
XRECORD
  5
23E
330
22F
100
AcDbXrecord
280
1
1000
auto
  0
XRECORD
  5
23F
330
22F
100
AcDbXrecord
280
1
1000
auto
  0
XRECORD
  5
240
330
22F
100
AcDbXrecord
280
1
290
0
  0
XRECORD
  5
241
330
22F
100
AcDbXrecord
280
1
290
0
  0
XRECORD
  5
242
330
22F
100
AcDbXrecord
280
1
290
0
  0
XRECORD
  5
243
330
22F
100
AcDbXrecord
280
1
290
0
  0
XRECORD
  5
244
330
22F
100
AcDbXrecord
280
1
 90
65537
  0
XRECORD
  5
245
330
22F
100
AcDbXrecord
280
1
 90
65537
  0
XRECORD
  5
246
330
22F
100
AcDbXrecord
280
1
 90
65537
  0
XRECORD
  5
247
330
22F
100
AcDbXrecord
280
1
 90
65537
  0
XRECORD
  5
248
330
22F
100
AcDbXrecord
280
1
1000
auto
  0
XRECORD
  5
249
330
22F
100
AcDbXrecord
280
1
1000
auto
  0
XRECORD
  5
24A
330
22F
100
AcDbXrecord
280
1
1000
auto
  0
XRECORD
  5
24B
330
22F
100
AcDbXrecord
280
1
1000
auto
  0
XRECORD
  5
24C
330
22F
100
AcDbXrecord
280
1
1000
auto
  0
XRECORD
  5
24D
330
22F
100
AcDbXrecord
280
1
1000
auto
  0
XRECORD
  5
24E
330
22F
100
AcDbXrecord
280
1
1000
auto
  0
XRECORD
  5
24F
330
22F
100
AcDbXrecord
280
1
1000
auto
  0
XRECORD
  5
250
330
22F
100
AcDbXrecord
280
1
 90
1
  0
XRECORD
  5
251
330
22F
100
AcDbXrecord
280
1
 40
10.0
  0
XRECORD
  5
252
330
22F
100
AcDbXrecord
280
1
 40
10.0
  0
XRECORD
  5
253
330
22F
100
AcDbXrecord
280
1
 40
10.0
  0
XRECORD
  5
254
330
22F
100
AcDbXrecord
280
1
 40
10.0
  0
XRECORD
  5
255
330
22F
100
AcDbXrecord
280
1
290
0
  0
XRECORD
  5
256
330
22F
100
AcDbXrecord
280
1
 90
1
  0
XRECORD
  5
257
330
22F
100
AcDbXrecord
280
1
 40
0.0
  0
XRECORD
  5
258
330
22F
100
AcDbXrecord
280
1
 40
0.0
  0
XRECORD
  5
259
330
22F
100
AcDbXrecord
280
1
1000
Portrait
  0
XRECORD
  5
25A
330
22F
100
AcDbXrecord
280
1
 40
297.0
  0
XRECORD
  5
25B
330
22F
100
AcDbXrecord
280
1
 40
210.0
  0
XRECORD
  5
25C
330
22F
100
AcDbXrecord
280
1
1000
1:1
  0
XRECORD
  5
25D
330
22F
100
AcDbXrecord
280
1
290
1
  0
XRECORD
  5
25E
330
22F
100
AcDbXrecord
280
1
1000
3.17.3
  0
XRECORD
  5
25F
330
22F
100
AcDbXrecord
280
1
 90
4
  0
XRECORD
  5
261
330
22F
100
AcDbXrecord
280
1
 40
146.5620479999999475
  0
XRECORD
  5
262
330
22F
100
AcDbXrecord
280
1
 40
297.3542399999998906
  0
ENDSEC
  0
EOF
