999
dxflib 3.17.0.0
  0
SECTION
  2
HEADER
  9
$ACADVER
  1
AC1015
  9
$HANDSEED
  5
FFFF
  9
$DIMADEC
 70
0
  9
$DIMASZ
 40
2.5
  9
$DIMAUNIT
 70
0
  9
$DIMAZIN
 70
2
  9
$DIMDEC
 70
4
  9
$DIMDSEP
 70
46
  9
$DIMEXE
 40
1.25
  9
$DIMEXO
 40
0.625
  9
$DIMGAP
 40
0.625
  9
$DIMLUNIT
 70
2
  9
$DIMSCALE
 40
1.0
  9
$DIMTSZ
 40
0.0
  9
$DIMTXT
 40
2.5
  9
$DIMZIN
 70
8
  9
$DWGCODEPAGE
  3
ANSI_1252
  9
$INSUNITS
 70
4
  9
$LTSCALE
 40
1.0
  9
$MAXACTVP
 70
32
  9
$MEASUREMENT
 70
1
  9
$PDMODE
 70
0
  9
$PDSIZE
 40
0
  0
ENDSEC
  0
SECTION
  2
TABLES
  0
TABLE
  2
VPORT
  5
8
100
AcDbSymbolTable
 70
1
  0
VPORT
  5
30
100
AcDbSymbolTableRecord
100
AcDbViewportTableRecord
  2
*Active
 70
0
 10
0.0
 20
0.0
 11
1.0
 21
1.0
 12
286.3055555555554861
 22
148.5
 13
0.0
 23
0.0
 14
10.0
 24
10.0
 15
10.0
 25
10.0
 16
0.0
 26
0.0
 36
1.0
 17
0.0
 27
0.0
 37
0.0
 40
297.0
 41
1.92798353909465
 42
50.0
 43
0.0
 44
0.0
 50
0.0
 51
0.0
 71
0
 72
100
 73
1
 74
3
 75
1
 76
1
 77
0
 78
0
281
0
 65
1
110
0.0
120
0.0
130
0.0
111
1.0
121
0.0
131
0.0
112
0.0
122
1.0
132
0.0
 79
0
146
0.0
  0
ENDTAB
  0
TABLE
  2
LTYPE
  5
5
100
AcDbSymbolTable
 70
41
  0
LTYPE
  5
16
100
AcDbSymbolTableRecord
100
AcDbLinetypeTableRecord
  2
Continuous
 70
0
  3
Solid line
 72
65
 73
0
 40
0.0
  0
LTYPE
  5
31
100
AcDbSymbolTableRecord
100
AcDbLinetypeTableRecord
  2
ACAD_ISO12W100
 70
0
  3
ISO dash double-dot __ . . __ . . __ . . __ . . 
 72
65
 73
6
 40
21.0
 49
12.0
 74
0
 49
-2.9500000000000002
 74
0
 49
0.1
 74
0
 49
-2.9000000000000004
 74
0
 49
0.1
 74
0
 49
-2.9500000000000002
 74
0
  0
LTYPE
  5
32
100
AcDbSymbolTableRecord
100
AcDbLinetypeTableRecord
  2
DOT2
 70
0
  3
Dot (.5x) ........................................
 72
65
 73
2
 40
3.1749999999999998
 49
0.1
 74
0
 49
-3.0749999999999997
 74
0
  0
LTYPE
  5
33
100
AcDbSymbolTableRecord
100
AcDbLinetypeTableRecord
  2
DOTX2
 70
0
  3
Dot (2x) .  .  .  .  .  .  .  .  .  .  .  .  .  .
 72
65
 73
2
 40
12.6999999999999993
 49
0.1
 74
0
 49
-12.5999999999999996
 74
0
  0
LTYPE
  5
14
100
AcDbSymbolTableRecord
100
AcDbLinetypeTableRecord
  2
BYBLOCK
 70
0
  3

 72
65
 73
0
 40
0.0
  0
LTYPE
  5
34
100
AcDbSymbolTableRecord
100
AcDbLinetypeTableRecord
  2
ACAD_ISO15W100
 70
0
  3
ISO double-dash triple-dot __ __ . . . __ __ . .
 72
65
 73
10
 40
39.0000000000000071
 49
12.0
 74
0
 49
-3.0
 74
0
 49
12.0
 74
0
 49
-2.9500000000000002
 74
0
 49
0.1
 74
0
 49
-2.9000000000000004
 74
0
 49
0.1
 74
0
 49
-2.9000000000000004
 74
0
 49
0.1
 74
0
 49
-2.9500000000000002
 74
0
  0
LTYPE
  5
35
100
AcDbSymbolTableRecord
100
AcDbLinetypeTableRecord
  2
ACAD_ISO07W100
 70
0
  3
ISO dot . . . . . . . . . . . . . . . . . . . . 
 72
65
 73
2
 40
3.0
 49
0.1
 74
0
 49
-2.8999999999999999
 74
0
  0
LTYPE
  5
36
100
AcDbSymbolTableRecord
100
AcDbLinetypeTableRecord
  2
ACAD_ISO02W100
 70
0
  3
ISO dash __ __ __ __ __ __ __ __ __ __ __ __ __
 72
65
 73
2
 40
15.0
 49
12.0
 74
0
 49
-3.0
 74
0
  0
LTYPE
  5
37
100
AcDbSymbolTableRecord
100
AcDbLinetypeTableRecord
  2
DASHED
 70
0
  3
Dashed __ __ __ __ __ __ __ __ __ __ __ __ __ _
 72
65
 73
2
 40
19.0499999999999972
 49
12.6999999999999993
 74
0
 49
-6.3499999999999996
 74
0
  0
LTYPE
  5
38
100
AcDbSymbolTableRecord
100
AcDbLinetypeTableRecord
  2
HIDDEN
 70
0
  3
Hidden __ __ __ __ __ __ __ __ __ __ __ __ __ __
 72
65
 73
2
 40
9.5249999999999986
 49
6.3499999999999996
 74
0
 49
-3.1749999999999998
 74
0
  0
LTYPE
  5
39
100
AcDbSymbolTableRecord
100
AcDbLinetypeTableRecord
  2
DOT
 70
0
  3
Dot . . . . . . . . . . . . . . . . . . . . . . . .
 72
65
 73
2
 40
6.3499999999999996
 49
0.1
 74
0
 49
-6.25
 74
0
  0
LTYPE
  5
3A
100
AcDbSymbolTableRecord
100
AcDbLinetypeTableRecord
  2
ACAD_ISO05W100
 70
0
  3
ISO long-dash double-dot ____ .. ____ .. ____ . 
 72
65
 73
6
 40
33.0000000000000071
 49
24.0
 74
0
 49
-2.9500000000000002
 74
0
 49
0.1
 74
0
 49
-2.9000000000000004
 74
0
 49
0.1
 74
0
 49
-2.9500000000000002
 74
0
  0
LTYPE
  5
3B
100
AcDbSymbolTableRecord
100
AcDbLinetypeTableRecord
  2
CENTER
 70
0
  3
Center ____ _ ____ _ ____ _ ____ _ ____ _ ____
 72
65
 73
4
 40
50.8000000000000043
 49
31.75
 74
0
 49
-6.3499999999999996
 74
0
 49
6.3499999999999996
 74
0
 49
-6.3499999999999996
 74
0
  0
LTYPE
  5
3C
100
AcDbSymbolTableRecord
100
AcDbLinetypeTableRecord
  2
DASHDOT2
 70
0
  3
Dash dot (.5x) _._._._._._._._._._._._._._._.
 72
65
 73
4
 40
12.6999999999999993
 49
6.3499999999999996
 74
0
 49
-3.125
 74
0
 49
0.1
 74
0
 49
-3.125
 74
0
  0
LTYPE
  5
3D
100
AcDbSymbolTableRecord
100
AcDbLinetypeTableRecord
  2
DASHDOTX2
 70
0
  3
Dash dot (2x) ____  .  ____  .  ____  .  ___
 72
65
 73
4
 40
50.7999999999999972
 49
25.3999999999999986
 74
0
 49
-12.6499999999999986
 74
0
 49
0.1
 74
0
 49
-12.6499999999999986
 74
0
  0
LTYPE
  5
3E
100
AcDbSymbolTableRecord
100
AcDbLinetypeTableRecord
  2
CENTER2
 70
0
  3
Center (.5x) ___ _ ___ _ ___ _ ___ _ ___ _ ___
 72
65
 73
4
 40
28.5750000000000028
 49
19.0500000000000007
 74
0
 49
-3.1749999999999998
 74
0
 49
3.1749999999999998
 74
0
 49
-3.1749999999999998
 74
0
  0
LTYPE
  5
3F
100
AcDbSymbolTableRecord
100
AcDbLinetypeTableRecord
  2
ACAD_ISO06W100
 70
0
  3
ISO long-dash triple-dot ____ ... ____ ... ____
 72
65
 73
8
 40
36.0000000000000071
 49
24.0
 74
0
 49
-2.9500000000000002
 74
0
 49
0.1
 74
0
 49
-2.9000000000000004
 74
0
 49
0.1
 74
0
 49
-2.9000000000000004
 74
0
 49
0.1
 74
0
 49
-2.9500000000000002
 74
0
  0
LTYPE
  5
40
100
AcDbSymbolTableRecord
100
AcDbLinetypeTableRecord
  2
DASHEDX2
 70
0
  3
Dashed (2x) ____  ____  ____  ____  ____  ___
 72
65
 73
2
 40
38.0999999999999943
 49
25.3999999999999986
 74
0
 49
-12.6999999999999993
 74
0
  0
LTYPE
  5
41
100
AcDbSymbolTableRecord
100
AcDbLinetypeTableRecord
  2
ACAD_ISO13W100
 70
0
  3
ISO double-dash double-dot __ __ . . __ __ . . _
 72
65
 73
8
 40
36.0000000000000071
 49
12.0
 74
0
 49
-3.0
 74
0
 49
12.0
 74
0
 49
-2.9500000000000002
 74
0
 49
0.1
 74
0
 49
-2.9000000000000004
 74
0
 49
0.1
 74
0
 49
-2.9500000000000002
 74
0
  0
LTYPE
  5
42
100
AcDbSymbolTableRecord
100
AcDbLinetypeTableRecord
  2
DASHED2
 70
0
  3
Dashed (.5x) _ _ _ _ _ _ _ _ _ _ _ _ _ _ _ _ _ 
 72
65
 73
2
 40
9.5249999999999986
 49
6.3499999999999996
 74
0
 49
-3.1749999999999998
 74
0
  0
LTYPE
  5
43
100
AcDbSymbolTableRecord
100
AcDbLinetypeTableRecord
  2
HIDDEN2
 70
0
  3
Hidden (.5x) _ _ _ _ _ _ _ _ _ _ _ _ _ _ _ _ _ 
 72
65
 73
2
 40
4.7624999999999993
 49
3.1749999999999998
 74
0
 49
-1.5874999999999999
 74
0
  0
LTYPE
  5
44
100
AcDbSymbolTableRecord
100
AcDbLinetypeTableRecord
  2
PHANTOM
 70
0
  3
Phantom ______  __  __  ______  __  __  ______ 
 72
65
 73
6
 40
63.5000000000000071
 49
31.75
 74
0
 49
-6.3499999999999996
 74
0
 49
6.3499999999999996
 74
0
 49
-6.3499999999999996
 74
0
 49
6.3499999999999996
 74
0
 49
-6.3499999999999996
 74
0
  0
LTYPE
  5
45
100
AcDbSymbolTableRecord
100
AcDbLinetypeTableRecord
  2
ACAD_ISO11W100
 70
0
  3
ISO double-dash dot __ __ . __ __ . __ __ . __ _
 72
65
 73
6
 40
33.0
 49
12.0
 74
0
 49
-3.0
 74
0
 49
12.0
 74
0
 49
-2.9500000000000002
 74
0
 49
0.1
 74
0
 49
-2.9500000000000002
 74
0
  0
LTYPE
  5
46
100
AcDbSymbolTableRecord
100
AcDbLinetypeTableRecord
  2
PHANTOMX2
 70
0
  3
Phantom (2x) ____________    ____    ____   _
 72
65
 73
6
 40
127.0000000000000142
 49
63.5
 74
0
 49
-12.6999999999999993
 74
0
 49
12.6999999999999993
 74
0
 49
-12.6999999999999993
 74
0
 49
12.6999999999999993
 74
0
 49
-12.6999999999999993
 74
0
  0
LTYPE
  5
47
100
AcDbSymbolTableRecord
100
AcDbLinetypeTableRecord
  2
DIVIDE
 70
0
  3
Divide ____ . . ____ . . ____ . . ____ . . ____
 72
65
 73
6
 40
31.7500000000000036
 49
12.6999999999999993
 74
0
 49
-6.2999999999999998
 74
0
 49
0.1
 74
0
 49
-6.25
 74
0
 49
0.1
 74
0
 49
-6.2999999999999998
 74
0
  0
LTYPE
  5
48
100
AcDbSymbolTableRecord
100
AcDbLinetypeTableRecord
  2
BORDERX2
 70
0
  3
Border (2x) ____  ____  .  ____  ____  .  ___
 72
65
 73
6
 40
88.8999999999999773
 49
25.3999999999999986
 74
0
 49
-12.6999999999999993
 74
0
 49
25.3999999999999986
 74
0
 49
-12.6499999999999986
 74
0
 49
0.1
 74
0
 49
-12.6499999999999986
 74
0
  0
LTYPE
  5
49
100
AcDbSymbolTableRecord
100
AcDbLinetypeTableRecord
  2
ACAD_ISO08W100
 70
0
  3
ISO long-dash short-dash ____ __ ____ __ ____ _
 72
65
 73
4
 40
36.0
 49
24.0
 74
0
 49
-3.0
 74
0
 49
6.0
 74
0
 49
-3.0
 74
0
  0
LTYPE
  5
4A
100
AcDbSymbolTableRecord
100
AcDbLinetypeTableRecord
  2
DIVIDEX2
 70
0
  3
Divide (2x) ________  .  .  ________  .  .  _
 72
65
 73
6
 40
63.5
 49
25.3999999999999986
 74
0
 49
-12.6499999999999986
 74
0
 49
0.1
 74
0
 49
-12.5999999999999979
 74
0
 49
0.1
 74
0
 49
-12.6499999999999986
 74
0
  0
LTYPE
  5
15
100
AcDbSymbolTableRecord
100
AcDbLinetypeTableRecord
  2
BYLAYER
 70
0
  3

 72
65
 73
0
 40
0.0
  0
LTYPE
  5
4B
100
AcDbSymbolTableRecord
100
AcDbLinetypeTableRecord
  2
ACAD_ISO14W100
 70
0
  3
ISO dash triple-dot __ . . . __ . . . __ . . . _
 72
65
 73
8
 40
24.0000000000000036
 49
12.0
 74
0
 49
-2.9500000000000002
 74
0
 49
0.1
 74
0
 49
-2.9000000000000004
 74
0
 49
0.1
 74
0
 49
-2.9000000000000004
 74
0
 49
0.1
 74
0
 49
-2.9500000000000002
 74
0
  0
LTYPE
  5
4C
100
AcDbSymbolTableRecord
100
AcDbLinetypeTableRecord
  2
CENTERX2
 70
0
  3
Center (2x) ________  __  ________  __  _____
 72
65
 73
4
 40
101.6000000000000085
 49
63.5
 74
0
 49
-12.6999999999999993
 74
0
 49
12.6999999999999993
 74
0
 49
-12.6999999999999993
 74
0
  0
LTYPE
  5
4D
100
AcDbSymbolTableRecord
100
AcDbLinetypeTableRecord
  2
BORDER2
 70
0
  3
Border (.5x) __.__.__.__.__.__.__.__.__.__.__.
 72
65
 73
6
 40
22.2250000000000014
 49
6.3499999999999996
 74
0
 49
-3.1749999999999998
 74
0
 49
6.3499999999999996
 74
0
 49
-3.125
 74
0
 49
0.1
 74
0
 49
-3.125
 74
0
  0
LTYPE
  5
4E
100
AcDbSymbolTableRecord
100
AcDbLinetypeTableRecord
  2
BORDER
 70
0
  3
Border __ __ . __ __ . __ __ . __ __ . __ __ .
 72
65
 73
6
 40
44.4499999999999957
 49
12.6999999999999993
 74
0
 49
-6.3499999999999996
 74
0
 49
12.6999999999999993
 74
0
 49
-6.2999999999999998
 74
0
 49
0.1
 74
0
 49
-6.2999999999999998
 74
0
  0
LTYPE
  5
4F
100
AcDbSymbolTableRecord
100
AcDbLinetypeTableRecord
  2
ACAD_ISO04W100
 70
0
  3
ISO long-dash dot ____ . ____ . ____ . ____ . _
 72
65
 73
4
 40
30.0
 49
24.0
 74
0
 49
-2.9500000000000002
 74
0
 49
0.1
 74
0
 49
-2.9500000000000002
 74
0
  0
LTYPE
  5
50
100
AcDbSymbolTableRecord
100
AcDbLinetypeTableRecord
  2
ACAD_ISO10W100
 70
0
  3
ISO dash dot __ . __ . __ . __ . __ . __ . __ . 
 72
65
 73
4
 40
18.0
 49
12.0
 74
0
 49
-2.9500000000000002
 74
0
 49
0.1
 74
0
 49
-2.9500000000000002
 74
0
  0
LTYPE
  5
51
100
AcDbSymbolTableRecord
100
AcDbLinetypeTableRecord
  2
DASHDOT
 70
0
  3
Dash dot __ . __ . __ . __ . __ . __ . __ . __
 72
65
 73
4
 40
25.4000000000000021
 49
12.6999999999999993
 74
0
 49
-6.2999999999999998
 74
0
 49
0.1
 74
0
 49
-6.2999999999999998
 74
0
  0
LTYPE
  5
52
100
AcDbSymbolTableRecord
100
AcDbLinetypeTableRecord
  2
DIVIDE2
 70
0
  3
Divide (.5x) __..__..__..__..__..__..__..__.._
 72
65
 73
6
 40
15.8749999999999982
 49
6.3499999999999996
 74
0
 49
-3.125
 74
0
 49
0.1
 74
0
 49
-3.0750000000000002
 74
0
 49
0.1
 74
0
 49
-3.125
 74
0
  0
LTYPE
  5
53
100
AcDbSymbolTableRecord
100
AcDbLinetypeTableRecord
  2
HIDDENX2
 70
0
  3
Hidden (2x) ____ ____ ____ ____ ____ ____ ____ 
 72
65
 73
2
 40
19.0499999999999972
 49
12.6999999999999993
 74
0
 49
-6.3499999999999996
 74
0
  0
LTYPE
  5
54
100
AcDbSymbolTableRecord
100
AcDbLinetypeTableRecord
  2
PHANTOM2
 70
0
  3
Phantom (.5x) ___ _ _ ___ _ _ ___ _ _ ___ _ _
 72
65
 73
6
 40
31.7500000000000036
 49
15.875
 74
0
 49
-3.1749999999999998
 74
0
 49
3.1749999999999998
 74
0
 49
-3.1749999999999998
 74
0
 49
3.1749999999999998
 74
0
 49
-3.1749999999999998
 74
0
  0
LTYPE
  5
55
100
AcDbSymbolTableRecord
100
AcDbLinetypeTableRecord
  2
ACAD_ISO03W100
 70
0
  3
ISO dash space __    __    __    __    __    __
 72
65
 73
2
 40
30.0
 49
12.0
 74
0
 49
-18.0
 74
0
  0
LTYPE
  5
56
100
AcDbSymbolTableRecord
100
AcDbLinetypeTableRecord
  2
ACAD_ISO09W100
 70
0
  3
ISO long-dash double-short-dash ____ __ __ ____
 72
65
 73
6
 40
45.0
 49
24.0
 74
0
 49
-3.0
 74
0
 49
6.0
 74
0
 49
-3.0
 74
0
 49
6.0
 74
0
 49
-3.0
 74
0
  0
ENDTAB
  0
TABLE
  2
LAYER
  5
2
100
AcDbSymbolTable
 70
1
  0
LAYER
  5
10
100
AcDbSymbolTableRecord
100
AcDbLayerTableRecord
  2
0
 70
0
 62
7
420
0
  6
Continuous
370
25
390
F
  0
ENDTAB
  0
TABLE
  2
STYLE
  5
3
100
AcDbSymbolTable
 70
28
  0
STYLE
  5
57
100
AcDbSymbolTableRecord
100
AcDbTextStyleTableRecord
  2
Standard
 70
0
 40
0.0
 41
1.0
 50
0.0
 71
0
 42
2.5
  3

  4

1001
ACAD
1000
txt
1071
0
  0
STYLE
  5
58
100
AcDbSymbolTableRecord
100
AcDbTextStyleTableRecord
  2
textstyle0
 70
0
 40
0.0
 41
1.0
 50
0.0
 71
0
 42
1.0
  3

  4

1001
ACAD
1000
HelveticaNeueLT Std Lt
1071
0
  0
STYLE
  5
59
100
AcDbSymbolTableRecord
100
AcDbTextStyleTableRecord
  2
textstyle1
 70
0
 40
0.0
 41
1.0
 50
0.0
 71
0
 42
1.0
  3

  4

1001
ACAD
1000
HelveticaNeueLT Std Lt
1071
0
  0
STYLE
  5
5A
100
AcDbSymbolTableRecord
100
AcDbTextStyleTableRecord
  2
textstyle2
 70
0
 40
0.0
 41
1.0
 50
0.0
 71
0
 42
1.0
  3

  4

1001
ACAD
1000
HelveticaNeueLT Std Lt
1071
0
  0
STYLE
  5
5B
100
AcDbSymbolTableRecord
100
AcDbTextStyleTableRecord
  2
textstyle3
 70
0
 40
0.0
 41
1.0
 50
0.0
 71
0
 42
1.0
  3

  4

1001
ACAD
1000
HelveticaNeueLT Std Lt
1071
0
  0
STYLE
  5
5C
100
AcDbSymbolTableRecord
100
AcDbTextStyleTableRecord
  2
textstyle4
 70
0
 40
0.0
 41
1.0
 50
0.0
 71
0
 42
1.0
  3

  4

1001
ACAD
1000
HelveticaNeueLT Std Lt
1071
0
  0
STYLE
  5
5D
100
AcDbSymbolTableRecord
100
AcDbTextStyleTableRecord
  2
textstyle5
 70
0
 40
0.0
 41
1.0
 50
0.0
 71
0
 42
1.0
  3

  4

1001
ACAD
1000
HelveticaNeueLT Std Lt
1071
0
  0
STYLE
  5
5E
100
AcDbSymbolTableRecord
100
AcDbTextStyleTableRecord
  2
textstyle6
 70
0
 40
0.0
 41
1.0
 50
0.0
 71
0
 42
1.0
  3

  4

1001
ACAD
1000
HelveticaNeueLT Std Lt
1071
0
  0
STYLE
  5
5F
100
AcDbSymbolTableRecord
100
AcDbTextStyleTableRecord
  2
textstyle7
 70
0
 40
0.0
 41
1.0
 50
0.0
 71
0
 42
1.0
  3

  4

1001
ACAD
1000
HelveticaNeueLT Std Lt
1071
0
  0
STYLE
  5
60
100
AcDbSymbolTableRecord
100
AcDbTextStyleTableRecord
  2
textstyle8
 70
0
 40
0.0
 41
1.0
 50
0.0
 71
0
 42
1.0
  3

  4

1001
ACAD
1000
HelveticaNeueLT Std Lt
1071
0
  0
STYLE
  5
61
100
AcDbSymbolTableRecord
100
AcDbTextStyleTableRecord
  2
textstyle9
 70
0
 40
0.0
 41
1.0
 50
0.0
 71
0
 42
1.0
  3

  4

1001
ACAD
1000
HelveticaNeueLT Std Lt
1071
0
  0
STYLE
  5
62
100
AcDbSymbolTableRecord
100
AcDbTextStyleTableRecord
  2
textstyle10
 70
0
 40
0.0
 41
1.0
 50
0.0
 71
0
 42
1.0
  3

  4

1001
ACAD
1000
HelveticaNeueLT Std Lt
1071
0
  0
STYLE
  5
63
100
AcDbSymbolTableRecord
100
AcDbTextStyleTableRecord
  2
textstyle11
 70
0
 40
0.0
 41
1.0
 50
0.0
 71
0
 42
1.0
  3

  4

1001
ACAD
1000
HelveticaNeueLT Std Lt
1071
0
  0
STYLE
  5
64
100
AcDbSymbolTableRecord
100
AcDbTextStyleTableRecord
  2
textstyle12
 70
0
 40
0.0
 41
1.0
 50
0.0
 71
0
 42
1.0
  3

  4

1001
ACAD
1000
HelveticaNeueLT Std Lt
1071
0
  0
STYLE
  5
65
100
AcDbSymbolTableRecord
100
AcDbTextStyleTableRecord
  2
textstyle13
 70
0
 40
0.0
 41
1.0
 50
0.0
 71
0
 42
1.0
  3

  4

1001
ACAD
1000
HelveticaNeueLT Std Lt
1071
0
  0
STYLE
  5
66
100
AcDbSymbolTableRecord
100
AcDbTextStyleTableRecord
  2
textstyle14
 70
0
 40
0.0
 41
1.0
 50
0.0
 71
0
 42
1.0
  3

  4

1001
ACAD
1000
HelveticaNeueLT Std Lt
1071
0
  0
STYLE
  5
67
100
AcDbSymbolTableRecord
100
AcDbTextStyleTableRecord
  2
textstyle15
 70
0
 40
0.0
 41
1.0
 50
0.0
 71
0
 42
1.0
  3

  4

1001
ACAD
1000
HelveticaNeueLT Std Lt
1071
0
  0
STYLE
  5
68
100
AcDbSymbolTableRecord
100
AcDbTextStyleTableRecord
  2
textstyle16
 70
0
 40
0.0
 41
1.0
 50
0.0
 71
0
 42
1.0
  3

  4

1001
ACAD
1000
HelveticaNeueLT Std Lt
1071
0
  0
STYLE
  5
69
100
AcDbSymbolTableRecord
100
AcDbTextStyleTableRecord
  2
textstyle17
 70
0
 40
0.0
 41
1.0
 50
0.0
 71
0
 42
1.0
  3

  4

1001
ACAD
1000
HelveticaNeueLT Std Lt
1071
0
  0
STYLE
  5
6A
100
AcDbSymbolTableRecord
100
AcDbTextStyleTableRecord
  2
textstyle18
 70
0
 40
0.0
 41
1.0
 50
0.0
 71
0
 42
1.0
  3

  4

1001
ACAD
1000
HelveticaNeueLT Std Lt
1071
0
  0
STYLE
  5
6B
100
AcDbSymbolTableRecord
100
AcDbTextStyleTableRecord
  2
textstyle19
 70
0
 40
0.0
 41
1.0
 50
0.0
 71
0
 42
1.0
  3

  4

1001
ACAD
1000
HelveticaNeueLT Std Lt
1071
0
  0
STYLE
  5
6C
100
AcDbSymbolTableRecord
100
AcDbTextStyleTableRecord
  2
textstyle20
 70
0
 40
0.0
 41
1.0
 50
0.0
 71
0
 42
1.0
  3

  4

1001
ACAD
1000
HelveticaNeueLT Std Lt
1071
0
  0
STYLE
  5
6D
100
AcDbSymbolTableRecord
100
AcDbTextStyleTableRecord
  2
textstyle21
 70
0
 40
0.0
 41
1.0
 50
0.0
 71
0
 42
1.0
  3

  4

1001
ACAD
1000
HelveticaNeueLT Std Lt
1071
0
  0
STYLE
  5
6E
100
AcDbSymbolTableRecord
100
AcDbTextStyleTableRecord
  2
textstyle22
 70
0
 40
0.0
 41
1.0
 50
0.0
 71
0
 42
1.0
  3

  4

1001
ACAD
1000
HelveticaNeueLT Std Lt
1071
0
  0
STYLE
  5
6F
100
AcDbSymbolTableRecord
100
AcDbTextStyleTableRecord
  2
textstyle23
 70
0
 40
0.0
 41
1.0
 50
0.0
 71
0
 42
1.0
  3

  4

1001
ACAD
1000
HelveticaNeueLT Std Lt
1071
0
  0
STYLE
  5
70
100
AcDbSymbolTableRecord
100
AcDbTextStyleTableRecord
  2
textstyle24
 70
0
 40
0.0
 41
1.0
 50
0.0
 71
0
 42
1.0
  3

  4

1001
ACAD
1000
HelveticaNeueLT Std Lt
1071
0
  0
STYLE
  5
71
100
AcDbSymbolTableRecord
100
AcDbTextStyleTableRecord
  2
textstyle25
 70
0
 40
0.0
 41
1.0
 50
0.0
 71
0
 42
1.0
  3

  4

1001
ACAD
1000
HelveticaNeueLT Std Lt
1071
0
  0
STYLE
  5
72
100
AcDbSymbolTableRecord
100
AcDbTextStyleTableRecord
  2
textstyle26
 70
0
 40
0.0
 41
1.0
 50
0.0
 71
0
 42
1.0
  3

  4

1001
ACAD
1000
HelveticaNeueLT Std Lt
1071
0
  0
ENDTAB
  0
TABLE
  2
VIEW
  5
6
100
AcDbSymbolTable
 70
0
  0
ENDTAB
  0
TABLE
  2
UCS
  5
7
100
AcDbSymbolTable
 70
0
  0
ENDTAB
  0
TABLE
  2
APPID
  5
9
100
AcDbSymbolTable
 70
1
  0
APPID
  5
12
100
AcDbSymbolTableRecord
100
AcDbRegAppTableRecord
  2
ACAD
 70
0
  0
APPID
  5
73
100
AcDbSymbolTableRecord
100
AcDbRegAppTableRecord
  2
QCAD
 70
0
  0
ENDTAB
  0
TABLE
  2
DIMSTYLE
  5
A
100
AcDbSymbolTable
 70
1
100
AcDbDimStyleTable
 71
0
  0
DIMSTYLE
105
27
100
AcDbSymbolTableRecord
100
AcDbDimStyleTableRecord
  2
Standard
 41
2.5
 42
0.625
 43
3.75
 44
1.25
 70
0
 73
0
 74
0
 77
1
 78
8
140
2.5
141
2.5
143
0.03937007874016
147
0.625
171
3
172
1
271
2
272
2
274
3
278
44
283
0
284
8
340
57
  0
ENDTAB
  0
TABLE
  2
BLOCK_RECORD
  5
1
100
AcDbSymbolTable
 70
1
  0
BLOCK_RECORD
  5
1F
100
AcDbSymbolTableRecord
100
AcDbBlockTableRecord
  2
*Model_Space
340
22
  0
BLOCK_RECORD
  5
1B
100
AcDbSymbolTableRecord
100
AcDbBlockTableRecord
  2
*Paper_Space
340
1E
  0
BLOCK_RECORD
  5
23
100
AcDbSymbolTableRecord
100
AcDbBlockTableRecord
  2
*Paper_Space0
340
26
  0
ENDTAB
  0
ENDSEC
  0
SECTION
  2
BLOCKS
  0
BLOCK
  5
20
100
AcDbEntity
  8
0
100
AcDbBlockBegin
  2
*Model_Space
 70
0
 10
0.0
 20
0.0
 30
0.0
  3
*Model_Space
  1

  0
ENDBLK
  5
21
100
AcDbEntity
  8
0
100
AcDbBlockEnd
  0
BLOCK
  5
1C
100
AcDbEntity
 67
1
  8
0
100
AcDbBlockBegin
  2
*Paper_Space
 70
0
 10
0.0
 20
0.0
 30
0.0
  3
*Paper_Space
  1

  0
ENDBLK
  5
1D
100
AcDbEntity
 67
1
  8
0
100
AcDbBlockEnd
  0
BLOCK
  5
24
100
AcDbEntity
  8
0
100
AcDbBlockBegin
  2
*Paper_Space0
 70
0
 10
0.0
 20
0.0
 30
0.0
  3
*Paper_Space0
  1

  0
ENDBLK
  5
25
100
AcDbEntity
  8
0
100
AcDbBlockEnd
  0
ENDSEC
  0
SECTION
  2
ENTITIES
  0
LINE
  5
74
100
AcDbEntity
  8
0
 62
9
420
12632256
370
-1
 48
1.0
  6
BYLAYER
100
AcDbLine
 10
57.4267694378137321
 20
186.1011271825993845
 30
0.0
 11
57.4267694378137321
 21
198.6011271825993845
 31
0.0
  0
LINE
  5
75
100
AcDbEntity
  8
0
 62
9
420
12632256
370
-1
 48
1.0
  6
BYLAYER
100
AcDbLine
 10
122.8497620522399814
 20
186.123396806848973
 30
0.0
 11
122.8497620522399814
 21
198.623396806848973
 31
0.0
  0
LINE
  5
76
100
AcDbEntity
  8
0
 62
9
420
12632256
370
-1
 48
1.0
  6
BYLAYER
100
AcDbLine
 10
22.9814586666665832
 20
186.1078424310986179
 30
0.0
 11
22.9814586666665832
 21
198.6078424310986179
 31
0.0
  0
LINE
  5
77
100
AcDbEntity
  8
0
 62
9
420
12632256
370
-1
 48
1.0
  6
BYLAYER
100
AcDbLine
 10
155.8911706666663122
 20
186.3755864310986112
 30
0.0
 11
155.8911706666663122
 21
198.8755864310986112
 31
0.0
  0
LINE
  5
78
100
AcDbEntity
  8
0
 62
9
420
12632256
370
-1
 48
1.0
  6
BYLAYER
100
AcDbLine
 10
88.4044512810928182
 20
186.1301120553482065
 30
0.0
 11
88.4044512810928182
 21
198.6301120553482065
 31
0.0
  0
LINE
  5
79
100
AcDbEntity
  8
0
 62
9
420
12632256
370
-1
 48
1.0
  6
BYLAYER
100
AcDbLine
 10
155.625626666666335
 20
259.1461328068488683
 30
0.0
 11
155.625626666666335
 21
271.6461328068488683
 31
0.0
  0
LINE
  5
7A
100
AcDbEntity
  8
0
 62
9
420
12632256
370
-1
 48
1.0
  6
BYLAYER
100
AcDbLine
 10
57.9244334378137324
 20
221.6841031825993014
 30
0.0
 11
57.9244334378137324
 21
234.1841031825993014
 31
0.0
  0
LINE
  5
7B
100
AcDbEntity
  8
0
 62
9
420
12632256
370
-1
 48
1.0
  6
BYLAYER
100
AcDbLine
 10
123.3474260522399817
 20
221.7063728068488899
 30
0.0
 11
123.3474260522399817
 21
234.2063728068488899
 31
0.0
  0
LINE
  5
7C
100
AcDbEntity
  8
0
 62
9
420
12632256
370
-1
 48
1.0
  6
BYLAYER
100
AcDbLine
 10
23.4791226666665835
 20
221.6908184310985348
 30
0.0
 11
23.4791226666665835
 21
234.1908184310985348
 31
0.0
  0
LINE
  5
7D
100
AcDbEntity
  8
0
 62
9
420
12632256
370
-1
 48
1.0
  6
BYLAYER
100
AcDbLine
 10
156.3888346666663267
 20
221.9585624310985281
 30
0.0
 11
156.3888346666663267
 21
234.4585624310985281
 31
0.0
  0
LINE
  5
7E
100
AcDbEntity
  8
0
 62
9
420
12632256
370
-1
 48
1.0
  6
BYLAYER
100
AcDbLine
 10
88.9021152810928186
 20
221.7130880553481234
 30
0.0
 11
88.9021152810928186
 21
234.2130880553481234
 31
0.0
  0
LINE
  5
7F
100
AcDbEntity
  8
0
 62
9
420
12632256
370
-1
 48
1.0
  6
BYLAYER
100
AcDbLine
 10
57.4267694378137321
 20
117.5311063757501415
 30
0.0
 11
57.4267694378137321
 21
130.0311063757501415
 31
0.0
  0
LINE
  5
80
100
AcDbEntity
  8
0
 62
9
420
12632256
370
-1
 48
1.0
  6
BYLAYER
100
AcDbLine
 10
122.8497620522399814
 20
117.5533759999997301
 30
0.0
 11
122.8497620522399814
 21
130.0533759999997301
 31
0.0
  0
LINE
  5
81
100
AcDbEntity
  8
0
 62
9
420
12632256
370
-1
 48
1.0
  6
BYLAYER
100
AcDbLine
 10
22.9814586666665832
 20
117.537821624249375
 30
0.0
 11
22.9814586666665832
 21
130.037821624249375
 31
0.0
  0
LINE
  5
82
100
AcDbEntity
  8
0
 62
9
420
12632256
370
-1
 48
1.0
  6
BYLAYER
100
AcDbLine
 10
155.8911706666663122
 20
117.8055656242493683
 30
0.0
 11
155.8911706666663122
 21
130.3055656242493683
 31
0.0
  0
LINE
  5
83
100
AcDbEntity
  8
0
 62
9
420
12632256
370
-1
 48
1.0
  6
BYLAYER
100
AcDbLine
 10
88.4044512810928182
 20
117.5600912484989635
 30
0.0
 11
88.4044512810928182
 21
130.0600912484989635
 31
0.0
  0
LINE
  5
84
100
AcDbEntity
  8
0
 62
9
420
12632256
370
-1
 48
1.0
  6
BYLAYER
100
AcDbLine
 10
57.9244334378137324
 20
151.372258375750107
 30
0.0
 11
57.9244334378137324
 21
163.872258375750107
 31
0.0
  0
LINE
  5
85
100
AcDbEntity
  8
0
 62
9
420
12632256
370
-1
 48
1.0
  6
BYLAYER
100
AcDbLine
 10
123.3474260522399817
 20
151.3945279999996956
 30
0.0
 11
123.3474260522399817
 21
163.8945279999996956
 31
0.0
  0
LINE
  5
86
100
AcDbEntity
  8
0
 62
9
420
12632256
370
-1
 48
1.0
  6
BYLAYER
100
AcDbLine
 10
23.4791226666665835
 20
151.3789736242493404
 30
0.0
 11
23.4791226666665835
 21
163.8789736242493404
 31
0.0
  0
LINE
  5
87
100
AcDbEntity
  8
0
 62
9
420
12632256
370
-1
 48
1.0
  6
BYLAYER
100
AcDbLine
 10
156.3888346666663267
 20
151.6467176242493338
 30
0.0
 11
156.3888346666663267
 21
164.1467176242493338
 31
0.0
  0
LINE
  5
88
100
AcDbEntity
  8
0
 62
9
420
12632256
370
-1
 48
1.0
  6
BYLAYER
100
AcDbLine
 10
88.9021152810928186
 20
151.401243248498929
 30
0.0
 11
88.9021152810928186
 21
163.901243248498929
 31
0.0
  0
LINE
  5
89
100
AcDbEntity
  8
0
 62
9
420
12632256
370
-1
 48
1.0
  6
BYLAYER
100
AcDbLine
 10
57.4267694378137321
 20
83.1922903757501899
 30
0.0
 11
57.4267694378137321
 21
95.6922903757501899
 31
0.0
  0
LINE
  5
8A
100
AcDbEntity
  8
0
 62
9
420
12632256
370
-1
 48
1.0
  6
BYLAYER
100
AcDbLine
 10
22.9814586666665832
 20
83.1990056242494234
 30
0.0
 11
22.9814586666665832
 21
95.6990056242494234
 31
0.0
  0
LINE
  5
8B
100
AcDbEntity
  8
0
 62
9
420
12632256
370
-1
 48
1.0
  6
BYLAYER
100
AcDbLine
 10
57.1612254378137408
 20
258.8716735583496416
 30
0.0
 11
57.1612254378137408
 21
271.3716735583496416
 31
0.0
  0
LINE
  5
8C
100
AcDbEntity
  8
0
 62
9
420
12632256
370
-1
 48
1.0
  6
BYLAYER
100
AcDbLine
 10
88.1389072810928269
 20
258.9006584310984636
 30
0.0
 11
88.1389072810928269
 21
271.4006584310984636
 31
0.0
  0
LINE
  5
8D
100
AcDbEntity
  8
0
 62
9
420
12632256
370
-1
 48
1.0
  6
BYLAYER
100
AcDbLine
 10
122.58421805223999
 20
258.8939431825992301
 30
0.0
 11
122.58421805223999
 21
271.3939431825992301
 31
0.0
  0
LINE
  5
8E
100
AcDbEntity
  8
0
 62
9
420
12632256
370
-1
 48
1.0
  6
BYLAYER
100
AcDbLine
 10
22.7159146666665848
 20
258.878388806848875
 30
0.0
 11
22.7159146666665848
 21
271.378388806848875
 31
0.0
  0
LINE
  5
8F
100
AcDbEntity
  8
0
 62
9
420
12632256
370
-1
 48
1.0
  6
BYLAYER
100
AcDbLine
 10
122.8497620522399814
 20
198.623396806848973
 30
0.0
 11
135.3497620522399529
 21
198.623396806848973
 31
0.0
  0
LINE
  5
90
100
AcDbEntity
  8
0
 62
9
420
12632256
370
-1
 48
1.0
  6
BYLAYER
100
AcDbLine
 10
22.9814586666665832
 20
198.6078424310986179
 30
0.0
 11
35.4814586666665761
 21
198.6078424310986179
 31
0.0
  0
LINE
  5
91
100
AcDbEntity
  8
0
 62
9
420
12632256
370
-1
 48
1.0
  6
BYLAYER
100
AcDbLine
 10
155.8911706666663122
 20
198.8755864310986112
 30
0.0
 11
168.3911706666663122
 21
198.8755864310986112
 31
0.0
  0
LINE
  5
92
100
AcDbEntity
  8
0
 62
9
420
12632256
370
-1
 48
1.0
  6
BYLAYER
100
AcDbLine
 10
57.4267694378137321
 20
198.6011271825993845
 30
0.0
 11
69.9267694378137321
 21
198.6011271825993845
 31
0.0
  0
LINE
  5
93
100
AcDbEntity
  8
0
 62
9
420
12632256
370
-1
 48
1.0
  6
BYLAYER
100
AcDbLine
 10
88.4044512810928182
 20
198.6301120553482065
 30
0.0
 11
100.9044512810928182
 21
198.6301120553482065
 31
0.0
  0
LINE
  5
94
100
AcDbEntity
  8
0
 62
9
420
12632256
370
-1
 48
1.0
  6
BYLAYER
100
AcDbLine
 10
155.625626666666335
 20
271.6461328068488683
 30
0.0
 11
168.125626666666335
 21
271.6461328068488683
 31
0.0
  0
LINE
  5
95
100
AcDbEntity
  8
0
 62
9
420
12632256
370
-1
 48
1.0
  6
BYLAYER
100
AcDbLine
 10
123.3474260522399817
 20
234.2063728068488899
 30
0.0
 11
135.8474260522399675
 21
234.2063728068488899
 31
0.0
  0
LINE
  5
96
100
AcDbEntity
  8
0
 62
9
420
12632256
370
-1
 48
1.0
  6
BYLAYER
100
AcDbLine
 10
23.4791226666665835
 20
234.1908184310985348
 30
0.0
 11
35.9791226666665764
 21
234.1908184310985348
 31
0.0
  0
LINE
  5
97
100
AcDbEntity
  8
0
 62
9
420
12632256
370
-1
 48
1.0
  6
BYLAYER
100
AcDbLine
 10
156.3888346666663267
 20
234.4585624310985281
 30
0.0
 11
168.8888346666663267
 21
234.4585624310985281
 31
0.0
  0
LINE
  5
98
100
AcDbEntity
  8
0
 62
9
420
12632256
370
-1
 48
1.0
  6
BYLAYER
100
AcDbLine
 10
57.9244334378137324
 20
234.1841031825993014
 30
0.0
 11
70.4244334378137324
 21
234.1841031825993014
 31
0.0
  0
LINE
  5
99
100
AcDbEntity
  8
0
 62
9
420
12632256
370
-1
 48
1.0
  6
BYLAYER
100
AcDbLine
 10
88.9021152810928186
 20
234.2130880553481234
 30
0.0
 11
101.4021152810928186
 21
234.2130880553481234
 31
0.0
  0
LINE
  5
9A
100
AcDbEntity
  8
0
 62
9
420
12632256
370
-1
 48
1.0
  6
BYLAYER
100
AcDbLine
 10
155.8911706666663122
 20
130.3055656242493683
 30
0.0
 11
168.3911706666663122
 21
130.3055656242493683
 31
0.0
  0
LINE
  5
9B
100
AcDbEntity
  8
0
 62
9
420
12632256
370
-1
 48
1.0
  6
BYLAYER
100
AcDbLine
 10
57.4267694378137321
 20
130.0311063757501415
 30
0.0
 11
69.9267694378137321
 21
130.0311063757501415
 31
0.0
  0
LINE
  5
9C
100
AcDbEntity
  8
0
 62
9
420
12632256
370
-1
 48
1.0
  6
BYLAYER
100
AcDbLine
 10
88.4044512810928182
 20
130.0600912484989635
 30
0.0
 11
100.9044512810928182
 21
130.0600912484989635
 31
0.0
  0
LINE
  5
9D
100
AcDbEntity
  8
0
 62
9
420
12632256
370
-1
 48
1.0
  6
BYLAYER
100
AcDbLine
 10
122.8497620522399814
 20
130.0533759999997301
 30
0.0
 11
135.3497620522399529
 21
130.0533759999997301
 31
0.0
  0
LINE
  5
9E
100
AcDbEntity
  8
0
 62
9
420
12632256
370
-1
 48
1.0
  6
BYLAYER
100
AcDbLine
 10
22.9814586666665832
 20
130.037821624249375
 30
0.0
 11
35.4814586666665761
 21
130.037821624249375
 31
0.0
  0
LINE
  5
9F
100
AcDbEntity
  8
0
 62
9
420
12632256
370
-1
 48
1.0
  6
BYLAYER
100
AcDbLine
 10
88.9021152810928186
 20
163.901243248498929
 30
0.0
 11
101.4021152810928186
 21
163.901243248498929
 31
0.0
  0
LINE
  5
A0
100
AcDbEntity
  8
0
 62
9
420
12632256
370
-1
 48
1.0
  6
BYLAYER
100
AcDbLine
 10
123.3474260522399817
 20
163.8945279999996956
 30
0.0
 11
135.8474260522399675
 21
163.8945279999996956
 31
0.0
  0
LINE
  5
A1
100
AcDbEntity
  8
0
 62
9
420
12632256
370
-1
 48
1.0
  6
BYLAYER
100
AcDbLine
 10
23.4791226666665835
 20
163.8789736242493404
 30
0.0
 11
35.9791226666665764
 21
163.8789736242493404
 31
0.0
  0
LINE
  5
A2
100
AcDbEntity
  8
0
 62
9
420
12632256
370
-1
 48
1.0
  6
BYLAYER
100
AcDbLine
 10
156.3888346666663267
 20
164.1467176242493338
 30
0.0
 11
168.8888346666663267
 21
164.1467176242493338
 31
0.0
  0
LINE
  5
A3
100
AcDbEntity
  8
0
 62
9
420
12632256
370
-1
 48
1.0
  6
BYLAYER
100
AcDbLine
 10
57.9244334378137324
 20
163.872258375750107
 30
0.0
 11
70.4244334378137324
 21
163.872258375750107
 31
0.0
  0
LINE
  5
A4
100
AcDbEntity
  8
0
 62
9
420
12632256
370
-1
 48
1.0
  6
BYLAYER
100
AcDbLine
 10
22.9814586666665832
 20
95.6990056242494234
 30
0.0
 11
35.4814586666665761
 21
95.6990056242494234
 31
0.0
  0
LINE
  5
A5
100
AcDbEntity
  8
0
 62
9
420
12632256
370
-1
 48
1.0
  6
BYLAYER
100
AcDbLine
 10
57.4267694378137321
 20
95.6922903757501899
 30
0.0
 11
69.9267694378137321
 21
95.6922903757501899
 31
0.0
  0
LINE
  5
A6
100
AcDbEntity
  8
0
 62
9
420
12632256
370
-1
 48
1.0
  6
BYLAYER
100
AcDbLine
 10
57.1612254378137408
 20
271.3716735583496416
 30
0.0
 11
69.6612254378137408
 21
271.3716735583496416
 31
0.0
  0
LINE
  5
A7
100
AcDbEntity
  8
0
 62
9
420
12632256
370
-1
 48
1.0
  6
BYLAYER
100
AcDbLine
 10
88.1389072810928269
 20
271.4006584310984636
 30
0.0
 11
100.6389072810928269
 21
271.4006584310984636
 31
0.0
  0
LINE
  5
A8
100
AcDbEntity
  8
0
 62
9
420
12632256
370
-1
 48
1.0
  6
BYLAYER
100
AcDbLine
 10
122.58421805223999
 20
271.3939431825992301
 30
0.0
 11
135.0842180522399758
 21
271.3939431825992301
 31
0.0
  0
LINE
  5
A9
100
AcDbEntity
  8
0
 62
9
420
12632256
370
-1
 48
1.0
  6
BYLAYER
100
AcDbLine
 10
22.7159146666665848
 20
271.378388806848875
 30
0.0
 11
35.2159146666665848
 21
271.378388806848875
 31
0.0
  0
LINE
  5
AA
100
AcDbEntity
  8
0
 62
9
420
12632256
370
-1
 48
1.0
  6
BYLAYER
100
AcDbLine
 10
35.4814586666665761
 20
198.6078424310986179
 30
0.0
 11
35.4814586666665761
 21
186.1078424310986179
 31
0.0
  0
LINE
  5
AB
100
AcDbEntity
  8
0
 62
9
420
12632256
370
-1
 48
1.0
  6
BYLAYER
100
AcDbLine
 10
168.3911706666663122
 20
198.8755864310986112
 30
0.0
 11
168.3911706666663122
 21
186.3755864310986112
 31
0.0
  0
LINE
  5
AC
100
AcDbEntity
  8
0
 62
9
420
12632256
370
-1
 48
1.0
  6
BYLAYER
100
AcDbLine
 10
69.9267694378137321
 20
198.6011271825993845
 30
0.0
 11
69.9267694378137321
 21
186.1011271825993845
 31
0.0
  0
LINE
  5
AD
100
AcDbEntity
  8
0
 62
9
420
12632256
370
-1
 48
1.0
  6
BYLAYER
100
AcDbLine
 10
100.9044512810928182
 20
198.6301120553482065
 30
0.0
 11
100.9044512810928182
 21
186.1301120553482065
 31
0.0
  0
LINE
  5
AE
100
AcDbEntity
  8
0
 62
9
420
12632256
370
-1
 48
1.0
  6
BYLAYER
100
AcDbLine
 10
135.3497620522399529
 20
198.623396806848973
 30
0.0
 11
135.3497620522399529
 21
186.123396806848973
 31
0.0
  0
LINE
  5
AF
100
AcDbEntity
  8
0
 62
9
420
12632256
370
-1
 48
1.0
  6
BYLAYER
100
AcDbLine
 10
168.125626666666335
 20
271.6461328068488683
 30
0.0
 11
168.125626666666335
 21
259.1461328068488683
 31
0.0
  0
LINE
  5
B0
100
AcDbEntity
  8
0
 62
9
420
12632256
370
-1
 48
1.0
  6
BYLAYER
100
AcDbLine
 10
70.4244334378137324
 20
234.1841031825993014
 30
0.0
 11
70.4244334378137324
 21
221.6841031825993014
 31
0.0
  0
LINE
  5
B1
100
AcDbEntity
  8
0
 62
9
420
12632256
370
-1
 48
1.0
  6
BYLAYER
100
AcDbLine
 10
101.4021152810928186
 20
234.2130880553481234
 30
0.0
 11
101.4021152810928186
 21
221.7130880553481234
 31
0.0
  0
LINE
  5
B2
100
AcDbEntity
  8
0
 62
9
420
12632256
370
-1
 48
1.0
  6
BYLAYER
100
AcDbLine
 10
135.8474260522399675
 20
234.2063728068488899
 30
0.0
 11
135.8474260522399675
 21
221.7063728068488899
 31
0.0
  0
LINE
  5
B3
100
AcDbEntity
  8
0
 62
9
420
12632256
370
-1
 48
1.0
  6
BYLAYER
100
AcDbLine
 10
35.9791226666665764
 20
234.1908184310985348
 30
0.0
 11
35.9791226666665764
 21
221.6908184310985348
 31
0.0
  0
LINE
  5
B4
100
AcDbEntity
  8
0
 62
9
420
12632256
370
-1
 48
1.0
  6
BYLAYER
100
AcDbLine
 10
168.8888346666663267
 20
234.4585624310985281
 30
0.0
 11
168.8888346666663267
 21
221.9585624310985281
 31
0.0
  0
LINE
  5
B5
100
AcDbEntity
  8
0
 62
9
420
12632256
370
-1
 48
1.0
  6
BYLAYER
100
AcDbLine
 10
135.3497620522399529
 20
130.0533759999997301
 30
0.0
 11
135.3497620522399529
 21
117.5533759999997301
 31
0.0
  0
LINE
  5
B6
100
AcDbEntity
  8
0
 62
9
420
12632256
370
-1
 48
1.0
  6
BYLAYER
100
AcDbLine
 10
35.4814586666665761
 20
130.037821624249375
 30
0.0
 11
35.4814586666665761
 21
117.537821624249375
 31
0.0
  0
LINE
  5
B7
100
AcDbEntity
  8
0
 62
9
420
12632256
370
-1
 48
1.0
  6
BYLAYER
100
AcDbLine
 10
168.3911706666663122
 20
130.3055656242493683
 30
0.0
 11
168.3911706666663122
 21
117.8055656242493683
 31
0.0
  0
LINE
  5
B8
100
AcDbEntity
  8
0
 62
9
420
12632256
370
-1
 48
1.0
  6
BYLAYER
100
AcDbLine
 10
69.9267694378137321
 20
130.0311063757501415
 30
0.0
 11
69.9267694378137321
 21
117.5311063757501415
 31
0.0
  0
LINE
  5
B9
100
AcDbEntity
  8
0
 62
9
420
12632256
370
-1
 48
1.0
  6
BYLAYER
100
AcDbLine
 10
100.9044512810928182
 20
130.0600912484989635
 30
0.0
 11
100.9044512810928182
 21
117.5600912484989635
 31
0.0
  0
LINE
  5
BA
100
AcDbEntity
  8
0
 62
9
420
12632256
370
-1
 48
1.0
  6
BYLAYER
100
AcDbLine
 10
135.8474260522399675
 20
163.8945279999996956
 30
0.0
 11
135.8474260522399675
 21
151.3945279999996956
 31
0.0
  0
LINE
  5
BB
100
AcDbEntity
  8
0
 62
9
420
12632256
370
-1
 48
1.0
  6
BYLAYER
100
AcDbLine
 10
35.9791226666665764
 20
163.8789736242493404
 30
0.0
 11
35.9791226666665764
 21
151.3789736242493404
 31
0.0
  0
LINE
  5
BC
100
AcDbEntity
  8
0
 62
9
420
12632256
370
-1
 48
1.0
  6
BYLAYER
100
AcDbLine
 10
168.8888346666663267
 20
164.1467176242493338
 30
0.0
 11
168.8888346666663267
 21
151.6467176242493338
 31
0.0
  0
LINE
  5
BD
100
AcDbEntity
  8
0
 62
9
420
12632256
370
-1
 48
1.0
  6
BYLAYER
100
AcDbLine
 10
70.4244334378137324
 20
163.872258375750107
 30
0.0
 11
70.4244334378137324
 21
151.372258375750107
 31
0.0
  0
LINE
  5
BE
100
AcDbEntity
  8
0
 62
9
420
12632256
370
-1
 48
1.0
  6
BYLAYER
100
AcDbLine
 10
101.4021152810928186
 20
163.901243248498929
 30
0.0
 11
101.4021152810928186
 21
151.401243248498929
 31
0.0
  0
LINE
  5
BF
100
AcDbEntity
  8
0
 62
9
420
12632256
370
-1
 48
1.0
  6
BYLAYER
100
AcDbLine
 10
35.4814586666665761
 20
95.6990056242494234
 30
0.0
 11
35.4814586666665761
 21
83.1990056242494234
 31
0.0
  0
LINE
  5
C0
100
AcDbEntity
  8
0
 62
9
420
12632256
370
-1
 48
1.0
  6
BYLAYER
100
AcDbLine
 10
69.9267694378137321
 20
95.6922903757501899
 30
0.0
 11
69.9267694378137321
 21
83.1922903757501899
 31
0.0
  0
LINE
  5
C1
100
AcDbEntity
  8
0
 62
9
420
12632256
370
-1
 48
1.0
  6
BYLAYER
100
AcDbLine
 10
69.6612254378137408
 20
271.3716735583496416
 30
0.0
 11
69.6612254378137408
 21
258.8716735583496416
 31
0.0
  0
LINE
  5
C2
100
AcDbEntity
  8
0
 62
9
420
12632256
370
-1
 48
1.0
  6
BYLAYER
100
AcDbLine
 10
100.6389072810928269
 20
271.4006584310984636
 30
0.0
 11
100.6389072810928269
 21
258.9006584310984636
 31
0.0
  0
LINE
  5
C3
100
AcDbEntity
  8
0
 62
9
420
12632256
370
-1
 48
1.0
  6
BYLAYER
100
AcDbLine
 10
135.0842180522399758
 20
271.3939431825992301
 30
0.0
 11
135.0842180522399758
 21
258.8939431825992301
 31
0.0
  0
LINE
  5
C4
100
AcDbEntity
  8
0
 62
9
420
12632256
370
-1
 48
1.0
  6
BYLAYER
100
AcDbLine
 10
35.2159146666665848
 20
271.378388806848875
 30
0.0
 11
35.2159146666665848
 21
258.878388806848875
 31
0.0
  0
LINE
  5
C5
100
AcDbEntity
  8
0
 62
9
420
12632256
370
-1
 48
1.0
  6
BYLAYER
100
AcDbLine
 10
35.4814586666665761
 20
186.1078424310986179
 30
0.0
 11
22.9814586666665832
 21
186.1078424310986179
 31
0.0
  0
LINE
  5
C6
100
AcDbEntity
  8
0
 62
9
420
12632256
370
-1
 48
1.0
  6
BYLAYER
100
AcDbLine
 10
168.3911706666663122
 20
186.3755864310986112
 30
0.0
 11
155.8911706666663122
 21
186.3755864310986112
 31
0.0
  0
LINE
  5
C7
100
AcDbEntity
  8
0
 62
9
420
12632256
370
-1
 48
1.0
  6
BYLAYER
100
AcDbLine
 10
100.9044512810928182
 20
186.1301120553482065
 30
0.0
 11
88.4044512810928182
 21
186.1301120553482065
 31
0.0
  0
LINE
  5
C8
100
AcDbEntity
  8
0
 62
9
420
12632256
370
-1
 48
1.0
  6
BYLAYER
100
AcDbLine
 10
69.9267694378137321
 20
186.1011271825993845
 30
0.0
 11
57.4267694378137321
 21
186.1011271825993845
 31
0.0
  0
LINE
  5
C9
100
AcDbEntity
  8
0
 62
9
420
12632256
370
-1
 48
1.0
  6
BYLAYER
100
AcDbLine
 10
135.3497620522399529
 20
186.123396806848973
 30
0.0
 11
122.8497620522399814
 21
186.123396806848973
 31
0.0
  0
LINE
  5
CA
100
AcDbEntity
  8
0
 62
9
420
12632256
370
-1
 48
1.0
  6
BYLAYER
100
AcDbLine
 10
168.125626666666335
 20
259.1461328068488683
 30
0.0
 11
155.625626666666335
 21
259.1461328068488683
 31
0.0
  0
LINE
  5
CB
100
AcDbEntity
  8
0
 62
9
420
12632256
370
-1
 48
1.0
  6
BYLAYER
100
AcDbLine
 10
35.9791226666665764
 20
221.6908184310985348
 30
0.0
 11
23.4791226666665835
 21
221.6908184310985348
 31
0.0
  0
LINE
  5
CC
100
AcDbEntity
  8
0
 62
9
420
12632256
370
-1
 48
1.0
  6
BYLAYER
100
AcDbLine
 10
168.8888346666663267
 20
221.9585624310985281
 30
0.0
 11
156.3888346666663267
 21
221.9585624310985281
 31
0.0
  0
LINE
  5
CD
100
AcDbEntity
  8
0
 62
9
420
12632256
370
-1
 48
1.0
  6
BYLAYER
100
AcDbLine
 10
101.4021152810928186
 20
221.7130880553481234
 30
0.0
 11
88.9021152810928186
 21
221.7130880553481234
 31
0.0
  0
LINE
  5
CE
100
AcDbEntity
  8
0
 62
9
420
12632256
370
-1
 48
1.0
  6
BYLAYER
100
AcDbLine
 10
70.4244334378137324
 20
221.6841031825993014
 30
0.0
 11
57.9244334378137324
 21
221.6841031825993014
 31
0.0
  0
LINE
  5
CF
100
AcDbEntity
  8
0
 62
9
420
12632256
370
-1
 48
1.0
  6
BYLAYER
100
AcDbLine
 10
135.8474260522399675
 20
221.7063728068488899
 30
0.0
 11
123.3474260522399817
 21
221.7063728068488899
 31
0.0
  0
LINE
  5
D0
100
AcDbEntity
  8
0
 62
9
420
12632256
370
-1
 48
1.0
  6
BYLAYER
100
AcDbLine
 10
35.4814586666665761
 20
117.537821624249375
 30
0.0
 11
22.9814586666665832
 21
117.537821624249375
 31
0.0
  0
LINE
  5
D1
100
AcDbEntity
  8
0
 62
9
420
12632256
370
-1
 48
1.0
  6
BYLAYER
100
AcDbLine
 10
168.3911706666663122
 20
117.8055656242493683
 30
0.0
 11
155.8911706666663122
 21
117.8055656242493683
 31
0.0
  0
LINE
  5
D2
100
AcDbEntity
  8
0
 62
9
420
12632256
370
-1
 48
1.0
  6
BYLAYER
100
AcDbLine
 10
100.9044512810928182
 20
117.5600912484989635
 30
0.0
 11
88.4044512810928182
 21
117.5600912484989635
 31
0.0
  0
LINE
  5
D3
100
AcDbEntity
  8
0
 62
9
420
12632256
370
-1
 48
1.0
  6
BYLAYER
100
AcDbLine
 10
69.9267694378137321
 20
117.5311063757501415
 30
0.0
 11
57.4267694378137321
 21
117.5311063757501415
 31
0.0
  0
LINE
  5
D4
100
AcDbEntity
  8
0
 62
9
420
12632256
370
-1
 48
1.0
  6
BYLAYER
100
AcDbLine
 10
135.3497620522399529
 20
117.5533759999997301
 30
0.0
 11
122.8497620522399814
 21
117.5533759999997301
 31
0.0
  0
LINE
  5
D5
100
AcDbEntity
  8
0
 62
9
420
12632256
370
-1
 48
1.0
  6
BYLAYER
100
AcDbLine
 10
35.9791226666665764
 20
151.3789736242493404
 30
0.0
 11
23.4791226666665835
 21
151.3789736242493404
 31
0.0
  0
LINE
  5
D6
100
AcDbEntity
  8
0
 62
9
420
12632256
370
-1
 48
1.0
  6
BYLAYER
100
AcDbLine
 10
168.8888346666663267
 20
151.6467176242493338
 30
0.0
 11
156.3888346666663267
 21
151.6467176242493338
 31
0.0
  0
LINE
  5
D7
100
AcDbEntity
  8
0
 62
9
420
12632256
370
-1
 48
1.0
  6
BYLAYER
100
AcDbLine
 10
101.4021152810928186
 20
151.401243248498929
 30
0.0
 11
88.9021152810928186
 21
151.401243248498929
 31
0.0
  0
LINE
  5
D8
100
AcDbEntity
  8
0
 62
9
420
12632256
370
-1
 48
1.0
  6
BYLAYER
100
AcDbLine
 10
70.4244334378137324
 20
151.372258375750107
 30
0.0
 11
57.9244334378137324
 21
151.372258375750107
 31
0.0
  0
LINE
  5
D9
100
AcDbEntity
  8
0
 62
9
420
12632256
370
-1
 48
1.0
  6
BYLAYER
100
AcDbLine
 10
135.8474260522399675
 20
151.3945279999996956
 30
0.0
 11
123.3474260522399817
 21
151.3945279999996956
 31
0.0
  0
LINE
  5
DA
100
AcDbEntity
  8
0
 62
9
420
12632256
370
-1
 48
1.0
  6
BYLAYER
100
AcDbLine
 10
35.4814586666665761
 20
83.1990056242494234
 30
0.0
 11
22.9814586666665832
 21
83.1990056242494234
 31
0.0
  0
LINE
  5
DB
100
AcDbEntity
  8
0
 62
9
420
12632256
370
-1
 48
1.0
  6
BYLAYER
100
AcDbLine
 10
69.9267694378137321
 20
83.1922903757501899
 30
0.0
 11
57.4267694378137321
 21
83.1922903757501899
 31
0.0
  0
LINE
  5
DC
100
AcDbEntity
  8
0
 62
9
420
12632256
370
-1
 48
1.0
  6
BYLAYER
100
AcDbLine
 10
69.6612254378137408
 20
258.8716735583496416
 30
0.0
 11
57.1612254378137408
 21
258.8716735583496416
 31
0.0
  0
LINE
  5
DD
100
AcDbEntity
  8
0
 62
9
420
12632256
370
-1
 48
1.0
  6
BYLAYER
100
AcDbLine
 10
135.0842180522399758
 20
258.8939431825992301
 30
0.0
 11
122.58421805223999
 21
258.8939431825992301
 31
0.0
  0
LINE
  5
DE
100
AcDbEntity
  8
0
 62
9
420
12632256
370
-1
 48
1.0
  6
BYLAYER
100
AcDbLine
 10
100.6389072810928269
 20
258.9006584310984636
 30
0.0
 11
88.1389072810928269
 21
258.9006584310984636
 31
0.0
  0
LINE
  5
DF
100
AcDbEntity
  8
0
 62
9
420
12632256
370
-1
 48
1.0
  6
BYLAYER
100
AcDbLine
 10
35.2159146666665848
 20
258.878388806848875
 30
0.0
 11
22.7159146666665848
 21
258.878388806848875
 31
0.0
  0
LINE
  5
E0
100
AcDbEntity
  8
0
 62
9
420
12632256
370
-1
 48
1.0
  6
BYLAYER
100
AcDbLine
 10
114.9497620522399615
 20
183.5565312066090087
 30
0.0
 11
114.9497620522399757
 21
207.0733968068489617
 31
0.0
  0
LINE
  5
E1
100
AcDbEntity
  8
0
 62
9
420
12632256
370
-1
 48
1.0
  6
BYLAYER
100
AcDbLine
 10
80.5044512810928126
 20
183.5632464551082421
 30
0.0
 11
80.5044512810928126
 21
207.0801120553481951
 31
0.0
  0
LINE
  5
E2
100
AcDbEntity
  8
0
 62
9
420
12632256
370
-1
 48
1.0
  6
BYLAYER
100
AcDbLine
 10
15.0814586666665491
 20
183.5409768308586536
 30
0.0
 11
15.0814586666665775
 21
207.0578424310986065
 31
0.0
  0
LINE
  5
E3
100
AcDbEntity
  8
0
 62
9
420
12632256
370
-1
 48
1.0
  6
BYLAYER
100
AcDbLine
 10
147.9911706666663349
 20
183.8087208308586469
 30
0.0
 11
147.9911706666663349
 21
207.3255864310985999
 31
0.0
  0
LINE
  5
E4
100
AcDbEntity
  8
0
 62
9
420
12632256
370
-1
 48
1.0
  6
BYLAYER
100
AcDbLine
 10
49.5267694378137122
 20
183.5342615823594201
 30
0.0
 11
49.5267694378137264
 21
207.0511271825993731
 31
0.0
  0
LINE
  5
E5
100
AcDbEntity
  8
0
 62
9
420
12632256
370
-1
 48
1.0
  6
BYLAYER
100
AcDbLine
 10
147.7256266666663294
 20
256.579267206608904
 30
0.0
 11
147.7256266666663578
 21
280.0961328068488569
 31
0.0
  0
LINE
  5
E6
100
AcDbEntity
  8
0
 62
9
420
12632256
370
-1
 48
1.0
  6
BYLAYER
100
AcDbLine
 10
115.4474260522399618
 20
219.1395072066089256
 30
0.0
 11
115.447426052239976
 21
242.6563728068488786
 31
0.0
  0
LINE
  5
E7
100
AcDbEntity
  8
0
 62
9
420
12632256
370
-1
 48
1.0
  6
BYLAYER
100
AcDbLine
 10
81.0021152810928129
 20
219.146222455108159
 30
0.0
 11
81.0021152810928129
 21
242.663088055348112
 31
0.0
  0
LINE
  5
E8
100
AcDbEntity
  8
0
 62
9
420
12632256
370
-1
 48
1.0
  6
BYLAYER
100
AcDbLine
 10
15.5791226666665494
 20
219.1239528308585705
 30
0.0
 11
15.5791226666665779
 21
242.6408184310985234
 31
0.0
  0
LINE
  5
E9
100
AcDbEntity
  8
0
 62
9
420
12632256
370
-1
 48
1.0
  6
BYLAYER
100
AcDbLine
 10
148.488834666666321
 20
219.3916968308585638
 30
0.0
 11
148.4888346666663494
 21
242.9085624310985168
 31
0.0
  0
LINE
  5
EA
100
AcDbEntity
  8
0
 62
9
420
12632256
370
-1
 48
1.0
  6
BYLAYER
100
AcDbLine
 10
50.0244334378137125
 20
219.117237582359337
 30
0.0
 11
50.0244334378137268
 21
242.63410318259929
 31
0.0
  0
LINE
  5
EB
100
AcDbEntity
  8
0
 62
9
420
12632256
370
-1
 48
1.0
  6
BYLAYER
100
AcDbLine
 10
147.9911706666663349
 20
115.2387000240094039
 30
0.0
 11
147.9911706666663349
 21
138.7555656242493569
 31
0.0
  0
LINE
  5
EC
100
AcDbEntity
  8
0
 62
9
420
12632256
370
-1
 48
1.0
  6
BYLAYER
100
AcDbLine
 10
49.5267694378137122
 20
114.9642407755101772
 30
0.0
 11
49.5267694378137264
 21
138.4811063757501302
 31
0.0
  0
LINE
  5
ED
100
AcDbEntity
  8
0
 62
9
420
12632256
370
-1
 48
1.0
  6
BYLAYER
100
AcDbLine
 10
114.9497620522399615
 20
114.9865103997597657
 30
0.0
 11
114.9497620522399757
 21
138.5033759999997187
 31
0.0
  0
LINE
  5
EE
100
AcDbEntity
  8
0
 62
9
420
12632256
370
-1
 48
1.0
  6
BYLAYER
100
AcDbLine
 10
80.5044512810928126
 20
114.9932256482589992
 30
0.0
 11
80.5044512810928126
 21
138.5100912484989522
 31
0.0
  0
LINE
  5
EF
100
AcDbEntity
  8
0
 62
9
420
12632256
370
-1
 48
1.0
  6
BYLAYER
100
AcDbLine
 10
15.0814586666665491
 20
114.9709560240094106
 30
0.0
 11
15.0814586666665775
 21
138.4878216242493636
 31
0.0
  0
LINE
  5
F0
100
AcDbEntity
  8
0
 62
9
420
12632256
370
-1
 48
1.0
  6
BYLAYER
100
AcDbLine
 10
115.4474260522399618
 20
148.8276623997597312
 30
0.0
 11
115.447426052239976
 21
172.3445279999996842
 31
0.0
  0
LINE
  5
F1
100
AcDbEntity
  8
0
 62
9
420
12632256
370
-1
 48
1.0
  6
BYLAYER
100
AcDbLine
 10
81.0021152810928129
 20
148.8343776482589647
 30
0.0
 11
81.0021152810928129
 21
172.3512432484989176
 31
0.0
  0
LINE
  5
F2
100
AcDbEntity
  8
0
 62
9
420
12632256
370
-1
 48
1.0
  6
BYLAYER
100
AcDbLine
 10
15.5791226666665494
 20
148.8121080240093761
 30
0.0
 11
15.5791226666665779
 21
172.3289736242493291
 31
0.0
  0
LINE
  5
F3
100
AcDbEntity
  8
0
 62
9
420
12632256
370
-1
 48
1.0
  6
BYLAYER
100
AcDbLine
 10
148.488834666666321
 20
149.0798520240093694
 30
0.0
 11
148.4888346666663494
 21
172.5967176242493224
 31
0.0
  0
LINE
  5
F4
100
AcDbEntity
  8
0
 62
9
420
12632256
370
-1
 48
1.0
  6
BYLAYER
100
AcDbLine
 10
50.0244334378137125
 20
148.8053927755101427
 30
0.0
 11
50.0244334378137268
 21
172.3222583757500956
 31
0.0
  0
LINE
  5
F5
100
AcDbEntity
  8
0
 62
9
420
12632256
370
-1
 48
1.0
  6
BYLAYER
100
AcDbLine
 10
15.0814586666665491
 20
80.632140024009459
 30
0.0
 11
15.0814586666665775
 21
104.149005624249412
 31
0.0
  0
LINE
  5
F6
100
AcDbEntity
  8
0
 62
9
420
12632256
370
-1
 48
1.0
  6
BYLAYER
100
AcDbLine
 10
49.5267694378137122
 20
80.6254247755102256
 30
0.0
 11
49.5267694378137264
 21
104.1422903757501786
 31
0.0
  0
LINE
  5
F7
100
AcDbEntity
  8
0
 62
9
420
12632256
370
-1
 48
1.0
  6
BYLAYER
100
AcDbLine
 10
49.2612254378137209
 20
256.3048079581096772
 30
0.0
 11
49.2612254378137351
 21
279.8216735583496302
 31
0.0
  0
LINE
  5
F8
100
AcDbEntity
  8
0
 62
9
420
12632256
370
-1
 48
1.0
  6
BYLAYER
100
AcDbLine
 10
114.6842180522399701
 20
256.3270775823592658
 30
0.0
 11
114.6842180522399843
 21
279.8439431825992187
 31
0.0
  0
LINE
  5
F9
100
AcDbEntity
  8
0
 62
9
420
12632256
370
-1
 48
1.0
  6
BYLAYER
100
AcDbLine
 10
80.2389072810928212
 20
256.3337928308584992
 30
0.0
 11
80.2389072810928212
 21
279.8506584310984522
 31
0.0
  0
LINE
  5
FA
100
AcDbEntity
  8
0
 62
9
420
12632256
370
-1
 48
1.0
  6
BYLAYER
100
AcDbLine
 10
14.8159146666665649
 20
256.3115232066089106
 30
0.0
 11
14.8159146666665791
 21
279.8283888068488636
 31
0.0
  0
LINE
  5
FB
100
AcDbEntity
  8
0
 62
9
420
12632256
370
-1
 48
1.0
  6
BYLAYER
100
AcDbLine
 10
143.249762052239987
 20
201.1902624070889374
 30
0.0
 11
143.249762052239987
 21
177.6733968068489844
 31
0.0
  0
LINE
  5
FC
100
AcDbEntity
  8
0
 62
9
420
12632256
370
-1
 48
1.0
  6
BYLAYER
100
AcDbLine
 10
43.3814586666665676
 20
201.1747080313385823
 30
0.0
 11
43.3814586666665818
 21
177.6578424310986293
 31
0.0
  0
LINE
  5
FD
100
AcDbEntity
  8
0
 62
9
420
12632256
370
-1
 48
1.0
  6
BYLAYER
100
AcDbLine
 10
176.0256266666663407
 20
274.2129984070888327
 30
0.0
 11
176.0256266666663691
 21
250.6961328068488797
 31
0.0
  0
LINE
  5
FE
100
AcDbEntity
  8
0
 62
9
420
12632256
370
-1
 48
1.0
  6
BYLAYER
100
AcDbLine
 10
108.5389072810928326
 20
273.9675240313384279
 30
0.0
 11
108.5389072810928326
 21
250.4506584310984749
 31
0.0
  0
LINE
  5
FF
100
AcDbEntity
  8
0
 62
9
420
12632256
370
-1
 48
1.0
  6
BYLAYER
100
AcDbLine
 10
109.3021152810928243
 20
236.7799536555880877
 30
0.0
 11
109.3021152810928243
 21
213.2630880553481347
 31
0.0
  0
LINE
  5
100
100
AcDbEntity
  8
0
 62
9
420
12632256
370
-1
 48
1.0
  6
BYLAYER
100
AcDbLine
 10
143.7474260522399732
 20
236.7732384070888543
 30
0.0
 11
143.7474260522400016
 21
213.2563728068489013
 31
0.0
  0
LINE
  5
101
100
AcDbEntity
  8
0
 62
9
420
12632256
370
-1
 48
1.0
  6
BYLAYER
100
AcDbLine
 10
43.8791226666665679
 20
236.7576840313384992
 30
0.0
 11
43.8791226666665821
 21
213.2408184310985462
 31
0.0
  0
LINE
  5
102
100
AcDbEntity
  8
0
 62
9
420
12632256
370
-1
 48
1.0
  6
BYLAYER
100
AcDbLine
 10
176.7888346666663324
 20
237.0254280313384925
 30
0.0
 11
176.7888346666663608
 21
213.5085624310985395
 31
0.0
  0
LINE
  5
103
100
AcDbEntity
  8
0
 62
9
420
12632256
370
-1
 48
1.0
  6
BYLAYER
100
AcDbLine
 10
78.3244334378137239
 20
236.7509687828392657
 30
0.0
 11
78.3244334378137381
 21
213.2341031825993127
 31
0.0
  0
LINE
  5
104
100
AcDbEntity
  8
0
 62
9
420
12632256
370
-1
 48
1.0
  6
BYLAYER
100
AcDbLine
 10
143.249762052239987
 20
132.6202416002396944
 30
0.0
 11
143.249762052239987
 21
109.1033759999997415
 31
0.0
  0
LINE
  5
105
100
AcDbEntity
  8
0
 62
9
420
12632256
370
-1
 48
1.0
  6
BYLAYER
100
AcDbLine
 10
43.3814586666665676
 20
132.6046872244893393
 30
0.0
 11
43.3814586666665818
 21
109.0878216242493863
 31
0.0
  0
LINE
  5
106
100
AcDbEntity
  8
0
 62
9
420
12632256
370
-1
 48
1.0
  6
BYLAYER
100
AcDbLine
 10
176.2911706666663463
 20
132.8724312244893326
 30
0.0
 11
176.2911706666663463
 21
109.3555656242493797
 31
0.0
  0
LINE
  5
107
100
AcDbEntity
  8
0
 62
9
420
12632256
370
-1
 48
1.0
  6
BYLAYER
100
AcDbLine
 10
77.8267694378137236
 20
132.5979719759901059
 30
0.0
 11
77.8267694378137378
 21
109.0811063757501529
 31
0.0
  0
LINE
  5
108
100
AcDbEntity
  8
0
 62
9
420
12632256
370
-1
 48
1.0
  6
BYLAYER
100
AcDbLine
 10
108.8044512810928239
 20
132.6269568487389279
 30
0.0
 11
108.8044512810928239
 21
109.1100912484989749
 31
0.0
  0
LINE
  5
109
100
AcDbEntity
  8
0
 62
9
420
12632256
370
-1
 48
1.0
  6
BYLAYER
100
AcDbLine
 10
143.7474260522399732
 20
166.4613936002396599
 30
0.0
 11
143.7474260522400016
 21
142.9445279999997069
 31
0.0
  0
LINE
  5
10A
100
AcDbEntity
  8
0
 62
9
420
12632256
370
-1
 48
1.0
  6
BYLAYER
100
AcDbLine
 10
43.8791226666665679
 20
166.4458392244893048
 30
0.0
 11
43.8791226666665821
 21
142.9289736242493518
 31
0.0
  0
LINE
  5
10B
100
AcDbEntity
  8
0
 62
9
420
12632256
370
-1
 48
1.0
  6
BYLAYER
100
AcDbLine
 10
176.7888346666663324
 20
166.7135832244892981
 30
0.0
 11
176.7888346666663608
 21
143.1967176242493451
 31
0.0
  0
LINE
  5
10C
100
AcDbEntity
  8
0
 62
9
420
12632256
370
-1
 48
1.0
  6
BYLAYER
100
AcDbLine
 10
78.3244334378137239
 20
166.4391239759900714
 30
0.0
 11
78.3244334378137381
 21
142.9222583757501184
 31
0.0
  0
LINE
  5
10D
100
AcDbEntity
  8
0
 62
9
420
12632256
370
-1
 48
1.0
  6
BYLAYER
100
AcDbLine
 10
109.3021152810928243
 20
166.4681088487388934
 30
0.0
 11
109.3021152810928243
 21
142.9512432484989404
 31
0.0
  0
LINE
  5
10E
100
AcDbEntity
  8
0
 62
9
420
12632256
370
-1
 48
1.0
  6
BYLAYER
100
AcDbLine
 10
43.3814586666665676
 20
98.2658712244893877
 30
0.0
 11
43.3814586666665818
 21
74.7490056242494347
 31
0.0
  0
LINE
  5
10F
100
AcDbEntity
  8
0
 62
9
420
12632256
370
-1
 48
1.0
  6
BYLAYER
100
AcDbLine
 10
77.8267694378137236
 20
98.2591559759901543
 30
0.0
 11
77.8267694378137378
 21
74.7422903757502013
 31
0.0
  0
LINE
  5
110
100
AcDbEntity
  8
0
 62
9
420
12632256
370
-1
 48
1.0
  6
BYLAYER
100
AcDbLine
 10
77.5612254378137322
 20
273.9385391585896059
 30
0.0
 11
77.5612254378137465
 21
250.4216735583496529
 31
0.0
  0
LINE
  5
111
100
AcDbEntity
  8
0
 62
9
420
12632256
370
-1
 48
1.0
  6
BYLAYER
100
AcDbLine
 10
142.9842180522399815
 20
273.9608087828391945
 30
0.0
 11
142.9842180522400099
 21
250.4439431825992415
 31
0.0
  0
LINE
  5
112
100
AcDbEntity
  8
0
 62
9
420
12632256
370
-1
 48
1.0
  6
BYLAYER
100
AcDbLine
 10
43.1159146666665762
 20
273.9452544070888393
 30
0.0
 11
43.1159146666665904
 21
250.4283888068488864
 31
0.0
  0
LINE
  5
113
100
AcDbEntity
  8
0
 62
9
420
12632256
370
-1
 48
1.0
  6
BYLAYER
100
AcDbLine
 10
176.2911706666663463
 20
201.4424520313385756
 30
0.0
 11
176.2911706666663463
 21
177.9255864310986226
 31
0.0
  0
LINE
  5
114
100
AcDbEntity
  8
0
 62
9
420
12632256
370
-1
 48
1.0
  6
BYLAYER
100
AcDbLine
 10
77.8267694378137236
 20
201.1679927828393488
 30
0.0
 11
77.8267694378137378
 21
177.6511271825993958
 31
0.0
  0
LINE
  5
115
100
AcDbEntity
  8
0
 62
9
420
12632256
370
-1
 48
1.0
  6
BYLAYER
100
AcDbLine
 10
108.8044512810928239
 20
201.1969776555881708
 30
0.0
 11
108.8044512810928239
 21
177.6801120553482178
 31
0.0
  0
LINE
  5
116
100
AcDbEntity
  8
0
 62
9
420
12632256
370
-1
 48
1.0
  6
BYLAYER
100
AcDbLine
 10
153.0587610664263991
 20
279.5461328068489024
 30
0.0
 11
176.5987610664264196
 21
279.5461328068489024
 31
0.0
  0
LINE
  5
117
100
AcDbEntity
  8
0
 62
9
420
12632256
370
-1
 48
1.0
  6
BYLAYER
100
AcDbLine
 10
120.0173524520000399
 20
279.2939431825992642
 30
0.0
 11
143.5573524520000603
 21
279.2939431825992642
 31
0.0
  0
LINE
  5
118
100
AcDbEntity
  8
0
 62
9
420
12632256
370
-1
 48
1.0
  6
BYLAYER
100
AcDbLine
 10
85.572041680852891
 20
279.3006584310984977
 30
0.0
 11
109.1120416808528972
 21
279.3006584310984977
 31
0.0
  0
LINE
  5
119
100
AcDbEntity
  8
0
 62
9
420
12632256
370
-1
 48
1.0
  6
BYLAYER
100
AcDbLine
 10
86.3352496808528826
 20
242.1130880553481575
 30
0.0
 11
109.8752496808528889
 21
242.1130880553481575
 31
0.0
  0
LINE
  5
11A
100
AcDbEntity
  8
0
 62
9
420
12632256
370
-1
 48
1.0
  6
BYLAYER
100
AcDbLine
 10
20.9122570664266192
 20
242.0908184310985689
 30
0.0
 11
44.4522570664266397
 21
242.0908184310985689
 31
0.0
  0
LINE
  5
11B
100
AcDbEntity
  8
0
 62
9
420
12632256
370
-1
 48
1.0
  6
BYLAYER
100
AcDbLine
 10
120.7805604520000315
 20
242.106372806848924
 30
0.0
 11
144.320560452000052
 21
242.106372806848924
 31
0.0
  0
LINE
  5
11C
100
AcDbEntity
  8
0
 62
9
420
12632256
370
-1
 48
1.0
  6
BYLAYER
100
AcDbLine
 10
153.8219690664263908
 20
242.3585624310985622
 30
0.0
 11
177.3619690664264112
 21
242.3585624310985622
 31
0.0
  0
LINE
  5
11D
100
AcDbEntity
  8
0
 62
9
420
12632256
370
-1
 48
1.0
  6
BYLAYER
100
AcDbLine
 10
55.3575678375737823
 20
242.0841031825993355
 30
0.0
 11
78.8975678375738028
 21
242.0841031825993355
 31
0.0
  0
LINE
  5
11E
100
AcDbEntity
  8
0
 62
9
420
12632256
370
-1
 48
1.0
  6
BYLAYER
100
AcDbLine
 10
85.8375856808528823
 20
137.9600912484989976
 30
0.0
 11
109.3775856808528886
 21
137.9600912484989976
 31
0.0
  0
LINE
  5
11F
100
AcDbEntity
  8
0
 62
9
420
12632256
370
-1
 48
1.0
  6
BYLAYER
100
AcDbLine
 10
20.4145930664266189
 20
137.9378216242494091
 30
0.0
 11
43.9545930664266393
 21
137.9378216242494091
 31
0.0
  0
LINE
  5
120
100
AcDbEntity
  8
0
 62
9
420
12632256
370
-1
 48
1.0
  6
BYLAYER
100
AcDbLine
 10
120.2828964520000312
 20
137.9533759999997642
 30
0.0
 11
143.8228964520000659
 21
137.9533759999997642
 31
0.0
  0
LINE
  5
121
100
AcDbEntity
  8
0
 62
9
420
12632256
370
-1
 48
1.0
  6
BYLAYER
100
AcDbLine
 10
153.3243050664264047
 20
138.2055656242494024
 30
0.0
 11
176.8643050664264251
 21
138.2055656242494024
 31
0.0
  0
LINE
  5
122
100
AcDbEntity
  8
0
 62
9
420
12632256
370
-1
 48
1.0
  6
BYLAYER
100
AcDbLine
 10
54.859903837573782
 20
137.9311063757501756
 30
0.0
 11
78.3999038375738024
 21
137.9311063757501756
 31
0.0
  0
LINE
  5
123
100
AcDbEntity
  8
0
 62
9
420
12632256
370
-1
 48
1.0
  6
BYLAYER
100
AcDbLine
 10
86.3352496808528826
 20
171.8012432484989631
 30
0.0
 11
109.8752496808528889
 21
171.8012432484989631
 31
0.0
  0
LINE
  5
124
100
AcDbEntity
  8
0
 62
9
420
12632256
370
-1
 48
1.0
  6
BYLAYER
100
AcDbLine
 10
20.9122570664266192
 20
171.7789736242493746
 30
0.0
 11
44.4522570664266397
 21
171.7789736242493746
 31
0.0
  0
LINE
  5
125
100
AcDbEntity
  8
0
 62
9
420
12632256
370
-1
 48
1.0
  6
BYLAYER
100
AcDbLine
 10
120.7805604520000315
 20
171.7945279999997297
 30
0.0
 11
144.320560452000052
 21
171.7945279999997297
 31
0.0
  0
LINE
  5
126
100
AcDbEntity
  8
0
 62
9
420
12632256
370
-1
 48
1.0
  6
BYLAYER
100
AcDbLine
 10
153.8219690664263908
 20
172.0467176242493679
 30
0.0
 11
177.3619690664264112
 21
172.0467176242493679
 31
0.0
  0
LINE
  5
127
100
AcDbEntity
  8
0
 62
9
420
12632256
370
-1
 48
1.0
  6
BYLAYER
100
AcDbLine
 10
55.3575678375737823
 20
171.7722583757501411
 30
0.0
 11
78.8975678375738028
 21
171.7722583757501411
 31
0.0
  0
LINE
  5
128
100
AcDbEntity
  8
0
 62
9
420
12632256
370
-1
 48
1.0
  6
BYLAYER
100
AcDbLine
 10
20.4145930664266189
 20
103.5990056242494575
 30
0.0
 11
43.9545930664266393
 21
103.5990056242494575
 31
0.0
  0
LINE
  5
129
100
AcDbEntity
  8
0
 62
9
420
12632256
370
-1
 48
1.0
  6
BYLAYER
100
AcDbLine
 10
54.859903837573782
 20
103.592290375750224
 30
0.0
 11
78.3999038375738024
 21
103.592290375750224
 31
0.0
  0
LINE
  5
12A
100
AcDbEntity
  8
0
 62
9
420
12632256
370
-1
 48
1.0
  6
BYLAYER
100
AcDbLine
 10
54.5943598375737906
 20
279.2716735583496757
 30
0.0
 11
78.1343598375738111
 21
279.2716735583496757
 31
0.0
  0
LINE
  5
12B
100
AcDbEntity
  8
0
 62
9
420
12632256
370
-1
 48
1.0
  6
BYLAYER
100
AcDbLine
 10
20.1490490664266346
 20
279.2783888068489091
 30
0.0
 11
43.689049066426648
 21
279.2783888068489091
 31
0.0
  0
LINE
  5
12C
100
AcDbEntity
  8
0
 62
9
420
12632256
370
-1
 48
1.0
  6
BYLAYER
100
AcDbLine
 10
85.8375856808528823
 20
206.5301120553482406
 30
0.0
 11
109.3775856808528886
 21
206.5301120553482406
 31
0.0
  0
LINE
  5
12D
100
AcDbEntity
  8
0
 62
9
420
12632256
370
-1
 48
1.0
  6
BYLAYER
100
AcDbLine
 10
20.4145930664266189
 20
206.507842431098652
 30
0.0
 11
43.9545930664266393
 21
206.507842431098652
 31
0.0
  0
LINE
  5
12E
100
AcDbEntity
  8
0
 62
9
420
12632256
370
-1
 48
1.0
  6
BYLAYER
100
AcDbLine
 10
120.2828964520000312
 20
206.5233968068490071
 30
0.0
 11
143.8228964520000659
 21
206.5233968068490071
 31
0.0
  0
LINE
  5
12F
100
AcDbEntity
  8
0
 62
9
420
12632256
370
-1
 48
1.0
  6
BYLAYER
100
AcDbLine
 10
153.3243050664264047
 20
206.7755864310986453
 30
0.0
 11
176.8643050664264251
 21
206.7755864310986453
 31
0.0
  0
LINE
  5
130
100
AcDbEntity
  8
0
 62
9
420
12632256
370
-1
 48
1.0
  6
BYLAYER
100
AcDbLine
 10
54.859903837573782
 20
206.5011271825994186
 30
0.0
 11
78.3999038375738024
 21
206.5011271825994186
 31
0.0
  0
LINE
  5
131
100
AcDbEntity
  8
0
 62
9
420
12632256
370
-1
 48
1.0
  6
BYLAYER
100
AcDbLine
 10
72.4936350380536965
 20
178.2011271825993788
 30
0.0
 11
48.9767694378137435
 21
178.2011271825994072
 31
0.0
  0
LINE
  5
132
100
AcDbEntity
  8
0
 62
9
420
12632256
370
-1
 48
1.0
  6
BYLAYER
100
AcDbLine
 10
103.4713168813327826
 20
178.2301120553482008
 30
0.0
 11
79.9544512810928296
 21
178.2301120553482292
 31
0.0
  0
LINE
  5
133
100
AcDbEntity
  8
0
 62
9
420
12632256
370
-1
 48
1.0
  6
BYLAYER
100
AcDbLine
 10
137.9166276524799173
 20
178.2233968068489673
 30
0.0
 11
114.3997620522399927
 21
178.2233968068489958
 31
0.0
  0
LINE
  5
134
100
AcDbEntity
  8
0
 62
9
420
12632256
370
-1
 48
1.0
  6
BYLAYER
100
AcDbLine
 10
170.6924922669062994
 20
251.2461328068488626
 30
0.0
 11
147.1756266666663464
 21
251.2461328068488911
 31
0.0
  0
LINE
  5
135
100
AcDbEntity
  8
0
 62
9
420
12632256
370
-1
 48
1.0
  6
BYLAYER
100
AcDbLine
 10
103.2057728813327913
 20
251.0006584310984579
 30
0.0
 11
79.6889072810928383
 21
251.0006584310984863
 31
0.0
  0
LINE
  5
136
100
AcDbEntity
  8
0
 62
9
420
12632256
370
-1
 48
1.0
  6
BYLAYER
100
AcDbLine
 10
137.6510836524799402
 20
250.9939431825992244
 30
0.0
 11
114.1342180522400014
 21
250.9939431825992529
 31
0.0
  0
LINE
  5
137
100
AcDbEntity
  8
0
 62
9
420
12632256
370
-1
 48
1.0
  6
BYLAYER
100
AcDbLine
 10
171.4557002669062911
 20
214.0585624310985224
 30
0.0
 11
147.9388346666663381
 21
214.0585624310985509
 31
0.0
  0
LINE
  5
138
100
AcDbEntity
  8
0
 62
9
420
12632256
370
-1
 48
1.0
  6
BYLAYER
100
AcDbLine
 10
38.5459882669065408
 20
213.7908184310985291
 30
0.0
 11
15.0291226666665949
 21
213.7908184310985575
 31
0.0
  0
LINE
  5
139
100
AcDbEntity
  8
0
 62
9
420
12632256
370
-1
 48
1.0
  6
BYLAYER
100
AcDbLine
 10
72.9912990380536968
 20
213.7841031825992957
 30
0.0
 11
49.4744334378137438
 21
213.7841031825993241
 31
0.0
  0
LINE
  5
13A
100
AcDbEntity
  8
0
 62
9
420
12632256
370
-1
 48
1.0
  6
BYLAYER
100
AcDbLine
 10
103.9689808813327829
 20
213.8130880553481177
 30
0.0
 11
80.4521152810928299
 21
213.8130880553481461
 31
0.0
  0
LINE
  5
13B
100
AcDbEntity
  8
0
 62
9
420
12632256
370
-1
 48
1.0
  6
BYLAYER
100
AcDbLine
 10
138.4142916524799318
 20
213.8063728068488842
 30
0.0
 11
114.8974260522399931
 21
213.8063728068489127
 31
0.0
  0
LINE
  5
13C
100
AcDbEntity
  8
0
 62
9
420
12632256
370
-1
 48
1.0
  6
BYLAYER
100
AcDbLine
 10
137.9166276524799173
 20
109.6533759999997244
 30
0.0
 11
114.3997620522399927
 21
109.6533759999997528
 31
0.0
  0
LINE
  5
13D
100
AcDbEntity
  8
0
 62
9
420
12632256
370
-1
 48
1.0
  6
BYLAYER
100
AcDbLine
 10
170.9580362669062765
 20
109.9055656242493626
 30
0.0
 11
147.4411706666663235
 21
109.905565624249391
 31
0.0
  0
LINE
  5
13E
100
AcDbEntity
  8
0
 62
9
420
12632256
370
-1
 48
1.0
  6
BYLAYER
100
AcDbLine
 10
38.0483242669065405
 20
109.6378216242493693
 30
0.0
 11
14.5314586666665946
 21
109.6378216242493977
 31
0.0
  0
LINE
  5
13F
100
AcDbEntity
  8
0
 62
9
420
12632256
370
-1
 48
1.0
  6
BYLAYER
100
AcDbLine
 10
72.4936350380536965
 20
109.6311063757501358
 30
0.0
 11
48.9767694378137435
 21
109.6311063757501643
 31
0.0
  0
LINE
  5
140
100
AcDbEntity
  8
0
 62
9
420
12632256
370
-1
 48
1.0
  6
BYLAYER
100
AcDbLine
 10
103.4713168813327826
 20
109.6600912484989578
 30
0.0
 11
79.9544512810928296
 21
109.6600912484989863
 31
0.0
  0
LINE
  5
141
100
AcDbEntity
  8
0
 62
9
420
12632256
370
-1
 48
1.0
  6
BYLAYER
100
AcDbLine
 10
171.4557002669062911
 20
143.7467176242493281
 30
0.0
 11
147.9388346666663381
 21
143.7467176242493565
 31
0.0
  0
LINE
  5
142
100
AcDbEntity
  8
0
 62
9
420
12632256
370
-1
 48
1.0
  6
BYLAYER
100
AcDbLine
 10
38.5459882669065408
 20
143.4789736242493348
 30
0.0
 11
15.0291226666665949
 21
143.4789736242493632
 31
0.0
  0
LINE
  5
143
100
AcDbEntity
  8
0
 62
9
420
12632256
370
-1
 48
1.0
  6
BYLAYER
100
AcDbLine
 10
72.9912990380536968
 20
143.4722583757501013
 30
0.0
 11
49.4744334378137438
 21
143.4722583757501297
 31
0.0
  0
LINE
  5
144
100
AcDbEntity
  8
0
 62
9
420
12632256
370
-1
 48
1.0
  6
BYLAYER
100
AcDbLine
 10
103.9689808813327829
 20
143.5012432484989233
 30
0.0
 11
80.4521152810928299
 21
143.5012432484989517
 31
0.0
  0
LINE
  5
145
100
AcDbEntity
  8
0
 62
9
420
12632256
370
-1
 48
1.0
  6
BYLAYER
100
AcDbLine
 10
138.4142916524799318
 20
143.4945279999996899
 30
0.0
 11
114.8974260522399931
 21
143.4945279999997183
 31
0.0
  0
LINE
  5
146
100
AcDbEntity
  8
0
 62
9
420
12632256
370
-1
 48
1.0
  6
BYLAYER
100
AcDbLine
 10
72.4936350380536965
 20
75.2922903757501842
 30
0.0
 11
48.9767694378137435
 21
75.2922903757502127
 31
0.0
  0
LINE
  5
147
100
AcDbEntity
  8
0
 62
9
420
12632256
370
-1
 48
1.0
  6
BYLAYER
100
AcDbLine
 10
38.0483242669065405
 20
75.2990056242494177
 30
0.0
 11
14.5314586666665946
 21
75.2990056242494461
 31
0.0
  0
LINE
  5
148
100
AcDbEntity
  8
0
 62
9
420
12632256
370
-1
 48
1.0
  6
BYLAYER
100
AcDbLine
 10
72.2280910380537051
 20
250.9716735583496359
 30
0.0
 11
48.7112254378137521
 21
250.9716735583496643
 31
0.0
  0
LINE
  5
149
100
AcDbEntity
  8
0
 62
9
420
12632256
370
-1
 48
1.0
  6
BYLAYER
100
AcDbLine
 10
37.7827802669065491
 20
250.9783888068488693
 30
0.0
 11
14.2659146666665961
 21
250.9783888068488977
 31
0.0
  0
LINE
  5
14A
100
AcDbEntity
  8
0
 62
9
420
12632256
370
-1
 48
1.0
  6
BYLAYER
100
AcDbLine
 10
170.9580362669062765
 20
178.4755864310986055
 30
0.0
 11
147.4411706666663235
 21
178.475586431098634
 31
0.0
  0
LINE
  5
14B
100
AcDbEntity
  8
0
 62
9
420
12632256
370
-1
 48
1.0
  6
BYLAYER
100
AcDbLine
 10
38.0483242669065405
 20
178.2078424310986122
 30
0.0
 11
14.5314586666665946
 21
178.2078424310986406
 31
0.0
  0
LINE
  5
14C
100
AcDbEntity
  8
0
 62
1
420
16711680
370
-1
 48
1.0
  6
ACAD_ISO10W100
100
AcDbLine
 10
155.8911706666663122
 20
186.3755864310986681
 30
0.0
 11
152.1829667341669392
 21
174.9629082355567959
 31
0.0
  0
LINE
  5
14D
100
AcDbEntity
  8
0
 62
1
420
16711680
370
-1
 48
1.0
  6
ACAD_ISO10W100
100
AcDbLine
 10
22.9814586666665832
 20
186.1078424310986179
 30
0.0
 11
19.2732547341672102
 21
174.6951642355568026
 31
0.0
  0
LINE
  5
14E
100
AcDbEntity
  8
0
 62
1
420
16711680
370
-1
 48
1.0
  6
ACAD_ISO10W100
100
AcDbLine
 10
57.4267694378137321
 20
186.1011271825994413
 30
0.0
 11
53.7185655053143591
 21
174.6884489870575692
 31
0.0
  0
LINE
  5
14F
100
AcDbEntity
  8
0
 62
1
420
16711680
370
-1
 48
1.0
  6
ACAD_ISO10W100
100
AcDbLine
 10
155.625626666666335
 20
259.1461328068489252
 30
0.0
 11
151.9174227341669621
 21
247.733454611307053
 31
0.0
  0
LINE
  5
150
100
AcDbEntity
  8
0
 62
1
420
16711680
370
-1
 48
1.0
  6
ACAD_ISO10W100
100
AcDbLine
 10
122.58421805223999
 20
258.893943182599287
 30
0.0
 11
118.876014119740617
 21
247.4812649870574148
 31
0.0
  0
LINE
  5
151
100
AcDbEntity
  8
0
 62
1
420
16711680
370
-1
 48
1.0
  6
ACAD_ISO10W100
100
AcDbLine
 10
88.1389072810928269
 20
258.9006584310984636
 30
0.0
 11
84.4307033485934539
 21
247.4879802355566483
 31
0.0
  0
LINE
  5
152
100
AcDbEntity
  8
0
 62
1
420
16711680
370
-1
 48
1.0
  6
ACAD_ISO10W100
100
AcDbLine
 10
156.3888346666663267
 20
221.958562431098585
 30
0.0
 11
152.6806307341669537
 21
210.5458842355567128
 31
0.0
  0
LINE
  5
153
100
AcDbEntity
  8
0
 62
1
420
16711680
370
-1
 48
1.0
  6
ACAD_ISO10W100
100
AcDbLine
 10
23.4791226666665835
 20
221.6908184310985348
 30
0.0
 11
19.7709187341672106
 21
210.2781402355567195
 31
0.0
  0
LINE
  5
154
100
AcDbEntity
  8
0
 62
1
420
16711680
370
-1
 48
1.0
  6
ACAD_ISO10W100
100
AcDbLine
 10
57.9244334378137324
 20
221.6841031825993582
 30
0.0
 11
54.2162295053143595
 21
210.2714249870574861
 31
0.0
  0
LINE
  5
155
100
AcDbEntity
  8
0
 62
1
420
16711680
370
-1
 48
1.0
  6
ACAD_ISO10W100
100
AcDbLine
 10
123.3474260522399817
 20
221.7063728068489468
 30
0.0
 11
119.6392221197406087
 21
210.2936946113070746
 31
0.0
  0
LINE
  5
156
100
AcDbEntity
  8
0
 62
1
420
16711680
370
-1
 48
1.0
  6
ACAD_ISO10W100
100
AcDbLine
 10
88.9021152810928186
 20
221.7130880553481234
 30
0.0
 11
85.1939113485934456
 21
210.3004098598063081
 31
0.0
  0
LINE
  5
157
100
AcDbEntity
  8
0
 62
1
420
16711680
370
-1
 48
1.0
  6
ACAD_ISO10W100
100
AcDbLine
 10
155.8911706666663122
 20
117.8055656242494251
 30
0.0
 11
152.1829667341669392
 21
106.392887428707553
 31
0.0
  0
LINE
  5
158
100
AcDbEntity
  8
0
 62
1
420
16711680
370
-1
 48
1.0
  6
ACAD_ISO10W100
100
AcDbLine
 10
22.9814586666665832
 20
117.537821624249375
 30
0.0
 11
19.2732547341672102
 21
106.1251434287075597
 31
0.0
  0
LINE
  5
159
100
AcDbEntity
  8
0
 62
1
420
16711680
370
-1
 48
1.0
  6
ACAD_ISO10W100
100
AcDbLine
 10
57.4267694378137321
 20
117.5311063757501984
 30
0.0
 11
53.7185655053143591
 21
106.1184281802083262
 31
0.0
  0
LINE
  5
15A
100
AcDbEntity
  8
0
 62
1
420
16711680
370
-1
 48
1.0
  6
ACAD_ISO10W100
100
AcDbLine
 10
122.8497620522399814
 20
117.5533759999997869
 30
0.0
 11
119.1415581197406084
 21
106.1406978044579148
 31
0.0
  0
LINE
  5
15B
100
AcDbEntity
  8
0
 62
1
420
16711680
370
-1
 48
1.0
  6
ACAD_ISO10W100
100
AcDbLine
 10
88.4044512810928182
 20
117.5600912484989635
 30
0.0
 11
84.6962473485934453
 21
106.1474130529571482
 31
0.0
  0
LINE
  5
15C
100
AcDbEntity
  8
0
 62
1
420
16711680
370
-1
 48
1.0
  6
ACAD_ISO10W100
100
AcDbLine
 10
23.4791226666665835
 20
151.3789736242493404
 30
0.0
 11
19.7709187341672106
 21
139.9662954287075252
 31
0.0
  0
LINE
  5
15D
100
AcDbEntity
  8
0
 62
1
420
16711680
370
-1
 48
1.0
  6
ACAD_ISO10W100
100
AcDbLine
 10
57.9244334378137324
 20
151.3722583757501639
 30
0.0
 11
54.2162295053143595
 21
139.9595801802082917
 31
0.0
  0
LINE
  5
15E
100
AcDbEntity
  8
0
 62
1
420
16711680
370
-1
 48
1.0
  6
ACAD_ISO10W100
100
AcDbLine
 10
123.3474260522399817
 20
151.3945279999997524
 30
0.0
 11
119.6392221197406087
 21
139.9818498044578803
 31
0.0
  0
LINE
  5
15F
100
AcDbEntity
  8
0
 62
1
420
16711680
370
-1
 48
1.0
  6
ACAD_ISO10W100
100
AcDbLine
 10
88.9021152810928186
 20
151.401243248498929
 30
0.0
 11
85.1939113485934456
 21
139.9885650529571137
 31
0.0
  0
LINE
  5
160
100
AcDbEntity
  8
0
 62
1
420
16711680
370
-1
 48
1.0
  6
ACAD_ISO10W100
100
AcDbLine
 10
156.3888346666663267
 20
151.6467176242493906
 30
0.0
 11
152.6806307341669537
 21
140.2340394287075185
 31
0.0
  0
LINE
  5
161
100
AcDbEntity
  8
0
 62
1
420
16711680
370
-1
 48
1.0
  6
ACAD_ISO10W100
100
AcDbLine
 10
22.9814586666665832
 20
83.1990056242494234
 30
0.0
 11
19.2732547341672102
 21
71.7863274287076081
 31
0.0
  0
LINE
  5
162
100
AcDbEntity
  8
0
 62
1
420
16711680
370
-1
 48
1.0
  6
ACAD_ISO10W100
100
AcDbLine
 10
57.4267694378137321
 20
83.1922903757502468
 30
0.0
 11
53.7185655053143591
 21
71.7796121802083746
 31
0.0
  0
LINE
  5
163
100
AcDbEntity
  8
0
 62
1
420
16711680
370
-1
 48
1.0
  6
ACAD_ISO10W100
100
AcDbLine
 10
57.1612254378137408
 20
258.8716735583496984
 30
0.0
 11
53.4530215053143678
 21
247.4589953628078263
 31
0.0
  0
LINE
  5
164
100
AcDbEntity
  8
0
 62
1
420
16711680
370
-1
 48
1.0
  6
ACAD_ISO10W100
100
AcDbLine
 10
22.7159146666665848
 20
258.878388806848875
 30
0.0
 11
19.0077107341672118
 21
247.4657106113070597
 31
0.0
  0
LINE
  5
165
100
AcDbEntity
  8
0
 62
1
420
16711680
370
-1
 48
1.0
  6
ACAD_ISO10W100
100
AcDbLine
 10
122.8497620522399814
 20
186.1233968068490299
 30
0.0
 11
119.1415581197406084
 21
174.7107186113071577
 31
0.0
  0
LINE
  5
166
100
AcDbEntity
  8
0
 62
1
420
16711680
370
-1
 48
1.0
  6
ACAD_ISO10W100
100
AcDbLine
 10
88.4044512810928182
 20
186.1301120553482065
 30
0.0
 11
84.6962473485934453
 21
174.7174338598063912
 31
0.0
  0
LINE
  5
167
100
AcDbEntity
  8
0
 62
9
420
12632256
370
-1
 48
1.0
  6
BYLAYER
100
AcDbLine
 10
155.625626666666335
 20
259.1461328068488683
 30
0.0
 11
147.7256266666663294
 21
256.5792672066088471
 31
0.0
  0
LINE
  5
168
100
AcDbEntity
  8
0
 62
9
420
12632256
370
-1
 48
1.0
  6
BYLAYER
100
AcDbLine
 10
122.58421805223999
 20
258.8939431825992301
 30
0.0
 11
114.6842180522399701
 21
256.3270775823592089
 31
0.0
  0
LINE
  5
169
100
AcDbEntity
  8
0
 62
9
420
12632256
370
-1
 48
1.0
  6
BYLAYER
100
AcDbLine
 10
88.1389072810928269
 20
258.9006584310984636
 30
0.0
 11
80.238907281092807
 21
256.3337928308584424
 31
0.0
  0
LINE
  5
16A
100
AcDbEntity
  8
0
 62
9
420
12632256
370
-1
 48
1.0
  6
BYLAYER
100
AcDbLine
 10
23.4791226666665835
 20
221.6908184310985348
 30
0.0
 11
15.5791226666665494
 21
219.1239528308585136
 31
0.0
  0
LINE
  5
16B
100
AcDbEntity
  8
0
 62
9
420
12632256
370
-1
 48
1.0
  6
BYLAYER
100
AcDbLine
 10
88.9021152810928186
 20
221.7130880553481234
 30
0.0
 11
81.0021152810927987
 21
219.1462224551081022
 31
0.0
  0
LINE
  5
16C
100
AcDbEntity
  8
0
 62
9
420
12632256
370
-1
 48
1.0
  6
BYLAYER
100
AcDbLine
 10
123.3474260522399817
 20
221.7063728068488899
 30
0.0
 11
115.4474260522399618
 21
219.1395072066088687
 31
0.0
  0
LINE
  5
16D
100
AcDbEntity
  8
0
 62
9
420
12632256
370
-1
 48
1.0
  6
BYLAYER
100
AcDbLine
 10
156.3888346666663267
 20
221.9585624310985281
 30
0.0
 11
148.488834666666321
 21
219.3916968308585069
 31
0.0
  0
LINE
  5
16E
100
AcDbEntity
  8
0
 62
9
420
12632256
370
-1
 48
1.0
  6
BYLAYER
100
AcDbLine
 10
57.9244334378137324
 20
221.6841031825993014
 30
0.0
 11
50.0244334378137125
 21
219.1172375823592802
 31
0.0
  0
LINE
  5
16F
100
AcDbEntity
  8
0
 62
9
420
12632256
370
-1
 48
1.0
  6
BYLAYER
100
AcDbLine
 10
22.9814586666665832
 20
117.537821624249375
 30
0.0
 11
15.0814586666665491
 21
114.9709560240093538
 31
0.0
  0
LINE
  5
170
100
AcDbEntity
  8
0
 62
9
420
12632256
370
-1
 48
1.0
  6
BYLAYER
100
AcDbLine
 10
88.4044512810928182
 20
117.5600912484989635
 30
0.0
 11
80.5044512810927984
 21
114.9932256482589423
 31
0.0
  0
LINE
  5
171
100
AcDbEntity
  8
0
 62
9
420
12632256
370
-1
 48
1.0
  6
BYLAYER
100
AcDbLine
 10
122.8497620522399814
 20
117.5533759999997301
 30
0.0
 11
114.9497620522399615
 21
114.9865103997597089
 31
0.0
  0
LINE
  5
172
100
AcDbEntity
  8
0
 62
9
420
12632256
370
-1
 48
1.0
  6
BYLAYER
100
AcDbLine
 10
155.8911706666663122
 20
117.8055656242493683
 30
0.0
 11
147.9911706666663349
 21
115.2387000240093471
 31
0.0
  0
LINE
  5
173
100
AcDbEntity
  8
0
 62
9
420
12632256
370
-1
 48
1.0
  6
BYLAYER
100
AcDbLine
 10
57.4267694378137321
 20
117.5311063757501415
 30
0.0
 11
49.5267694378137122
 21
114.9642407755101203
 31
0.0
  0
LINE
  5
174
100
AcDbEntity
  8
0
 62
9
420
12632256
370
-1
 48
1.0
  6
BYLAYER
100
AcDbLine
 10
23.4791226666665835
 20
151.3789736242493404
 30
0.0
 11
15.5791226666665494
 21
148.8121080240093193
 31
0.0
  0
LINE
  5
175
100
AcDbEntity
  8
0
 62
9
420
12632256
370
-1
 48
1.0
  6
BYLAYER
100
AcDbLine
 10
88.9021152810928186
 20
151.401243248498929
 30
0.0
 11
81.0021152810927987
 21
148.8343776482589078
 31
0.0
  0
LINE
  5
176
100
AcDbEntity
  8
0
 62
9
420
12632256
370
-1
 48
1.0
  6
BYLAYER
100
AcDbLine
 10
123.3474260522399817
 20
151.3945279999996956
 30
0.0
 11
115.4474260522399618
 21
148.8276623997596744
 31
0.0
  0
LINE
  5
177
100
AcDbEntity
  8
0
 62
9
420
12632256
370
-1
 48
1.0
  6
BYLAYER
100
AcDbLine
 10
156.3888346666663267
 20
151.6467176242493338
 30
0.0
 11
148.488834666666321
 21
149.0798520240093126
 31
0.0
  0
LINE
  5
178
100
AcDbEntity
  8
0
 62
9
420
12632256
370
-1
 48
1.0
  6
BYLAYER
100
AcDbLine
 10
57.9244334378137324
 20
151.372258375750107
 30
0.0
 11
50.0244334378137125
 21
148.8053927755100858
 31
0.0
  0
LINE
  5
179
100
AcDbEntity
  8
0
 62
9
420
12632256
370
-1
 48
1.0
  6
BYLAYER
100
AcDbLine
 10
22.9814586666665832
 20
83.1990056242494234
 30
0.0
 11
15.0814586666665491
 21
80.6321400240094022
 31
0.0
  0
LINE
  5
17A
100
AcDbEntity
  8
0
 62
9
420
12632256
370
-1
 48
1.0
  6
BYLAYER
100
AcDbLine
 10
57.4267694378137321
 20
83.1922903757501899
 30
0.0
 11
49.5267694378137122
 21
80.6254247755101687
 31
0.0
  0
LINE
  5
17B
100
AcDbEntity
  8
0
 62
9
420
12632256
370
-1
 48
1.0
  6
BYLAYER
100
AcDbLine
 10
57.1612254378137408
 20
258.8716735583496416
 30
0.0
 11
49.2612254378137209
 21
256.3048079581096204
 31
0.0
  0
LINE
  5
17C
100
AcDbEntity
  8
0
 62
9
420
12632256
370
-1
 48
1.0
  6
BYLAYER
100
AcDbLine
 10
22.7159146666665848
 20
258.878388806848875
 30
0.0
 11
14.8159146666665613
 21
256.3115232066088538
 31
0.0
  0
LINE
  5
17D
100
AcDbEntity
  8
0
 62
9
420
12632256
370
-1
 48
1.0
  6
BYLAYER
100
AcDbLine
 10
22.9814586666665832
 20
186.1078424310986179
 30
0.0
 11
15.0814586666665491
 21
183.5409768308585967
 31
0.0
  0
LINE
  5
17E
100
AcDbEntity
  8
0
 62
9
420
12632256
370
-1
 48
1.0
  6
BYLAYER
100
AcDbLine
 10
88.4044512810928182
 20
186.1301120553482065
 30
0.0
 11
80.5044512810927984
 21
183.5632464551081853
 31
0.0
  0
LINE
  5
17F
100
AcDbEntity
  8
0
 62
9
420
12632256
370
-1
 48
1.0
  6
BYLAYER
100
AcDbLine
 10
122.8497620522399814
 20
186.123396806848973
 30
0.0
 11
114.9497620522399615
 21
183.5565312066089518
 31
0.0
  0
LINE
  5
180
100
AcDbEntity
  8
0
 62
9
420
12632256
370
-1
 48
1.0
  6
BYLAYER
100
AcDbLine
 10
155.8911706666663122
 20
186.3755864310986112
 30
0.0
 11
147.9911706666663349
 21
183.80872083085859
 31
0.0
  0
LINE
  5
181
100
AcDbEntity
  8
0
 62
9
420
12632256
370
-1
 48
1.0
  6
BYLAYER
100
AcDbLine
 10
57.4267694378137321
 20
186.1011271825993845
 30
0.0
 11
49.5267694378137122
 21
183.5342615823593633
 31
0.0
  0
LINE
  5
182
100
AcDbEntity
  8
0
 62
1
420
16711680
370
-1
 48
1.0
  6
ACAD_ISO10W100
100
AcDbLine
 10
155.625626666666335
 20
271.6461328068488683
 30
0.0
 11
144.2129484711244913
 21
275.3543367393482413
 31
0.0
  0
LINE
  5
183
100
AcDbEntity
  8
0
 62
1
420
16711680
370
-1
 48
1.0
  6
ACAD_ISO10W100
100
AcDbLine
 10
122.58421805223999
 20
271.3939431825992301
 30
0.0
 11
111.1715398566981463
 21
275.1021471150986031
 31
0.0
  0
LINE
  5
184
100
AcDbEntity
  8
0
 62
1
420
16711680
370
-1
 48
1.0
  6
ACAD_ISO10W100
100
AcDbLine
 10
88.1389072810928269
 20
271.4006584310984636
 30
0.0
 11
76.7262290855509832
 21
275.1088623635978365
 31
0.0
  0
LINE
  5
185
100
AcDbEntity
  8
0
 62
1
420
16711680
370
-1
 48
1.0
  6
ACAD_ISO10W100
100
AcDbLine
 10
156.3888346666663267
 20
234.4585624310985281
 30
0.0
 11
144.976156471124483
 21
238.1667663635979011
 31
0.0
  0
LINE
  5
186
100
AcDbEntity
  8
0
 62
1
420
16711680
370
-1
 48
1.0
  6
ACAD_ISO10W100
100
AcDbLine
 10
23.4791226666665835
 20
234.1908184310985348
 30
0.0
 11
12.0664444711247398
 21
237.8990223635979078
 31
0.0
  0
LINE
  5
187
100
AcDbEntity
  8
0
 62
1
420
16711680
370
-1
 48
1.0
  6
ACAD_ISO10W100
100
AcDbLine
 10
57.9244334378137324
 20
234.1841031825993014
 30
0.0
 11
46.5117552422718887
 21
237.8923071150986743
 31
0.0
  0
LINE
  5
188
100
AcDbEntity
  8
0
 62
1
420
16711680
370
-1
 48
1.0
  6
ACAD_ISO10W100
100
AcDbLine
 10
123.3474260522399817
 20
234.2063728068488899
 30
0.0
 11
111.934747856698138
 21
237.9145767393482629
 31
0.0
  0
LINE
  5
189
100
AcDbEntity
  8
0
 62
1
420
16711680
370
-1
 48
1.0
  6
ACAD_ISO10W100
100
AcDbLine
 10
88.9021152810928186
 20
234.2130880553481234
 30
0.0
 11
77.4894370855509749
 21
237.9212919878474963
 31
0.0
  0
LINE
  5
18A
100
AcDbEntity
  8
0
 62
1
420
16711680
370
-1
 48
1.0
  6
ACAD_ISO10W100
100
AcDbLine
 10
155.8911706666663122
 20
130.3055656242493683
 30
0.0
 11
144.4784924711244685
 21
134.0137695567487413
 31
0.0
  0
LINE
  5
18B
100
AcDbEntity
  8
0
 62
1
420
16711680
370
-1
 48
1.0
  6
ACAD_ISO10W100
100
AcDbLine
 10
22.9814586666665832
 20
130.037821624249375
 30
0.0
 11
11.5687804711247395
 21
133.7460255567487479
 31
0.0
  0
LINE
  5
18C
100
AcDbEntity
  8
0
 62
1
420
16711680
370
-1
 48
1.0
  6
ACAD_ISO10W100
100
AcDbLine
 10
57.4267694378137321
 20
130.0311063757501415
 30
0.0
 11
46.0140912422718884
 21
133.7393103082495145
 31
0.0
  0
LINE
  5
18D
100
AcDbEntity
  8
0
 62
1
420
16711680
370
-1
 48
1.0
  6
ACAD_ISO10W100
100
AcDbLine
 10
122.8497620522399814
 20
130.0533759999997301
 30
0.0
 11
111.4370838566981377
 21
133.7615799324991031
 31
0.0
  0
LINE
  5
18E
100
AcDbEntity
  8
0
 62
1
420
16711680
370
-1
 48
1.0
  6
ACAD_ISO10W100
100
AcDbLine
 10
88.4044512810928182
 20
130.0600912484989635
 30
0.0
 11
76.9917730855509745
 21
133.7682951809983365
 31
0.0
  0
LINE
  5
18F
100
AcDbEntity
  8
0
 62
1
420
16711680
370
-1
 48
1.0
  6
ACAD_ISO10W100
100
AcDbLine
 10
156.3888346666663267
 20
164.1467176242493338
 30
0.0
 11
144.976156471124483
 21
167.8549215567487067
 31
0.0
  0
LINE
  5
190
100
AcDbEntity
  8
0
 62
1
420
16711680
370
-1
 48
1.0
  6
ACAD_ISO10W100
100
AcDbLine
 10
23.4791226666665835
 20
163.8789736242493404
 30
0.0
 11
12.0664444711247398
 21
167.5871775567487134
 31
0.0
  0
LINE
  5
191
100
AcDbEntity
  8
0
 62
1
420
16711680
370
-1
 48
1.0
  6
ACAD_ISO10W100
100
AcDbLine
 10
57.9244334378137324
 20
163.872258375750107
 30
0.0
 11
46.5117552422718887
 21
167.58046230824948
 31
0.0
  0
LINE
  5
192
100
AcDbEntity
  8
0
 62
1
420
16711680
370
-1
 48
1.0
  6
ACAD_ISO10W100
100
AcDbLine
 10
123.3474260522399817
 20
163.8945279999996956
 30
0.0
 11
111.934747856698138
 21
167.6027319324990685
 31
0.0
  0
LINE
  5
193
100
AcDbEntity
  8
0
 62
1
420
16711680
370
-1
 48
1.0
  6
ACAD_ISO10W100
100
AcDbLine
 10
88.9021152810928186
 20
163.901243248498929
 30
0.0
 11
77.4894370855509749
 21
167.609447180998302
 31
0.0
  0
LINE
  5
194
100
AcDbEntity
  8
0
 62
1
420
16711680
370
-1
 48
1.0
  6
ACAD_ISO10W100
100
AcDbLine
 10
22.9814586666665832
 20
95.6990056242494234
 30
0.0
 11
11.5687804711247395
 21
99.4072095567487963
 31
0.0
  0
LINE
  5
195
100
AcDbEntity
  8
0
 62
1
420
16711680
370
-1
 48
1.0
  6
ACAD_ISO10W100
100
AcDbLine
 10
57.4267694378137321
 20
95.6922903757501899
 30
0.0
 11
46.0140912422718884
 21
99.4004943082495629
 31
0.0
  0
LINE
  5
196
100
AcDbEntity
  8
0
 62
1
420
16711680
370
-1
 48
1.0
  6
ACAD_ISO10W100
100
AcDbLine
 10
57.1612254378137408
 20
271.3716735583496416
 30
0.0
 11
45.7485472422718971
 21
275.0798774908490145
 31
0.0
  0
LINE
  5
197
100
AcDbEntity
  8
0
 62
1
420
16711680
370
-1
 48
1.0
  6
ACAD_ISO10W100
100
AcDbLine
 10
22.7159146666665848
 20
271.378388806848875
 30
0.0
 11
11.3032364711247411
 21
275.086592739348248
 31
0.0
  0
LINE
  5
198
100
AcDbEntity
  8
0
 62
1
420
16711680
370
-1
 48
1.0
  6
ACAD_ISO10W100
100
AcDbLine
 10
155.8911706666663122
 20
198.8755864310986112
 30
0.0
 11
144.4784924711244685
 21
202.5837903635979842
 31
0.0
  0
LINE
  5
199
100
AcDbEntity
  8
0
 62
1
420
16711680
370
-1
 48
1.0
  6
ACAD_ISO10W100
100
AcDbLine
 10
22.9814586666665832
 20
198.6078424310986179
 30
0.0
 11
11.5687804711247395
 21
202.3160463635979909
 31
0.0
  0
LINE
  5
19A
100
AcDbEntity
  8
0
 62
1
420
16711680
370
-1
 48
1.0
  6
ACAD_ISO10W100
100
AcDbLine
 10
57.4267694378137321
 20
198.6011271825993845
 30
0.0
 11
46.0140912422718884
 21
202.3093311150987574
 31
0.0
  0
LINE
  5
19B
100
AcDbEntity
  8
0
 62
1
420
16711680
370
-1
 48
1.0
  6
ACAD_ISO10W100
100
AcDbLine
 10
122.8497620522399814
 20
198.623396806848973
 30
0.0
 11
111.4370838566981377
 21
202.331600739348346
 31
0.0
  0
LINE
  5
19C
100
AcDbEntity
  8
0
 62
1
420
16711680
370
-1
 48
1.0
  6
ACAD_ISO10W100
100
AcDbLine
 10
88.4044512810928182
 20
198.6301120553482065
 30
0.0
 11
76.9917730855509745
 21
202.3383159878475794
 31
0.0
  0
LINE
  5
19D
100
AcDbEntity
  8
0
 62
9
420
12632256
370
-1
 48
1.0
  6
BYLAYER
100
AcDbLine
 10
155.6256266666663919
 20
271.6461328068488683
 30
0.0
 11
153.0277194344904217
 21
279.64166912642537
 31
0.0
  0
LINE
  5
19E
100
AcDbEntity
  8
0
 62
9
420
12632256
370
-1
 48
1.0
  6
BYLAYER
100
AcDbLine
 10
122.5842180522400184
 20
271.3939431825992301
 30
0.0
 11
119.9863108200640625
 21
279.3894795021757318
 31
0.0
  0
LINE
  5
19F
100
AcDbEntity
  8
0
 62
9
420
12632256
370
-1
 48
1.0
  6
BYLAYER
100
AcDbLine
 10
88.1389072810928553
 20
271.4006584310984636
 30
0.0
 11
85.5410000489169136
 21
279.3961947506749652
 31
0.0
  0
LINE
  5
1A0
100
AcDbEntity
  8
0
 62
9
420
12632256
370
-1
 48
1.0
  6
BYLAYER
100
AcDbLine
 10
156.3888346666663836
 20
234.4585624310985281
 30
0.0
 11
153.7909274344904134
 21
242.4540987506750298
 31
0.0
  0
LINE
  5
1A1
100
AcDbEntity
  8
0
 62
9
420
12632256
370
-1
 48
1.0
  6
BYLAYER
100
AcDbLine
 10
23.479122666666612
 20
234.1908184310985348
 30
0.0
 11
20.8812154344906418
 21
242.1863547506750365
 31
0.0
  0
LINE
  5
1A2
100
AcDbEntity
  8
0
 62
9
420
12632256
370
-1
 48
1.0
  6
BYLAYER
100
AcDbLine
 10
57.9244334378137609
 20
234.1841031825993014
 30
0.0
 11
55.3265262056378049
 21
242.179639502175803
 31
0.0
  0
LINE
  5
1A3
100
AcDbEntity
  8
0
 62
9
420
12632256
370
-1
 48
1.0
  6
BYLAYER
100
AcDbLine
 10
123.3474260522400101
 20
234.2063728068488899
 30
0.0
 11
120.7495188200640541
 21
242.2019091264253916
 31
0.0
  0
LINE
  5
1A4
100
AcDbEntity
  8
0
 62
9
420
12632256
370
-1
 48
1.0
  6
BYLAYER
100
AcDbLine
 10
88.902115281092847
 20
234.2130880553481234
 30
0.0
 11
86.3042080489169052
 21
242.208624374924625
 31
0.0
  0
LINE
  5
1A5
100
AcDbEntity
  8
0
 62
9
420
12632256
370
-1
 48
1.0
  6
BYLAYER
100
AcDbLine
 10
57.9244334378137609
 20
163.872258375750107
 30
0.0
 11
55.3265262056378049
 21
171.8677946953266087
 31
0.0
  0
LINE
  5
1A6
100
AcDbEntity
  8
0
 62
9
420
12632256
370
-1
 48
1.0
  6
BYLAYER
100
AcDbLine
 10
123.3474260522400101
 20
163.8945279999996956
 30
0.0
 11
120.7495188200640541
 21
171.8900643195761972
 31
0.0
  0
LINE
  5
1A7
100
AcDbEntity
  8
0
 62
9
420
12632256
370
-1
 48
1.0
  6
BYLAYER
100
AcDbLine
 10
88.902115281092847
 20
163.901243248498929
 30
0.0
 11
86.3042080489169052
 21
171.8967795680754307
 31
0.0
  0
LINE
  5
1A8
100
AcDbEntity
  8
0
 62
9
420
12632256
370
-1
 48
1.0
  6
BYLAYER
100
AcDbLine
 10
88.4044512810928467
 20
198.6301120553482065
 30
0.0
 11
85.8065440489169049
 21
206.6256483749247082
 31
0.0
  0
LINE
  5
1A9
100
AcDbEntity
  8
0
 62
9
420
12632256
370
-1
 48
1.0
  6
BYLAYER
100
AcDbLine
 10
156.3888346666663836
 20
164.1467176242493338
 30
0.0
 11
153.7909274344904134
 21
172.1422539438258354
 31
0.0
  0
LINE
  5
1AA
100
AcDbEntity
  8
0
 62
9
420
12632256
370
-1
 48
1.0
  6
BYLAYER
100
AcDbLine
 10
23.479122666666612
 20
163.8789736242493404
 30
0.0
 11
20.8812154344906418
 21
171.8745099438258421
 31
0.0
  0
LINE
  5
1AB
100
AcDbEntity
  8
0
 62
9
420
12632256
370
-1
 48
1.0
  6
BYLAYER
100
AcDbLine
 10
22.9814586666666116
 20
95.6990056242494234
 30
0.0
 11
20.3835514344906414
 21
103.694541943825925
 31
0.0
  0
LINE
  5
1AC
100
AcDbEntity
  8
0
 62
9
420
12632256
370
-1
 48
1.0
  6
BYLAYER
100
AcDbLine
 10
57.4267694378137605
 20
95.6922903757501899
 30
0.0
 11
54.8288622056378045
 21
103.6878266953266916
 31
0.0
  0
LINE
  5
1AD
100
AcDbEntity
  8
0
 62
9
420
12632256
370
-1
 48
1.0
  6
BYLAYER
100
AcDbLine
 10
155.891170666666369
 20
130.3055656242493683
 30
0.0
 11
153.2932634344904272
 21
138.30110194382587
 31
0.0
  0
LINE
  5
1AE
100
AcDbEntity
  8
0
 62
9
420
12632256
370
-1
 48
1.0
  6
BYLAYER
100
AcDbLine
 10
22.9814586666666116
 20
130.037821624249375
 30
0.0
 11
20.3835514344906414
 21
138.0333579438258766
 31
0.0
  0
LINE
  5
1AF
100
AcDbEntity
  8
0
 62
9
420
12632256
370
-1
 48
1.0
  6
BYLAYER
100
AcDbLine
 10
57.4267694378137605
 20
130.0311063757501415
 30
0.0
 11
54.8288622056378045
 21
138.0266426953266432
 31
0.0
  0
LINE
  5
1B0
100
AcDbEntity
  8
0
 62
9
420
12632256
370
-1
 48
1.0
  6
BYLAYER
100
AcDbLine
 10
122.8497620522400098
 20
130.0533759999997301
 30
0.0
 11
120.2518548200640538
 21
138.0489123195762318
 31
0.0
  0
LINE
  5
1B1
100
AcDbEntity
  8
0
 62
9
420
12632256
370
-1
 48
1.0
  6
BYLAYER
100
AcDbLine
 10
88.4044512810928467
 20
130.0600912484989635
 30
0.0
 11
85.8065440489169049
 21
138.0556275680754652
 31
0.0
  0
LINE
  5
1B2
100
AcDbEntity
  8
0
 62
9
420
12632256
370
-1
 48
1.0
  6
BYLAYER
100
AcDbLine
 10
57.1612254378137692
 20
271.3716735583496416
 30
0.0
 11
54.5633182056378132
 21
279.3672098779261432
 31
0.0
  0
LINE
  5
1B3
100
AcDbEntity
  8
0
 62
9
420
12632256
370
-1
 48
1.0
  6
BYLAYER
100
AcDbLine
 10
22.7159146666666132
 20
271.378388806848875
 30
0.0
 11
20.1180074344906572
 21
279.3739251264253767
 31
0.0
  0
LINE
  5
1B4
100
AcDbEntity
  8
0
 62
9
420
12632256
370
-1
 48
1.0
  6
BYLAYER
100
AcDbLine
 10
155.891170666666369
 20
198.8755864310986112
 30
0.0
 11
153.2932634344904272
 21
206.8711227506751129
 31
0.0
  0
LINE
  5
1B5
100
AcDbEntity
  8
0
 62
9
420
12632256
370
-1
 48
1.0
  6
BYLAYER
100
AcDbLine
 10
22.9814586666666116
 20
198.6078424310986179
 30
0.0
 11
20.3835514344906414
 21
206.6033787506751196
 31
0.0
  0
LINE
  5
1B6
100
AcDbEntity
  8
0
 62
9
420
12632256
370
-1
 48
1.0
  6
BYLAYER
100
AcDbLine
 10
57.4267694378137605
 20
198.6011271825993845
 30
0.0
 11
54.8288622056378045
 21
206.5966635021758862
 31
0.0
  0
LINE
  5
1B7
100
AcDbEntity
  8
0
 62
9
420
12632256
370
-1
 48
1.0
  6
BYLAYER
100
AcDbLine
 10
122.8497620522400098
 20
198.623396806848973
 30
0.0
 11
120.2518548200640538
 21
206.6189331264254747
 31
0.0
  0
LINE
  5
1B8
100
AcDbEntity
  8
0
 62
1
420
16711680
370
-1
 48
1.0
  6
ACAD_ISO10W100
100
AcDbLine
 10
168.125626666666335
 20
271.6461328068488683
 30
0.0
 11
171.833830599165708
 21
283.0588110023907689
 31
0.0
  0
LINE
  5
1B9
100
AcDbEntity
  8
0
 62
1
420
16711680
370
-1
 48
1.0
  6
ACAD_ISO10W100
100
AcDbLine
 10
135.0842180522399758
 20
271.3939431825992301
 30
0.0
 11
138.7924219847393488
 21
282.8066213781411307
 31
0.0
  0
LINE
  5
1BA
100
AcDbEntity
  8
0
 62
1
420
16711680
370
-1
 48
1.0
  6
ACAD_ISO10W100
100
AcDbLine
 10
100.6389072810928269
 20
271.4006584310984636
 30
0.0
 11
104.3471112135921999
 21
282.8133366266403641
 31
0.0
  0
LINE
  5
1BB
100
AcDbEntity
  8
0
 62
1
420
16711680
370
-1
 48
1.0
  6
ACAD_ISO10W100
100
AcDbLine
 10
168.8888346666663267
 20
234.4585624310985281
 30
0.0
 11
172.5970385991656997
 21
245.8712406266404287
 31
0.0
  0
LINE
  5
1BC
100
AcDbEntity
  8
0
 62
1
420
16711680
370
-1
 48
1.0
  6
ACAD_ISO10W100
100
AcDbLine
 10
168.8888346666663267
 20
164.1467176242493338
 30
0.0
 11
172.5970385991656997
 21
175.5593958197912343
 31
0.0
  0
LINE
  5
1BD
100
AcDbEntity
  8
0
 62
1
420
16711680
370
-1
 48
1.0
  6
ACAD_ISO10W100
100
AcDbLine
 10
35.9791226666665764
 20
163.8789736242493404
 30
0.0
 11
39.6873265991659494
 21
175.291651819791241
 31
0.0
  0
LINE
  5
1BE
100
AcDbEntity
  8
0
 62
1
420
16711680
370
-1
 48
1.0
  6
ACAD_ISO10W100
100
AcDbLine
 10
70.4244334378137324
 20
163.872258375750107
 30
0.0
 11
74.1326373703131054
 21
175.2849365712920076
 31
0.0
  0
LINE
  5
1BF
100
AcDbEntity
  8
0
 62
1
420
16711680
370
-1
 48
1.0
  6
ACAD_ISO10W100
100
AcDbLine
 10
135.8474260522399675
 20
163.8945279999996956
 30
0.0
 11
139.5556299847393404
 21
175.3072061955415961
 31
0.0
  0
LINE
  5
1C0
100
AcDbEntity
  8
0
 62
1
420
16711680
370
-1
 48
1.0
  6
ACAD_ISO10W100
100
AcDbLine
 10
101.4021152810928186
 20
163.901243248498929
 30
0.0
 11
105.1103192135921915
 21
175.3139214440408296
 31
0.0
  0
LINE
  5
1C1
100
AcDbEntity
  8
0
 62
1
420
16711680
370
-1
 48
1.0
  6
ACAD_ISO10W100
100
AcDbLine
 10
168.3911706666663122
 20
198.8755864310986112
 30
0.0
 11
172.0993745991656851
 21
210.2882646266405118
 31
0.0
  0
LINE
  5
1C2
100
AcDbEntity
  8
0
 62
1
420
16711680
370
-1
 48
1.0
  6
ACAD_ISO10W100
100
AcDbLine
 10
35.4814586666665761
 20
198.6078424310986179
 30
0.0
 11
39.1896625991659491
 21
210.0205206266405185
 31
0.0
  0
LINE
  5
1C3
100
AcDbEntity
  8
0
 62
1
420
16711680
370
-1
 48
1.0
  6
ACAD_ISO10W100
100
AcDbLine
 10
69.9267694378137321
 20
198.6011271825993845
 30
0.0
 11
73.6349733703131051
 21
210.013805378141285
 31
0.0
  0
LINE
  5
1C4
100
AcDbEntity
  8
0
 62
1
420
16711680
370
-1
 48
1.0
  6
ACAD_ISO10W100
100
AcDbLine
 10
135.3497620522399529
 20
198.623396806848973
 30
0.0
 11
139.0579659847393259
 21
210.0360750023908736
 31
0.0
  0
LINE
  5
1C5
100
AcDbEntity
  8
0
 62
1
420
16711680
370
-1
 48
1.0
  6
ACAD_ISO10W100
100
AcDbLine
 10
100.9044512810928182
 20
198.6301120553482065
 30
0.0
 11
104.6126552135921912
 21
210.042790250890107
 31
0.0
  0
LINE
  5
1C6
100
AcDbEntity
  8
0
 62
1
420
16711680
370
-1
 48
1.0
  6
ACAD_ISO10W100
100
AcDbLine
 10
35.4814586666665761
 20
95.6990056242494234
 30
0.0
 11
39.1896625991659491
 21
107.1116838197913239
 31
0.0
  0
LINE
  5
1C7
100
AcDbEntity
  8
0
 62
1
420
16711680
370
-1
 48
1.0
  6
ACAD_ISO10W100
100
AcDbLine
 10
69.9267694378137321
 20
95.6922903757501899
 30
0.0
 11
73.6349733703131051
 21
107.1049685712920905
 31
0.0
  0
LINE
  5
1C8
100
AcDbEntity
  8
0
 62
1
420
16711680
370
-1
 48
1.0
  6
ACAD_ISO10W100
100
AcDbLine
 10
168.3911706666663122
 20
130.3055656242493683
 30
0.0
 11
172.0993745991656851
 21
141.7182438197912688
 31
0.0
  0
LINE
  5
1C9
100
AcDbEntity
  8
0
 62
1
420
16711680
370
-1
 48
1.0
  6
ACAD_ISO10W100
100
AcDbLine
 10
35.4814586666665761
 20
130.037821624249375
 30
0.0
 11
39.1896625991659491
 21
141.4504998197912755
 31
0.0
  0
LINE
  5
1CA
100
AcDbEntity
  8
0
 62
1
420
16711680
370
-1
 48
1.0
  6
ACAD_ISO10W100
100
AcDbLine
 10
69.9267694378137321
 20
130.0311063757501415
 30
0.0
 11
73.6349733703131051
 21
141.4437845712920421
 31
0.0
  0
LINE
  5
1CB
100
AcDbEntity
  8
0
 62
1
420
16711680
370
-1
 48
1.0
  6
ACAD_ISO10W100
100
AcDbLine
 10
135.3497620522399529
 20
130.0533759999997301
 30
0.0
 11
139.0579659847393259
 21
141.4660541955416306
 31
0.0
  0
LINE
  5
1CC
100
AcDbEntity
  8
0
 62
1
420
16711680
370
-1
 48
1.0
  6
ACAD_ISO10W100
100
AcDbLine
 10
100.9044512810928182
 20
130.0600912484989635
 30
0.0
 11
104.6126552135921912
 21
141.4727694440408641
 31
0.0
  0
LINE
  5
1CD
100
AcDbEntity
  8
0
 62
1
420
16711680
370
-1
 48
1.0
  6
ACAD_ISO10W100
100
AcDbLine
 10
69.6612254378137408
 20
271.3716735583496416
 30
0.0
 11
73.3694293703131137
 21
282.7843517538915421
 31
0.0
  0
LINE
  5
1CE
100
AcDbEntity
  8
0
 62
1
420
16711680
370
-1
 48
1.0
  6
ACAD_ISO10W100
100
AcDbLine
 10
35.2159146666665848
 20
271.378388806848875
 30
0.0
 11
38.9241185991659577
 21
282.7910670023907755
 31
0.0
  0
LINE
  5
1CF
100
AcDbEntity
  8
0
 62
1
420
16711680
370
-1
 48
1.0
  6
ACAD_ISO10W100
100
AcDbLine
 10
35.9791226666665764
 20
234.1908184310985348
 30
0.0
 11
39.6873265991659494
 21
245.6034966266404354
 31
0.0
  0
LINE
  5
1D0
100
AcDbEntity
  8
0
 62
1
420
16711680
370
-1
 48
1.0
  6
ACAD_ISO10W100
100
AcDbLine
 10
70.4244334378137324
 20
234.1841031825993014
 30
0.0
 11
74.1326373703131054
 21
245.5967813781412019
 31
0.0
  0
LINE
  5
1D1
100
AcDbEntity
  8
0
 62
1
420
16711680
370
-1
 48
1.0
  6
ACAD_ISO10W100
100
AcDbLine
 10
135.8474260522399675
 20
234.2063728068488899
 30
0.0
 11
139.5556299847393404
 21
245.6190510023907905
 31
0.0
  0
LINE
  5
1D2
100
AcDbEntity
  8
0
 62
1
420
16711680
370
-1
 48
1.0
  6
ACAD_ISO10W100
100
AcDbLine
 10
101.4021152810928186
 20
234.2130880553481234
 30
0.0
 11
105.1103192135921915
 21
245.6257662508900239
 31
0.0
  0
LINE
  5
1D3
100
AcDbEntity
  8
0
 62
9
420
12632256
370
-1
 48
1.0
  6
BYLAYER
100
AcDbLine
 10
168.125626666666335
 20
271.6461328068488683
 30
0.0
 11
176.1211629862428367
 21
274.2440400390248101
 31
0.0
  0
LINE
  5
1D4
100
AcDbEntity
  8
0
 62
9
420
12632256
370
-1
 48
1.0
  6
BYLAYER
100
AcDbLine
 10
100.6389072810928269
 20
271.4006584310984636
 30
0.0
 11
108.6344436006693286
 21
273.9985656632744053
 31
0.0
  0
LINE
  5
1D5
100
AcDbEntity
  8
0
 62
9
420
12632256
370
-1
 48
1.0
  6
BYLAYER
100
AcDbLine
 10
135.0842180522399758
 20
271.3939431825992301
 30
0.0
 11
143.0797543718164775
 21
273.9918504147751719
 31
0.0
  0
LINE
  5
1D6
100
AcDbEntity
  8
0
 62
9
420
12632256
370
-1
 48
1.0
  6
BYLAYER
100
AcDbLine
 10
168.8888346666663267
 20
164.1467176242493338
 30
0.0
 11
176.8843709862428284
 21
166.7446248564252755
 31
0.0
  0
LINE
  5
1D7
100
AcDbEntity
  8
0
 62
9
420
12632256
370
-1
 48
1.0
  6
BYLAYER
100
AcDbLine
 10
35.9791226666665764
 20
163.8789736242493404
 30
0.0
 11
43.9746589862430639
 21
166.4768808564252822
 31
0.0
  0
LINE
  5
1D8
100
AcDbEntity
  8
0
 62
9
420
12632256
370
-1
 48
1.0
  6
BYLAYER
100
AcDbLine
 10
101.4021152810928186
 20
163.901243248498929
 30
0.0
 11
109.3976516006693203
 21
166.4991504806748708
 31
0.0
  0
LINE
  5
1D9
100
AcDbEntity
  8
0
 62
9
420
12632256
370
-1
 48
1.0
  6
BYLAYER
100
AcDbLine
 10
70.4244334378137324
 20
163.872258375750107
 30
0.0
 11
78.4199697573902199
 21
166.4701656079260488
 31
0.0
  0
LINE
  5
1DA
100
AcDbEntity
  8
0
 62
9
420
12632256
370
-1
 48
1.0
  6
BYLAYER
100
AcDbLine
 10
135.8474260522399675
 20
163.8945279999996956
 30
0.0
 11
143.8429623718164692
 21
166.4924352321756373
 31
0.0
  0
LINE
  5
1DB
100
AcDbEntity
  8
0
 62
9
420
12632256
370
-1
 48
1.0
  6
BYLAYER
100
AcDbLine
 10
168.3911706666663122
 20
198.8755864310986112
 30
0.0
 11
176.3867069862428139
 21
201.473493663274553
 31
0.0
  0
LINE
  5
1DC
100
AcDbEntity
  8
0
 62
9
420
12632256
370
-1
 48
1.0
  6
BYLAYER
100
AcDbLine
 10
35.4814586666665761
 20
198.6078424310986179
 30
0.0
 11
43.4769949862430636
 21
201.2057496632745597
 31
0.0
  0
LINE
  5
1DD
100
AcDbEntity
  8
0
 62
9
420
12632256
370
-1
 48
1.0
  6
BYLAYER
100
AcDbLine
 10
100.9044512810928182
 20
198.6301120553482065
 30
0.0
 11
108.8999876006693199
 21
201.2280192875241482
 31
0.0
  0
LINE
  5
1DE
100
AcDbEntity
  8
0
 62
9
420
12632256
370
-1
 48
1.0
  6
BYLAYER
100
AcDbLine
 10
69.9267694378137321
 20
198.6011271825993845
 30
0.0
 11
77.9223057573902196
 21
201.1990344147753262
 31
0.0
  0
LINE
  5
1DF
100
AcDbEntity
  8
0
 62
9
420
12632256
370
-1
 48
1.0
  6
BYLAYER
100
AcDbLine
 10
135.3497620522399529
 20
198.623396806848973
 30
0.0
 11
143.3452983718164546
 21
201.2213040390249148
 31
0.0
  0
LINE
  5
1E0
100
AcDbEntity
  8
0
 62
9
420
12632256
370
-1
 48
1.0
  6
BYLAYER
100
AcDbLine
 10
35.4814586666665761
 20
95.6990056242494234
 30
0.0
 11
43.4769949862430636
 21
98.2969128564253651
 31
0.0
  0
LINE
  5
1E1
100
AcDbEntity
  8
0
 62
9
420
12632256
370
-1
 48
1.0
  6
BYLAYER
100
AcDbLine
 10
69.9267694378137321
 20
95.6922903757501899
 30
0.0
 11
77.9223057573902196
 21
98.2901976079261317
 31
0.0
  0
LINE
  5
1E2
100
AcDbEntity
  8
0
 62
9
420
12632256
370
-1
 48
1.0
  6
BYLAYER
100
AcDbLine
 10
168.3911706666663122
 20
130.3055656242493683
 30
0.0
 11
176.3867069862428139
 21
132.9034728564253101
 31
0.0
  0
LINE
  5
1E3
100
AcDbEntity
  8
0
 62
9
420
12632256
370
-1
 48
1.0
  6
BYLAYER
100
AcDbLine
 10
35.4814586666665761
 20
130.037821624249375
 30
0.0
 11
43.4769949862430636
 21
132.6357288564253167
 31
0.0
  0
LINE
  5
1E4
100
AcDbEntity
  8
0
 62
9
420
12632256
370
-1
 48
1.0
  6
BYLAYER
100
AcDbLine
 10
100.9044512810928182
 20
130.0600912484989635
 30
0.0
 11
108.8999876006693199
 21
132.6579984806749053
 31
0.0
  0
LINE
  5
1E5
100
AcDbEntity
  8
0
 62
9
420
12632256
370
-1
 48
1.0
  6
BYLAYER
100
AcDbLine
 10
69.9267694378137321
 20
130.0311063757501415
 30
0.0
 11
77.9223057573902196
 21
132.6290136079260833
 31
0.0
  0
LINE
  5
1E6
100
AcDbEntity
  8
0
 62
9
420
12632256
370
-1
 48
1.0
  6
BYLAYER
100
AcDbLine
 10
135.3497620522399529
 20
130.0533759999997301
 30
0.0
 11
143.3452983718164546
 21
132.6512832321756719
 31
0.0
  0
LINE
  5
1E7
100
AcDbEntity
  8
0
 62
9
420
12632256
370
-1
 48
1.0
  6
BYLAYER
100
AcDbLine
 10
69.6612254378137408
 20
271.3716735583496416
 30
0.0
 11
77.6567617573902282
 21
273.9695807905255833
 31
0.0
  0
LINE
  5
1E8
100
AcDbEntity
  8
0
 62
9
420
12632256
370
-1
 48
1.0
  6
BYLAYER
100
AcDbLine
 10
35.2159146666665848
 20
271.378388806848875
 30
0.0
 11
43.2114509862430722
 21
273.9762960390248168
 31
0.0
  0
LINE
  5
1E9
100
AcDbEntity
  8
0
 62
9
420
12632256
370
-1
 48
1.0
  6
BYLAYER
100
AcDbLine
 10
168.8888346666663267
 20
234.4585624310985281
 30
0.0
 11
176.8843709862428284
 21
237.0564696632744699
 31
0.0
  0
LINE
  5
1EA
100
AcDbEntity
  8
0
 62
9
420
12632256
370
-1
 48
1.0
  6
BYLAYER
100
AcDbLine
 10
35.9791226666665764
 20
234.1908184310985348
 30
0.0
 11
43.9746589862430639
 21
236.7887256632744766
 31
0.0
  0
LINE
  5
1EB
100
AcDbEntity
  8
0
 62
9
420
12632256
370
-1
 48
1.0
  6
BYLAYER
100
AcDbLine
 10
101.4021152810928186
 20
234.2130880553481234
 30
0.0
 11
109.3976516006693203
 21
236.8109952875240651
 31
0.0
  0
LINE
  5
1EC
100
AcDbEntity
  8
0
 62
9
420
12632256
370
-1
 48
1.0
  6
BYLAYER
100
AcDbLine
 10
70.4244334378137324
 20
234.1841031825993014
 30
0.0
 11
78.4199697573902199
 21
236.7820104147752431
 31
0.0
  0
LINE
  5
1ED
100
AcDbEntity
  8
0
 62
9
420
12632256
370
-1
 48
1.0
  6
BYLAYER
100
AcDbLine
 10
135.8474260522399675
 20
234.2063728068488899
 30
0.0
 11
143.8429623718164692
 21
236.8042800390248317
 31
0.0
  0
LINE
  5
1EE
100
AcDbEntity
  8
0
 62
1
420
16711680
370
-1
 48
1.0
  6
ACAD_ISO10W100
100
AcDbLine
 10
168.125626666666335
 20
259.1461328068489252
 30
0.0
 11
179.5383048622081787
 21
255.4379288743495238
 31
0.0
  0
LINE
  5
1EF
100
AcDbEntity
  8
0
 62
1
420
16711680
370
-1
 48
1.0
  6
ACAD_ISO10W100
100
AcDbLine
 10
135.0842180522399758
 20
258.893943182599287
 30
0.0
 11
146.4968962477818195
 21
255.1857392500998856
 31
0.0
  0
LINE
  5
1F0
100
AcDbEntity
  8
0
 62
1
420
16711680
370
-1
 48
1.0
  6
ACAD_ISO10W100
100
AcDbLine
 10
100.6389072810928269
 20
258.9006584310984636
 30
0.0
 11
112.0515854766346706
 21
255.192454498599119
 31
0.0
  0
LINE
  5
1F1
100
AcDbEntity
  8
0
 62
1
420
16711680
370
-1
 48
1.0
  6
ACAD_ISO10W100
100
AcDbLine
 10
101.4021152810928186
 20
151.401243248498929
 30
0.0
 11
112.8147934766346623
 21
147.6930393159995845
 31
0.0
  0
LINE
  5
1F2
100
AcDbEntity
  8
0
 62
1
420
16711680
370
-1
 48
1.0
  6
ACAD_ISO10W100
100
AcDbLine
 10
70.4244334378137324
 20
151.3722583757501639
 30
0.0
 11
81.8371116333555761
 21
147.6640544432507625
 31
0.0
  0
LINE
  5
1F3
100
AcDbEntity
  8
0
 62
1
420
16711680
370
-1
 48
1.0
  6
ACAD_ISO10W100
100
AcDbLine
 10
168.8888346666663267
 20
151.6467176242493906
 30
0.0
 11
180.3015128622081704
 21
147.9385136917499892
 31
0.0
  0
LINE
  5
1F4
100
AcDbEntity
  8
0
 62
1
420
16711680
370
-1
 48
1.0
  6
ACAD_ISO10W100
100
AcDbLine
 10
35.9791226666665764
 20
151.3789736242493404
 30
0.0
 11
47.3918008622084201
 21
147.6707696917499959
 31
0.0
  0
LINE
  5
1F5
100
AcDbEntity
  8
0
 62
1
420
16711680
370
-1
 48
1.0
  6
ACAD_ISO10W100
100
AcDbLine
 10
135.8474260522399675
 20
151.3945279999997524
 30
0.0
 11
147.2601042477818112
 21
147.686324067500351
 31
0.0
  0
LINE
  5
1F6
100
AcDbEntity
  8
0
 62
1
420
16711680
370
-1
 48
1.0
  6
ACAD_ISO10W100
100
AcDbLine
 10
168.3911706666663122
 20
186.3755864310986681
 30
0.0
 11
179.8038488622081559
 21
182.6673824985992667
 31
0.0
  0
LINE
  5
1F7
100
AcDbEntity
  8
0
 62
1
420
16711680
370
-1
 48
1.0
  6
ACAD_ISO10W100
100
AcDbLine
 10
35.4814586666665761
 20
186.1078424310986179
 30
0.0
 11
46.8941368622084198
 21
182.3996384985992734
 31
0.0
  0
LINE
  5
1F8
100
AcDbEntity
  8
0
 62
1
420
16711680
370
-1
 48
1.0
  6
ACAD_ISO10W100
100
AcDbLine
 10
135.3497620522399529
 20
186.1233968068490299
 30
0.0
 11
146.7624402477817966
 21
182.4151928743496285
 31
0.0
  0
LINE
  5
1F9
100
AcDbEntity
  8
0
 62
1
420
16711680
370
-1
 48
1.0
  6
ACAD_ISO10W100
100
AcDbLine
 10
100.9044512810928182
 20
186.1301120553482065
 30
0.0
 11
112.317129476634662
 21
182.4219081228488619
 31
0.0
  0
LINE
  5
1FA
100
AcDbEntity
  8
0
 62
1
420
16711680
370
-1
 48
1.0
  6
ACAD_ISO10W100
100
AcDbLine
 10
69.9267694378137321
 20
186.1011271825994413
 30
0.0
 11
81.3394476333555758
 21
182.3929232501000399
 31
0.0
  0
LINE
  5
1FB
100
AcDbEntity
  8
0
 62
1
420
16711680
370
-1
 48
1.0
  6
ACAD_ISO10W100
100
AcDbLine
 10
35.4814586666665761
 20
83.1990056242494234
 30
0.0
 11
46.8941368622084198
 21
79.4908016917500788
 31
0.0
  0
LINE
  5
1FC
100
AcDbEntity
  8
0
 62
1
420
16711680
370
-1
 48
1.0
  6
ACAD_ISO10W100
100
AcDbLine
 10
69.9267694378137321
 20
83.1922903757502468
 30
0.0
 11
81.3394476333555758
 21
79.4840864432508454
 31
0.0
  0
LINE
  5
1FD
100
AcDbEntity
  8
0
 62
1
420
16711680
370
-1
 48
1.0
  6
ACAD_ISO10W100
100
AcDbLine
 10
35.4814586666665761
 20
117.537821624249375
 30
0.0
 11
46.8941368622084198
 21
113.8296176917500304
 31
0.0
  0
LINE
  5
1FE
100
AcDbEntity
  8
0
 62
1
420
16711680
370
-1
 48
1.0
  6
ACAD_ISO10W100
100
AcDbLine
 10
135.3497620522399529
 20
117.5533759999997869
 30
0.0
 11
146.7624402477817966
 21
113.8451720675003855
 31
0.0
  0
LINE
  5
1FF
100
AcDbEntity
  8
0
 62
1
420
16711680
370
-1
 48
1.0
  6
ACAD_ISO10W100
100
AcDbLine
 10
100.9044512810928182
 20
117.5600912484989635
 30
0.0
 11
112.317129476634662
 21
113.851887315999619
 31
0.0
  0
LINE
  5
200
100
AcDbEntity
  8
0
 62
1
420
16711680
370
-1
 48
1.0
  6
ACAD_ISO10W100
100
AcDbLine
 10
69.9267694378137321
 20
117.5311063757501984
 30
0.0
 11
81.3394476333555758
 21
113.822902443250797
 31
0.0
  0
LINE
  5
201
100
AcDbEntity
  8
0
 62
1
420
16711680
370
-1
 48
1.0
  6
ACAD_ISO10W100
100
AcDbLine
 10
168.3911706666663122
 20
117.8055656242494251
 30
0.0
 11
179.8038488622081559
 21
114.0973616917500237
 31
0.0
  0
LINE
  5
202
100
AcDbEntity
  8
0
 62
1
420
16711680
370
-1
 48
1.0
  6
ACAD_ISO10W100
100
AcDbLine
 10
69.6612254378137408
 20
258.8716735583496984
 30
0.0
 11
81.0739036333555845
 21
255.163469625850297
 31
0.0
  0
LINE
  5
203
100
AcDbEntity
  8
0
 62
1
420
16711680
370
-1
 48
1.0
  6
ACAD_ISO10W100
100
AcDbLine
 10
35.2159146666665848
 20
258.878388806848875
 30
0.0
 11
46.6285928622084285
 21
255.1701848743495304
 31
0.0
  0
LINE
  5
204
100
AcDbEntity
  8
0
 62
1
420
16711680
370
-1
 48
1.0
  6
ACAD_ISO10W100
100
AcDbLine
 10
168.8888346666663267
 20
221.958562431098585
 30
0.0
 11
180.3015128622081704
 21
218.2503584985991836
 31
0.0
  0
LINE
  5
205
100
AcDbEntity
  8
0
 62
1
420
16711680
370
-1
 48
1.0
  6
ACAD_ISO10W100
100
AcDbLine
 10
35.9791226666665764
 20
221.6908184310985348
 30
0.0
 11
47.3918008622084201
 21
217.9826144985991903
 31
0.0
  0
LINE
  5
206
100
AcDbEntity
  8
0
 62
1
420
16711680
370
-1
 48
1.0
  6
ACAD_ISO10W100
100
AcDbLine
 10
135.8474260522399675
 20
221.7063728068489468
 30
0.0
 11
147.2601042477818112
 21
217.9981688743495454
 31
0.0
  0
LINE
  5
207
100
AcDbEntity
  8
0
 62
1
420
16711680
370
-1
 48
1.0
  6
ACAD_ISO10W100
100
AcDbLine
 10
101.4021152810928186
 20
221.7130880553481234
 30
0.0
 11
112.8147934766346623
 21
218.0048841228487788
 31
0.0
  0
LINE
  5
208
100
AcDbEntity
  8
0
 62
1
420
16711680
370
-1
 48
1.0
  6
ACAD_ISO10W100
100
AcDbLine
 10
70.4244334378137324
 20
221.6841031825993582
 30
0.0
 11
81.8371116333555761
 21
217.9758992500999568
 31
0.0
  0
LINE
  5
209
100
AcDbEntity
  8
0
 62
9
420
12632256
370
-1
 48
1.0
  6
BYLAYER
100
AcDbLine
 10
168.125626666666335
 20
259.1461328068489252
 30
0.0
 11
170.6924922669063278
 21
251.2461328068488911
 31
0.0
  0
LINE
  5
20A
100
AcDbEntity
  8
0
 62
9
420
12632256
370
-1
 48
1.0
  6
BYLAYER
100
AcDbLine
 10
100.6389072810928269
 20
258.9006584310984636
 30
0.0
 11
103.2057728813328197
 21
251.0006584310984863
 31
0.0
  0
LINE
  5
20B
100
AcDbEntity
  8
0
 62
9
420
12632256
370
-1
 48
1.0
  6
BYLAYER
100
AcDbLine
 10
135.0842180522399758
 20
258.893943182599287
 30
0.0
 11
137.6510836524799686
 21
250.9939431825992529
 31
0.0
  0
LINE
  5
20C
100
AcDbEntity
  8
0
 62
9
420
12632256
370
-1
 48
1.0
  6
BYLAYER
100
AcDbLine
 10
101.4021152810928186
 20
151.401243248498929
 30
0.0
 11
103.9689808813328114
 21
143.5012432484989517
 31
0.0
  0
LINE
  5
20D
100
AcDbEntity
  8
0
 62
9
420
12632256
370
-1
 48
1.0
  6
BYLAYER
100
AcDbLine
 10
135.8474260522399675
 20
151.3945279999997524
 30
0.0
 11
138.4142916524799602
 21
143.4945279999997183
 31
0.0
  0
LINE
  5
20E
100
AcDbEntity
  8
0
 62
9
420
12632256
370
-1
 48
1.0
  6
BYLAYER
100
AcDbLine
 10
35.9791226666665764
 20
151.3789736242493404
 30
0.0
 11
38.545988266906555
 21
143.4789736242493632
 31
0.0
  0
LINE
  5
20F
100
AcDbEntity
  8
0
 62
9
420
12632256
370
-1
 48
1.0
  6
BYLAYER
100
AcDbLine
 10
70.4244334378137324
 20
151.3722583757501639
 30
0.0
 11
72.991299038053711
 21
143.4722583757501297
 31
0.0
  0
LINE
  5
210
100
AcDbEntity
  8
0
 62
9
420
12632256
370
-1
 48
1.0
  6
BYLAYER
100
AcDbLine
 10
168.8888346666663267
 20
151.6467176242493906
 30
0.0
 11
171.4557002669063195
 21
143.7467176242493565
 31
0.0
  0
LINE
  5
211
100
AcDbEntity
  8
0
 62
9
420
12632256
370
-1
 48
1.0
  6
BYLAYER
100
AcDbLine
 10
100.9044512810928182
 20
186.1301120553482065
 30
0.0
 11
103.471316881332811
 21
178.2301120553482292
 31
0.0
  0
LINE
  5
212
100
AcDbEntity
  8
0
 62
9
420
12632256
370
-1
 48
1.0
  6
BYLAYER
100
AcDbLine
 10
135.3497620522399529
 20
186.1233968068490299
 30
0.0
 11
137.9166276524799741
 21
178.2233968068489958
 31
0.0
  0
LINE
  5
213
100
AcDbEntity
  8
0
 62
9
420
12632256
370
-1
 48
1.0
  6
BYLAYER
100
AcDbLine
 10
35.4814586666665761
 20
186.1078424310986179
 30
0.0
 11
38.0483242669065547
 21
178.2078424310986406
 31
0.0
  0
LINE
  5
214
100
AcDbEntity
  8
0
 62
9
420
12632256
370
-1
 48
1.0
  6
BYLAYER
100
AcDbLine
 10
69.9267694378137321
 20
186.1011271825994413
 30
0.0
 11
72.4936350380537107
 21
178.2011271825994072
 31
0.0
  0
LINE
  5
215
100
AcDbEntity
  8
0
 62
9
420
12632256
370
-1
 48
1.0
  6
BYLAYER
100
AcDbLine
 10
168.3911706666663122
 20
186.3755864310986681
 30
0.0
 11
170.9580362669063334
 21
178.475586431098634
 31
0.0
  0
LINE
  5
216
100
AcDbEntity
  8
0
 62
9
420
12632256
370
-1
 48
1.0
  6
BYLAYER
100
AcDbLine
 10
35.4814586666665761
 20
83.1990056242494234
 30
0.0
 11
38.0483242669065547
 21
75.2990056242494461
 31
0.0
  0
LINE
  5
217
100
AcDbEntity
  8
0
 62
9
420
12632256
370
-1
 48
1.0
  6
BYLAYER
100
AcDbLine
 10
69.9267694378137321
 20
83.1922903757502468
 30
0.0
 11
72.4936350380537107
 21
75.2922903757502127
 31
0.0
  0
LINE
  5
218
100
AcDbEntity
  8
0
 62
9
420
12632256
370
-1
 48
1.0
  6
BYLAYER
100
AcDbLine
 10
100.9044512810928182
 20
117.5600912484989635
 30
0.0
 11
103.471316881332811
 21
109.6600912484989863
 31
0.0
  0
LINE
  5
219
100
AcDbEntity
  8
0
 62
9
420
12632256
370
-1
 48
1.0
  6
BYLAYER
100
AcDbLine
 10
135.3497620522399529
 20
117.5533759999997869
 30
0.0
 11
137.9166276524799741
 21
109.6533759999997528
 31
0.0
  0
LINE
  5
21A
100
AcDbEntity
  8
0
 62
9
420
12632256
370
-1
 48
1.0
  6
BYLAYER
100
AcDbLine
 10
35.4814586666665761
 20
117.537821624249375
 30
0.0
 11
38.0483242669065547
 21
109.6378216242493977
 31
0.0
  0
LINE
  5
21B
100
AcDbEntity
  8
0
 62
9
420
12632256
370
-1
 48
1.0
  6
BYLAYER
100
AcDbLine
 10
69.9267694378137321
 20
117.5311063757501984
 30
0.0
 11
72.4936350380537107
 21
109.6311063757501643
 31
0.0
  0
LINE
  5
21C
100
AcDbEntity
  8
0
 62
9
420
12632256
370
-1
 48
1.0
  6
BYLAYER
100
AcDbLine
 10
168.3911706666663122
 20
117.8055656242494251
 30
0.0
 11
170.9580362669063334
 21
109.905565624249391
 31
0.0
  0
LINE
  5
21D
100
AcDbEntity
  8
0
 62
9
420
12632256
370
-1
 48
1.0
  6
BYLAYER
100
AcDbLine
 10
69.6612254378137408
 20
258.8716735583496984
 30
0.0
 11
72.2280910380537193
 21
250.9716735583496643
 31
0.0
  0
LINE
  5
21E
100
AcDbEntity
  8
0
 62
9
420
12632256
370
-1
 48
1.0
  6
BYLAYER
100
AcDbLine
 10
35.2159146666665848
 20
258.878388806848875
 30
0.0
 11
37.7827802669065633
 21
250.9783888068488977
 31
0.0
  0
LINE
  5
21F
100
AcDbEntity
  8
0
 62
9
420
12632256
370
-1
 48
1.0
  6
BYLAYER
100
AcDbLine
 10
35.9791226666665764
 20
221.6908184310985348
 30
0.0
 11
38.545988266906555
 21
213.7908184310985575
 31
0.0
  0
LINE
  5
220
100
AcDbEntity
  8
0
 62
9
420
12632256
370
-1
 48
1.0
  6
BYLAYER
100
AcDbLine
 10
70.4244334378137324
 20
221.6841031825993582
 30
0.0
 11
72.991299038053711
 21
213.7841031825993241
 31
0.0
  0
LINE
  5
221
100
AcDbEntity
  8
0
 62
9
420
12632256
370
-1
 48
1.0
  6
BYLAYER
100
AcDbLine
 10
168.8888346666663267
 20
221.958562431098585
 30
0.0
 11
171.4557002669063195
 21
214.0585624310985509
 31
0.0
  0
LINE
  5
222
100
AcDbEntity
  8
0
 62
9
420
12632256
370
-1
 48
1.0
  6
BYLAYER
100
AcDbLine
 10
101.4021152810928186
 20
221.7130880553481234
 30
0.0
 11
103.9689808813328114
 21
213.8130880553481461
 31
0.0
  0
LINE
  5
223
100
AcDbEntity
  8
0
 62
9
420
12632256
370
-1
 48
1.0
  6
BYLAYER
100
AcDbLine
 10
135.8474260522399675
 20
221.7063728068489468
 30
0.0
 11
138.4142916524799602
 21
213.8063728068489127
 31
0.0
  0
LINE
  5
224
100
AcDbEntity
  8
0
 62
9
420
12632256
370
-1
 48
1.0
  6
BYLAYER
100
AcDbLine
 10
155.6256266666663919
 20
259.1461328068488683
 30
0.0
 11
147.1655206347396643
 21
251.2569563017529788
 31
0.0
  0
LINE
  5
225
100
AcDbEntity
  8
0
 62
9
420
12632256
370
-1
 48
1.0
  6
BYLAYER
100
AcDbLine
 10
122.5842180522400184
 20
258.8939431825992301
 30
0.0
 11
114.124112020313305
 21
251.0047666775033406
 31
0.0
  0
LINE
  5
226
100
AcDbEntity
  8
0
 62
9
420
12632256
370
-1
 48
1.0
  6
BYLAYER
100
AcDbLine
 10
88.1389072810928553
 20
258.9006584310984636
 30
0.0
 11
79.6788012491661419
 21
251.011481926002574
 31
0.0
  0
LINE
  5
227
100
AcDbEntity
  8
0
 62
9
420
12632256
370
-1
 48
1.0
  6
BYLAYER
100
AcDbLine
 10
156.3888346666663836
 20
151.6467176242493338
 30
0.0
 11
147.9287286347396559
 21
143.7575411191534442
 31
0.0
  0
LINE
  5
228
100
AcDbEntity
  8
0
 62
9
420
12632256
370
-1
 48
1.0
  6
BYLAYER
100
AcDbLine
 10
23.479122666666612
 20
151.3789736242493404
 30
0.0
 11
15.0190166347398844
 21
143.4897971191534509
 31
0.0
  0
LINE
  5
229
100
AcDbEntity
  8
0
 62
9
420
12632256
370
-1
 48
1.0
  6
BYLAYER
100
AcDbLine
 10
123.3474260522400101
 20
151.3945279999996956
 30
0.0
 11
114.8873200203132967
 21
143.505351494903806
 31
0.0
  0
LINE
  5
22A
100
AcDbEntity
  8
0
 62
9
420
12632256
370
-1
 48
1.0
  6
BYLAYER
100
AcDbLine
 10
88.902115281092847
 20
151.401243248498929
 30
0.0
 11
80.4420092491661336
 21
143.5120667434030395
 31
0.0
  0
LINE
  5
22B
100
AcDbEntity
  8
0
 62
9
420
12632256
370
-1
 48
1.0
  6
BYLAYER
100
AcDbLine
 10
57.9244334378137609
 20
151.372258375750107
 30
0.0
 11
49.4643274058870404
 21
143.4830818706542175
 31
0.0
  0
LINE
  5
22C
100
AcDbEntity
  8
0
 62
9
420
12632256
370
-1
 48
1.0
  6
BYLAYER
100
AcDbLine
 10
155.891170666666369
 20
186.3755864310986112
 30
0.0
 11
147.4310646347396414
 21
178.4864099260027217
 31
0.0
  0
LINE
  5
22D
100
AcDbEntity
  8
0
 62
9
420
12632256
370
-1
 48
1.0
  6
BYLAYER
100
AcDbLine
 10
22.9814586666666116
 20
186.1078424310986179
 30
0.0
 11
14.521352634739884
 21
178.2186659260027284
 31
0.0
  0
LINE
  5
22E
100
AcDbEntity
  8
0
 62
9
420
12632256
370
-1
 48
1.0
  6
BYLAYER
100
AcDbLine
 10
122.8497620522400098
 20
186.123396806848973
 30
0.0
 11
114.3896560203132964
 21
178.2342203017530835
 31
0.0
  0
LINE
  5
22F
100
AcDbEntity
  8
0
 62
9
420
12632256
370
-1
 48
1.0
  6
BYLAYER
100
AcDbLine
 10
88.4044512810928467
 20
186.1301120553482065
 30
0.0
 11
79.9443452491661333
 21
178.2409355502523169
 31
0.0
  0
LINE
  5
230
100
AcDbEntity
  8
0
 62
9
420
12632256
370
-1
 48
1.0
  6
BYLAYER
100
AcDbLine
 10
57.4267694378137605
 20
186.1011271825993845
 30
0.0
 11
48.96666340588704
 21
178.2119506775034949
 31
0.0
  0
LINE
  5
231
100
AcDbEntity
  8
0
 62
9
420
12632256
370
-1
 48
1.0
  6
BYLAYER
100
AcDbLine
 10
22.9814586666666116
 20
83.1990056242494234
 30
0.0
 11
14.521352634739884
 21
75.3098291191535338
 31
0.0
  0
LINE
  5
232
100
AcDbEntity
  8
0
 62
9
420
12632256
370
-1
 48
1.0
  6
BYLAYER
100
AcDbLine
 10
57.4267694378137605
 20
83.1922903757501899
 30
0.0
 11
48.96666340588704
 21
75.3031138706543004
 31
0.0
  0
LINE
  5
233
100
AcDbEntity
  8
0
 62
9
420
12632256
370
-1
 48
1.0
  6
BYLAYER
100
AcDbLine
 10
155.891170666666369
 20
117.8055656242493683
 30
0.0
 11
147.4310646347396414
 21
109.9163891191534788
 31
0.0
  0
LINE
  5
234
100
AcDbEntity
  8
0
 62
9
420
12632256
370
-1
 48
1.0
  6
BYLAYER
100
AcDbLine
 10
22.9814586666666116
 20
117.537821624249375
 30
0.0
 11
14.521352634739884
 21
109.6486451191534854
 31
0.0
  0
LINE
  5
235
100
AcDbEntity
  8
0
 62
9
420
12632256
370
-1
 48
1.0
  6
BYLAYER
100
AcDbLine
 10
122.8497620522400098
 20
117.5533759999997301
 30
0.0
 11
114.3896560203132964
 21
109.6641994949038406
 31
0.0
  0
LINE
  5
236
100
AcDbEntity
  8
0
 62
9
420
12632256
370
-1
 48
1.0
  6
BYLAYER
100
AcDbLine
 10
88.4044512810928467
 20
117.5600912484989635
 30
0.0
 11
79.9443452491661333
 21
109.670914743403074
 31
0.0
  0
LINE
  5
237
100
AcDbEntity
  8
0
 62
9
420
12632256
370
-1
 48
1.0
  6
BYLAYER
100
AcDbLine
 10
57.4267694378137605
 20
117.5311063757501415
 30
0.0
 11
48.96666340588704
 21
109.641929870654252
 31
0.0
  0
LINE
  5
238
100
AcDbEntity
  8
0
 62
9
420
12632256
370
-1
 48
1.0
  6
BYLAYER
100
AcDbLine
 10
57.1612254378137692
 20
258.8716735583496416
 30
0.0
 11
48.7011194058870487
 21
250.982497053253752
 31
0.0
  0
LINE
  5
239
100
AcDbEntity
  8
0
 62
9
420
12632256
370
-1
 48
1.0
  6
BYLAYER
100
AcDbLine
 10
22.7159146666666132
 20
258.878388806848875
 30
0.0
 11
14.2558086347398927
 21
250.9892123017529855
 31
0.0
  0
LINE
  5
23A
100
AcDbEntity
  8
0
 62
9
420
12632256
370
-1
 48
1.0
  6
BYLAYER
100
AcDbLine
 10
156.3888346666663836
 20
221.9585624310985281
 30
0.0
 11
147.9287286347396559
 21
214.0693859260026386
 31
0.0
  0
LINE
  5
23B
100
AcDbEntity
  8
0
 62
9
420
12632256
370
-1
 48
1.0
  6
BYLAYER
100
AcDbLine
 10
23.479122666666612
 20
221.6908184310985348
 30
0.0
 11
15.0190166347398844
 21
213.8016419260026453
 31
0.0
  0
LINE
  5
23C
100
AcDbEntity
  8
0
 62
9
420
12632256
370
-1
 48
1.0
  6
BYLAYER
100
AcDbLine
 10
123.3474260522400101
 20
221.7063728068488899
 30
0.0
 11
114.8873200203132967
 21
213.8171963017530004
 31
0.0
  0
LINE
  5
23D
100
AcDbEntity
  8
0
 62
9
420
12632256
370
-1
 48
1.0
  6
BYLAYER
100
AcDbLine
 10
88.902115281092847
 20
221.7130880553481234
 30
0.0
 11
80.4420092491661336
 21
213.8239115502522338
 31
0.0
  0
LINE
  5
23E
100
AcDbEntity
  8
0
 62
9
420
12632256
370
-1
 48
1.0
  6
BYLAYER
100
AcDbLine
 10
57.9244334378137609
 20
221.6841031825993014
 30
0.0
 11
49.4643274058870404
 21
213.7949266775034118
 31
0.0
  0
LINE
  5
23F
100
AcDbEntity
  8
0
 62
9
420
12632256
370
-1
 48
1.0
  6
BYLAYER
100
AcDbLine
 10
155.6256266666663919
 20
271.6461328068488683
 30
0.0
 11
147.7364501615704739
 21
280.1062388387755959
 31
0.0
  0
LINE
  5
240
100
AcDbEntity
  8
0
 62
9
420
12632256
370
-1
 48
1.0
  6
BYLAYER
100
AcDbLine
 10
88.1389072810928837
 20
271.4006584310984636
 30
0.0
 11
80.2497307759969658
 21
279.8607644630251912
 31
0.0
  0
LINE
  5
241
100
AcDbEntity
  8
0
 62
9
420
12632256
370
-1
 48
1.0
  6
BYLAYER
100
AcDbLine
 10
122.5842180522400469
 20
271.3939431825992301
 30
0.0
 11
114.6950415471441289
 21
279.8540492145259577
 31
0.0
  0
LINE
  5
242
100
AcDbEntity
  8
0
 62
9
420
12632256
370
-1
 48
1.0
  6
BYLAYER
100
AcDbLine
 10
57.9244334378137893
 20
163.872258375750107
 30
0.0
 11
50.0352569327178713
 21
172.3323644076768346
 31
0.0
  0
LINE
  5
243
100
AcDbEntity
  8
0
 62
9
420
12632256
370
-1
 48
1.0
  6
BYLAYER
100
AcDbLine
 10
23.4791226666666404
 20
163.8789736242493404
 30
0.0
 11
15.5899461615707224
 21
172.3390796561760681
 31
0.0
  0
LINE
  5
244
100
AcDbEntity
  8
0
 62
9
420
12632256
370
-1
 48
1.0
  6
BYLAYER
100
AcDbLine
 10
156.3888346666663836
 20
164.1467176242493338
 30
0.0
 11
148.4996581615704656
 21
172.6068236561760614
 31
0.0
  0
LINE
  5
245
100
AcDbEntity
  8
0
 62
9
420
12632256
370
-1
 48
1.0
  6
BYLAYER
100
AcDbLine
 10
88.9021152810928754
 20
163.901243248498929
 30
0.0
 11
81.0129387759969575
 21
172.3613492804256566
 31
0.0
  0
LINE
  5
246
100
AcDbEntity
  8
0
 62
9
420
12632256
370
-1
 48
1.0
  6
BYLAYER
100
AcDbLine
 10
123.3474260522400385
 20
163.8945279999996956
 30
0.0
 11
115.4582495471441206
 21
172.3546340319264232
 31
0.0
  0
LINE
  5
247
100
AcDbEntity
  8
0
 62
9
420
12632256
370
-1
 48
1.0
  6
BYLAYER
100
AcDbLine
 10
22.9814586666666401
 20
198.6078424310986179
 30
0.0
 11
15.0922821615707221
 21
207.0679484630253455
 31
0.0
  0
LINE
  5
248
100
AcDbEntity
  8
0
 62
9
420
12632256
370
-1
 48
1.0
  6
BYLAYER
100
AcDbLine
 10
155.891170666666369
 20
198.8755864310986112
 30
0.0
 11
148.0019941615704511
 21
207.3356924630253388
 31
0.0
  0
LINE
  5
249
100
AcDbEntity
  8
0
 62
9
420
12632256
370
-1
 48
1.0
  6
BYLAYER
100
AcDbLine
 10
88.4044512810928751
 20
198.6301120553482065
 30
0.0
 11
80.5152747759969571
 21
207.0902180872749341
 31
0.0
  0
LINE
  5
24A
100
AcDbEntity
  8
0
 62
9
420
12632256
370
-1
 48
1.0
  6
BYLAYER
100
AcDbLine
 10
122.8497620522400382
 20
198.623396806848973
 30
0.0
 11
114.9605855471441203
 21
207.0835028387757006
 31
0.0
  0
LINE
  5
24B
100
AcDbEntity
  8
0
 62
9
420
12632256
370
-1
 48
1.0
  6
BYLAYER
100
AcDbLine
 10
57.426769437813789
 20
198.6011271825993845
 30
0.0
 11
49.537592932717871
 21
207.0612332145261121
 31
0.0
  0
LINE
  5
24C
100
AcDbEntity
  8
0
 62
9
420
12632256
370
-1
 48
1.0
  6
BYLAYER
100
AcDbLine
 10
22.9814586666666401
 20
95.6990056242494234
 30
0.0
 11
15.0922821615707221
 21
104.159111656176151
 31
0.0
  0
LINE
  5
24D
100
AcDbEntity
  8
0
 62
9
420
12632256
370
-1
 48
1.0
  6
BYLAYER
100
AcDbLine
 10
57.426769437813789
 20
95.6922903757501899
 30
0.0
 11
49.537592932717871
 21
104.1523964076769175
 31
0.0
  0
LINE
  5
24E
100
AcDbEntity
  8
0
 62
9
420
12632256
370
-1
 48
1.0
  6
BYLAYER
100
AcDbLine
 10
88.4044512810928751
 20
130.0600912484989635
 30
0.0
 11
80.5152747759969571
 21
138.5201972804256911
 31
0.0
  0
LINE
  5
24F
100
AcDbEntity
  8
0
 62
9
420
12632256
370
-1
 48
1.0
  6
BYLAYER
100
AcDbLine
 10
122.8497620522400382
 20
130.0533759999997301
 30
0.0
 11
114.9605855471441203
 21
138.5134820319264577
 31
0.0
  0
LINE
  5
250
100
AcDbEntity
  8
0
 62
9
420
12632256
370
-1
 48
1.0
  6
BYLAYER
100
AcDbLine
 10
57.426769437813789
 20
130.0311063757501415
 30
0.0
 11
49.537592932717871
 21
138.4912124076768691
 31
0.0
  0
LINE
  5
251
100
AcDbEntity
  8
0
 62
9
420
12632256
370
-1
 48
1.0
  6
BYLAYER
100
AcDbLine
 10
22.9814586666666401
 20
130.037821624249375
 30
0.0
 11
15.0922821615707221
 21
138.4979276561761026
 31
0.0
  0
LINE
  5
252
100
AcDbEntity
  8
0
 62
9
420
12632256
370
-1
 48
1.0
  6
BYLAYER
100
AcDbLine
 10
155.891170666666369
 20
130.3055656242493683
 30
0.0
 11
148.0019941615704511
 21
138.7656716561760959
 31
0.0
  0
LINE
  5
253
100
AcDbEntity
  8
0
 62
9
420
12632256
370
-1
 48
1.0
  6
BYLAYER
100
AcDbLine
 10
57.1612254378137976
 20
271.3716735583496416
 30
0.0
 11
49.2720489327178797
 21
279.8317795902763692
 31
0.0
  0
LINE
  5
254
100
AcDbEntity
  8
0
 62
9
420
12632256
370
-1
 48
1.0
  6
BYLAYER
100
AcDbLine
 10
22.7159146666666416
 20
271.378388806848875
 30
0.0
 11
14.8267381615707237
 21
279.8384948387756026
 31
0.0
  0
LINE
  5
255
100
AcDbEntity
  8
0
 62
9
420
12632256
370
-1
 48
1.0
  6
BYLAYER
100
AcDbLine
 10
23.4791226666666404
 20
234.1908184310985348
 30
0.0
 11
15.5899461615707224
 21
242.6509244630252624
 31
0.0
  0
LINE
  5
256
100
AcDbEntity
  8
0
 62
9
420
12632256
370
-1
 48
1.0
  6
BYLAYER
100
AcDbLine
 10
156.3888346666663836
 20
234.4585624310985281
 30
0.0
 11
148.4996581615704656
 21
242.9186684630252557
 31
0.0
  0
LINE
  5
257
100
AcDbEntity
  8
0
 62
9
420
12632256
370
-1
 48
1.0
  6
BYLAYER
100
AcDbLine
 10
88.9021152810928754
 20
234.2130880553481234
 30
0.0
 11
81.0129387759969575
 21
242.673194087274851
 31
0.0
  0
LINE
  5
258
100
AcDbEntity
  8
0
 62
9
420
12632256
370
-1
 48
1.0
  6
BYLAYER
100
AcDbLine
 10
123.3474260522400385
 20
234.2063728068488899
 30
0.0
 11
115.4582495471441206
 21
242.6664788387756175
 31
0.0
  0
LINE
  5
259
100
AcDbEntity
  8
0
 62
9
420
12632256
370
-1
 48
1.0
  6
BYLAYER
100
AcDbLine
 10
57.9244334378137893
 20
234.1841031825993014
 30
0.0
 11
50.0352569327178713
 21
242.644209214526029
 31
0.0
  0
LINE
  5
25A
100
AcDbEntity
  8
0
 62
9
420
12632256
370
-1
 48
1.0
  6
BYLAYER
100
AcDbLine
 10
168.1256266666663919
 20
271.6461328068489252
 30
0.0
 11
176.597339475861304
 21
279.5461328068489024
 31
0.0
  0
LINE
  5
25B
100
AcDbEntity
  8
0
 62
9
420
12632256
370
-1
 48
1.0
  6
BYLAYER
100
AcDbLine
 10
100.6389072810928553
 20
271.4006584310985204
 30
0.0
 11
109.1106200902877958
 21
279.3006584310984977
 31
0.0
  0
LINE
  5
25C
100
AcDbEntity
  8
0
 62
9
420
12632256
370
-1
 48
1.0
  6
BYLAYER
100
AcDbLine
 10
135.0842180522400326
 20
271.393943182599287
 30
0.0
 11
143.5559308614349447
 21
279.2939431825992642
 31
0.0
  0
LINE
  5
25D
100
AcDbEntity
  8
0
 62
9
420
12632256
370
-1
 48
1.0
  6
BYLAYER
100
AcDbLine
 10
35.9791226666666049
 20
163.8789736242493973
 30
0.0
 11
44.4508354758615454
 21
171.7789736242493746
 31
0.0
  0
LINE
  5
25E
100
AcDbEntity
  8
0
 62
9
420
12632256
370
-1
 48
1.0
  6
BYLAYER
100
AcDbLine
 10
168.8888346666663836
 20
164.1467176242493906
 30
0.0
 11
177.3605474758612957
 21
172.0467176242493679
 31
0.0
  0
LINE
  5
25F
100
AcDbEntity
  8
0
 62
9
420
12632256
370
-1
 48
1.0
  6
BYLAYER
100
AcDbLine
 10
101.402115281092847
 20
163.9012432484989858
 30
0.0
 11
109.8738280902877875
 21
171.8012432484989631
 31
0.0
  0
LINE
  5
260
100
AcDbEntity
  8
0
 62
9
420
12632256
370
-1
 48
1.0
  6
BYLAYER
100
AcDbLine
 10
135.8474260522400243
 20
163.8945279999997524
 30
0.0
 11
144.3191388614349364
 21
171.7945279999997297
 31
0.0
  0
LINE
  5
261
100
AcDbEntity
  8
0
 62
9
420
12632256
370
-1
 48
1.0
  6
BYLAYER
100
AcDbLine
 10
70.4244334378137609
 20
163.8722583757501639
 30
0.0
 11
78.8961462470087014
 21
171.7722583757501411
 31
0.0
  0
LINE
  5
262
100
AcDbEntity
  8
0
 62
9
420
12632256
370
-1
 48
1.0
  6
BYLAYER
100
AcDbLine
 10
168.391170666666369
 20
198.8755864310986681
 30
0.0
 11
176.8628834758612811
 21
206.7755864310986453
 31
0.0
  0
LINE
  5
263
100
AcDbEntity
  8
0
 62
9
420
12632256
370
-1
 48
1.0
  6
BYLAYER
100
AcDbLine
 10
100.9044512810928467
 20
198.6301120553482633
 30
0.0
 11
109.3761640902877872
 21
206.5301120553482406
 31
0.0
  0
LINE
  5
264
100
AcDbEntity
  8
0
 62
9
420
12632256
370
-1
 48
1.0
  6
BYLAYER
100
AcDbLine
 10
135.3497620522400098
 20
198.6233968068490299
 30
0.0
 11
143.8214748614349219
 21
206.5233968068490071
 31
0.0
  0
LINE
  5
265
100
AcDbEntity
  8
0
 62
9
420
12632256
370
-1
 48
1.0
  6
BYLAYER
100
AcDbLine
 10
69.9267694378137605
 20
198.6011271825994413
 30
0.0
 11
78.3984822470087011
 21
206.5011271825994186
 31
0.0
  0
LINE
  5
266
100
AcDbEntity
  8
0
 62
9
420
12632256
370
-1
 48
1.0
  6
BYLAYER
100
AcDbLine
 10
35.4814586666666045
 20
198.6078424310986748
 30
0.0
 11
43.953171475861545
 21
206.507842431098652
 31
0.0
  0
LINE
  5
267
100
AcDbEntity
  8
0
 62
9
420
12632256
370
-1
 48
1.0
  6
BYLAYER
100
AcDbLine
 10
35.4814586666666045
 20
95.6990056242494802
 30
0.0
 11
43.953171475861545
 21
103.5990056242494575
 31
0.0
  0
LINE
  5
268
100
AcDbEntity
  8
0
 62
9
420
12632256
370
-1
 48
1.0
  6
BYLAYER
100
AcDbLine
 10
69.9267694378137605
 20
95.6922903757502468
 30
0.0
 11
78.3984822470087011
 21
103.592290375750224
 31
0.0
  0
LINE
  5
269
100
AcDbEntity
  8
0
 62
9
420
12632256
370
-1
 48
1.0
  6
BYLAYER
100
AcDbLine
 10
35.4814586666666045
 20
130.0378216242494318
 30
0.0
 11
43.953171475861545
 21
137.9378216242494091
 31
0.0
  0
LINE
  5
26A
100
AcDbEntity
  8
0
 62
9
420
12632256
370
-1
 48
1.0
  6
BYLAYER
100
AcDbLine
 10
168.391170666666369
 20
130.3055656242494251
 30
0.0
 11
176.8628834758612811
 21
138.2055656242494024
 31
0.0
  0
LINE
  5
26B
100
AcDbEntity
  8
0
 62
9
420
12632256
370
-1
 48
1.0
  6
BYLAYER
100
AcDbLine
 10
100.9044512810928467
 20
130.0600912484990204
 30
0.0
 11
109.3761640902877872
 21
137.9600912484989976
 31
0.0
  0
LINE
  5
26C
100
AcDbEntity
  8
0
 62
9
420
12632256
370
-1
 48
1.0
  6
BYLAYER
100
AcDbLine
 10
135.3497620522400098
 20
130.0533759999997869
 30
0.0
 11
143.8214748614349219
 21
137.9533759999997642
 31
0.0
  0
LINE
  5
26D
100
AcDbEntity
  8
0
 62
9
420
12632256
370
-1
 48
1.0
  6
BYLAYER
100
AcDbLine
 10
69.9267694378137605
 20
130.0311063757501984
 30
0.0
 11
78.3984822470087011
 21
137.9311063757501756
 31
0.0
  0
LINE
  5
26E
100
AcDbEntity
  8
0
 62
9
420
12632256
370
-1
 48
1.0
  6
BYLAYER
100
AcDbLine
 10
69.6612254378137692
 20
271.3716735583496984
 30
0.0
 11
78.1329382470087097
 21
279.2716735583496757
 31
0.0
  0
LINE
  5
26F
100
AcDbEntity
  8
0
 62
9
420
12632256
370
-1
 48
1.0
  6
BYLAYER
100
AcDbLine
 10
35.2159146666666132
 20
271.3783888068489318
 30
0.0
 11
43.6876274758615537
 21
279.2783888068489091
 31
0.0
  0
LINE
  5
270
100
AcDbEntity
  8
0
 62
9
420
12632256
370
-1
 48
1.0
  6
BYLAYER
100
AcDbLine
 10
135.8474260522400243
 20
234.2063728068489468
 30
0.0
 11
144.3191388614349364
 21
242.106372806848924
 31
0.0
  0
LINE
  5
271
100
AcDbEntity
  8
0
 62
9
420
12632256
370
-1
 48
1.0
  6
BYLAYER
100
AcDbLine
 10
70.4244334378137609
 20
234.1841031825993582
 30
0.0
 11
78.8961462470087014
 21
242.0841031825993355
 31
0.0
  0
LINE
  5
272
100
AcDbEntity
  8
0
 62
9
420
12632256
370
-1
 48
1.0
  6
BYLAYER
100
AcDbLine
 10
35.9791226666666049
 20
234.1908184310985916
 30
0.0
 11
44.4508354758615454
 21
242.0908184310985689
 31
0.0
  0
LINE
  5
273
100
AcDbEntity
  8
0
 62
9
420
12632256
370
-1
 48
1.0
  6
BYLAYER
100
AcDbLine
 10
168.8888346666663836
 20
234.458562431098585
 30
0.0
 11
177.3605474758612957
 21
242.3585624310985622
 31
0.0
  0
LINE
  5
274
100
AcDbEntity
  8
0
 62
9
420
12632256
370
-1
 48
1.0
  6
BYLAYER
100
AcDbLine
 10
101.402115281092847
 20
234.2130880553481802
 30
0.0
 11
109.8738280902877875
 21
242.1130880553481575
 31
0.0
  0
LINE
  5
275
100
AcDbEntity
  8
0
 62
9
420
12632256
370
-1
 48
1.0
  6
BYLAYER
100
AcDbLine
 10
168.125626666666335
 20
259.1461328068488115
 30
0.0
 11
176.0256266666663691
 21
250.6961328068488797
 31
0.0
  0
LINE
  5
276
100
AcDbEntity
  8
0
 62
9
420
12632256
370
-1
 48
1.0
  6
BYLAYER
100
AcDbLine
 10
135.0842180522399758
 20
258.8939431825991733
 30
0.0
 11
142.9842180522400099
 21
250.4439431825992415
 31
0.0
  0
LINE
  5
277
100
AcDbEntity
  8
0
 62
9
420
12632256
370
-1
 48
1.0
  6
BYLAYER
100
AcDbLine
 10
100.6389072810928269
 20
258.9006584310983499
 30
0.0
 11
108.5389072810928326
 21
250.4506584310984749
 31
0.0
  0
LINE
  5
278
100
AcDbEntity
  8
0
 62
9
420
12632256
370
-1
 48
1.0
  6
BYLAYER
100
AcDbLine
 10
70.4244334378137324
 20
151.3722583757500502
 30
0.0
 11
78.3244334378137381
 21
142.9222583757501184
 31
0.0
  0
LINE
  5
279
100
AcDbEntity
  8
0
 62
9
420
12632256
370
-1
 48
1.0
  6
BYLAYER
100
AcDbLine
 10
135.8474260522399675
 20
151.3945279999996387
 30
0.0
 11
143.7474260522400016
 21
142.9445279999997069
 31
0.0
  0
LINE
  5
27A
100
AcDbEntity
  8
0
 62
9
420
12632256
370
-1
 48
1.0
  6
BYLAYER
100
AcDbLine
 10
168.8888346666663267
 20
151.6467176242492769
 30
0.0
 11
176.7888346666663608
 21
143.1967176242493451
 31
0.0
  0
LINE
  5
27B
100
AcDbEntity
  8
0
 62
9
420
12632256
370
-1
 48
1.0
  6
BYLAYER
100
AcDbLine
 10
101.4021152810928186
 20
151.4012432484988153
 30
0.0
 11
109.3021152810928243
 21
142.9512432484989404
 31
0.0
  0
LINE
  5
27C
100
AcDbEntity
  8
0
 62
9
420
12632256
370
-1
 48
1.0
  6
BYLAYER
100
AcDbLine
 10
35.9791226666665764
 20
151.3789736242492268
 30
0.0
 11
43.8791226666665821
 21
142.9289736242493518
 31
0.0
  0
LINE
  5
27D
100
AcDbEntity
  8
0
 62
9
420
12632256
370
-1
 48
1.0
  6
BYLAYER
100
AcDbLine
 10
69.9267694378137321
 20
186.1011271825993276
 30
0.0
 11
77.8267694378137378
 21
177.6511271825993958
 31
0.0
  0
LINE
  5
27E
100
AcDbEntity
  8
0
 62
9
420
12632256
370
-1
 48
1.0
  6
BYLAYER
100
AcDbLine
 10
135.3497620522399529
 20
186.1233968068489162
 30
0.0
 11
143.249762052239987
 21
177.6733968068489844
 31
0.0
  0
LINE
  5
27F
100
AcDbEntity
  8
0
 62
9
420
12632256
370
-1
 48
1.0
  6
BYLAYER
100
AcDbLine
 10
168.3911706666663122
 20
186.3755864310985544
 30
0.0
 11
176.2911706666663463
 21
177.9255864310986226
 31
0.0
  0
LINE
  5
280
100
AcDbEntity
  8
0
 62
9
420
12632256
370
-1
 48
1.0
  6
BYLAYER
100
AcDbLine
 10
100.9044512810928182
 20
186.1301120553480928
 30
0.0
 11
108.8044512810928239
 21
177.6801120553482178
 31
0.0
  0
LINE
  5
281
100
AcDbEntity
  8
0
 62
9
420
12632256
370
-1
 48
1.0
  6
BYLAYER
100
AcDbLine
 10
35.4814586666665761
 20
186.1078424310985042
 30
0.0
 11
43.3814586666665818
 21
177.6578424310986293
 31
0.0
  0
LINE
  5
282
100
AcDbEntity
  8
0
 62
9
420
12632256
370
-1
 48
1.0
  6
BYLAYER
100
AcDbLine
 10
69.9267694378137321
 20
83.1922903757501331
 30
0.0
 11
77.8267694378137378
 21
74.7422903757502013
 31
0.0
  0
LINE
  5
283
100
AcDbEntity
  8
0
 62
9
420
12632256
370
-1
 48
1.0
  6
BYLAYER
100
AcDbLine
 10
35.4814586666665761
 20
83.1990056242493097
 30
0.0
 11
43.3814586666665818
 21
74.7490056242494347
 31
0.0
  0
LINE
  5
284
100
AcDbEntity
  8
0
 62
9
420
12632256
370
-1
 48
1.0
  6
BYLAYER
100
AcDbLine
 10
69.9267694378137321
 20
117.5311063757500847
 30
0.0
 11
77.8267694378137378
 21
109.0811063757501529
 31
0.0
  0
LINE
  5
285
100
AcDbEntity
  8
0
 62
9
420
12632256
370
-1
 48
1.0
  6
BYLAYER
100
AcDbLine
 10
135.3497620522399529
 20
117.5533759999996732
 30
0.0
 11
143.249762052239987
 21
109.1033759999997415
 31
0.0
  0
LINE
  5
286
100
AcDbEntity
  8
0
 62
9
420
12632256
370
-1
 48
1.0
  6
BYLAYER
100
AcDbLine
 10
168.3911706666663122
 20
117.8055656242493114
 30
0.0
 11
176.2911706666663463
 21
109.3555656242493797
 31
0.0
  0
LINE
  5
287
100
AcDbEntity
  8
0
 62
9
420
12632256
370
-1
 48
1.0
  6
BYLAYER
100
AcDbLine
 10
100.9044512810928182
 20
117.5600912484988498
 30
0.0
 11
108.8044512810928239
 21
109.1100912484989749
 31
0.0
  0
LINE
  5
288
100
AcDbEntity
  8
0
 62
9
420
12632256
370
-1
 48
1.0
  6
BYLAYER
100
AcDbLine
 10
35.4814586666665761
 20
117.5378216242492613
 30
0.0
 11
43.3814586666665818
 21
109.0878216242493863
 31
0.0
  0
LINE
  5
289
100
AcDbEntity
  8
0
 62
9
420
12632256
370
-1
 48
1.0
  6
BYLAYER
100
AcDbLine
 10
69.6612254378137408
 20
258.8716735583495847
 30
0.0
 11
77.5612254378137465
 21
250.4216735583496529
 31
0.0
  0
LINE
  5
28A
100
AcDbEntity
  8
0
 62
9
420
12632256
370
-1
 48
1.0
  6
BYLAYER
100
AcDbLine
 10
35.2159146666665848
 20
258.8783888068487613
 30
0.0
 11
43.1159146666665904
 21
250.4283888068488864
 31
0.0
  0
LINE
  5
28B
100
AcDbEntity
  8
0
 62
9
420
12632256
370
-1
 48
1.0
  6
BYLAYER
100
AcDbLine
 10
70.4244334378137324
 20
221.6841031825992445
 30
0.0
 11
78.3244334378137381
 21
213.2341031825993127
 31
0.0
  0
LINE
  5
28C
100
AcDbEntity
  8
0
 62
9
420
12632256
370
-1
 48
1.0
  6
BYLAYER
100
AcDbLine
 10
135.8474260522399675
 20
221.7063728068488331
 30
0.0
 11
143.7474260522400016
 21
213.2563728068489013
 31
0.0
  0
LINE
  5
28D
100
AcDbEntity
  8
0
 62
9
420
12632256
370
-1
 48
1.0
  6
BYLAYER
100
AcDbLine
 10
168.8888346666663267
 20
221.9585624310984713
 30
0.0
 11
176.7888346666663608
 21
213.5085624310985395
 31
0.0
  0
LINE
  5
28E
100
AcDbEntity
  8
0
 62
9
420
12632256
370
-1
 48
1.0
  6
BYLAYER
100
AcDbLine
 10
101.4021152810928186
 20
221.7130880553480097
 30
0.0
 11
109.3021152810928243
 21
213.2630880553481347
 31
0.0
  0
LINE
  5
28F
100
AcDbEntity
  8
0
 62
9
420
12632256
370
-1
 48
1.0
  6
BYLAYER
100
AcDbLine
 10
35.9791226666665764
 20
221.6908184310984211
 30
0.0
 11
43.8791226666665821
 21
213.2408184310985462
 31
0.0
  0
LINE
  5
290
100
AcDbEntity
  8
0
 62
5
420
255
370
-1
 48
1.0
  6
ACAD_ISO07W100
100
AcDbLine
 10
145.6043063231066981
 20
272.0916780635292298
 30
0.0
 11
155.1800814099860588
 21
281.6674531504085621
 31
0.0
  0
LINE
  5
291
100
AcDbEntity
  8
0
 62
5
420
255
370
-1
 48
1.0
  6
ACAD_ISO07W100
100
AcDbLine
 10
112.562897708680353
 20
271.8394884392795916
 30
0.0
 11
122.1386727955596996
 21
281.4152635261589239
 31
0.0
  0
LINE
  5
292
100
AcDbEntity
  8
0
 62
5
420
255
370
-1
 48
1.0
  6
ACAD_ISO07W100
100
AcDbLine
 10
78.1175869375331899
 20
271.846203687778825
 30
0.0
 11
87.6933620244125507
 21
281.4219787746581574
 31
0.0
  0
LINE
  5
293
100
AcDbEntity
  8
0
 62
5
420
255
370
-1
 48
1.0
  6
ACAD_ISO07W100
100
AcDbLine
 10
13.4578023231069466
 20
164.3245188809297019
 30
0.0
 11
23.0335774099862789
 21
173.9002939678090343
 31
0.0
  0
LINE
  5
294
100
AcDbEntity
  8
0
 62
5
420
255
370
-1
 48
1.0
  6
ACAD_ISO07W100
100
AcDbLine
 10
146.3675143231066897
 20
164.5922628809296953
 30
0.0
 11
155.9432894099860505
 21
174.1680379678090276
 31
0.0
  0
LINE
  5
295
100
AcDbEntity
  8
0
 62
5
420
255
370
-1
 48
1.0
  6
ACAD_ISO07W100
100
AcDbLine
 10
47.9031130942540955
 20
164.3178036324304685
 30
0.0
 11
57.478888181133442
 21
173.8935787193098008
 31
0.0
  0
LINE
  5
296
100
AcDbEntity
  8
0
 62
5
420
255
370
-1
 48
1.0
  6
ACAD_ISO07W100
100
AcDbLine
 10
113.3261057086803447
 20
164.3400732566800571
 30
0.0
 11
122.9018807955596913
 21
173.9158483435593894
 31
0.0
  0
LINE
  5
297
100
AcDbEntity
  8
0
 62
5
420
255
370
-1
 48
1.0
  6
ACAD_ISO07W100
100
AcDbLine
 10
78.8807949375331816
 20
164.3467885051792905
 30
0.0
 11
88.4565700244125424
 21
173.9225635920586228
 31
0.0
  0
LINE
  5
298
100
AcDbEntity
  8
0
 62
5
420
255
370
-1
 48
1.0
  6
ACAD_ISO07W100
100
AcDbLine
 10
12.9601383231069462
 20
199.0533876877789794
 30
0.0
 11
22.5359134099862786
 21
208.6291627746583117
 31
0.0
  0
LINE
  5
299
100
AcDbEntity
  8
0
 62
5
420
255
370
-1
 48
1.0
  6
ACAD_ISO07W100
100
AcDbLine
 10
145.8698503231066752
 20
199.3211316877789727
 30
0.0
 11
155.4456254099860644
 21
208.896906774658305
 31
0.0
  0
LINE
  5
29A
100
AcDbEntity
  8
0
 62
5
420
255
370
-1
 48
1.0
  6
ACAD_ISO07W100
100
AcDbLine
 10
47.4054490942540951
 20
199.046672439279746
 30
0.0
 11
56.9812241811334417
 21
208.6224475261590783
 31
0.0
  0
LINE
  5
29B
100
AcDbEntity
  8
0
 62
5
420
255
370
-1
 48
1.0
  6
ACAD_ISO07W100
100
AcDbLine
 10
112.8284417086803444
 20
199.0689420635293345
 30
0.0
 11
122.4042167955596909
 21
208.6447171504086668
 31
0.0
  0
LINE
  5
29C
100
AcDbEntity
  8
0
 62
5
420
255
370
-1
 48
1.0
  6
ACAD_ISO07W100
100
AcDbLine
 10
78.3831309375331813
 20
199.075657312028568
 30
0.0
 11
87.958906024412542
 21
208.6514323989079003
 31
0.0
  0
LINE
  5
29D
100
AcDbEntity
  8
0
 62
5
420
255
370
-1
 48
1.0
  6
ACAD_ISO07W100
100
AcDbLine
 10
47.4054490942540951
 20
96.1378356324305514
 30
0.0
 11
56.9812241811334417
 21
105.7136107193098837
 31
0.0
  0
LINE
  5
29E
100
AcDbEntity
  8
0
 62
5
420
255
370
-1
 48
1.0
  6
ACAD_ISO07W100
100
AcDbLine
 10
12.9601383231069462
 20
96.1445508809297849
 30
0.0
 11
22.5359134099862786
 21
105.7203259678091172
 31
0.0
  0
LINE
  5
29F
100
AcDbEntity
  8
0
 62
5
420
255
370
-1
 48
1.0
  6
ACAD_ISO07W100
100
AcDbLine
 10
112.8284417086803444
 20
130.4989212566800916
 30
0.0
 11
122.4042167955596909
 21
140.0746963435594239
 31
0.0
  0
LINE
  5
2A0
100
AcDbEntity
  8
0
 62
5
420
255
370
-1
 48
1.0
  6
ACAD_ISO07W100
100
AcDbLine
 10
78.3831309375331813
 20
130.505636505179325
 30
0.0
 11
87.958906024412542
 21
140.0814115920586573
 31
0.0
  0
LINE
  5
2A1
100
AcDbEntity
  8
0
 62
5
420
255
370
-1
 48
1.0
  6
ACAD_ISO07W100
100
AcDbLine
 10
12.9601383231069462
 20
130.4833668809297365
 30
0.0
 11
22.5359134099862786
 21
140.0591419678090688
 31
0.0
  0
LINE
  5
2A2
100
AcDbEntity
  8
0
 62
5
420
255
370
-1
 48
1.0
  6
ACAD_ISO07W100
100
AcDbLine
 10
145.8698503231066752
 20
130.7511108809297298
 30
0.0
 11
155.4456254099860644
 21
140.3268859678090621
 31
0.0
  0
LINE
  5
2A3
100
AcDbEntity
  8
0
 62
5
420
255
370
-1
 48
1.0
  6
ACAD_ISO07W100
100
AcDbLine
 10
47.4054490942540951
 20
130.476651632430503
 30
0.0
 11
56.9812241811334417
 21
140.0524267193098353
 31
0.0
  0
LINE
  5
2A4
100
AcDbEntity
  8
0
 62
5
420
255
370
-1
 48
1.0
  6
ACAD_ISO07W100
100
AcDbLine
 10
47.1399050942541038
 20
271.817218815030003
 30
0.0
 11
56.7156801811334503
 21
281.3929939019093354
 31
0.0
  0
LINE
  5
2A5
100
AcDbEntity
  8
0
 62
5
420
255
370
-1
 48
1.0
  6
ACAD_ISO07W100
100
AcDbLine
 10
12.6945943231069478
 20
271.8239340635292365
 30
0.0
 11
22.2703694099862943
 21
281.3997091504085688
 31
0.0
  0
LINE
  5
2A6
100
AcDbEntity
  8
0
 62
5
420
255
370
-1
 48
1.0
  6
ACAD_ISO07W100
100
AcDbLine
 10
13.4578023231069466
 20
234.6363636877788963
 30
0.0
 11
23.0335774099862789
 21
244.2121387746582286
 31
0.0
  0
LINE
  5
2A7
100
AcDbEntity
  8
0
 62
5
420
255
370
-1
 48
1.0
  6
ACAD_ISO07W100
100
AcDbLine
 10
146.3675143231066897
 20
234.9041076877788896
 30
0.0
 11
155.9432894099860505
 21
244.4798827746582219
 31
0.0
  0
LINE
  5
2A8
100
AcDbEntity
  8
0
 62
5
420
255
370
-1
 48
1.0
  6
ACAD_ISO07W100
100
AcDbLine
 10
47.9031130942540955
 20
234.6296484392796629
 30
0.0
 11
57.478888181133442
 21
244.2054235261589952
 31
0.0
  0
LINE
  5
2A9
100
AcDbEntity
  8
0
 62
5
420
255
370
-1
 48
1.0
  6
ACAD_ISO07W100
100
AcDbLine
 10
113.3261057086803447
 20
234.6519180635292514
 30
0.0
 11
122.9018807955596913
 21
244.2276931504085837
 31
0.0
  0
LINE
  5
2AA
100
AcDbEntity
  8
0
 62
5
420
255
370
-1
 48
1.0
  6
ACAD_ISO07W100
100
AcDbLine
 10
78.8807949375331816
 20
234.6586333120284849
 30
0.0
 11
88.4565700244125424
 21
244.2344083989078172
 31
0.0
  0
LINE
  5
2AB
100
AcDbEntity
  8
0
 62
5
420
255
370
-1
 48
1.0
  6
ACAD_ISO07W100
100
AcDbLine
 10
168.5711719233466965
 20
281.6674531504085621
 30
0.0
 11
178.1469470102260004
 21
272.091678063529173
 31
0.0
  0
LINE
  5
2AC
100
AcDbEntity
  8
0
 62
5
420
255
370
-1
 48
1.0
  6
ACAD_ISO07W100
100
AcDbLine
 10
101.08445253777316
 20
281.4219787746581574
 30
0.0
 11
110.6602276246524923
 21
271.8462036877787682
 31
0.0
  0
LINE
  5
2AD
100
AcDbEntity
  8
0
 62
5
420
255
370
-1
 48
1.0
  6
ACAD_ISO07W100
100
AcDbLine
 10
135.5297633089203373
 20
281.4152635261589239
 30
0.0
 11
145.1055383957996412
 21
271.8394884392795348
 31
0.0
  0
LINE
  5
2AE
100
AcDbEntity
  8
0
 62
5
420
255
370
-1
 48
1.0
  6
ACAD_ISO07W100
100
AcDbLine
 10
36.4246679233469095
 20
173.9002939678090343
 30
0.0
 11
46.0004430102262276
 21
164.3245188809296451
 31
0.0
  0
LINE
  5
2AF
100
AcDbEntity
  8
0
 62
5
420
255
370
-1
 48
1.0
  6
ACAD_ISO07W100
100
AcDbLine
 10
169.3343799233466882
 20
174.1680379678090276
 30
0.0
 11
178.9101550102259921
 21
164.5922628809296384
 31
0.0
  0
LINE
  5
2B0
100
AcDbEntity
  8
0
 62
5
420
255
370
-1
 48
1.0
  6
ACAD_ISO07W100
100
AcDbLine
 10
101.8476605377731516
 20
173.9225635920586228
 30
0.0
 11
111.423435624652484
 21
164.3467885051792337
 31
0.0
  0
LINE
  5
2B1
100
AcDbEntity
  8
0
 62
5
420
255
370
-1
 48
1.0
  6
ACAD_ISO07W100
100
AcDbLine
 10
70.8699786944940655
 20
173.8935787193098008
 30
0.0
 11
80.4457537813733836
 21
164.3178036324304117
 31
0.0
  0
LINE
  5
2B2
100
AcDbEntity
  8
0
 62
5
420
255
370
-1
 48
1.0
  6
ACAD_ISO07W100
100
AcDbLine
 10
136.292971308920329
 20
173.9158483435593894
 30
0.0
 11
145.8687463957996329
 21
164.3400732566800002
 31
0.0
  0
LINE
  5
2B3
100
AcDbEntity
  8
0
 62
5
420
255
370
-1
 48
1.0
  6
ACAD_ISO07W100
100
AcDbLine
 10
101.3499965377731513
 20
208.6514323989079003
 30
0.0
 11
110.9257716246524836
 21
199.0756573120285111
 31
0.0
  0
LINE
  5
2B4
100
AcDbEntity
  8
0
 62
5
420
255
370
-1
 48
1.0
  6
ACAD_ISO07W100
100
AcDbLine
 10
70.3723146944940652
 20
208.6224475261590783
 30
0.0
 11
79.9480897813733833
 21
199.0466724392796891
 31
0.0
  0
LINE
  5
2B5
100
AcDbEntity
  8
0
 62
5
420
255
370
-1
 48
1.0
  6
ACAD_ISO07W100
100
AcDbLine
 10
135.7953073089203144
 20
208.6447171504086668
 30
0.0
 11
145.3710823957996467
 21
199.0689420635292777
 31
0.0
  0
LINE
  5
2B6
100
AcDbEntity
  8
0
 62
5
420
255
370
-1
 48
1.0
  6
ACAD_ISO07W100
100
AcDbLine
 10
35.9270039233469092
 20
208.6291627746583117
 30
0.0
 11
45.5027790102262273
 21
199.0533876877789226
 31
0.0
  0
LINE
  5
2B7
100
AcDbEntity
  8
0
 62
5
420
255
370
-1
 48
1.0
  6
ACAD_ISO07W100
100
AcDbLine
 10
168.8367159233466737
 20
208.896906774658305
 30
0.0
 11
178.412491010226006
 21
199.3211316877789159
 31
0.0
  0
LINE
  5
2B8
100
AcDbEntity
  8
0
 62
5
420
255
370
-1
 48
1.0
  6
ACAD_ISO07W100
100
AcDbLine
 10
35.9270039233469092
 20
105.7203259678091172
 30
0.0
 11
45.5027790102262273
 21
96.144550880929728
 31
0.0
  0
LINE
  5
2B9
100
AcDbEntity
  8
0
 62
5
420
255
370
-1
 48
1.0
  6
ACAD_ISO07W100
100
AcDbLine
 10
70.3723146944940652
 20
105.7136107193098837
 30
0.0
 11
79.9480897813733833
 21
96.1378356324304946
 31
0.0
  0
LINE
  5
2BA
100
AcDbEntity
  8
0
 62
5
420
255
370
-1
 48
1.0
  6
ACAD_ISO07W100
100
AcDbLine
 10
35.9270039233469092
 20
140.0591419678090688
 30
0.0
 11
45.5027790102262273
 21
130.4833668809296796
 31
0.0
  0
LINE
  5
2BB
100
AcDbEntity
  8
0
 62
5
420
255
370
-1
 48
1.0
  6
ACAD_ISO07W100
100
AcDbLine
 10
168.8367159233466737
 20
140.3268859678090621
 30
0.0
 11
178.412491010226006
 21
130.7511108809296729
 31
0.0
  0
LINE
  5
2BC
100
AcDbEntity
  8
0
 62
5
420
255
370
-1
 48
1.0
  6
ACAD_ISO07W100
100
AcDbLine
 10
101.3499965377731513
 20
140.0814115920586573
 30
0.0
 11
110.9257716246524836
 21
130.5056365051792682
 31
0.0
  0
LINE
  5
2BD
100
AcDbEntity
  8
0
 62
5
420
255
370
-1
 48
1.0
  6
ACAD_ISO07W100
100
AcDbLine
 10
70.3723146944940652
 20
140.0524267193098353
 30
0.0
 11
79.9480897813733833
 21
130.4766516324304462
 31
0.0
  0
LINE
  5
2BE
100
AcDbEntity
  8
0
 62
5
420
255
370
-1
 48
1.0
  6
ACAD_ISO07W100
100
AcDbLine
 10
135.7953073089203144
 20
140.0746963435594239
 30
0.0
 11
145.3710823957996467
 21
130.4989212566800347
 31
0.0
  0
LINE
  5
2BF
100
AcDbEntity
  8
0
 62
5
420
255
370
-1
 48
1.0
  6
ACAD_ISO07W100
100
AcDbLine
 10
70.1067706944940738
 20
281.3929939019093354
 30
0.0
 11
79.6825457813733919
 21
271.8172188150299462
 31
0.0
  0
LINE
  5
2C0
100
AcDbEntity
  8
0
 62
5
420
255
370
-1
 48
1.0
  6
ACAD_ISO07W100
100
AcDbLine
 10
35.6614599233469178
 20
281.3997091504085688
 30
0.0
 11
45.2372350102262359
 21
271.8239340635291796
 31
0.0
  0
LINE
  5
2C1
100
AcDbEntity
  8
0
 62
5
420
255
370
-1
 48
1.0
  6
ACAD_ISO07W100
100
AcDbLine
 10
136.292971308920329
 20
244.2276931504085837
 30
0.0
 11
145.8687463957996329
 21
234.6519180635291946
 31
0.0
  0
LINE
  5
2C2
100
AcDbEntity
  8
0
 62
5
420
255
370
-1
 48
1.0
  6
ACAD_ISO07W100
100
AcDbLine
 10
36.4246679233469095
 20
244.2121387746582286
 30
0.0
 11
46.0004430102262276
 21
234.6363636877788394
 31
0.0
  0
LINE
  5
2C3
100
AcDbEntity
  8
0
 62
5
420
255
370
-1
 48
1.0
  6
ACAD_ISO07W100
100
AcDbLine
 10
169.3343799233466882
 20
244.4798827746582219
 30
0.0
 11
178.9101550102259921
 21
234.9041076877788328
 31
0.0
  0
LINE
  5
2C4
100
AcDbEntity
  8
0
 62
5
420
255
370
-1
 48
1.0
  6
ACAD_ISO07W100
100
AcDbLine
 10
101.8476605377731516
 20
244.2344083989078172
 30
0.0
 11
111.423435624652484
 21
234.658633312028428
 31
0.0
  0
LINE
  5
2C5
100
AcDbEntity
  8
0
 62
5
420
255
370
-1
 48
1.0
  6
ACAD_ISO07W100
100
AcDbLine
 10
70.8699786944940655
 20
244.2054235261589952
 30
0.0
 11
80.4457537813733836
 21
234.629648439279606
 31
0.0
  0
LINE
  5
2C6
100
AcDbEntity
  8
0
 62
5
420
255
370
-1
 48
1.0
  6
ACAD_ISO07W100
100
AcDbLine
 10
178.146947010225972
 20
258.7005875501685637
 30
0.0
 11
168.5711719233466681
 21
249.1248124632892029
 31
0.0
  0
LINE
  5
2C7
100
AcDbEntity
  8
0
 62
5
420
255
370
-1
 48
1.0
  6
ACAD_ISO07W100
100
AcDbLine
 10
145.1055383957996128
 20
258.4483979259189255
 30
0.0
 11
135.5297633089203089
 21
248.8726228390395647
 31
0.0
  0
LINE
  5
2C8
100
AcDbEntity
  8
0
 62
5
420
255
370
-1
 48
1.0
  6
ACAD_ISO07W100
100
AcDbLine
 10
110.6602276246524639
 20
258.4551131744181589
 30
0.0
 11
101.08445253777316
 21
248.8793380875387982
 31
0.0
  0
LINE
  5
2C9
100
AcDbEntity
  8
0
 62
5
420
255
370
-1
 48
1.0
  6
ACAD_ISO07W100
100
AcDbLine
 10
80.4457537813733694
 20
150.9267131190698024
 30
0.0
 11
70.8699786944940513
 21
141.3509380321904416
 31
0.0
  0
LINE
  5
2CA
100
AcDbEntity
  8
0
 62
5
420
255
370
-1
 48
1.0
  6
ACAD_ISO07W100
100
AcDbLine
 10
46.0004430102262134
 20
150.9334283675690358
 30
0.0
 11
36.4246679233468953
 21
141.3576532806896751
 31
0.0
  0
LINE
  5
2CB
100
AcDbEntity
  8
0
 62
5
420
255
370
-1
 48
1.0
  6
ACAD_ISO07W100
100
AcDbLine
 10
111.4234356246524555
 20
150.9556979918186244
 30
0.0
 11
101.8476605377731516
 21
141.3799229049392636
 31
0.0
  0
LINE
  5
2CC
100
AcDbEntity
  8
0
 62
5
420
255
370
-1
 48
1.0
  6
ACAD_ISO07W100
100
AcDbLine
 10
178.9101550102259637
 20
151.2011723675690291
 30
0.0
 11
169.3343799233466598
 21
141.6253972806896684
 31
0.0
  0
LINE
  5
2CD
100
AcDbEntity
  8
0
 62
5
420
255
370
-1
 48
1.0
  6
ACAD_ISO07W100
100
AcDbLine
 10
145.8687463957996044
 20
150.9489827433193909
 30
0.0
 11
136.2929713089203005
 21
141.3732076564400302
 31
0.0
  0
LINE
  5
2CE
100
AcDbEntity
  8
0
 62
5
420
255
370
-1
 48
1.0
  6
ACAD_ISO07W100
100
AcDbLine
 10
79.9480897813733691
 20
185.6555819259190798
 30
0.0
 11
70.372314694494051
 21
176.0798068390397191
 31
0.0
  0
LINE
  5
2CF
100
AcDbEntity
  8
0
 62
5
420
255
370
-1
 48
1.0
  6
ACAD_ISO07W100
100
AcDbLine
 10
45.5027790102262131
 20
185.6622971744183133
 30
0.0
 11
35.927003923346895
 21
176.0865220875389525
 31
0.0
  0
LINE
  5
2D0
100
AcDbEntity
  8
0
 62
5
420
255
370
-1
 48
1.0
  6
ACAD_ISO07W100
100
AcDbLine
 10
110.9257716246524552
 20
185.6845667986679018
 30
0.0
 11
101.3499965377731513
 21
176.1087917117885411
 31
0.0
  0
LINE
  5
2D1
100
AcDbEntity
  8
0
 62
5
420
255
370
-1
 48
1.0
  6
ACAD_ISO07W100
100
AcDbLine
 10
178.4124910102259491
 20
185.9300411744183066
 30
0.0
 11
168.8367159233466737
 21
176.3542660875389458
 31
0.0
  0
LINE
  5
2D2
100
AcDbEntity
  8
0
 62
5
420
255
370
-1
 48
1.0
  6
ACAD_ISO07W100
100
AcDbLine
 10
145.3710823957995899
 20
185.6778515501686684
 30
0.0
 11
135.7953073089203144
 21
176.1020764632893076
 31
0.0
  0
LINE
  5
2D3
100
AcDbEntity
  8
0
 62
5
420
255
370
-1
 48
1.0
  6
ACAD_ISO07W100
100
AcDbLine
 10
79.9480897813733691
 20
82.7467451190698853
 30
0.0
 11
70.372314694494051
 21
73.1709700321905245
 31
0.0
  0
LINE
  5
2D4
100
AcDbEntity
  8
0
 62
5
420
255
370
-1
 48
1.0
  6
ACAD_ISO07W100
100
AcDbLine
 10
45.5027790102262131
 20
82.7534603675691187
 30
0.0
 11
35.927003923346895
 21
73.177685280689758
 31
0.0
  0
LINE
  5
2D5
100
AcDbEntity
  8
0
 62
5
420
255
370
-1
 48
1.0
  6
ACAD_ISO07W100
100
AcDbLine
 10
79.9480897813733691
 20
117.0855611190698369
 30
0.0
 11
70.372314694494051
 21
107.5097860321904761
 31
0.0
  0
LINE
  5
2D6
100
AcDbEntity
  8
0
 62
5
420
255
370
-1
 48
1.0
  6
ACAD_ISO07W100
100
AcDbLine
 10
45.5027790102262131
 20
117.0922763675690703
 30
0.0
 11
35.927003923346895
 21
107.5165012806897096
 31
0.0
  0
LINE
  5
2D7
100
AcDbEntity
  8
0
 62
5
420
255
370
-1
 48
1.0
  6
ACAD_ISO07W100
100
AcDbLine
 10
110.9257716246524552
 20
117.1145459918186589
 30
0.0
 11
101.3499965377731513
 21
107.5387709049392981
 31
0.0
  0
LINE
  5
2D8
100
AcDbEntity
  8
0
 62
5
420
255
370
-1
 48
1.0
  6
ACAD_ISO07W100
100
AcDbLine
 10
178.4124910102259491
 20
117.3600203675690636
 30
0.0
 11
168.8367159233466737
 21
107.7842452806897029
 31
0.0
  0
LINE
  5
2D9
100
AcDbEntity
  8
0
 62
5
420
255
370
-1
 48
1.0
  6
ACAD_ISO07W100
100
AcDbLine
 10
145.3710823957995899
 20
117.1078307433194254
 30
0.0
 11
135.7953073089203144
 21
107.5320556564400647
 31
0.0
  0
LINE
  5
2DA
100
AcDbEntity
  8
0
 62
5
420
255
370
-1
 48
1.0
  6
ACAD_ISO07W100
100
AcDbLine
 10
79.6825457813733777
 20
258.4261283016693369
 30
0.0
 11
70.1067706944940596
 21
248.8503532147899762
 31
0.0
  0
LINE
  5
2DB
100
AcDbEntity
  8
0
 62
5
420
255
370
-1
 48
1.0
  6
ACAD_ISO07W100
100
AcDbLine
 10
45.2372350102262217
 20
258.4328435501685703
 30
0.0
 11
35.6614599233469036
 21
248.8570684632892096
 31
0.0
  0
LINE
  5
2DC
100
AcDbEntity
  8
0
 62
5
420
255
370
-1
 48
1.0
  6
ACAD_ISO07W100
100
AcDbLine
 10
80.4457537813733694
 20
221.2385579259189967
 30
0.0
 11
70.8699786944940513
 21
211.662782839039636
 31
0.0
  0
LINE
  5
2DD
100
AcDbEntity
  8
0
 62
5
420
255
370
-1
 48
1.0
  6
ACAD_ISO07W100
100
AcDbLine
 10
46.0004430102262134
 20
221.2452731744182302
 30
0.0
 11
36.4246679233468953
 21
211.6694980875388694
 31
0.0
  0
LINE
  5
2DE
100
AcDbEntity
  8
0
 62
5
420
255
370
-1
 48
1.0
  6
ACAD_ISO07W100
100
AcDbLine
 10
111.4234356246524555
 20
221.2675427986678187
 30
0.0
 11
101.8476605377731516
 21
211.691767711788458
 31
0.0
  0
LINE
  5
2DF
100
AcDbEntity
  8
0
 62
5
420
255
370
-1
 48
1.0
  6
ACAD_ISO07W100
100
AcDbLine
 10
178.9101550102259637
 20
221.5130171744182235
 30
0.0
 11
169.3343799233466598
 21
211.9372420875388627
 31
0.0
  0
LINE
  5
2E0
100
AcDbEntity
  8
0
 62
5
420
255
370
-1
 48
1.0
  6
ACAD_ISO07W100
100
AcDbLine
 10
145.8687463957996044
 20
221.2608275501685853
 30
0.0
 11
136.2929713089203005
 21
211.6850524632892245
 31
0.0
  0
LINE
  5
2E1
100
AcDbEntity
  8
0
 62
5
420
255
370
-1
 48
1.0
  6
ACAD_ISO07W100
100
AcDbLine
 10
122.1386727955596569
 20
248.8726228390395931
 30
0.0
 11
112.5628977086803104
 21
258.4483979259188686
 31
0.0
  0
LINE
  5
2E2
100
AcDbEntity
  8
0
 62
5
420
255
370
-1
 48
1.0
  6
ACAD_ISO07W100
100
AcDbLine
 10
87.6933620244124938
 20
248.8793380875388266
 30
0.0
 11
78.1175869375331615
 21
258.4551131744181021
 31
0.0
  0
LINE
  5
2E3
100
AcDbEntity
  8
0
 62
5
420
255
370
-1
 48
1.0
  6
ACAD_ISO07W100
100
AcDbLine
 10
155.1800814099860304
 20
249.1248124632892313
 30
0.0
 11
145.6043063231066697
 21
258.7005875501685068
 31
0.0
  0
LINE
  5
2E4
100
AcDbEntity
  8
0
 62
5
420
255
370
-1
 48
1.0
  6
ACAD_ISO07W100
100
AcDbLine
 10
155.9432894099860221
 20
141.6253972806896968
 30
0.0
 11
146.3675143231066613
 21
151.2011723675689723
 31
0.0
  0
LINE
  5
2E5
100
AcDbEntity
  8
0
 62
5
420
255
370
-1
 48
1.0
  6
ACAD_ISO07W100
100
AcDbLine
 10
23.0335774099862505
 20
141.3576532806897035
 30
0.0
 11
13.4578023231068897
 21
150.933428367568979
 31
0.0
  0
LINE
  5
2E6
100
AcDbEntity
  8
0
 62
5
420
255
370
-1
 48
1.0
  6
ACAD_ISO07W100
100
AcDbLine
 10
122.9018807955596486
 20
141.3732076564400586
 30
0.0
 11
113.3261057086803021
 21
150.9489827433193341
 31
0.0
  0
LINE
  5
2E7
100
AcDbEntity
  8
0
 62
5
420
255
370
-1
 48
1.0
  6
ACAD_ISO07W100
100
AcDbLine
 10
88.4565700244124855
 20
141.379922904939292
 30
0.0
 11
78.8807949375331532
 21
150.9556979918185675
 31
0.0
  0
LINE
  5
2E8
100
AcDbEntity
  8
0
 62
5
420
255
370
-1
 48
1.0
  6
ACAD_ISO07W100
100
AcDbLine
 10
57.4788881811333994
 20
141.35093803219047
 30
0.0
 11
47.9031130942540528
 21
150.9267131190697455
 31
0.0
  0
LINE
  5
2E9
100
AcDbEntity
  8
0
 62
5
420
255
370
-1
 48
1.0
  6
ACAD_ISO07W100
100
AcDbLine
 10
155.4456254099860075
 20
176.3542660875389743
 30
0.0
 11
145.8698503231066752
 21
185.9300411744182497
 31
0.0
  0
LINE
  5
2EA
100
AcDbEntity
  8
0
 62
5
420
255
370
-1
 48
1.0
  6
ACAD_ISO07W100
100
AcDbLine
 10
22.5359134099862501
 20
176.0865220875389809
 30
0.0
 11
12.9601383231068894
 21
185.6622971744182564
 31
0.0
  0
LINE
  5
2EB
100
AcDbEntity
  8
0
 62
5
420
255
370
-1
 48
1.0
  6
ACAD_ISO07W100
100
AcDbLine
 10
122.4042167955596483
 20
176.1020764632893361
 30
0.0
 11
112.8284417086803018
 21
185.6778515501686115
 31
0.0
  0
LINE
  5
2EC
100
AcDbEntity
  8
0
 62
5
420
255
370
-1
 48
1.0
  6
ACAD_ISO07W100
100
AcDbLine
 10
87.9589060244124852
 20
176.1087917117885695
 30
0.0
 11
78.3831309375331529
 21
185.684566798667845
 31
0.0
  0
LINE
  5
2ED
100
AcDbEntity
  8
0
 62
5
420
255
370
-1
 48
1.0
  6
ACAD_ISO07W100
100
AcDbLine
 10
56.981224181133399
 20
176.0798068390397475
 30
0.0
 11
47.4054490942540525
 21
185.655581925919023
 31
0.0
  0
LINE
  5
2EE
100
AcDbEntity
  8
0
 62
5
420
255
370
-1
 48
1.0
  6
ACAD_ISO07W100
100
AcDbLine
 10
22.5359134099862501
 20
73.1776852806897864
 30
0.0
 11
12.9601383231068894
 21
82.7534603675690619
 31
0.0
  0
LINE
  5
2EF
100
AcDbEntity
  8
0
 62
5
420
255
370
-1
 48
1.0
  6
ACAD_ISO07W100
100
AcDbLine
 10
56.981224181133399
 20
73.170970032190553
 30
0.0
 11
47.4054490942540525
 21
82.7467451190698284
 31
0.0
  0
LINE
  5
2F0
100
AcDbEntity
  8
0
 62
5
420
255
370
-1
 48
1.0
  6
ACAD_ISO07W100
100
AcDbLine
 10
155.4456254099860075
 20
107.7842452806897313
 30
0.0
 11
145.8698503231066752
 21
117.3600203675690068
 31
0.0
  0
LINE
  5
2F1
100
AcDbEntity
  8
0
 62
5
420
255
370
-1
 48
1.0
  6
ACAD_ISO07W100
100
AcDbLine
 10
22.5359134099862501
 20
107.516501280689738
 30
0.0
 11
12.9601383231068894
 21
117.0922763675690135
 31
0.0
  0
LINE
  5
2F2
100
AcDbEntity
  8
0
 62
5
420
255
370
-1
 48
1.0
  6
ACAD_ISO07W100
100
AcDbLine
 10
122.4042167955596483
 20
107.5320556564400931
 30
0.0
 11
112.8284417086803018
 21
117.1078307433193686
 31
0.0
  0
LINE
  5
2F3
100
AcDbEntity
  8
0
 62
5
420
255
370
-1
 48
1.0
  6
ACAD_ISO07W100
100
AcDbLine
 10
87.9589060244124852
 20
107.5387709049393266
 30
0.0
 11
78.3831309375331529
 21
117.114545991818602
 31
0.0
  0
LINE
  5
2F4
100
AcDbEntity
  8
0
 62
5
420
255
370
-1
 48
1.0
  6
ACAD_ISO07W100
100
AcDbLine
 10
56.981224181133399
 20
107.5097860321905046
 30
0.0
 11
47.4054490942540525
 21
117.08556111906978
 31
0.0
  0
LINE
  5
2F5
100
AcDbEntity
  8
0
 62
5
420
255
370
-1
 48
1.0
  6
ACAD_ISO07W100
100
AcDbLine
 10
56.7156801811334077
 20
248.8503532147900046
 30
0.0
 11
47.1399050942540612
 21
258.4261283016692801
 31
0.0
  0
LINE
  5
2F6
100
AcDbEntity
  8
0
 62
5
420
255
370
-1
 48
1.0
  6
ACAD_ISO07W100
100
AcDbLine
 10
22.2703694099862517
 20
248.857068463289238
 30
0.0
 11
12.6945943231069052
 21
258.4328435501685135
 31
0.0
  0
LINE
  5
2F7
100
AcDbEntity
  8
0
 62
5
420
255
370
-1
 48
1.0
  6
ACAD_ISO07W100
100
AcDbLine
 10
155.9432894099860221
 20
211.9372420875388912
 30
0.0
 11
146.3675143231066613
 21
221.5130171744181666
 31
0.0
  0
LINE
  5
2F8
100
AcDbEntity
  8
0
 62
5
420
255
370
-1
 48
1.0
  6
ACAD_ISO07W100
100
AcDbLine
 10
23.0335774099862505
 20
211.6694980875388978
 30
0.0
 11
13.4578023231068897
 21
221.2452731744181733
 31
0.0
  0
LINE
  5
2F9
100
AcDbEntity
  8
0
 62
5
420
255
370
-1
 48
1.0
  6
ACAD_ISO07W100
100
AcDbLine
 10
122.9018807955596486
 20
211.685052463289253
 30
0.0
 11
113.3261057086803021
 21
221.2608275501685284
 31
0.0
  0
LINE
  5
2FA
100
AcDbEntity
  8
0
 62
5
420
255
370
-1
 48
1.0
  6
ACAD_ISO07W100
100
AcDbLine
 10
88.4565700244124855
 20
211.6917677117884864
 30
0.0
 11
78.8807949375331532
 21
221.2675427986677619
 31
0.0
  0
LINE
  5
2FB
100
AcDbEntity
  8
0
 62
5
420
255
370
-1
 48
1.0
  6
ACAD_ISO07W100
100
AcDbLine
 10
57.4788881811333994
 20
211.6627828390396644
 30
0.0
 11
47.9031130942540528
 21
221.2385579259189399
 31
0.0
  0
LINE
  5
2FC
100
AcDbEntity
  8
0
 62
9
420
12632256
370
-1
 48
1.0
  6
BYLAYER
100
AcDbLine
 10
100.6389072810927132
 20
258.9006584310985204
 30
0.0
 11
88.1389072810928269
 21
258.9006584310984636
 31
0.0
  0
LINE
  5
2FD
100
AcDbEntity
  8
0
 62
9
420
12632256
370
-1
 48
1.0
  6
BYLAYER
100
AcDbLine
 10
135.0842180522398621
 20
258.893943182599287
 30
0.0
 11
122.58421805223999
 21
258.893943182599287
 31
0.0
  0
LINE
  5
2FE
100
AcDbEntity
  8
0
 62
9
420
12632256
370
-1
 48
1.0
  6
BYLAYER
100
AcDbLine
 10
168.1256266666662214
 20
259.1461328068489252
 30
0.0
 11
155.625626666666335
 21
259.1461328068489252
 31
0.0
  0
LINE
  5
2FF
100
AcDbEntity
  8
0
 62
9
420
12632256
370
-1
 48
1.0
  6
BYLAYER
100
AcDbLine
 10
35.9791226666664485
 20
151.3789736242493973
 30
0.0
 11
23.4791226666665835
 21
151.3789736242493404
 31
0.0
  0
LINE
  5
300
100
AcDbEntity
  8
0
 62
9
420
12632256
370
-1
 48
1.0
  6
BYLAYER
100
AcDbLine
 10
168.888834666666213
 20
151.6467176242493906
 30
0.0
 11
156.3888346666663267
 21
151.6467176242493906
 31
0.0
  0
LINE
  5
301
100
AcDbEntity
  8
0
 62
9
420
12632256
370
-1
 48
1.0
  6
BYLAYER
100
AcDbLine
 10
101.4021152810927049
 20
151.4012432484989858
 30
0.0
 11
88.9021152810928186
 21
151.401243248498929
 31
0.0
  0
LINE
  5
302
100
AcDbEntity
  8
0
 62
9
420
12632256
370
-1
 48
1.0
  6
BYLAYER
100
AcDbLine
 10
135.8474260522398538
 20
151.3945279999997524
 30
0.0
 11
123.3474260522399817
 21
151.3945279999997524
 31
0.0
  0
LINE
  5
303
100
AcDbEntity
  8
0
 62
9
420
12632256
370
-1
 48
1.0
  6
BYLAYER
100
AcDbLine
 10
70.4244334378136045
 20
151.3722583757501639
 30
0.0
 11
57.9244334378137324
 21
151.3722583757501639
 31
0.0
  0
LINE
  5
304
100
AcDbEntity
  8
0
 62
9
420
12632256
370
-1
 48
1.0
  6
BYLAYER
100
AcDbLine
 10
35.4814586666664482
 20
186.1078424310986748
 30
0.0
 11
22.9814586666665832
 21
186.1078424310986179
 31
0.0
  0
LINE
  5
305
100
AcDbEntity
  8
0
 62
9
420
12632256
370
-1
 48
1.0
  6
BYLAYER
100
AcDbLine
 10
168.3911706666661985
 20
186.3755864310986681
 30
0.0
 11
155.8911706666663122
 21
186.3755864310986681
 31
0.0
  0
LINE
  5
306
100
AcDbEntity
  8
0
 62
9
420
12632256
370
-1
 48
1.0
  6
BYLAYER
100
AcDbLine
 10
100.9044512810927046
 20
186.1301120553482633
 30
0.0
 11
88.4044512810928182
 21
186.1301120553482065
 31
0.0
  0
LINE
  5
307
100
AcDbEntity
  8
0
 62
9
420
12632256
370
-1
 48
1.0
  6
BYLAYER
100
AcDbLine
 10
135.3497620522398392
 20
186.1233968068490299
 30
0.0
 11
122.8497620522399814
 21
186.1233968068490299
 31
0.0
  0
LINE
  5
308
100
AcDbEntity
  8
0
 62
9
420
12632256
370
-1
 48
1.0
  6
BYLAYER
100
AcDbLine
 10
69.9267694378136042
 20
186.1011271825994413
 30
0.0
 11
57.4267694378137321
 21
186.1011271825994413
 31
0.0
  0
LINE
  5
309
100
AcDbEntity
  8
0
 62
9
420
12632256
370
-1
 48
1.0
  6
BYLAYER
100
AcDbLine
 10
35.4814586666664482
 20
83.1990056242494802
 30
0.0
 11
22.9814586666665832
 21
83.1990056242494234
 31
0.0
  0
LINE
  5
30A
100
AcDbEntity
  8
0
 62
9
420
12632256
370
-1
 48
1.0
  6
BYLAYER
100
AcDbLine
 10
69.9267694378136042
 20
83.1922903757502468
 30
0.0
 11
57.4267694378137321
 21
83.1922903757502468
 31
0.0
  0
LINE
  5
30B
100
AcDbEntity
  8
0
 62
9
420
12632256
370
-1
 48
1.0
  6
BYLAYER
100
AcDbLine
 10
35.4814586666664482
 20
117.5378216242494318
 30
0.0
 11
22.9814586666665832
 21
117.537821624249375
 31
0.0
  0
LINE
  5
30C
100
AcDbEntity
  8
0
 62
9
420
12632256
370
-1
 48
1.0
  6
BYLAYER
100
AcDbLine
 10
168.3911706666661985
 20
117.8055656242494251
 30
0.0
 11
155.8911706666663122
 21
117.8055656242494251
 31
0.0
  0
LINE
  5
30D
100
AcDbEntity
  8
0
 62
9
420
12632256
370
-1
 48
1.0
  6
BYLAYER
100
AcDbLine
 10
100.9044512810927046
 20
117.5600912484990204
 30
0.0
 11
88.4044512810928182
 21
117.5600912484989635
 31
0.0
  0
LINE
  5
30E
100
AcDbEntity
  8
0
 62
9
420
12632256
370
-1
 48
1.0
  6
BYLAYER
100
AcDbLine
 10
135.3497620522398392
 20
117.5533759999997869
 30
0.0
 11
122.8497620522399814
 21
117.5533759999997869
 31
0.0
  0
LINE
  5
30F
100
AcDbEntity
  8
0
 62
9
420
12632256
370
-1
 48
1.0
  6
BYLAYER
100
AcDbLine
 10
69.9267694378136042
 20
117.5311063757501984
 30
0.0
 11
57.4267694378137321
 21
117.5311063757501984
 31
0.0
  0
LINE
  5
310
100
AcDbEntity
  8
0
 62
9
420
12632256
370
-1
 48
1.0
  6
BYLAYER
100
AcDbLine
 10
69.6612254378136129
 20
258.8716735583496984
 30
0.0
 11
57.1612254378137408
 21
258.8716735583496984
 31
0.0
  0
LINE
  5
311
100
AcDbEntity
  8
0
 62
9
420
12632256
370
-1
 48
1.0
  6
BYLAYER
100
AcDbLine
 10
35.2159146666664569
 20
258.8783888068489318
 30
0.0
 11
22.7159146666665848
 21
258.878388806848875
 31
0.0
  0
LINE
  5
312
100
AcDbEntity
  8
0
 62
9
420
12632256
370
-1
 48
1.0
  6
BYLAYER
100
AcDbLine
 10
35.9791226666664485
 20
221.6908184310985916
 30
0.0
 11
23.4791226666665835
 21
221.6908184310985348
 31
0.0
  0
LINE
  5
313
100
AcDbEntity
  8
0
 62
9
420
12632256
370
-1
 48
1.0
  6
BYLAYER
100
AcDbLine
 10
168.888834666666213
 20
221.958562431098585
 30
0.0
 11
156.3888346666663267
 21
221.958562431098585
 31
0.0
  0
LINE
  5
314
100
AcDbEntity
  8
0
 62
9
420
12632256
370
-1
 48
1.0
  6
BYLAYER
100
AcDbLine
 10
101.4021152810927049
 20
221.7130880553481802
 30
0.0
 11
88.9021152810928186
 21
221.7130880553481234
 31
0.0
  0
LINE
  5
315
100
AcDbEntity
  8
0
 62
9
420
12632256
370
-1
 48
1.0
  6
BYLAYER
100
AcDbLine
 10
135.8474260522398538
 20
221.7063728068489468
 30
0.0
 11
123.3474260522399817
 21
221.7063728068489468
 31
0.0
  0
LINE
  5
316
100
AcDbEntity
  8
0
 62
9
420
12632256
370
-1
 48
1.0
  6
BYLAYER
100
AcDbLine
 10
70.4244334378136045
 20
221.6841031825993582
 30
0.0
 11
57.9244334378137324
 21
221.6841031825993582
 31
0.0
  0
MTEXT
  5
317
100
AcDbEntity
  8
0
 62
256
370
-1
 48
1.0
  6
BYLAYER
100
AcDbMText
 10
162.6388346666712152
 20
228.2085624311001197
 30
0.0
 40
1.0
 41
0.0
 71
5
 72
1
  1
\H6;P
  7
textstyle0
 50
0.0
 73
2
 44
1.0
  0
MTEXT
  5
318
100
AcDbEntity
  8
0
 62
256
370
-1
 48
1.0
  6
BYLAYER
100
AcDbMText
 10
64.1744334378138745
 20
227.934103182598534
 30
0.0
 40
1.0
 41
0.0
 71
5
 72
1
  1
\H6;U
  7
textstyle1
 50
0.0
 73
2
 44
1.0
  0
MTEXT
  5
319
100
AcDbEntity
  8
0
 62
256
370
-1
 48
1.0
  6
BYLAYER
100
AcDbMText
 10
129.5974260522401096
 20
227.9563728068451667
 30
0.0
 40
1.0
 41
0.0
 71
5
 72
1
  1
\H6;O
  7
textstyle14
 50
0.0
 73
2
 44
1.0
  0
MTEXT
  5
31A
100
AcDbEntity
  8
0
 62
256
370
-1
 48
1.0
  6
BYLAYER
100
AcDbMText
 10
29.7291226666665267
 20
227.9408184310977958
 30
0.0
 40
1.0
 41
0.0
 71
5
 72
1
  1
\H6;Y
  7
textstyle15
 50
0.0
 73
2
 44
1.0
  0
MTEXT
  5
31B
100
AcDbEntity
  8
0
 62
256
370
-1
 48
1.0
  6
BYLAYER
100
AcDbMText
 10
95.1521152810927902
 20
227.9630880553530687
 30
0.0
 40
1.0
 41
0.0
 71
5
 72
1
  1
\H6;I
  7
textstyle16
 50
0.0
 73
2
 44
1.0
  0
MTEXT
  5
31C
100
AcDbEntity
  8
0
 62
256
370
-1
 48
1.0
  6
BYLAYER
100
AcDbMText
 10
94.3889072810927843
 20
265.1506584311034089
 30
0.0
 40
1.0
 41
0.0
 71
5
 72
1
  1
\H6;E
  7
textstyle17
 50
0.0
 73
2
 44
1.0
  0
MTEXT
  5
31D
100
AcDbEntity
  8
0
 62
256
370
-1
 48
1.0
  6
BYLAYER
100
AcDbMText
 10
128.8342180522401463
 20
265.1439431825943416
 30
0.0
 40
1.0
 41
0.0
 71
5
 72
1
  1
\H6;R
  7
textstyle10
 50
0.0
 73
2
 44
1.0
  0
MTEXT
  5
31E
100
AcDbEntity
  8
0
 62
256
370
-1
 48
1.0
  6
BYLAYER
100
AcDbMText
 10
161.8756266666712236
 20
265.3961328068489252
 30
0.0
 40
1.0
 41
0.0
 71
5
 72
1
  1
\H6;T
  7
textstyle11
 50
0.0
 73
2
 44
1.0
  0
MTEXT
  5
31F
100
AcDbEntity
  8
0
 62
256
370
-1
 48
1.0
  6
BYLAYER
100
AcDbMText
 10
162.6388346666712152
 20
157.8967176242509254
 30
0.0
 40
1.0
 41
0.0
 71
5
 72
1
  1
\H6;;
  7
textstyle12
 50
0.0
 73
2
 44
1.0
  0
MTEXT
  5
320
100
AcDbEntity
  8
0
 62
256
370
-1
 48
1.0
  6
BYLAYER
100
AcDbMText
 10
64.1744334378138745
 20
157.6222583757493396
 30
0.0
 40
1.0
 41
0.0
 71
5
 72
1
  1
\H6;J
  7
textstyle13
 50
0.0
 73
2
 44
1.0
  0
MTEXT
  5
321
100
AcDbEntity
  8
0
 62
256
370
-1
 48
1.0
  6
BYLAYER
100
AcDbMText
 10
129.5974260522401096
 20
157.6445279999959723
 30
0.0
 40
1.0
 41
0.0
 71
5
 72
1
  1
\H6;L
  7
textstyle6
 50
0.0
 73
2
 44
1.0
  0
MTEXT
  5
322
100
AcDbEntity
  8
0
 62
256
370
-1
 48
1.0
  6
BYLAYER
100
AcDbMText
 10
29.7291226666665267
 20
157.6289736242486015
 30
0.0
 40
1.0
 41
0.0
 71
5
 72
1
  1
\H6;H
  7
textstyle7
 50
0.0
 73
2
 44
1.0
  0
MTEXT
  5
323
100
AcDbEntity
  8
0
 62
256
370
-1
 48
1.0
  6
BYLAYER
100
AcDbMText
 10
95.1521152810927902
 20
157.6512432485038744
 30
0.0
 40
1.0
 41
0.0
 71
5
 72
1
  1
\H6;K
  7
textstyle8
 50
0.0
 73
2
 44
1.0
  0
MTEXT
  5
324
100
AcDbEntity
  8
0
 62
256
370
-1
 48
1.0
  6
BYLAYER
100
AcDbMText
 10
162.1411706666712007
 20
192.6255864311002028
 30
0.0
 40
1.0
 41
0.0
 71
5
 72
1
  1
\H6;G
  7
textstyle9
 50
0.0
 73
2
 44
1.0
  0
MTEXT
  5
325
100
AcDbEntity
  8
0
 62
256
370
-1
 48
1.0
  6
BYLAYER
100
AcDbMText
 10
63.6767694378138742
 20
192.3511271825986171
 30
0.0
 40
1.0
 41
0.0
 71
5
 72
1
  1
\H6;S
  7
textstyle2
 50
0.0
 73
2
 44
1.0
  0
MTEXT
  5
326
100
AcDbEntity
  8
0
 62
256
370
-1
 48
1.0
  6
BYLAYER
100
AcDbMText
 10
129.0997620522401235
 20
192.3733968068452498
 30
0.0
 40
1.0
 41
0.0
 71
5
 72
1
  1
\H6;F
  7
textstyle3
 50
0.0
 73
2
 44
1.0
  0
MTEXT
  5
327
100
AcDbEntity
  8
0
 62
256
370
-1
 48
1.0
  6
BYLAYER
100
AcDbMText
 10
29.2314586666665264
 20
192.3578424310978789
 30
0.0
 40
1.0
 41
0.0
 71
5
 72
1
  1
\H6;A
  7
textstyle4
 50
0.0
 73
2
 44
1.0
  0
MTEXT
  5
328
100
AcDbEntity
  8
0
 62
256
370
-1
 48
1.0
  6
BYLAYER
100
AcDbMText
 10
94.6544512810927898
 20
192.3801120553531518
 30
0.0
 40
1.0
 41
0.0
 71
5
 72
1
  1
\H6;D
  7
textstyle5
 50
0.0
 73
2
 44
1.0
  0
MTEXT
  5
329
100
AcDbEntity
  8
0
 62
256
370
-1
 48
1.0
  6
BYLAYER
100
AcDbMText
 10
63.6767694378138742
 20
89.4422903757494225
 30
0.0
 40
1.0
 41
0.0
 71
5
 72
1
  1
\H6;M
  7
textstyle25
 50
0.0
 73
2
 44
1.0
  0
MTEXT
  5
32A
100
AcDbEntity
  8
0
 62
256
370
-1
 48
1.0
  6
BYLAYER
100
AcDbMText
 10
29.2314586666665264
 20
89.4490056242486986
 30
0.0
 40
1.0
 41
0.0
 71
5
 72
1
  1
\H6;N
  7
textstyle26
 50
0.0
 73
2
 44
1.0
  0
MTEXT
  5
32B
100
AcDbEntity
  8
0
 62
256
370
-1
 48
1.0
  6
BYLAYER
100
AcDbMText
 10
162.1411706666712007
 20
124.0555656242509741
 30
0.0
 40
1.0
 41
0.0
 71
5
 72
1
  1
\H6;B
  7
textstyle22
 50
0.0
 73
2
 44
1.0
  0
MTEXT
  5
32C
100
AcDbEntity
  8
0
 62
256
370
-1
 48
1.0
  6
BYLAYER
100
AcDbMText
 10
63.6767694378138742
 20
123.7811063757493741
 30
0.0
 40
1.0
 41
0.0
 71
5
 72
1
  1
\H6;X
  7
textstyle23
 50
0.0
 73
2
 44
1.0
  0
MTEXT
  5
32D
100
AcDbEntity
  8
0
 62
256
370
-1
 48
1.0
  6
BYLAYER
100
AcDbMText
 10
129.0997620522401235
 20
123.8033759999960068
 30
0.0
 40
1.0
 41
0.0
 71
5
 72
1
  1
\H6;V
  7
textstyle24
 50
0.0
 73
2
 44
1.0
  0
MTEXT
  5
32E
100
AcDbEntity
  8
0
 62
256
370
-1
 48
1.0
  6
BYLAYER
100
AcDbMText
 10
29.2314586666665264
 20
123.7878216242486502
 30
0.0
 40
1.0
 41
0.0
 71
5
 72
1
  1
\H6;Z
  7
textstyle18
 50
0.0
 73
2
 44
1.0
  0
MTEXT
  5
32F
100
AcDbEntity
  8
0
 62
256
370
-1
 48
1.0
  6
BYLAYER
100
AcDbMText
 10
94.6544512810927898
 20
123.8100912485039089
 30
0.0
 40
1.0
 41
0.0
 71
5
 72
1
  1
\H6;C
  7
textstyle19
 50
0.0
 73
2
 44
1.0
  0
MTEXT
  5
330
100
AcDbEntity
  8
0
 62
256
370
-1
 48
1.0
  6
BYLAYER
100
AcDbMText
 10
63.4112254378138687
 20
265.1216735583496984
 30
0.0
 40
1.0
 41
0.0
 71
5
 72
1
  1
\H6;W
  7
textstyle20
 50
0.0
 73
2
 44
1.0
  0
MTEXT
  5
331
100
AcDbEntity
  8
0
 62
256
370
-1
 48
1.0
  6
BYLAYER
100
AcDbMText
 10
28.9659146666665492
 20
265.1283888068488181
 30
0.0
 40
1.0
 41
0.0
 71
5
 72
1
  1
\H6;Q
  7
textstyle21
 50
0.0
 73
2
 44
1.0
  0
ENDSEC
  0
SECTION
  2
OBJECTS
  0
DICTIONARY
  5
C
100
AcDbDictionary
280
0
281
1
  3
ACAD_GROUP
350
D
  3
ACAD_LAYOUT
350
1A
  3
ACAD_MLINESTYLE
350
17
  3
ACAD_PLOTSETTINGS
350
19
  3
ACAD_PLOTSTYLENAME
350
E
  3
AcDbVariableDictionary
350
332
  3
QCAD_OBJECTS
350
333
  0
DICTIONARY
  5
D
100
AcDbDictionary
280
0
281
1
  0
ACDBDICTIONARYWDFLT
  5
E
100
AcDbDictionary
281
1
  3
Normal
350
F
100
AcDbDictionaryWithDefault
340
F
  0
ACDBPLACEHOLDER
  5
F
  0
DICTIONARY
  5
17
100
AcDbDictionary
280
0
281
1
  3
Standard
350
18
  0
MLINESTYLE
  5
18
100
AcDbMlineStyle
  2
STANDARD
 70
0
  3

 62
256
 51
90.0
 52
90.0
 71
2
 49
0.5
 62
256
  6
BYLAYER
 49
-0.5
 62
256
  6
BYLAYER
  0
DICTIONARY
  5
19
100
AcDbDictionary
280
0
281
1
  0
DICTIONARY
  5
1A
100
AcDbDictionary
281
1
  3
Layout1
350
1E
  3
Layout2
350
26
  3
Model
350
22
  0
LAYOUT
  5
1E
100
AcDbPlotSettings
  1

  2
none_device
  4

  6

 40
0.0
 41
0.0
 42
0.0
 43
0.0
 44
0.0
 45
0.0
 46
0.0
 47
0.0
 48
0.0
 49
0.0
140
0.0
141
0.0
142
1.0
143
1.0
 70
688
 72
0
 73
0
 74
5
  7

 75
16
147
1.0
148
0.0
149
0.0
100
AcDbLayout
  1
Layout1
 70
1
 71
1
 10
0.0
 20
0.0
 11
420.0
 21
297.0
 12
0.0
 22
0.0
 32
0.0
 14
100000000000000000000.0
 24
100000000000000000000.0
 34
100000000000000000000.0
 15
-100000000000000000000.0
 25
-100000000000000000000.0
 35
-100000000000000000000.0
146
0.0
 13
0.0
 23
0.0
 33
0.0
 16
1.0
 26
0.0
 36
0.0
 17
0.0
 27
1.0
 37
0.0
 76
0
330
1B
  0
LAYOUT
  5
22
100
AcDbPlotSettings
  1

  2
none_device
  4

  6

 40
0.0
 41
0.0
 42
0.0
 43
0.0
 44
0.0
 45
0.0
 46
0.0
 47
0.0
 48
0.0
 49
0.0
140
0.0
141
0.0
142
1.0
143
1.0
 70
1712
 72
0
 73
0
 74
0
  7

 75
0
147
1.0
148
0.0
149
0.0
100
AcDbLayout
  1
Model
 70
1
 71
0
 10
0.0
 20
0.0
 11
12.0
 21
9.0
 12
0.0
 22
0.0
 32
0.0
 14
0.0
 24
0.0
 34
0.0
 15
0.0
 25
0.0
 35
0.0
146
0.0
 13
0.0
 23
0.0
 33
0.0
 16
1.0
 26
0.0
 36
0.0
 17
0.0
 27
1.0
 37
0.0
 76
0
330
1F
  0
LAYOUT
  5
26
100
AcDbPlotSettings
  1

  2
none_device
  4

  6

 40
0.0
 41
0.0
 42
0.0
 43
0.0
 44
0.0
 45
0.0
 46
0.0
 47
0.0
 48
0.0
 49
0.0
140
0.0
141
0.0
142
1.0
143
1.0
 70
688
 72
0
 73
0
 74
5
  7

 75
16
147
1.0
148
0.0
149
0.0
100
AcDbLayout
  1
Layout2
 70
1
 71
2
 10
0.0
 20
0.0
 11
12.0
 21
9.0
 12
0.0
 22
0.0
 32
0.0
 14
0.0
 24
0.0
 34
0.0
 15
0.0
 25
0.0
 35
0.0
146
0.0
 13
0.0
 23
0.0
 33
0.0
 16
1.0
 26
0.0
 36
0.0
 17
0.0
 27
1.0
 37
0.0
 76
0
330
23
  0
DICTIONARY
  5
332
100
AcDbDictionary
281
1
  3
DIMASSOC
350
335
  3
HIDETEXT
350
334
  0
DICTIONARYVAR
  5
334
100
DictionaryVariables
280
0
  1
2
  0
DICTIONARYVAR
  5
335
100
DictionaryVariables
280
0
  1
1
  0
DICTIONARY
  5
333
100
AcDbDictionary
281
1
  3
ColorSettings/BackgroundColor
350
336
  3
ColorSettings/ColorMode
350
337
  3
Grid/DisplayGrid00
350
338
  3
Grid/DisplayGrid01
350
339
  3
Grid/DisplayGrid02
350
33A
  3
Grid/DisplayGrid03
350
33B
  3
Grid/GridSpacingX00
350
33C
  3
Grid/GridSpacingX01
350
33D
  3
Grid/GridSpacingX02
350
33E
  3
Grid/GridSpacingX03
350
33F
  3
Grid/GridSpacingY00
350
340
  3
Grid/GridSpacingY01
350
341
  3
Grid/GridSpacingY02
350
342
  3
Grid/GridSpacingY03
350
343
  3
Grid/IsometricGrid00
350
344
  3
Grid/IsometricGrid01
350
345
  3
Grid/IsometricGrid02
350
346
  3
Grid/IsometricGrid03
350
347
  3
Grid/IsometricProjection00
350
348
  3
Grid/IsometricProjection01
350
349
  3
Grid/IsometricProjection02
350
34A
  3
Grid/IsometricProjection03
350
34B
  3
Grid/MetaGridSpacingX00
350
34C
  3
Grid/MetaGridSpacingX01
350
34D
  3
Grid/MetaGridSpacingX02
350
34E
  3
Grid/MetaGridSpacingX03
350
34F
  3
Grid/MetaGridSpacingY00
350
350
  3
Grid/MetaGridSpacingY01
350
351
  3
Grid/MetaGridSpacingY02
350
352
  3
Grid/MetaGridSpacingY03
350
353
  3
MultiPageSettings/Columns
350
354
  3
MultiPageSettings/GlueMarginsBottom
350
355
  3
MultiPageSettings/GlueMarginsLeft
350
356
  3
MultiPageSettings/GlueMarginsRight
350
357
  3
MultiPageSettings/GlueMarginsTop
350
358
  3
MultiPageSettings/PrintCropMarks
350
359
  3
MultiPageSettings/Rows
350
35A
  3
PageSettings/OffsetX
350
35B
  3
PageSettings/OffsetY
350
35C
  3
PageSettings/PageOrientation
350
35D
  3
PageSettings/PaperHeight
350
35E
  3
PageSettings/PaperWidth
350
35F
  3
PageSettings/Scale
350
360
  3
PageSettings/ShowPaperBorders
350
361
  3
QCADVersion
350
362
  3
UnitSettings/PaperUnit
350
363
  3
ViewportCenter
350
364
  3
ViewportHeight
350
365
  3
ViewportWidth
350
366
  0
XRECORD
  5
336
330
333
100
AcDbXrecord
280
1
1000
Weiss
  0
XRECORD
  5
337
330
333
100
AcDbXrecord
280
1
1000
FullColor
  0
XRECORD
  5
338
330
333
100
AcDbXrecord
280
1
290
1
  0
XRECORD
  5
339
330
333
100
AcDbXrecord
280
1
290
1
  0
XRECORD
  5
33A
330
333
100
AcDbXrecord
280
1
290
1
  0
XRECORD
  5
33B
330
333
100
AcDbXrecord
280
1
290
1
  0
XRECORD
  5
33C
330
333
100
AcDbXrecord
280
1
1000
auto
  0
XRECORD
  5
33D
330
333
100
AcDbXrecord
280
1
1000
auto
  0
XRECORD
  5
33E
330
333
100
AcDbXrecord
280
1
1000
auto
  0
XRECORD
  5
33F
330
333
100
AcDbXrecord
280
1
1000
auto
  0
XRECORD
  5
340
330
333
100
AcDbXrecord
280
1
1000
auto
  0
XRECORD
  5
341
330
333
100
AcDbXrecord
280
1
1000
auto
  0
XRECORD
  5
342
330
333
100
AcDbXrecord
280
1
1000
auto
  0
XRECORD
  5
343
330
333
100
AcDbXrecord
280
1
1000
auto
  0
XRECORD
  5
344
330
333
100
AcDbXrecord
280
1
290
0
  0
XRECORD
  5
345
330
333
100
AcDbXrecord
280
1
290
0
  0
XRECORD
  5
346
330
333
100
AcDbXrecord
280
1
290
0
  0
XRECORD
  5
347
330
333
100
AcDbXrecord
280
1
290
0
  0
XRECORD
  5
348
330
333
100
AcDbXrecord
280
1
 90
65537
  0
XRECORD
  5
349
330
333
100
AcDbXrecord
280
1
 90
65537
  0
XRECORD
  5
34A
330
333
100
AcDbXrecord
280
1
 90
65537
  0
XRECORD
  5
34B
330
333
100
AcDbXrecord
280
1
 90
65537
  0
XRECORD
  5
34C
330
333
100
AcDbXrecord
280
1
1000
auto
  0
XRECORD
  5
34D
330
333
100
AcDbXrecord
280
1
1000
auto
  0
XRECORD
  5
34E
330
333
100
AcDbXrecord
280
1
1000
auto
  0
XRECORD
  5
34F
330
333
100
AcDbXrecord
280
1
1000
auto
  0
XRECORD
  5
350
330
333
100
AcDbXrecord
280
1
1000
auto
  0
XRECORD
  5
351
330
333
100
AcDbXrecord
280
1
1000
auto
  0
XRECORD
  5
352
330
333
100
AcDbXrecord
280
1
1000
auto
  0
XRECORD
  5
353
330
333
100
AcDbXrecord
280
1
1000
auto
  0
XRECORD
  5
354
330
333
100
AcDbXrecord
280
1
 90
1
  0
XRECORD
  5
355
330
333
100
AcDbXrecord
280
1
 40
10.0
  0
XRECORD
  5
356
330
333
100
AcDbXrecord
280
1
 40
10.0
  0
XRECORD
  5
357
330
333
100
AcDbXrecord
280
1
 40
10.0
  0
XRECORD
  5
358
330
333
100
AcDbXrecord
280
1
 40
10.0
  0
XRECORD
  5
359
330
333
100
AcDbXrecord
280
1
290
0
  0
XRECORD
  5
35A
330
333
100
AcDbXrecord
280
1
 90
1
  0
XRECORD
  5
35B
330
333
100
AcDbXrecord
280
1
 40
0.0
  0
XRECORD
  5
35C
330
333
100
AcDbXrecord
280
1
 40
0.0
  0
XRECORD
  5
35D
330
333
100
AcDbXrecord
280
1
1000
Portrait
  0
XRECORD
  5
35E
330
333
100
AcDbXrecord
280
1
 40
297.0
  0
XRECORD
  5
35F
330
333
100
AcDbXrecord
280
1
 40
210.0
  0
XRECORD
  5
360
330
333
100
AcDbXrecord
280
1
1000
1:1
  0
XRECORD
  5
361
330
333
100
AcDbXrecord
280
1
290
1
  0
XRECORD
  5
362
330
333
100
AcDbXrecord
280
1
1000
3.17.3
  0
XRECORD
  5
363
330
333
100
AcDbXrecord
280
1
 90
4
  0
XRECORD
  5
365
330
333
100
AcDbXrecord
280
1
 40
192.6263112341764554
  0
XRECORD
  5
366
330
333
100
AcDbXrecord
280
1
 40
390.8122952883546191
  0
ENDSEC
  0
EOF
