999
dxflib 3.17.0.0
  0
SECTION
  2
HEADER
  9
$ACADVER
  1
AC1015
  9
$HANDSEED
  5
FFFF
  9
$DIMADEC
 70
0
  9
$DIMASZ
 40
2.5
  9
$DIMAUNIT
 70
0
  9
$DIMAZIN
 70
2
  9
$DIMDEC
 70
2
  9
$DIMDSEP
 70
46
  9
$DIMEXE
 40
1.25
  9
$DIMEXO
 40
0.625
  9
$DIMGAP
 40
0.625
  9
$DIMLUNIT
 70
2
  9
$DIMSCALE
 40
1.0
  9
$DIMTSZ
 40
0.0
  9
$DIMTXT
 40
2.5
  9
$DIMZIN
 70
8
  9
$DWGCODEPAGE
  3
ANSI_1252
  9
$INSUNITS
 70
4
  9
$LTSCALE
 40
1.0
  9
$MAXACTVP
 70
32
  9
$MEASUREMENT
 70
1
  9
$PDMODE
 70
0
  9
$PDSIZE
 40
0
  0
ENDSEC
  0
SECTION
  2
TABLES
  0
TABLE
  2
VPORT
  5
8
100
AcDbSymbolTable
 70
1
  0
VPORT
  5
30
100
AcDbSymbolTableRecord
100
AcDbViewportTableRecord
  2
*Active
 70
0
 10
0.0
 20
0.0
 11
1.0
 21
1.0
 12
286.3055555555554861
 22
148.5
 13
0.0
 23
0.0
 14
10.0
 24
10.0
 15
10.0
 25
10.0
 16
0.0
 26
0.0
 36
1.0
 17
0.0
 27
0.0
 37
0.0
 40
297.0
 41
1.92798353909465
 42
50.0
 43
0.0
 44
0.0
 50
0.0
 51
0.0
 71
0
 72
100
 73
1
 74
3
 75
1
 76
1
 77
0
 78
0
281
0
 65
1
110
0.0
120
0.0
130
0.0
111
1.0
121
0.0
131
0.0
112
0.0
122
1.0
132
0.0
 79
0
146
0.0
  0
ENDTAB
  0
TABLE
  2
LTYPE
  5
5
100
AcDbSymbolTable
 70
41
  0
LTYPE
  5
16
100
AcDbSymbolTableRecord
100
AcDbLinetypeTableRecord
  2
Continuous
 70
0
  3
Solid line
 72
65
 73
0
 40
0.0
  0
LTYPE
  5
31
100
AcDbSymbolTableRecord
100
AcDbLinetypeTableRecord
  2
ACAD_ISO04W100
 70
0
  3
ISO long-dash dot ____ . ____ . ____ . ____ . _
 72
65
 73
4
 40
30.0
 49
24.0
 74
0
 49
-2.9500000000000002
 74
0
 49
0.1
 74
0
 49
-2.9500000000000002
 74
0
  0
LTYPE
  5
32
100
AcDbSymbolTableRecord
100
AcDbLinetypeTableRecord
  2
DASHEDX2
 70
0
  3
Dashed (2x) ____  ____  ____  ____  ____  ___
 72
65
 73
2
 40
38.0999999999999943
 49
25.3999999999999986
 74
0
 49
-12.6999999999999993
 74
0
  0
LTYPE
  5
33
100
AcDbSymbolTableRecord
100
AcDbLinetypeTableRecord
  2
PHANTOM2
 70
0
  3
Phantom (.5x) ___ _ _ ___ _ _ ___ _ _ ___ _ _
 72
65
 73
6
 40
31.7500000000000036
 49
15.875
 74
0
 49
-3.1749999999999998
 74
0
 49
3.1749999999999998
 74
0
 49
-3.1749999999999998
 74
0
 49
3.1749999999999998
 74
0
 49
-3.1749999999999998
 74
0
  0
LTYPE
  5
34
100
AcDbSymbolTableRecord
100
AcDbLinetypeTableRecord
  2
DOT2
 70
0
  3
Dot (.5x) ........................................
 72
65
 73
2
 40
3.1749999999999998
 49
0.1
 74
0
 49
-3.0749999999999997
 74
0
  0
LTYPE
  5
35
100
AcDbSymbolTableRecord
100
AcDbLinetypeTableRecord
  2
PHANTOMX2
 70
0
  3
Phantom (2x) ____________    ____    ____   _
 72
65
 73
6
 40
127.0000000000000142
 49
63.5
 74
0
 49
-12.6999999999999993
 74
0
 49
12.6999999999999993
 74
0
 49
-12.6999999999999993
 74
0
 49
12.6999999999999993
 74
0
 49
-12.6999999999999993
 74
0
  0
LTYPE
  5
36
100
AcDbSymbolTableRecord
100
AcDbLinetypeTableRecord
  2
HIDDEN
 70
0
  3
Hidden __ __ __ __ __ __ __ __ __ __ __ __ __ __
 72
65
 73
2
 40
9.5249999999999986
 49
6.3499999999999996
 74
0
 49
-3.1749999999999998
 74
0
  0
LTYPE
  5
14
100
AcDbSymbolTableRecord
100
AcDbLinetypeTableRecord
  2
BYBLOCK
 70
0
  3

 72
65
 73
0
 40
0.0
  0
LTYPE
  5
37
100
AcDbSymbolTableRecord
100
AcDbLinetypeTableRecord
  2
DASHDOTX2
 70
0
  3
Dash dot (2x) ____  .  ____  .  ____  .  ___
 72
65
 73
4
 40
50.7999999999999972
 49
25.3999999999999986
 74
0
 49
-12.6499999999999986
 74
0
 49
0.1
 74
0
 49
-12.6499999999999986
 74
0
  0
LTYPE
  5
38
100
AcDbSymbolTableRecord
100
AcDbLinetypeTableRecord
  2
ACAD_ISO07W100
 70
0
  3
ISO dot . . . . . . . . . . . . . . . . . . . . 
 72
65
 73
2
 40
3.0
 49
0.1
 74
0
 49
-2.8999999999999999
 74
0
  0
LTYPE
  5
39
100
AcDbSymbolTableRecord
100
AcDbLinetypeTableRecord
  2
DOTX2
 70
0
  3
Dot (2x) .  .  .  .  .  .  .  .  .  .  .  .  .  .
 72
65
 73
2
 40
12.6999999999999993
 49
0.1
 74
0
 49
-12.5999999999999996
 74
0
  0
LTYPE
  5
3A
100
AcDbSymbolTableRecord
100
AcDbLinetypeTableRecord
  2
ACAD_ISO09W100
 70
0
  3
ISO long-dash double-short-dash ____ __ __ ____
 72
65
 73
6
 40
45.0
 49
24.0
 74
0
 49
-3.0
 74
0
 49
6.0
 74
0
 49
-3.0
 74
0
 49
6.0
 74
0
 49
-3.0
 74
0
  0
LTYPE
  5
3B
100
AcDbSymbolTableRecord
100
AcDbLinetypeTableRecord
  2
CENTERX2
 70
0
  3
Center (2x) ________  __  ________  __  _____
 72
65
 73
4
 40
101.6000000000000085
 49
63.5
 74
0
 49
-12.6999999999999993
 74
0
 49
12.6999999999999993
 74
0
 49
-12.6999999999999993
 74
0
  0
LTYPE
  5
3C
100
AcDbSymbolTableRecord
100
AcDbLinetypeTableRecord
  2
ACAD_ISO06W100
 70
0
  3
ISO long-dash triple-dot ____ ... ____ ... ____
 72
65
 73
8
 40
36.0000000000000071
 49
24.0
 74
0
 49
-2.9500000000000002
 74
0
 49
0.1
 74
0
 49
-2.9000000000000004
 74
0
 49
0.1
 74
0
 49
-2.9000000000000004
 74
0
 49
0.1
 74
0
 49
-2.9500000000000002
 74
0
  0
LTYPE
  5
3D
100
AcDbSymbolTableRecord
100
AcDbLinetypeTableRecord
  2
DIVIDE2
 70
0
  3
Divide (.5x) __..__..__..__..__..__..__..__.._
 72
65
 73
6
 40
15.8749999999999982
 49
6.3499999999999996
 74
0
 49
-3.125
 74
0
 49
0.1
 74
0
 49
-3.0750000000000002
 74
0
 49
0.1
 74
0
 49
-3.125
 74
0
  0
LTYPE
  5
3E
100
AcDbSymbolTableRecord
100
AcDbLinetypeTableRecord
  2
DASHDOT2
 70
0
  3
Dash dot (.5x) _._._._._._._._._._._._._._._.
 72
65
 73
4
 40
12.6999999999999993
 49
6.3499999999999996
 74
0
 49
-3.125
 74
0
 49
0.1
 74
0
 49
-3.125
 74
0
  0
LTYPE
  5
3F
100
AcDbSymbolTableRecord
100
AcDbLinetypeTableRecord
  2
PHANTOM
 70
0
  3
Phantom ______  __  __  ______  __  __  ______ 
 72
65
 73
6
 40
63.5000000000000071
 49
31.75
 74
0
 49
-6.3499999999999996
 74
0
 49
6.3499999999999996
 74
0
 49
-6.3499999999999996
 74
0
 49
6.3499999999999996
 74
0
 49
-6.3499999999999996
 74
0
  0
LTYPE
  5
40
100
AcDbSymbolTableRecord
100
AcDbLinetypeTableRecord
  2
HIDDENX2
 70
0
  3
Hidden (2x) ____ ____ ____ ____ ____ ____ ____ 
 72
65
 73
2
 40
19.0499999999999972
 49
12.6999999999999993
 74
0
 49
-6.3499999999999996
 74
0
  0
LTYPE
  5
41
100
AcDbSymbolTableRecord
100
AcDbLinetypeTableRecord
  2
ACAD_ISO11W100
 70
0
  3
ISO double-dash dot __ __ . __ __ . __ __ . __ _
 72
65
 73
6
 40
33.0
 49
12.0
 74
0
 49
-3.0
 74
0
 49
12.0
 74
0
 49
-2.9500000000000002
 74
0
 49
0.1
 74
0
 49
-2.9500000000000002
 74
0
  0
LTYPE
  5
42
100
AcDbSymbolTableRecord
100
AcDbLinetypeTableRecord
  2
DASHED
 70
0
  3
Dashed __ __ __ __ __ __ __ __ __ __ __ __ __ _
 72
65
 73
2
 40
19.0499999999999972
 49
12.6999999999999993
 74
0
 49
-6.3499999999999996
 74
0
  0
LTYPE
  5
43
100
AcDbSymbolTableRecord
100
AcDbLinetypeTableRecord
  2
DIVIDE
 70
0
  3
Divide ____ . . ____ . . ____ . . ____ . . ____
 72
65
 73
6
 40
31.7500000000000036
 49
12.6999999999999993
 74
0
 49
-6.2999999999999998
 74
0
 49
0.1
 74
0
 49
-6.25
 74
0
 49
0.1
 74
0
 49
-6.2999999999999998
 74
0
  0
LTYPE
  5
44
100
AcDbSymbolTableRecord
100
AcDbLinetypeTableRecord
  2
ACAD_ISO08W100
 70
0
  3
ISO long-dash short-dash ____ __ ____ __ ____ _
 72
65
 73
4
 40
36.0
 49
24.0
 74
0
 49
-3.0
 74
0
 49
6.0
 74
0
 49
-3.0
 74
0
  0
LTYPE
  5
45
100
AcDbSymbolTableRecord
100
AcDbLinetypeTableRecord
  2
DOT
 70
0
  3
Dot . . . . . . . . . . . . . . . . . . . . . . . .
 72
65
 73
2
 40
6.3499999999999996
 49
0.1
 74
0
 49
-6.25
 74
0
  0
LTYPE
  5
46
100
AcDbSymbolTableRecord
100
AcDbLinetypeTableRecord
  2
ACAD_ISO12W100
 70
0
  3
ISO dash double-dot __ . . __ . . __ . . __ . . 
 72
65
 73
6
 40
21.0
 49
12.0
 74
0
 49
-2.9500000000000002
 74
0
 49
0.1
 74
0
 49
-2.9000000000000004
 74
0
 49
0.1
 74
0
 49
-2.9500000000000002
 74
0
  0
LTYPE
  5
47
100
AcDbSymbolTableRecord
100
AcDbLinetypeTableRecord
  2
CENTER2
 70
0
  3
Center (.5x) ___ _ ___ _ ___ _ ___ _ ___ _ ___
 72
65
 73
4
 40
28.5750000000000028
 49
19.0500000000000007
 74
0
 49
-3.1749999999999998
 74
0
 49
3.1749999999999998
 74
0
 49
-3.1749999999999998
 74
0
  0
LTYPE
  5
48
100
AcDbSymbolTableRecord
100
AcDbLinetypeTableRecord
  2
ACAD_ISO15W100
 70
0
  3
ISO double-dash triple-dot __ __ . . . __ __ . .
 72
65
 73
10
 40
39.0000000000000071
 49
12.0
 74
0
 49
-3.0
 74
0
 49
12.0
 74
0
 49
-2.9500000000000002
 74
0
 49
0.1
 74
0
 49
-2.9000000000000004
 74
0
 49
0.1
 74
0
 49
-2.9000000000000004
 74
0
 49
0.1
 74
0
 49
-2.9500000000000002
 74
0
  0
LTYPE
  5
49
100
AcDbSymbolTableRecord
100
AcDbLinetypeTableRecord
  2
ACAD_ISO13W100
 70
0
  3
ISO double-dash double-dot __ __ . . __ __ . . _
 72
65
 73
8
 40
36.0000000000000071
 49
12.0
 74
0
 49
-3.0
 74
0
 49
12.0
 74
0
 49
-2.9500000000000002
 74
0
 49
0.1
 74
0
 49
-2.9000000000000004
 74
0
 49
0.1
 74
0
 49
-2.9500000000000002
 74
0
  0
LTYPE
  5
15
100
AcDbSymbolTableRecord
100
AcDbLinetypeTableRecord
  2
BYLAYER
 70
0
  3

 72
65
 73
0
 40
0.0
  0
LTYPE
  5
4A
100
AcDbSymbolTableRecord
100
AcDbLinetypeTableRecord
  2
DASHED2
 70
0
  3
Dashed (.5x) _ _ _ _ _ _ _ _ _ _ _ _ _ _ _ _ _ 
 72
65
 73
2
 40
9.5249999999999986
 49
6.3499999999999996
 74
0
 49
-3.1749999999999998
 74
0
  0
LTYPE
  5
4B
100
AcDbSymbolTableRecord
100
AcDbLinetypeTableRecord
  2
ACAD_ISO14W100
 70
0
  3
ISO dash triple-dot __ . . . __ . . . __ . . . _
 72
65
 73
8
 40
24.0000000000000036
 49
12.0
 74
0
 49
-2.9500000000000002
 74
0
 49
0.1
 74
0
 49
-2.9000000000000004
 74
0
 49
0.1
 74
0
 49
-2.9000000000000004
 74
0
 49
0.1
 74
0
 49
-2.9500000000000002
 74
0
  0
LTYPE
  5
4C
100
AcDbSymbolTableRecord
100
AcDbLinetypeTableRecord
  2
BORDERX2
 70
0
  3
Border (2x) ____  ____  .  ____  ____  .  ___
 72
65
 73
6
 40
88.8999999999999773
 49
25.3999999999999986
 74
0
 49
-12.6999999999999993
 74
0
 49
25.3999999999999986
 74
0
 49
-12.6499999999999986
 74
0
 49
0.1
 74
0
 49
-12.6499999999999986
 74
0
  0
LTYPE
  5
4D
100
AcDbSymbolTableRecord
100
AcDbLinetypeTableRecord
  2
BORDER
 70
0
  3
Border __ __ . __ __ . __ __ . __ __ . __ __ .
 72
65
 73
6
 40
44.4499999999999957
 49
12.6999999999999993
 74
0
 49
-6.3499999999999996
 74
0
 49
12.6999999999999993
 74
0
 49
-6.2999999999999998
 74
0
 49
0.1
 74
0
 49
-6.2999999999999998
 74
0
  0
LTYPE
  5
4E
100
AcDbSymbolTableRecord
100
AcDbLinetypeTableRecord
  2
DASHDOT
 70
0
  3
Dash dot __ . __ . __ . __ . __ . __ . __ . __
 72
65
 73
4
 40
25.4000000000000021
 49
12.6999999999999993
 74
0
 49
-6.2999999999999998
 74
0
 49
0.1
 74
0
 49
-6.2999999999999998
 74
0
  0
LTYPE
  5
4F
100
AcDbSymbolTableRecord
100
AcDbLinetypeTableRecord
  2
ACAD_ISO02W100
 70
0
  3
ISO dash __ __ __ __ __ __ __ __ __ __ __ __ __
 72
65
 73
2
 40
15.0
 49
12.0
 74
0
 49
-3.0
 74
0
  0
LTYPE
  5
50
100
AcDbSymbolTableRecord
100
AcDbLinetypeTableRecord
  2
ACAD_ISO05W100
 70
0
  3
ISO long-dash double-dot ____ .. ____ .. ____ . 
 72
65
 73
6
 40
33.0000000000000071
 49
24.0
 74
0
 49
-2.9500000000000002
 74
0
 49
0.1
 74
0
 49
-2.9000000000000004
 74
0
 49
0.1
 74
0
 49
-2.9500000000000002
 74
0
  0
LTYPE
  5
51
100
AcDbSymbolTableRecord
100
AcDbLinetypeTableRecord
  2
ACAD_ISO03W100
 70
0
  3
ISO dash space __    __    __    __    __    __
 72
65
 73
2
 40
30.0
 49
12.0
 74
0
 49
-18.0
 74
0
  0
LTYPE
  5
52
100
AcDbSymbolTableRecord
100
AcDbLinetypeTableRecord
  2
ACAD_ISO10W100
 70
0
  3
ISO dash dot __ . __ . __ . __ . __ . __ . __ . 
 72
65
 73
4
 40
18.0
 49
12.0
 74
0
 49
-2.9500000000000002
 74
0
 49
0.1
 74
0
 49
-2.9500000000000002
 74
0
  0
LTYPE
  5
53
100
AcDbSymbolTableRecord
100
AcDbLinetypeTableRecord
  2
DIVIDEX2
 70
0
  3
Divide (2x) ________  .  .  ________  .  .  _
 72
65
 73
6
 40
63.5
 49
25.3999999999999986
 74
0
 49
-12.6499999999999986
 74
0
 49
0.1
 74
0
 49
-12.5999999999999979
 74
0
 49
0.1
 74
0
 49
-12.6499999999999986
 74
0
  0
LTYPE
  5
54
100
AcDbSymbolTableRecord
100
AcDbLinetypeTableRecord
  2
BORDER2
 70
0
  3
Border (.5x) __.__.__.__.__.__.__.__.__.__.__.
 72
65
 73
6
 40
22.2250000000000014
 49
6.3499999999999996
 74
0
 49
-3.1749999999999998
 74
0
 49
6.3499999999999996
 74
0
 49
-3.125
 74
0
 49
0.1
 74
0
 49
-3.125
 74
0
  0
LTYPE
  5
55
100
AcDbSymbolTableRecord
100
AcDbLinetypeTableRecord
  2
CENTER
 70
0
  3
Center ____ _ ____ _ ____ _ ____ _ ____ _ ____
 72
65
 73
4
 40
50.8000000000000043
 49
31.75
 74
0
 49
-6.3499999999999996
 74
0
 49
6.3499999999999996
 74
0
 49
-6.3499999999999996
 74
0
  0
LTYPE
  5
56
100
AcDbSymbolTableRecord
100
AcDbLinetypeTableRecord
  2
HIDDEN2
 70
0
  3
Hidden (.5x) _ _ _ _ _ _ _ _ _ _ _ _ _ _ _ _ _ 
 72
65
 73
2
 40
4.7624999999999993
 49
3.1749999999999998
 74
0
 49
-1.5874999999999999
 74
0
  0
ENDTAB
  0
TABLE
  2
LAYER
  5
2
100
AcDbSymbolTable
 70
1
  0
LAYER
  5
10
100
AcDbSymbolTableRecord
100
AcDbLayerTableRecord
  2
0
 70
0
 62
7
420
0
  6
Continuous
370
25
390
F
  0
ENDTAB
  0
TABLE
  2
STYLE
  5
3
100
AcDbSymbolTable
 70
3
  0
STYLE
  5
57
100
AcDbSymbolTableRecord
100
AcDbTextStyleTableRecord
  2
Standard
 70
0
 40
0.0
 41
1.0
 50
0.0
 71
0
 42
2.5
  3

  4

1001
ACAD
1000
txt
1071
0
  0
STYLE
  5
58
100
AcDbSymbolTableRecord
100
AcDbTextStyleTableRecord
  2
textstyle0
 70
0
 40
0.0
 41
1.0
 50
0.0
 71
0
 42
1.0
  3

  4

1001
ACAD
1000
Arial
1071
0
  0
STYLE
  5
59
100
AcDbSymbolTableRecord
100
AcDbTextStyleTableRecord
  2
textstyle1
 70
0
 40
0.0
 41
1.0
 50
0.0
 71
0
 42
1.0
  3

  4

1001
ACAD
1000
Arial
1071
0
  0
ENDTAB
  0
TABLE
  2
VIEW
  5
6
100
AcDbSymbolTable
 70
0
  0
ENDTAB
  0
TABLE
  2
UCS
  5
7
100
AcDbSymbolTable
 70
0
  0
ENDTAB
  0
TABLE
  2
APPID
  5
9
100
AcDbSymbolTable
 70
1
  0
APPID
  5
12
100
AcDbSymbolTableRecord
100
AcDbRegAppTableRecord
  2
ACAD
 70
0
  0
APPID
  5
5A
100
AcDbSymbolTableRecord
100
AcDbRegAppTableRecord
  2
QCAD
 70
0
  0
ENDTAB
  0
TABLE
  2
DIMSTYLE
  5
A
100
AcDbSymbolTable
 70
1
100
AcDbDimStyleTable
 71
0
  0
DIMSTYLE
105
27
100
AcDbSymbolTableRecord
100
AcDbDimStyleTableRecord
  2
Standard
 41
2.5
 42
0.625
 43
3.75
 44
1.25
 70
0
 73
0
 74
0
 77
1
 78
8
140
2.5
141
2.5
143
0.03937007874016
147
0.625
171
3
172
1
271
2
272
2
274
3
278
44
283
0
284
8
340
57
  0
ENDTAB
  0
TABLE
  2
BLOCK_RECORD
  5
1
100
AcDbSymbolTable
 70
1
  0
BLOCK_RECORD
  5
1F
100
AcDbSymbolTableRecord
100
AcDbBlockTableRecord
  2
*Model_Space
340
22
  0
BLOCK_RECORD
  5
1B
100
AcDbSymbolTableRecord
100
AcDbBlockTableRecord
  2
*Paper_Space
340
1E
  0
BLOCK_RECORD
  5
23
100
AcDbSymbolTableRecord
100
AcDbBlockTableRecord
  2
*Paper_Space0
340
26
  0
ENDTAB
  0
ENDSEC
  0
SECTION
  2
BLOCKS
  0
BLOCK
  5
20
100
AcDbEntity
  8
0
100
AcDbBlockBegin
  2
*Model_Space
 70
0
 10
0.0
 20
0.0
 30
0.0
  3
*Model_Space
  1

  0
ENDBLK
  5
21
100
AcDbEntity
  8
0
100
AcDbBlockEnd
  0
BLOCK
  5
1C
100
AcDbEntity
 67
1
  8
0
100
AcDbBlockBegin
  2
*Paper_Space
 70
0
 10
0.0
 20
0.0
 30
0.0
  3
*Paper_Space
  1

  0
ENDBLK
  5
1D
100
AcDbEntity
 67
1
  8
0
100
AcDbBlockEnd
  0
BLOCK
  5
24
100
AcDbEntity
  8
0
100
AcDbBlockBegin
  2
*Paper_Space0
 70
0
 10
0.0
 20
0.0
 30
0.0
  3
*Paper_Space0
  1

  0
ENDBLK
  5
25
100
AcDbEntity
  8
0
100
AcDbBlockEnd
  0
ENDSEC
  0
SECTION
  2
ENTITIES
  0
MTEXT
  5
5B
100
AcDbEntity
  8
0
 62
256
370
-1
 48
1.0
  6
BYLAYER
100
AcDbMText
 10
151.6192436706872968
 20
223.5897520581635831
 30
0.0
 40
1.0
 41
0.0
 71
1
 72
1
  1
V0.3\P\fArial|b1|i0|c0|p0;2U\fArial|b0|i0|c0|p0;\P13.11.2017/cg\P
  7
textstyle1
 50
0.0
 73
2
 44
1.0
  0
MTEXT
  5
5C
100
AcDbEntity
  8
0
 62
256
370
-1
 48
1.0
  6
BYLAYER
100
AcDbMText
 10
41.0767011798090493
 20
223.470446410955077
 30
0.0
 40
1.0
 41
0.0
 71
1
 72
1
  1
V1.1  \P\fArial|b1|i0|c0|p0;1U\fArial|b0|i0|c0|p0;\P12.11.17 /cg\PFinal
  7
textstyle0
 50
0.0
 73
2
 44
1.0
  0
LINE
  5
5D
100
AcDbEntity
  8
0
 62
256
370
-1
 48
1.0
  6
BYLAYER
100
AcDbLine
 10
150.469807453108217
 20
224.9336951733373269
 30
0.0
 11
170.61527752864842
 21
224.9336951733372985
 31
0.0
  0
LINE
  5
5E
100
AcDbEntity
  8
0
 62
256
370
-1
 48
1.0
  6
BYLAYER
100
AcDbLine
 10
39.9272649622298843
 20
224.8143895261288492
 30
0.0
 11
60.0727350377701157
 21
224.8143895261288208
 31
0.0
  0
LINE
  5
5F
100
AcDbEntity
  8
0
 62
256
370
-1
 48
1.0
  6
BYLAYER
100
AcDbLine
 10
170.6152775286483632
 20
224.9336951733372985
 30
0.0
 11
170.61527752864842
 21
215.3049161210796569
 31
0.0
  0
LINE
  5
60
100
AcDbEntity
  8
0
 62
256
370
-1
 48
1.0
  6
BYLAYER
100
AcDbLine
 10
60.0727350377700589
 20
224.8143895261288208
 30
0.0
 11
60.0727350377701157
 21
215.1856104738711792
 31
0.0
  0
LINE
  5
61
100
AcDbEntity
  8
0
 62
256
370
-1
 48
1.0
  6
BYLAYER
100
AcDbLine
 10
170.61527752864842
 20
215.3049161210796854
 30
0.0
 11
150.469807453108217
 21
215.3049161210796569
 31
0.0
  0
LINE
  5
62
100
AcDbEntity
  8
0
 62
256
370
-1
 48
1.0
  6
BYLAYER
100
AcDbLine
 10
60.0727350377701157
 20
215.1856104738712077
 30
0.0
 11
39.9272649622298843
 21
215.1856104738711792
 31
0.0
  0
LINE
  5
63
100
AcDbEntity
  8
0
 62
256
370
-1
 48
1.0
  6
BYLAYER
100
AcDbLine
 10
150.469807453108217
 20
215.3049161210796569
 30
0.0
 11
150.469807453108217
 21
224.9336951733373269
 31
0.0
  0
LINE
  5
64
100
AcDbEntity
  8
0
 62
256
370
-1
 48
1.0
  6
BYLAYER
100
AcDbLine
 10
39.9272649622298843
 20
215.1856104738711792
 30
0.0
 11
39.9272649622298843
 21
224.8143895261288492
 31
0.0
  0
LINE
  5
65
100
AcDbEntity
  8
0
 62
7
420
0
370
-1
 48
1.0
  6
BYLAYER
100
AcDbLine
 10
154.3753648507029936
 20
262.1000000000000796
 30
0.0
 11
154.3753648507029936
 21
249.6000000000000227
 31
0.0
  0
LINE
  5
66
100
AcDbEntity
  8
0
 62
7
420
0
370
-1
 48
1.0
  6
BYLAYER
100
AcDbLine
 10
122.8753648507029794
 20
249.5999999999999943
 30
0.0
 11
122.8753648507029794
 21
262.1000000000000227
 31
0.0
  0
LINE
  5
67
100
AcDbEntity
  8
0
 62
7
420
0
370
-1
 48
1.0
  6
BYLAYER
100
AcDbLine
 10
122.8753648507029794
 20
262.1000000000000227
 30
0.0
 11
154.3753648507029652
 21
262.1000000000000227
 31
0.0
  0
LINE
  5
68
100
AcDbEntity
  8
0
 62
7
420
0
370
-1
 48
1.0
  6
BYLAYER
100
AcDbLine
 10
154.3753648507029652
 20
262.1000000000000227
 30
0.0
 11
154.3753648507030789
 21
249.5999999999999943
 31
0.0
  0
LINE
  5
69
100
AcDbEntity
  8
0
 62
7
420
0
370
-1
 48
1.0
  6
BYLAYER
100
AcDbLine
 10
154.3753648507030789
 20
249.5999999999999943
 30
0.0
 11
122.8753648507030789
 21
249.5999999999999943
 31
0.0
  0
LINE
  5
6A
100
AcDbEntity
  8
0
 62
7
420
0
370
-1
 48
1.0
  6
BYLAYER
100
AcDbLine
 10
162.2753648507030277
 20
264.6668656002399871
 30
0.0
 11
162.2753648507030277
 21
241.1500000000000341
 31
0.0
  0
LINE
  5
6B
100
AcDbEntity
  8
0
 62
7
420
0
370
-1
 48
1.0
  6
BYLAYER
100
AcDbLine
 10
114.9753648507029737
 20
247.0331343997600584
 30
0.0
 11
114.9753648507029737
 21
270.5500000000000114
 31
0.0
  0
LINE
  5
6C
100
AcDbEntity
  8
0
 62
7
420
0
370
-1
 48
1.0
  6
BYLAYER
100
AcDbLine
 10
120.3084992504630719
 20
270.0000000000001137
 30
0.0
 11
162.8470776598978205
 21
270.0
 31
0.0
  0
LINE
  5
6D
100
AcDbEntity
  8
0
 62
7
420
0
370
-1
 48
1.0
  6
BYLAYER
100
AcDbLine
 10
156.942230450942958
 20
241.6999999999999886
 30
0.0
 11
114.3999999999999915
 21
241.6999999999999886
 31
0.0
  0
LINE
  5
6E
100
AcDbEntity
  8
0
 62
1
420
16711680
370
-1
 48
1.0
  6
ACAD_ISO10W100
100
AcDbLine
 10
122.8753648507029794
 20
249.5999999999999943
 30
0.0
 11
119.1671609182036065
 21
238.1873218044581506
 31
0.0
  0
LINE
  5
6F
100
AcDbEntity
  8
0
 62
7
420
0
370
-1
 48
1.0
  6
BYLAYER
100
AcDbLine
 10
122.8753648507029794
 20
249.5999999999999943
 30
0.0
 11
114.9753648507029737
 21
247.03313439976003
 31
0.0
  0
LINE
  5
70
100
AcDbEntity
  8
0
 62
7
420
0
370
-1
 48
1.0
  6
BYLAYER
100
AcDbLine
 10
154.3753648507029936
 20
262.1000000000000796
 30
0.0
 11
162.2753648507030277
 21
264.6668656002399871
 31
0.0
  0
LINE
  5
71
100
AcDbEntity
  8
0
 62
1
420
16711680
370
-1
 48
1.0
  6
ACAD_ISO10W100
100
AcDbLine
 10
122.8753648507029794
 20
262.1000000000000227
 30
0.0
 11
111.4626866551611499
 21
265.8082039324993957
 31
0.0
  0
LINE
  5
72
100
AcDbEntity
  8
0
 62
1
420
16711680
370
-1
 48
1.0
  6
ACAD_ISO10W100
100
AcDbLine
 10
154.3753648507029936
 20
249.6000000000000227
 30
0.0
 11
165.7880430462448373
 21
245.8917960675006498
 31
0.0
  0
LINE
  5
73
100
AcDbEntity
  8
0
 62
7
420
0
370
-1
 48
1.0
  6
BYLAYER
100
AcDbLine
 10
122.8753648507030078
 20
262.1000000000000227
 30
0.0
 11
120.2774576185270661
 21
270.0955363195764676
 31
0.0
  0
LINE
  5
74
100
AcDbEntity
  8
0
 62
1
420
16711680
370
-1
 48
1.0
  6
ACAD_ISO10W100
100
AcDbLine
 10
154.3753648507029652
 20
262.1000000000000796
 30
0.0
 11
158.0835687832023382
 21
273.5126781955419233
 31
0.0
  0
LINE
  5
75
100
AcDbEntity
  8
0
 62
7
420
0
370
-1
 48
1.0
  6
BYLAYER
100
AcDbLine
 10
154.3753648507030789
 20
249.5999999999999659
 30
0.0
 11
156.9422304509430148
 21
241.7000000000000171
 31
0.0
  0
LINE
  5
76
100
AcDbEntity
  8
0
 62
256
370
-1
 48
1.0
  6
BYLAYER
100
AcDbLine
 10
122.8753648507030078
 20
249.5999999999999943
 30
0.0
 11
114.4036520415080247
 21
241.7000000000000171
 31
0.0
  0
LINE
  5
77
100
AcDbEntity
  8
0
 62
256
370
-1
 48
1.0
  6
BYLAYER
100
AcDbLine
 10
122.8753648507030363
 20
262.0999999999999659
 30
0.0
 11
114.9861883456071041
 21
270.5601060319267503
 31
0.0
  0
LINE
  5
78
100
AcDbEntity
  8
0
 62
256
370
-1
 48
1.0
  6
BYLAYER
100
AcDbLine
 10
154.3753648507029368
 20
249.6000000000000796
 30
0.0
 11
162.2645413557988832
 21
241.1398939680732951
 31
0.0
  0
LINE
  5
79
100
AcDbEntity
  8
0
 62
256
370
-1
 48
1.0
  6
BYLAYER
100
AcDbLine
 10
154.3753648507029652
 20
262.1000000000000796
 30
0.0
 11
162.8470776598978205
 21
270.0
 31
0.0
  0
DIMENSION
  5
7A
100
AcDbEntity
  8
0
 62
256
370
-1
 48
1.0
  6
BYLAYER
100
AcDbDimension
 10
120.3084992504630151
 20
274.3786821597417429
 30
0.0
 11
141.5777884551804107
 21
276.2536821597417429
 31
0.0
 70
0
 71
8
 72
2
 41
1.0
 42
0.0
  1

  3
Standard
100
AcDbAlignedDimension
 13
120.3084992504630151
 23
270.0000000000001137
 33
0.0
 14
162.8470776598978205
 24
270.0
 34
0.0
 50
0.0
100
AcDbRotatedDimension
1001
ACAD
1000
DSTYLE
1002
{
1070
144
1040
1.0
1070
40
1040
1.0
1002
}
  0
DIMENSION
  5
7B
100
AcDbEntity
  8
0
 62
256
370
-1
 48
1.0
  6
BYLAYER
100
AcDbDimension
 10
114.4036520415079679
 20
237.3786821597416576
 30
0.0
 11
135.6729412462254629
 21
239.2536821597416576
 31
0.0
 70
0
 71
8
 72
2
 41
1.0
 42
0.0
  1

  3
Standard
100
AcDbAlignedDimension
 13
114.4036520415079679
 23
241.7000000000000171
 33
0.0
 14
156.942230450942958
 24
241.6999999999999602
 34
0.0
 50
0.0
100
AcDbRotatedDimension
1001
ACAD
1000
DSTYLE
1002
{
1070
144
1040
1.0
1070
40
1040
1.0
1002
}
  0
DIMENSION
  5
7C
100
AcDbEntity
  8
0
 62
256
370
-1
 48
1.0
  6
BYLAYER
100
AcDbDimension
 10
166.206835375909435
 20
264.6668656002400439
 30
0.0
 11
164.331835375909435
 21
252.908432800120039
 31
0.0
 70
0
 71
8
 72
2
 41
1.0
 42
0.0
  1

  3
Standard
100
AcDbAlignedDimension
 13
162.2753648507029993
 23
264.6668656002400439
 33
0.0
 14
162.2753648507029709
 24
241.1500000000000341
 34
0.0
 50
270.0
100
AcDbRotatedDimension
1001
ACAD
1000
DSTYLE
1002
{
1070
144
1040
1.0
1070
40
1040
1.0
1002
}
  0
DIMENSION
  5
7D
100
AcDbEntity
  8
0
 62
256
370
-1
 48
1.0
  6
BYLAYER
100
AcDbDimension
 10
111.0438943254965523
 20
247.0331343997600015
 30
0.0
 11
109.1688943254965523
 21
258.791567199879978
 31
0.0
 70
0
 71
8
 72
2
 41
1.0
 42
0.0
  1

  3
Standard
100
AcDbAlignedDimension
 13
114.9753648507029737
 23
247.0331343997600015
 33
0.0
 14
114.9753648507030022
 24
270.5500000000000114
 34
0.0
 50
90.0
100
AcDbRotatedDimension
1001
ACAD
1000
DSTYLE
1002
{
1070
144
1040
1.0
1070
40
1040
1.0
1002
}
  0
DIMENSION
  5
7E
100
AcDbEntity
  8
0
 62
256
370
-1
 48
1.0
  6
BYLAYER
100
AcDbDimension
 10
126.7516591703817284
 20
262.0999999999999659
 30
0.0
 11
124.6642441006462434
 21
254.6357036527642492
 31
0.0
 70
128
 71
8
 72
2
 41
1.0
 42
0.0
  1

  3
Standard
100
AcDbAlignedDimension
 13
122.8753648507030078
 23
262.1000000000000227
 33
0.0
 14
122.8753648507029652
 24
249.6000000000000227
 34
0.0
 50
90.0
100
AcDbRotatedDimension
1001
ACAD
1000
DSTYLE
1002
{
1070
144
1040
1.0
1070
40
1040
1.0
1002
}
  0
DIMENSION
  5
7F
100
AcDbEntity
  8
0
 62
256
370
-1
 48
1.0
  6
BYLAYER
100
AcDbDimension
 10
126.7516591703817284
 20
249.5999999999999659
 30
0.0
 11
124.8766591703817284
 21
245.6499999999999773
 31
0.0
 70
0
 71
8
 72
2
 41
1.0
 42
0.0
  1

  3
Standard
100
AcDbAlignedDimension
 13
122.8753648507030931
 23
249.5999999999999659
 33
0.0
 14
122.8753648507030078
 24
241.7000000000000171
 34
0.0
 50
90.0
100
AcDbRotatedDimension
1001
ACAD
1000
DSTYLE
1002
{
1070
144
1040
1.0
1070
40
1040
1.0
1002
}
  0
DIMENSION
  5
80
100
AcDbEntity
  8
0
 62
256
370
-1
 48
1.0
  6
BYLAYER
100
AcDbDimension
 10
154.3753648507030505
 20
253.0999999999999659
 30
0.0
 11
158.3253648507029823
 21
254.9749999999999659
 31
0.0
 70
0
 71
8
 72
2
 41
1.0
 42
0.0
  1

  3
Standard
100
AcDbAlignedDimension
 13
154.3753648507029936
 23
249.5999999999999659
 33
0.0
 14
162.2753648507029709
 24
249.5999999999999659
 34
0.0
 50
180.0
100
AcDbRotatedDimension
1001
ACAD
1000
DSTYLE
1002
{
1070
144
1040
1.0
1070
40
1040
1.0
1002
}
  0
DIMENSION
  5
81
100
AcDbEntity
  8
0
 62
256
370
-1
 48
1.0
  6
BYLAYER
100
AcDbDimension
 10
122.8753648507029368
 20
258.6000000000000227
 30
0.0
 11
118.9253648507029766
 21
260.4750000000000227
 31
0.0
 70
0
 71
8
 72
2
 41
1.0
 42
0.0
  1

  3
Standard
100
AcDbAlignedDimension
 13
122.8753648507029652
 23
262.1000000000000796
 33
0.0
 14
114.975364850702988
 24
262.1000000000001364
 34
0.0
 50
0.0
100
AcDbRotatedDimension
1001
ACAD
1000
DSTYLE
1002
{
1070
144
1040
1.0
1070
40
1040
1.0
1002
}
  0
DIMENSION
  5
82
100
AcDbEntity
  8
0
 62
256
370
-1
 48
1.0
  6
BYLAYER
100
AcDbDimension
 10
122.8753648507029652
 20
258.5267674960781505
 30
0.0
 11
138.6253648507029652
 21
260.4017674960781505
 31
0.0
 70
0
 71
8
 72
2
 41
1.0
 42
0.0
  1

  3
Standard
100
AcDbAlignedDimension
 13
122.8753648507029652
 23
262.1000000000000796
 33
0.0
 14
154.3753648507029368
 24
262.1000000000000227
 34
0.0
 50
0.0
100
AcDbRotatedDimension
1001
ACAD
1000
DSTYLE
1002
{
1070
144
1040
1.0
1070
40
1040
1.0
1002
}
  0
LINE
  5
83
100
AcDbEntity
  8
0
 62
256
370
-1
 48
1.0
  6
BYLAYER
100
AcDbLine
 10
122.8753648507029794
 20
262.1000000000000227
 30
0.0
 11
147.8753648507029652
 21
262.1000000000000227
 31
0.0
  0
LINE
  5
84
100
AcDbEntity
  8
0
 62
256
370
-1
 48
1.0
  6
BYLAYER
100
AcDbLine
 10
122.8753648507029794
 20
262.1000000000000227
 30
0.0
 11
147.8753648507029652
 21
262.1000000000000227
 31
0.0
  0
LINE
  5
85
100
AcDbEntity
  8
0
 62
256
370
-1
 48
1.0
  6
BYLAYER
100
AcDbLine
 10
122.8753648507029794
 20
262.1000000000000227
 30
0.0
 11
147.8753648507029652
 21
262.1000000000000227
 31
0.0
  0
LINE
  5
86
100
AcDbEntity
  8
0
 62
256
370
-1
 48
1.0
  6
BYLAYER
100
AcDbLine
 10
122.8753648507029794
 20
262.1000000000000227
 30
0.0
 11
147.8753648507029652
 21
262.1000000000000227
 31
0.0
  0
LINE
  5
87
100
AcDbEntity
  8
0
 62
256
370
-1
 48
1.0
  6
BYLAYER
100
AcDbLine
 10
122.8753648507029794
 20
262.1000000000000227
 30
0.0
 11
147.8753648507029652
 21
262.1000000000000227
 31
0.0
  0
LINE
  5
88
100
AcDbEntity
  8
0
 62
256
370
-1
 48
1.0
  6
BYLAYER
100
AcDbLine
 10
122.8753648507029794
 20
262.1000000000000227
 30
0.0
 11
147.8753648507029652
 21
262.1000000000000227
 31
0.0
  0
LINE
  5
89
100
AcDbEntity
  8
0
 62
7
420
0
370
-1
 48
1.0
  6
BYLAYER
100
AcDbLine
 10
32.5668656002399359
 20
249.5999999999999659
 30
0.0
 11
32.5668656002399359
 21
262.0999999999999659
 31
0.0
  0
LINE
  5
8A
100
AcDbEntity
  8
0
 62
7
420
0
370
-1
 48
1.0
  6
BYLAYER
100
AcDbLine
 10
32.5668656002399359
 20
262.0999999999999659
 30
0.0
 11
45.0668656002399359
 21
262.0999999999999659
 31
0.0
  0
LINE
  5
8B
100
AcDbEntity
  8
0
 62
7
420
0
370
-1
 48
1.0
  6
BYLAYER
100
AcDbLine
 10
45.0668656002399359
 20
262.0999999999999659
 30
0.0
 11
45.0668656002399359
 21
249.5999999999999659
 31
0.0
  0
LINE
  5
8C
100
AcDbEntity
  8
0
 62
7
420
0
370
-1
 48
1.0
  6
BYLAYER
100
AcDbLine
 10
45.0668656002399359
 20
249.5999999999999659
 30
0.0
 11
32.5668656002399359
 21
249.5999999999999659
 31
0.0
  0
LINE
  5
8D
100
AcDbEntity
  8
0
 62
7
420
0
370
-1
 48
1.0
  6
BYLAYER
100
AcDbLine
 10
24.666865600239916
 20
247.0331343997600015
 30
0.0
 11
24.6668656002399302
 21
270.5499999999999545
 31
0.0
  0
LINE
  5
8E
100
AcDbEntity
  8
0
 62
7
420
0
370
-1
 48
1.0
  6
BYLAYER
100
AcDbLine
 10
52.9668656002399274
 20
264.6668656002399302
 30
0.0
 11
52.9668656002399416
 21
241.1499999999999773
 31
0.0
  0
LINE
  5
8F
100
AcDbEntity
  8
0
 62
7
420
0
370
-1
 48
1.0
  6
BYLAYER
100
AcDbLine
 10
29.9999999999999858
 20
270.0
 30
0.0
 11
53.5399999999999991
 21
270.0
 31
0.0
  0
LINE
  5
90
100
AcDbEntity
  8
0
 62
7
420
0
370
-1
 48
1.0
  6
BYLAYER
100
AcDbLine
 10
47.6337312004799003
 20
241.6999999999999602
 30
0.0
 11
24.1168656002399473
 21
241.6999999999999886
 31
0.0
  0
LINE
  5
91
100
AcDbEntity
  8
0
 62
1
420
16711680
370
-1
 48
1.0
  6
ACAD_ISO10W100
100
AcDbLine
 10
32.5668656002399359
 20
249.5999999999999943
 30
0.0
 11
28.858661667740563
 21
238.1873218044581506
 31
0.0
  0
LINE
  5
92
100
AcDbEntity
  8
0
 62
7
420
0
370
-1
 48
1.0
  6
BYLAYER
100
AcDbLine
 10
32.5668656002399359
 20
249.5999999999999659
 30
0.0
 11
24.6668656002399125
 21
247.0331343997599447
 31
0.0
  0
LINE
  5
93
100
AcDbEntity
  8
0
 62
1
420
16711680
370
-1
 48
1.0
  6
ACAD_ISO10W100
100
AcDbLine
 10
32.5668656002399359
 20
262.0999999999999659
 30
0.0
 11
21.1541874046980922
 21
265.8082039324993389
 31
0.0
  0
LINE
  5
94
100
AcDbEntity
  8
0
 62
7
420
0
370
-1
 48
1.0
  6
BYLAYER
100
AcDbLine
 10
32.5668656002399644
 20
262.0999999999999659
 30
0.0
 11
29.9689583680640084
 21
270.0955363195764676
 31
0.0
  0
LINE
  5
95
100
AcDbEntity
  8
0
 62
1
420
16711680
370
-1
 48
1.0
  6
ACAD_ISO10W100
100
AcDbLine
 10
45.0668656002399359
 20
262.0999999999999659
 30
0.0
 11
48.7750695327393089
 21
273.5126781955418664
 31
0.0
  0
LINE
  5
96
100
AcDbEntity
  8
0
 62
7
420
0
370
-1
 48
1.0
  6
BYLAYER
100
AcDbLine
 10
45.0668656002399359
 20
262.0999999999999659
 30
0.0
 11
53.0624019198164234
 21
264.6979072321759077
 31
0.0
  0
LINE
  5
97
100
AcDbEntity
  8
0
 62
1
420
16711680
370
-1
 48
1.0
  6
ACAD_ISO10W100
100
AcDbLine
 10
45.0668656002399359
 20
249.5999999999999943
 30
0.0
 11
56.4795437957817796
 21
245.8917960675006213
 31
0.0
  0
LINE
  5
98
100
AcDbEntity
  8
0
 62
7
420
0
370
-1
 48
1.0
  6
BYLAYER
100
AcDbLine
 10
45.0668656002399359
 20
249.5999999999999943
 30
0.0
 11
47.6337312004799145
 21
241.6999999999999886
 31
0.0
  0
LINE
  5
99
100
AcDbEntity
  8
0
 62
256
370
-1
 48
1.0
  6
BYLAYER
100
AcDbLine
 10
32.5668656002399644
 20
249.5999999999999659
 30
0.0
 11
24.1067595683132438
 21
241.7108234949040764
 31
0.0
  0
LINE
  5
9A
100
AcDbEntity
  8
0
 62
256
370
-1
 48
1.0
  6
BYLAYER
100
AcDbLine
 10
32.5668656002399928
 20
262.0999999999999659
 30
0.0
 11
24.6776890951440748
 21
270.5601060319266935
 31
0.0
  0
LINE
  5
9B
100
AcDbEntity
  8
0
 62
256
370
-1
 48
1.0
  6
BYLAYER
100
AcDbLine
 10
45.0668656002399644
 20
262.1000000000000227
 30
0.0
 11
53.5385784094349049
 21
270.0
 31
0.0
  0
LINE
  5
9C
100
AcDbEntity
  8
0
 62
256
370
-1
 48
1.0
  6
BYLAYER
100
AcDbLine
 10
45.0668656002399359
 20
249.5999999999998806
 30
0.0
 11
52.9668656002399416
 21
241.1499999999999773
 31
0.0
  0
DIMENSION
  5
9D
100
AcDbEntity
  8
0
 62
256
370
-1
 48
1.0
  6
BYLAYER
100
AcDbDimension
 10
36.4431599199186422
 20
262.0999999999999659
 30
0.0
 11
34.3557448501831644
 21
254.6357036527642208
 31
0.0
 70
128
 71
8
 72
2
 41
1.0
 42
0.0
  1

  3
Standard
100
AcDbAlignedDimension
 13
32.566865600240007
 23
262.1000000000000227
 33
0.0
 14
32.5668656002399501
 24
249.6000000000000512
 34
0.0
 50
90.0
100
AcDbRotatedDimension
1001
ACAD
1000
DSTYLE
1002
{
1070
144
1040
1.0
1070
40
1040
1.0
1002
}
  0
DIMENSION
  5
9E
100
AcDbEntity
  8
0
 62
256
370
-1
 48
1.0
  6
BYLAYER
100
AcDbDimension
 10
36.4431599199186564
 20
249.5999999999999659
 30
0.0
 11
34.5681599199186564
 21
245.6500000000000341
 31
0.0
 70
0
 71
8
 72
2
 41
1.0
 42
0.0
  1

  3
Standard
100
AcDbAlignedDimension
 13
32.5668656002400354
 23
249.5999999999999943
 33
0.0
 14
32.5668656002400425
 24
241.7000000000000455
 34
0.0
 50
90.0
100
AcDbRotatedDimension
1001
ACAD
1000
DSTYLE
1002
{
1070
144
1040
1.0
1070
40
1040
1.0
1002
}
  0
DIMENSION
  5
9F
100
AcDbEntity
  8
0
 62
256
370
-1
 48
1.0
  6
BYLAYER
100
AcDbDimension
 10
32.5668656002399359
 20
258.6000000000000227
 30
0.0
 11
28.6168656002399331
 21
260.4750000000000227
 31
0.0
 70
0
 71
8
 72
2
 41
1.0
 42
0.0
  1

  3
Standard
100
AcDbAlignedDimension
 13
32.5668656002399359
 23
262.1000000000000796
 33
0.0
 14
24.6668656002399302
 24
262.1000000000001364
 34
0.0
 50
0.0
100
AcDbRotatedDimension
1001
ACAD
1000
DSTYLE
1002
{
1070
144
1040
1.0
1070
40
1040
1.0
1002
}
  0
DIMENSION
  5
A0
100
AcDbEntity
  8
0
 62
256
370
-1
 48
1.0
  6
BYLAYER
100
AcDbDimension
 10
32.5668656002399217
 20
258.5267674960781505
 30
0.0
 11
40.6926202521515563
 21
260.4167127914019488
 31
0.0
 70
128
 71
8
 72
2
 41
1.0
 42
0.0
  1

  3
Standard
100
AcDbAlignedDimension
 13
32.5668656002399359
 23
262.1000000000000796
 33
0.0
 14
45.0668656002399004
 24
262.0999999999999659
 34
0.0
 50
0.0
100
AcDbRotatedDimension
1001
ACAD
1000
DSTYLE
1002
{
1070
144
1040
1.0
1070
40
1040
1.0
1002
}
  0
LINE
  5
A1
100
AcDbEntity
  8
0
 62
5
420
255
370
-1
 48
1.0
  6
ACAD_ISO07W100
100
AcDbLine
 10
22.545545256680299
 20
262.5455452566803274
 30
0.0
 11
32.1213203435596455
 21
272.1213203435596597
 31
0.0
  0
LINE
  5
A2
100
AcDbEntity
  8
0
 62
5
420
255
370
-1
 48
1.0
  6
ACAD_ISO07W100
100
AcDbLine
 10
45.512410856920269
 20
272.1213203435596597
 30
0.0
 11
55.0881859437995871
 21
262.5455452566802705
 31
0.0
  0
LINE
  5
A3
100
AcDbEntity
  8
0
 62
5
420
255
370
-1
 48
1.0
  6
ACAD_ISO07W100
100
AcDbLine
 10
55.0881859437995729
 20
249.1544547433196612
 30
0.0
 11
45.5124108569202548
 21
239.5786796564403005
 31
0.0
  0
LINE
  5
A4
100
AcDbEntity
  8
0
 62
5
420
255
370
-1
 48
1.0
  6
ACAD_ISO07W100
100
AcDbLine
 10
32.1213203435596029
 20
239.5786796564403289
 30
0.0
 11
22.5455452566802563
 21
249.1544547433196044
 31
0.0
  0
DIMENSION
  5
A5
100
AcDbEntity
  8
0
 62
256
370
-1
 48
1.0
  6
BYLAYER
100
AcDbDimension
 10
30.0000000000000284
 20
273.8161821597416292
 30
0.0
 11
38.8168656002399572
 21
275.6911821597416292
 31
0.0
 70
0
 71
8
 72
2
 41
1.0
 42
0.0
  1

  3
Standard
100
AcDbAlignedDimension
 13
30.0
 23
270.0
 33
0.0
 14
47.6337312004799145
 24
270.0
 34
0.0
 50
0.0
100
AcDbRotatedDimension
1001
ACAD
1000
DSTYLE
1002
{
1070
144
1040
1.0
1070
40
1040
1.0
1002
}
  0
DIMENSION
  5
A6
100
AcDbEntity
  8
0
 62
256
370
-1
 48
1.0
  6
BYLAYER
100
AcDbDimension
 10
24.1168656002399189
 20
236.8161821597416576
 30
0.0
 11
35.8752984003599096
 21
238.6911821597416576
 31
0.0
 70
0
 71
8
 72
2
 41
1.0
 42
0.0
  1

  3
Standard
100
AcDbAlignedDimension
 13
24.1168656002399331
 23
241.6999999999999602
 33
0.0
 14
47.6337312004798861
 24
241.6999999999999886
 34
0.0
 50
0.0
100
AcDbRotatedDimension
1001
ACAD
1000
DSTYLE
1002
{
1070
144
1040
1.0
1070
40
1040
1.0
1002
}
  0
DIMENSION
  5
A7
100
AcDbEntity
  8
0
 62
256
370
-1
 48
1.0
  6
BYLAYER
100
AcDbDimension
 10
19.7978939898770676
 20
247.0331343997600015
 30
0.0
 11
17.9228939898770676
 21
258.791567199879978
 31
0.0
 70
0
 71
8
 72
2
 41
1.0
 42
0.0
  1

  3
Standard
100
AcDbAlignedDimension
 13
24.6668656002398805
 23
247.0331343997600015
 33
0.0
 14
24.6668656002399302
 24
270.5499999999999545
 34
0.0
 50
90.0
100
AcDbRotatedDimension
1001
ACAD
1000
DSTYLE
1002
{
1070
144
1040
1.0
1070
40
1040
1.0
1002
}
  0
DIMENSION
  5
A8
100
AcDbEntity
  8
0
 62
256
370
-1
 48
1.0
  6
BYLAYER
100
AcDbDimension
 10
57.7978939898770676
 20
247.0331343997599731
 30
0.0
 11
55.9228939898770676
 21
255.8499999999999943
 31
0.0
 70
0
 71
8
 72
2
 41
1.0
 42
0.0
  1

  3
Standard
100
AcDbAlignedDimension
 13
52.9668656002399203
 23
247.0331343997600015
 33
0.0
 14
52.9668656002399558
 24
264.6668656002399871
 34
0.0
 50
90.0
100
AcDbRotatedDimension
1001
ACAD
1000
DSTYLE
1002
{
1070
144
1040
1.0
1070
40
1040
1.0
1002
}
  0
DIMENSION
  5
A9
100
AcDbEntity
  8
0
 62
256
370
-1
 48
1.0
  6
BYLAYER
100
AcDbDimension
 10
48.7750695327393089
 20
273.5126781955418664
 30
0.0
 11
41.7289530788812613
 21
266.6942424465123622
 31
0.0
 70
2
 71
8
 72
2
 41
1.0
 42
0.0
  1

  3
Standard
100
AcDb2LineAngularDimension
 13
32.5668656002399359
 23
262.0999999999999659
 33
0.0
 14
45.0668656002399359
 24
262.0999999999999659
 34
0.0
 15
45.0668656002399359
 25
262.0999999999999659
 35
0.0
 16
43.1203199999999924
 26
265.3679999999999382
 36
0.0
  0
DIMENSION
  5
AA
100
AcDbEntity
  8
0
 62
256
370
-1
 48
1.0
  6
BYLAYER
100
AcDbDimension
 10
52.9668656002399416
 20
241.1499999999999773
 30
0.0
 11
50.1144083658545583
 21
251.5920129449330886
 31
0.0
 70
2
 71
8
 72
2
 41
1.0
 42
0.0
  1

  3
Standard
100
AcDb2LineAngularDimension
 13
45.0668656002399359
 23
262.0999999999999659
 33
0.0
 14
45.0668656002399359
 24
249.5999999999999659
 34
0.0
 15
45.0668656002399359
 25
249.5999999999998806
 35
0.0
 16
48.280319999999989
 26
248.0879999999999654
 36
0.0
  0
LINE
  5
AB
100
AcDbEntity
  8
0
 62
4
420
65535
370
-1
 48
1.0
  6
ACAD_ISO07W100
100
AcDbLine
 10
112.8540445071433282
 20
262.5455452566803274
 30
0.0
 11
122.4298195940226464
 21
272.1213203435597734
 31
0.0
  0
LINE
  5
AC
100
AcDbEntity
  8
0
 62
4
420
65535
370
-1
 48
1.0
  6
ACAD_ISO07W100
100
AcDbLine
 10
154.8209101073832699
 20
272.1213203435596029
 30
0.0
 11
164.3966851942626874
 21
262.5455452566803842
 31
0.0
  0
LINE
  5
AD
100
AcDbEntity
  8
0
 62
4
420
65535
370
-1
 48
1.0
  6
ACAD_ISO07W100
100
AcDbLine
 10
164.3966851942626306
 20
249.1544547433196612
 30
0.0
 11
154.8209101073833835
 21
239.5786796564403289
 31
0.0
  0
LINE
  5
AE
100
AcDbEntity
  8
0
 62
4
420
65535
370
-1
 48
1.0
  6
ACAD_ISO07W100
100
AcDbLine
 10
122.4298195940226606
 20
239.5786796564403573
 30
0.0
 11
112.8540445071433282
 21
249.1544547433196328
 31
0.0
  0
ENDSEC
  0
SECTION
  2
OBJECTS
  0
DICTIONARY
  5
C
100
AcDbDictionary
280
0
281
1
  3
ACAD_GROUP
350
D
  3
ACAD_LAYOUT
350
1A
  3
ACAD_MLINESTYLE
350
17
  3
ACAD_PLOTSETTINGS
350
19
  3
ACAD_PLOTSTYLENAME
350
E
  3
AcDbVariableDictionary
350
AF
  3
QCAD_OBJECTS
350
B0
  0
DICTIONARY
  5
D
100
AcDbDictionary
280
0
281
1
  0
ACDBDICTIONARYWDFLT
  5
E
100
AcDbDictionary
281
1
  3
Normal
350
F
100
AcDbDictionaryWithDefault
340
F
  0
ACDBPLACEHOLDER
  5
F
  0
DICTIONARY
  5
17
100
AcDbDictionary
280
0
281
1
  3
Standard
350
18
  0
MLINESTYLE
  5
18
100
AcDbMlineStyle
  2
STANDARD
 70
0
  3

 62
256
 51
90.0
 52
90.0
 71
2
 49
0.5
 62
256
  6
BYLAYER
 49
-0.5
 62
256
  6
BYLAYER
  0
DICTIONARY
  5
19
100
AcDbDictionary
280
0
281
1
  0
DICTIONARY
  5
1A
100
AcDbDictionary
281
1
  3
Layout1
350
1E
  3
Layout2
350
26
  3
Model
350
22
  0
LAYOUT
  5
1E
100
AcDbPlotSettings
  1

  2
none_device
  4

  6

 40
0.0
 41
0.0
 42
0.0
 43
0.0
 44
0.0
 45
0.0
 46
0.0
 47
0.0
 48
0.0
 49
0.0
140
0.0
141
0.0
142
1.0
143
1.0
 70
688
 72
0
 73
0
 74
5
  7

 75
16
147
1.0
148
0.0
149
0.0
100
AcDbLayout
  1
Layout1
 70
1
 71
1
 10
0.0
 20
0.0
 11
420.0
 21
297.0
 12
0.0
 22
0.0
 32
0.0
 14
100000000000000000000.0
 24
100000000000000000000.0
 34
100000000000000000000.0
 15
-100000000000000000000.0
 25
-100000000000000000000.0
 35
-100000000000000000000.0
146
0.0
 13
0.0
 23
0.0
 33
0.0
 16
1.0
 26
0.0
 36
0.0
 17
0.0
 27
1.0
 37
0.0
 76
0
330
1B
  0
LAYOUT
  5
22
100
AcDbPlotSettings
  1

  2
none_device
  4

  6

 40
0.0
 41
0.0
 42
0.0
 43
0.0
 44
0.0
 45
0.0
 46
0.0
 47
0.0
 48
0.0
 49
0.0
140
0.0
141
0.0
142
1.0
143
1.0
 70
1712
 72
0
 73
0
 74
0
  7

 75
0
147
1.0
148
0.0
149
0.0
100
AcDbLayout
  1
Model
 70
1
 71
0
 10
0.0
 20
0.0
 11
12.0
 21
9.0
 12
0.0
 22
0.0
 32
0.0
 14
0.0
 24
0.0
 34
0.0
 15
0.0
 25
0.0
 35
0.0
146
0.0
 13
0.0
 23
0.0
 33
0.0
 16
1.0
 26
0.0
 36
0.0
 17
0.0
 27
1.0
 37
0.0
 76
0
330
1F
  0
LAYOUT
  5
26
100
AcDbPlotSettings
  1

  2
none_device
  4

  6

 40
0.0
 41
0.0
 42
0.0
 43
0.0
 44
0.0
 45
0.0
 46
0.0
 47
0.0
 48
0.0
 49
0.0
140
0.0
141
0.0
142
1.0
143
1.0
 70
688
 72
0
 73
0
 74
5
  7

 75
16
147
1.0
148
0.0
149
0.0
100
AcDbLayout
  1
Layout2
 70
1
 71
2
 10
0.0
 20
0.0
 11
12.0
 21
9.0
 12
0.0
 22
0.0
 32
0.0
 14
0.0
 24
0.0
 34
0.0
 15
0.0
 25
0.0
 35
0.0
146
0.0
 13
0.0
 23
0.0
 33
0.0
 16
1.0
 26
0.0
 36
0.0
 17
0.0
 27
1.0
 37
0.0
 76
0
330
23
  0
DICTIONARY
  5
AF
100
AcDbDictionary
281
1
  3
DIMASSOC
350
B2
  3
HIDETEXT
350
B1
  0
DICTIONARYVAR
  5
B1
100
DictionaryVariables
280
0
  1
2
  0
DICTIONARYVAR
  5
B2
100
DictionaryVariables
280
0
  1
1
  0
DICTIONARY
  5
B0
100
AcDbDictionary
281
1
  3
ColorSettings/BackgroundColor
350
B3
  3
ColorSettings/ColorMode
350
B4
  3
DimensionSettings/AngularFormat
350
B5
  3
DimensionSettings/AngularPrecision
350
B6
  3
DimensionSettings/DecimalPoint
350
B7
  3
DimensionSettings/DimensionFont
350
B8
  3
DimensionSettings/KeepProportions
350
B9
  3
DimensionSettings/LinearFormat
350
BA
  3
DimensionSettings/LinearPrecision
350
BB
  3
Grid/DisplayGrid00
350
BC
  3
Grid/DisplayGrid01
350
BD
  3
Grid/DisplayGrid02
350
BE
  3
Grid/DisplayGrid03
350
BF
  3
Grid/GridSpacingX00
350
C0
  3
Grid/GridSpacingX01
350
C1
  3
Grid/GridSpacingX02
350
C2
  3
Grid/GridSpacingX03
350
C3
  3
Grid/GridSpacingY00
350
C4
  3
Grid/GridSpacingY01
350
C5
  3
Grid/GridSpacingY02
350
C6
  3
Grid/GridSpacingY03
350
C7
  3
Grid/IsometricGrid00
350
C8
  3
Grid/IsometricGrid01
350
C9
  3
Grid/IsometricGrid02
350
CA
  3
Grid/IsometricGrid03
350
CB
  3
Grid/IsometricProjection00
350
CC
  3
Grid/IsometricProjection01
350
CD
  3
Grid/IsometricProjection02
350
CE
  3
Grid/IsometricProjection03
350
CF
  3
Grid/MetaGridSpacingX00
350
D0
  3
Grid/MetaGridSpacingX01
350
D1
  3
Grid/MetaGridSpacingX02
350
D2
  3
Grid/MetaGridSpacingX03
350
D3
  3
Grid/MetaGridSpacingY00
350
D4
  3
Grid/MetaGridSpacingY01
350
D5
  3
Grid/MetaGridSpacingY02
350
D6
  3
Grid/MetaGridSpacingY03
350
D7
  3
MultiPageSettings/Columns
350
D8
  3
MultiPageSettings/GlueMarginsBottom
350
D9
  3
MultiPageSettings/GlueMarginsLeft
350
DA
  3
MultiPageSettings/GlueMarginsRight
350
DB
  3
MultiPageSettings/GlueMarginsTop
350
DC
  3
MultiPageSettings/PrintCropMarks
350
DD
  3
MultiPageSettings/Rows
350
DE
  3
PageSettings/OffsetX
350
DF
  3
PageSettings/OffsetY
350
E0
  3
PageSettings/PageOrientation
350
E1
  3
PageSettings/PaperHeight
350
E2
  3
PageSettings/PaperWidth
350
E3
  3
PageSettings/Scale
350
E4
  3
PageSettings/ShowPaperBorders
350
E5
  3
QCADVersion
350
E6
  3
UnitSettings/PaperUnit
350
E7
  3
ViewportCenter
350
E8
  3
ViewportHeight
350
E9
  3
ViewportWidth
350
EA
  0
XRECORD
  5
B3
330
B0
100
AcDbXrecord
280
1
1000
Weiss
  0
XRECORD
  5
B4
330
B0
100
AcDbXrecord
280
1
1000
FullColor
  0
XRECORD
  5
B5
330
B0
100
AcDbXrecord
280
1
 90
0
  0
XRECORD
  5
B6
330
B0
100
AcDbXrecord
280
1
 90
0
  0
XRECORD
  5
B7
330
B0
100
AcDbXrecord
280
1
 90
46
  0
XRECORD
  5
B8
330
B0
100
AcDbXrecord
280
1
1000
Droid Sans
  0
XRECORD
  5
B9
330
B0
100
AcDbXrecord
280
1
290
1
  0
XRECORD
  5
BA
330
B0
100
AcDbXrecord
280
1
 90
2
  0
XRECORD
  5
BB
330
B0
100
AcDbXrecord
280
1
 90
2
  0
XRECORD
  5
BC
330
B0
100
AcDbXrecord
280
1
290
0
  0
XRECORD
  5
BD
330
B0
100
AcDbXrecord
280
1
290
1
  0
XRECORD
  5
BE
330
B0
100
AcDbXrecord
280
1
290
1
  0
XRECORD
  5
BF
330
B0
100
AcDbXrecord
280
1
290
1
  0
XRECORD
  5
C0
330
B0
100
AcDbXrecord
280
1
1000
auto
  0
XRECORD
  5
C1
330
B0
100
AcDbXrecord
280
1
1000
auto
  0
XRECORD
  5
C2
330
B0
100
AcDbXrecord
280
1
1000
auto
  0
XRECORD
  5
C3
330
B0
100
AcDbXrecord
280
1
1000
auto
  0
XRECORD
  5
C4
330
B0
100
AcDbXrecord
280
1
1000
auto
  0
XRECORD
  5
C5
330
B0
100
AcDbXrecord
280
1
1000
auto
  0
XRECORD
  5
C6
330
B0
100
AcDbXrecord
280
1
1000
auto
  0
XRECORD
  5
C7
330
B0
100
AcDbXrecord
280
1
1000
auto
  0
XRECORD
  5
C8
330
B0
100
AcDbXrecord
280
1
290
0
  0
XRECORD
  5
C9
330
B0
100
AcDbXrecord
280
1
290
0
  0
XRECORD
  5
CA
330
B0
100
AcDbXrecord
280
1
290
0
  0
XRECORD
  5
CB
330
B0
100
AcDbXrecord
280
1
290
0
  0
XRECORD
  5
CC
330
B0
100
AcDbXrecord
280
1
 90
65537
  0
XRECORD
  5
CD
330
B0
100
AcDbXrecord
280
1
 90
65537
  0
XRECORD
  5
CE
330
B0
100
AcDbXrecord
280
1
 90
65537
  0
XRECORD
  5
CF
330
B0
100
AcDbXrecord
280
1
 90
65537
  0
XRECORD
  5
D0
330
B0
100
AcDbXrecord
280
1
1000
auto
  0
XRECORD
  5
D1
330
B0
100
AcDbXrecord
280
1
1000
auto
  0
XRECORD
  5
D2
330
B0
100
AcDbXrecord
280
1
1000
auto
  0
XRECORD
  5
D3
330
B0
100
AcDbXrecord
280
1
1000
auto
  0
XRECORD
  5
D4
330
B0
100
AcDbXrecord
280
1
1000
auto
  0
XRECORD
  5
D5
330
B0
100
AcDbXrecord
280
1
1000
auto
  0
XRECORD
  5
D6
330
B0
100
AcDbXrecord
280
1
1000
auto
  0
XRECORD
  5
D7
330
B0
100
AcDbXrecord
280
1
1000
auto
  0
XRECORD
  5
D8
330
B0
100
AcDbXrecord
280
1
 90
1
  0
XRECORD
  5
D9
330
B0
100
AcDbXrecord
280
1
 40
10.0
  0
XRECORD
  5
DA
330
B0
100
AcDbXrecord
280
1
 40
10.0
  0
XRECORD
  5
DB
330
B0
100
AcDbXrecord
280
1
 40
10.0
  0
XRECORD
  5
DC
330
B0
100
AcDbXrecord
280
1
 40
10.0
  0
XRECORD
  5
DD
330
B0
100
AcDbXrecord
280
1
290
0
  0
XRECORD
  5
DE
330
B0
100
AcDbXrecord
280
1
 90
1
  0
XRECORD
  5
DF
330
B0
100
AcDbXrecord
280
1
 40
0.0
  0
XRECORD
  5
E0
330
B0
100
AcDbXrecord
280
1
 40
0.0
  0
XRECORD
  5
E1
330
B0
100
AcDbXrecord
280
1
1000
Portrait
  0
XRECORD
  5
E2
330
B0
100
AcDbXrecord
280
1
 40
297.0
  0
XRECORD
  5
E3
330
B0
100
AcDbXrecord
280
1
 40
210.0
  0
XRECORD
  5
E4
330
B0
100
AcDbXrecord
280
1
1000
1:1
  0
XRECORD
  5
E5
330
B0
100
AcDbXrecord
280
1
290
1
  0
XRECORD
  5
E6
330
B0
100
AcDbXrecord
280
1
1000
3.17.3
  0
XRECORD
  5
E7
330
B0
100
AcDbXrecord
280
1
 90
4
  0
XRECORD
  5
E9
330
B0
100
AcDbXrecord
280
1
 40
128.4764117730128987
  0
XRECORD
  5
EA
330
B0
100
AcDbXrecord
280
1
 40
260.6609712542451689
  0
ENDSEC
  0
EOF
