999
dxflib 3.17.0.0
  0
SECTION
  2
HEADER
  9
$ACADVER
  1
AC1015
  9
$HANDSEED
  5
FFFF
  9
$DIMADEC
 70
0
  9
$DIMASZ
 40
2.5
  9
$DIMAUNIT
 70
0
  9
$DIMAZIN
 70
2
  9
$DIMDEC
 70
4
  9
$DIMDSEP
 70
46
  9
$DIMEXE
 40
1.25
  9
$DIMEXO
 40
0.625
  9
$DIMGAP
 40
0.625
  9
$DIMLUNIT
 70
2
  9
$DIMSCALE
 40
1.0
  9
$DIMTSZ
 40
0.0
  9
$DIMTXT
 40
2.5
  9
$DIMZIN
 70
8
  9
$DWGCODEPAGE
  3
ANSI_1252
  9
$INSUNITS
 70
4
  9
$LTSCALE
 40
1.0
  9
$MAXACTVP
 70
32
  9
$MEASUREMENT
 70
1
  9
$PDMODE
 70
0
  9
$PDSIZE
 40
0
  0
ENDSEC
  0
SECTION
  2
TABLES
  0
TABLE
  2
VPORT
  5
8
100
AcDbSymbolTable
 70
1
  0
VPORT
  5
30
100
AcDbSymbolTableRecord
100
AcDbViewportTableRecord
  2
*Active
 70
0
 10
0.0
 20
0.0
 11
1.0
 21
1.0
 12
286.3055555555554861
 22
148.5
 13
0.0
 23
0.0
 14
10.0
 24
10.0
 15
10.0
 25
10.0
 16
0.0
 26
0.0
 36
1.0
 17
0.0
 27
0.0
 37
0.0
 40
297.0
 41
1.92798353909465
 42
50.0
 43
0.0
 44
0.0
 50
0.0
 51
0.0
 71
0
 72
100
 73
1
 74
3
 75
1
 76
1
 77
0
 78
0
281
0
 65
1
110
0.0
120
0.0
130
0.0
111
1.0
121
0.0
131
0.0
112
0.0
122
1.0
132
0.0
 79
0
146
0.0
  0
ENDTAB
  0
TABLE
  2
LTYPE
  5
5
100
AcDbSymbolTable
 70
41
  0
LTYPE
  5
16
100
AcDbSymbolTableRecord
100
AcDbLinetypeTableRecord
  2
Continuous
 70
0
  3
Solid line
 72
65
 73
0
 40
0.0
  0
LTYPE
  5
31
100
AcDbSymbolTableRecord
100
AcDbLinetypeTableRecord
  2
ACAD_ISO12W100
 70
0
  3
ISO dash double-dot __ . . __ . . __ . . __ . . 
 72
65
 73
6
 40
21.0
 49
12.0
 74
0
 49
-3.0
 74
0
 49
0.0
 74
0
 49
-3.0
 74
0
 49
0.0
 74
0
 49
-3.0
 74
0
  0
LTYPE
  5
32
100
AcDbSymbolTableRecord
100
AcDbLinetypeTableRecord
  2
DOT2
 70
0
  3
Dot (.5x) ........................................
 72
65
 73
2
 40
3.1749999999999998
 49
0.0
 74
0
 49
-3.1749999999999998
 74
0
  0
LTYPE
  5
33
100
AcDbSymbolTableRecord
100
AcDbLinetypeTableRecord
  2
DOTX2
 70
0
  3
Dot (2x) .  .  .  .  .  .  .  .  .  .  .  .  .  .
 72
65
 73
2
 40
12.6999999999999993
 49
0.0
 74
0
 49
-12.6999999999999993
 74
0
  0
LTYPE
  5
14
100
AcDbSymbolTableRecord
100
AcDbLinetypeTableRecord
  2
BYBLOCK
 70
0
  3

 72
65
 73
0
 40
0.0
  0
LTYPE
  5
34
100
AcDbSymbolTableRecord
100
AcDbLinetypeTableRecord
  2
ACAD_ISO15W100
 70
0
  3
ISO double-dash triple-dot __ __ . . . __ __ . .
 72
65
 73
10
 40
39.0
 49
12.0
 74
0
 49
-3.0
 74
0
 49
12.0
 74
0
 49
-3.0
 74
0
 49
0.0
 74
0
 49
-3.0
 74
0
 49
0.0
 74
0
 49
-3.0
 74
0
 49
0.0
 74
0
 49
-3.0
 74
0
  0
LTYPE
  5
35
100
AcDbSymbolTableRecord
100
AcDbLinetypeTableRecord
  2
ACAD_ISO07W100
 70
0
  3
ISO dot . . . . . . . . . . . . . . . . . . . . 
 72
65
 73
2
 40
3.0
 49
0.0
 74
0
 49
-3.0
 74
0
  0
LTYPE
  5
36
100
AcDbSymbolTableRecord
100
AcDbLinetypeTableRecord
  2
ACAD_ISO02W100
 70
0
  3
ISO dash __ __ __ __ __ __ __ __ __ __ __ __ __
 72
65
 73
2
 40
15.0
 49
12.0
 74
0
 49
-3.0
 74
0
  0
LTYPE
  5
37
100
AcDbSymbolTableRecord
100
AcDbLinetypeTableRecord
  2
DASHED
 70
0
  3
Dashed __ __ __ __ __ __ __ __ __ __ __ __ __ _
 72
65
 73
2
 40
19.0499999999999972
 49
12.6999999999999993
 74
0
 49
-6.3499999999999996
 74
0
  0
LTYPE
  5
38
100
AcDbSymbolTableRecord
100
AcDbLinetypeTableRecord
  2
HIDDEN
 70
0
  3
Hidden __ __ __ __ __ __ __ __ __ __ __ __ __ __
 72
65
 73
2
 40
9.5249999999999986
 49
6.3499999999999996
 74
0
 49
-3.1749999999999998
 74
0
  0
LTYPE
  5
39
100
AcDbSymbolTableRecord
100
AcDbLinetypeTableRecord
  2
DOT
 70
0
  3
Dot . . . . . . . . . . . . . . . . . . . . . . . .
 72
65
 73
2
 40
6.3499999999999996
 49
0.0
 74
0
 49
-6.3499999999999996
 74
0
  0
LTYPE
  5
3A
100
AcDbSymbolTableRecord
100
AcDbLinetypeTableRecord
  2
ACAD_ISO05W100
 70
0
  3
ISO long-dash double-dot ____ .. ____ .. ____ . 
 72
65
 73
6
 40
33.0
 49
24.0
 74
0
 49
-3.0
 74
0
 49
0.0
 74
0
 49
-3.0
 74
0
 49
0.0
 74
0
 49
-3.0
 74
0
  0
LTYPE
  5
3B
100
AcDbSymbolTableRecord
100
AcDbLinetypeTableRecord
  2
CENTER
 70
0
  3
Center ____ _ ____ _ ____ _ ____ _ ____ _ ____
 72
65
 73
4
 40
50.8000000000000043
 49
31.75
 74
0
 49
-6.3499999999999996
 74
0
 49
6.3499999999999996
 74
0
 49
-6.3499999999999996
 74
0
  0
LTYPE
  5
3C
100
AcDbSymbolTableRecord
100
AcDbLinetypeTableRecord
  2
DASHDOT2
 70
0
  3
Dash dot (.5x) _._._._._._._._._._._._._._._.
 72
65
 73
4
 40
12.6999999999999993
 49
6.3499999999999996
 74
0
 49
-3.1749999999999998
 74
0
 49
0.0
 74
0
 49
-3.1749999999999998
 74
0
  0
LTYPE
  5
3D
100
AcDbSymbolTableRecord
100
AcDbLinetypeTableRecord
  2
DASHDOTX2
 70
0
  3
Dash dot (2x) ____  .  ____  .  ____  .  ___
 72
65
 73
4
 40
50.7999999999999972
 49
25.3999999999999986
 74
0
 49
-12.6999999999999993
 74
0
 49
0.0
 74
0
 49
-12.6999999999999993
 74
0
  0
LTYPE
  5
3E
100
AcDbSymbolTableRecord
100
AcDbLinetypeTableRecord
  2
CENTER2
 70
0
  3
Center (.5x) ___ _ ___ _ ___ _ ___ _ ___ _ ___
 72
65
 73
4
 40
28.5750000000000028
 49
19.0500000000000007
 74
0
 49
-3.1749999999999998
 74
0
 49
3.1749999999999998
 74
0
 49
-3.1749999999999998
 74
0
  0
LTYPE
  5
3F
100
AcDbSymbolTableRecord
100
AcDbLinetypeTableRecord
  2
ACAD_ISO06W100
 70
0
  3
ISO long-dash triple-dot ____ ... ____ ... ____
 72
65
 73
8
 40
36.0
 49
24.0
 74
0
 49
-3.0
 74
0
 49
0.0
 74
0
 49
-3.0
 74
0
 49
0.0
 74
0
 49
-3.0
 74
0
 49
0.0
 74
0
 49
-3.0
 74
0
  0
LTYPE
  5
40
100
AcDbSymbolTableRecord
100
AcDbLinetypeTableRecord
  2
DASHEDX2
 70
0
  3
Dashed (2x) ____  ____  ____  ____  ____  ___
 72
65
 73
2
 40
38.0999999999999943
 49
25.3999999999999986
 74
0
 49
-12.6999999999999993
 74
0
  0
LTYPE
  5
41
100
AcDbSymbolTableRecord
100
AcDbLinetypeTableRecord
  2
ACAD_ISO13W100
 70
0
  3
ISO double-dash double-dot __ __ . . __ __ . . _
 72
65
 73
8
 40
36.0
 49
12.0
 74
0
 49
-3.0
 74
0
 49
12.0
 74
0
 49
-3.0
 74
0
 49
0.0
 74
0
 49
-3.0
 74
0
 49
0.0
 74
0
 49
-3.0
 74
0
  0
LTYPE
  5
42
100
AcDbSymbolTableRecord
100
AcDbLinetypeTableRecord
  2
DASHED2
 70
0
  3
Dashed (.5x) _ _ _ _ _ _ _ _ _ _ _ _ _ _ _ _ _ 
 72
65
 73
2
 40
9.5249999999999986
 49
6.3499999999999996
 74
0
 49
-3.1749999999999998
 74
0
  0
LTYPE
  5
43
100
AcDbSymbolTableRecord
100
AcDbLinetypeTableRecord
  2
HIDDEN2
 70
0
  3
Hidden (.5x) _ _ _ _ _ _ _ _ _ _ _ _ _ _ _ _ _ 
 72
65
 73
2
 40
4.7624999999999993
 49
3.1749999999999998
 74
0
 49
-1.5874999999999999
 74
0
  0
LTYPE
  5
44
100
AcDbSymbolTableRecord
100
AcDbLinetypeTableRecord
  2
PHANTOM
 70
0
  3
Phantom ______  __  __  ______  __  __  ______ 
 72
65
 73
6
 40
63.5000000000000071
 49
31.75
 74
0
 49
-6.3499999999999996
 74
0
 49
6.3499999999999996
 74
0
 49
-6.3499999999999996
 74
0
 49
6.3499999999999996
 74
0
 49
-6.3499999999999996
 74
0
  0
LTYPE
  5
45
100
AcDbSymbolTableRecord
100
AcDbLinetypeTableRecord
  2
ACAD_ISO11W100
 70
0
  3
ISO double-dash dot __ __ . __ __ . __ __ . __ _
 72
65
 73
6
 40
33.0
 49
12.0
 74
0
 49
-3.0
 74
0
 49
12.0
 74
0
 49
-3.0
 74
0
 49
0.0
 74
0
 49
-3.0
 74
0
  0
LTYPE
  5
46
100
AcDbSymbolTableRecord
100
AcDbLinetypeTableRecord
  2
PHANTOMX2
 70
0
  3
Phantom (2x) ____________    ____    ____   _
 72
65
 73
6
 40
127.0000000000000142
 49
63.5
 74
0
 49
-12.6999999999999993
 74
0
 49
12.6999999999999993
 74
0
 49
-12.6999999999999993
 74
0
 49
12.6999999999999993
 74
0
 49
-12.6999999999999993
 74
0
  0
LTYPE
  5
47
100
AcDbSymbolTableRecord
100
AcDbLinetypeTableRecord
  2
DIVIDE
 70
0
  3
Divide ____ . . ____ . . ____ . . ____ . . ____
 72
65
 73
6
 40
31.75
 49
12.6999999999999993
 74
0
 49
-6.3499999999999996
 74
0
 49
0.0
 74
0
 49
-6.3499999999999996
 74
0
 49
0.0
 74
0
 49
-6.3499999999999996
 74
0
  0
LTYPE
  5
48
100
AcDbSymbolTableRecord
100
AcDbLinetypeTableRecord
  2
BORDERX2
 70
0
  3
Border (2x) ____  ____  .  ____  ____  .  ___
 72
65
 73
6
 40
88.8999999999999915
 49
25.3999999999999986
 74
0
 49
-12.6999999999999993
 74
0
 49
25.3999999999999986
 74
0
 49
-12.6999999999999993
 74
0
 49
0.0
 74
0
 49
-12.6999999999999993
 74
0
  0
LTYPE
  5
49
100
AcDbSymbolTableRecord
100
AcDbLinetypeTableRecord
  2
ACAD_ISO08W100
 70
0
  3
ISO long-dash short-dash ____ __ ____ __ ____ _
 72
65
 73
4
 40
36.0
 49
24.0
 74
0
 49
-3.0
 74
0
 49
6.0
 74
0
 49
-3.0
 74
0
  0
LTYPE
  5
4A
100
AcDbSymbolTableRecord
100
AcDbLinetypeTableRecord
  2
DIVIDEX2
 70
0
  3
Divide (2x) ________  .  .  ________  .  .  _
 72
65
 73
6
 40
63.5
 49
25.3999999999999986
 74
0
 49
-12.6999999999999993
 74
0
 49
0.0
 74
0
 49
-12.6999999999999993
 74
0
 49
0.0
 74
0
 49
-12.6999999999999993
 74
0
  0
LTYPE
  5
15
100
AcDbSymbolTableRecord
100
AcDbLinetypeTableRecord
  2
BYLAYER
 70
0
  3

 72
65
 73
0
 40
0.0
  0
LTYPE
  5
4B
100
AcDbSymbolTableRecord
100
AcDbLinetypeTableRecord
  2
ACAD_ISO14W100
 70
0
  3
ISO dash triple-dot __ . . . __ . . . __ . . . _
 72
65
 73
8
 40
24.0
 49
12.0
 74
0
 49
-3.0
 74
0
 49
0.0
 74
0
 49
-3.0
 74
0
 49
0.0
 74
0
 49
-3.0
 74
0
 49
0.0
 74
0
 49
-3.0
 74
0
  0
LTYPE
  5
4C
100
AcDbSymbolTableRecord
100
AcDbLinetypeTableRecord
  2
CENTERX2
 70
0
  3
Center (2x) ________  __  ________  __  _____
 72
65
 73
4
 40
101.6000000000000085
 49
63.5
 74
0
 49
-12.6999999999999993
 74
0
 49
12.6999999999999993
 74
0
 49
-12.6999999999999993
 74
0
  0
LTYPE
  5
4D
100
AcDbSymbolTableRecord
100
AcDbLinetypeTableRecord
  2
BORDER2
 70
0
  3
Border (.5x) __.__.__.__.__.__.__.__.__.__.__.
 72
65
 73
6
 40
22.2249999999999979
 49
6.3499999999999996
 74
0
 49
-3.1749999999999998
 74
0
 49
6.3499999999999996
 74
0
 49
-3.1749999999999998
 74
0
 49
0.0
 74
0
 49
-3.1749999999999998
 74
0
  0
LTYPE
  5
4E
100
AcDbSymbolTableRecord
100
AcDbLinetypeTableRecord
  2
BORDER
 70
0
  3
Border __ __ . __ __ . __ __ . __ __ . __ __ .
 72
65
 73
6
 40
44.4499999999999957
 49
12.6999999999999993
 74
0
 49
-6.3499999999999996
 74
0
 49
12.6999999999999993
 74
0
 49
-6.3499999999999996
 74
0
 49
0.0
 74
0
 49
-6.3499999999999996
 74
0
  0
LTYPE
  5
4F
100
AcDbSymbolTableRecord
100
AcDbLinetypeTableRecord
  2
ACAD_ISO04W100
 70
0
  3
ISO long-dash dot ____ . ____ . ____ . ____ . _
 72
65
 73
4
 40
30.0
 49
24.0
 74
0
 49
-3.0
 74
0
 49
0.0
 74
0
 49
-3.0
 74
0
  0
LTYPE
  5
50
100
AcDbSymbolTableRecord
100
AcDbLinetypeTableRecord
  2
ACAD_ISO10W100
 70
0
  3
ISO dash dot __ . __ . __ . __ . __ . __ . __ . 
 72
65
 73
4
 40
18.0
 49
12.0
 74
0
 49
-3.0
 74
0
 49
0.0
 74
0
 49
-3.0
 74
0
  0
LTYPE
  5
51
100
AcDbSymbolTableRecord
100
AcDbLinetypeTableRecord
  2
DASHDOT
 70
0
  3
Dash dot __ . __ . __ . __ . __ . __ . __ . __
 72
65
 73
4
 40
25.3999999999999986
 49
12.6999999999999993
 74
0
 49
-6.3499999999999996
 74
0
 49
0.0
 74
0
 49
-6.3499999999999996
 74
0
  0
LTYPE
  5
52
100
AcDbSymbolTableRecord
100
AcDbLinetypeTableRecord
  2
DIVIDE2
 70
0
  3
Divide (.5x) __..__..__..__..__..__..__..__.._
 72
65
 73
6
 40
15.875
 49
6.3499999999999996
 74
0
 49
-3.1749999999999998
 74
0
 49
0.0
 74
0
 49
-3.1749999999999998
 74
0
 49
0.0
 74
0
 49
-3.1749999999999998
 74
0
  0
LTYPE
  5
53
100
AcDbSymbolTableRecord
100
AcDbLinetypeTableRecord
  2
HIDDENX2
 70
0
  3
Hidden (2x) ____ ____ ____ ____ ____ ____ ____ 
 72
65
 73
2
 40
19.0499999999999972
 49
12.6999999999999993
 74
0
 49
-6.3499999999999996
 74
0
  0
LTYPE
  5
54
100
AcDbSymbolTableRecord
100
AcDbLinetypeTableRecord
  2
PHANTOM2
 70
0
  3
Phantom (.5x) ___ _ _ ___ _ _ ___ _ _ ___ _ _
 72
65
 73
6
 40
31.7500000000000036
 49
15.875
 74
0
 49
-3.1749999999999998
 74
0
 49
3.1749999999999998
 74
0
 49
-3.1749999999999998
 74
0
 49
3.1749999999999998
 74
0
 49
-3.1749999999999998
 74
0
  0
LTYPE
  5
55
100
AcDbSymbolTableRecord
100
AcDbLinetypeTableRecord
  2
ACAD_ISO03W100
 70
0
  3
ISO dash space __    __    __    __    __    __
 72
65
 73
2
 40
30.0
 49
12.0
 74
0
 49
-18.0
 74
0
  0
LTYPE
  5
56
100
AcDbSymbolTableRecord
100
AcDbLinetypeTableRecord
  2
ACAD_ISO09W100
 70
0
  3
ISO long-dash double-short-dash ____ __ __ ____
 72
65
 73
6
 40
45.0
 49
24.0
 74
0
 49
-3.0
 74
0
 49
6.0
 74
0
 49
-3.0
 74
0
 49
6.0
 74
0
 49
-3.0
 74
0
  0
ENDTAB
  0
TABLE
  2
LAYER
  5
2
100
AcDbSymbolTable
 70
1
  0
LAYER
  5
10
100
AcDbSymbolTableRecord
100
AcDbLayerTableRecord
  2
0
 70
0
 62
7
420
0
  6
Continuous
370
25
390
F
  0
ENDTAB
  0
TABLE
  2
STYLE
  5
3
100
AcDbSymbolTable
 70
6
  0
STYLE
  5
57
100
AcDbSymbolTableRecord
100
AcDbTextStyleTableRecord
  2
Standard
 70
0
 40
0.0
 41
1.0
 50
0.0
 71
0
 42
2.5
  3

  4

1001
ACAD
1000
txt
1071
0
  0
STYLE
  5
58
100
AcDbSymbolTableRecord
100
AcDbTextStyleTableRecord
  2
textstyle0
 70
0
 40
0.0
 41
1.0
 50
0.0
 71
0
 42
1.0
  3

  4

1001
ACAD
1000
HelveticaNeueLT Std Lt
1071
0
  0
STYLE
  5
59
100
AcDbSymbolTableRecord
100
AcDbTextStyleTableRecord
  2
textstyle1
 70
0
 40
0.0
 41
1.0
 50
0.0
 71
0
 42
1.0
  3

  4

1001
ACAD
1000
HelveticaNeueLT Std Lt
1071
0
  0
STYLE
  5
5A
100
AcDbSymbolTableRecord
100
AcDbTextStyleTableRecord
  2
textstyle2
 70
0
 40
0.0
 41
1.0
 50
0.0
 71
0
 42
1.0
  3

  4

1001
ACAD
1000
HelveticaNeueLT Std Lt
1071
0
  0
STYLE
  5
5B
100
AcDbSymbolTableRecord
100
AcDbTextStyleTableRecord
  2
textstyle3
 70
0
 40
0.0
 41
1.0
 50
0.0
 71
0
 42
1.0
  3

  4

1001
ACAD
1000
HelveticaNeueLT Std Lt
1071
0
  0
STYLE
  5
5C
100
AcDbSymbolTableRecord
100
AcDbTextStyleTableRecord
  2
textstyle4
 70
0
 40
0.0
 41
1.0
 50
0.0
 71
0
 42
1.0
  3

  4

1001
ACAD
1000
HelveticaNeueLT Std Lt
1071
0
  0
ENDTAB
  0
TABLE
  2
VIEW
  5
6
100
AcDbSymbolTable
 70
0
  0
ENDTAB
  0
TABLE
  2
UCS
  5
7
100
AcDbSymbolTable
 70
0
  0
ENDTAB
  0
TABLE
  2
APPID
  5
9
100
AcDbSymbolTable
 70
1
  0
APPID
  5
12
100
AcDbSymbolTableRecord
100
AcDbRegAppTableRecord
  2
ACAD
 70
0
  0
APPID
  5
5D
100
AcDbSymbolTableRecord
100
AcDbRegAppTableRecord
  2
QCAD
 70
0
  0
ENDTAB
  0
TABLE
  2
DIMSTYLE
  5
A
100
AcDbSymbolTable
 70
1
100
AcDbDimStyleTable
 71
0
  0
DIMSTYLE
105
27
100
AcDbSymbolTableRecord
100
AcDbDimStyleTableRecord
  2
Standard
 41
2.5
 42
0.625
 43
3.75
 44
1.25
 70
0
 73
0
 74
0
 77
1
 78
8
140
2.5
141
2.5
143
0.03937007874016
147
0.625
171
3
172
1
271
2
272
2
274
3
278
44
283
0
284
8
340
57
  0
ENDTAB
  0
TABLE
  2
BLOCK_RECORD
  5
1
100
AcDbSymbolTable
 70
1
  0
BLOCK_RECORD
  5
1F
100
AcDbSymbolTableRecord
100
AcDbBlockTableRecord
  2
*Model_Space
340
22
  0
BLOCK_RECORD
  5
1B
100
AcDbSymbolTableRecord
100
AcDbBlockTableRecord
  2
*Paper_Space
340
1E
  0
BLOCK_RECORD
  5
23
100
AcDbSymbolTableRecord
100
AcDbBlockTableRecord
  2
*Paper_Space0
340
26
  0
ENDTAB
  0
ENDSEC
  0
SECTION
  2
BLOCKS
  0
BLOCK
  5
20
100
AcDbEntity
  8
0
100
AcDbBlockBegin
  2
*Model_Space
 70
0
 10
0.0
 20
0.0
 30
0.0
  3
*Model_Space
  1

  0
ENDBLK
  5
21
100
AcDbEntity
  8
0
100
AcDbBlockEnd
  0
BLOCK
  5
1C
100
AcDbEntity
 67
1
  8
0
100
AcDbBlockBegin
  2
*Paper_Space
 70
0
 10
0.0
 20
0.0
 30
0.0
  3
*Paper_Space
  1

  0
ENDBLK
  5
1D
100
AcDbEntity
 67
1
  8
0
100
AcDbBlockEnd
  0
BLOCK
  5
24
100
AcDbEntity
  8
0
100
AcDbBlockBegin
  2
*Paper_Space0
 70
0
 10
0.0
 20
0.0
 30
0.0
  3
*Paper_Space0
  1

  0
ENDBLK
  5
25
100
AcDbEntity
  8
0
100
AcDbBlockEnd
  0
ENDSEC
  0
SECTION
  2
ENTITIES
  0
LINE
  5
5E
100
AcDbEntity
  8
0
 62
9
420
12632256
370
-1
 48
1.0
  6
BYLAYER
100
AcDbLine
 10
22.3186841769035595
 20
261.2429510658809022
 30
0.0
 11
22.3186841769035595
 21
273.7429510658809022
 31
0.0
  0
LINE
  5
5F
100
AcDbEntity
  8
0
 62
9
420
12632256
370
-1
 48
1.0
  6
BYLAYER
100
AcDbLine
 10
87.262684176903548
 20
261.1759051878751166
 30
0.0
 11
87.262684176903548
 21
273.6759051878751166
 31
0.0
  0
LINE
  5
60
100
AcDbEntity
  8
0
 62
9
420
12632256
370
-1
 48
1.0
  6
BYLAYER
100
AcDbLine
 10
153.0139999999999816
 20
261.3019999999999072
 30
0.0
 11
153.0139999999999816
 21
273.8019999999999072
 31
0.0
  0
LINE
  5
61
100
AcDbEntity
  8
0
 62
9
420
12632256
370
-1
 48
1.0
  6
BYLAYER
100
AcDbLine
 10
55.3600927913299046
 20
261.4951406901305404
 30
0.0
 11
55.3600927913299046
 21
273.9951406901305404
 31
0.0
  0
LINE
  5
62
100
AcDbEntity
  8
0
 62
9
420
12632256
370
-1
 48
1.0
  6
BYLAYER
100
AcDbLine
 10
120.3040927913298788
 20
261.4280948121247548
 30
0.0
 11
120.3040927913298788
 21
273.9280948121247548
 31
0.0
  0
LINE
  5
63
100
AcDbEntity
  8
0
 62
9
420
12632256
370
-1
 48
1.0
  6
BYLAYER
100
AcDbLine
 10
22.3186841769035595
 20
273.7429510658809022
 30
0.0
 11
34.8186841769035453
 21
273.7429510658809022
 31
0.0
  0
LINE
  5
64
100
AcDbEntity
  8
0
 62
9
420
12632256
370
-1
 48
1.0
  6
BYLAYER
100
AcDbLine
 10
87.262684176903548
 20
273.6759051878751166
 30
0.0
 11
99.7626841769035195
 21
273.6759051878751166
 31
0.0
  0
LINE
  5
65
100
AcDbEntity
  8
0
 62
9
420
12632256
370
-1
 48
1.0
  6
BYLAYER
100
AcDbLine
 10
153.0139999999999816
 20
273.8019999999999072
 30
0.0
 11
165.5139999999999816
 21
273.8019999999999072
 31
0.0
  0
LINE
  5
66
100
AcDbEntity
  8
0
 62
9
420
12632256
370
-1
 48
1.0
  6
BYLAYER
100
AcDbLine
 10
55.3600927913299046
 20
273.9951406901305404
 30
0.0
 11
67.8600927913299046
 21
273.9951406901305404
 31
0.0
  0
LINE
  5
67
100
AcDbEntity
  8
0
 62
9
420
12632256
370
-1
 48
1.0
  6
BYLAYER
100
AcDbLine
 10
120.3040927913298788
 20
273.9280948121247548
 30
0.0
 11
132.8040927913298788
 21
273.9280948121247548
 31
0.0
  0
LINE
  5
68
100
AcDbEntity
  8
0
 62
9
420
12632256
370
-1
 48
1.0
  6
BYLAYER
100
AcDbLine
 10
34.8186841769035453
 20
273.7429510658809022
 30
0.0
 11
34.8186841769035453
 21
261.2429510658809022
 31
0.0
  0
LINE
  5
69
100
AcDbEntity
  8
0
 62
9
420
12632256
370
-1
 48
1.0
  6
BYLAYER
100
AcDbLine
 10
99.7626841769035195
 20
273.6759051878751166
 30
0.0
 11
99.7626841769035195
 21
261.1759051878751166
 31
0.0
  0
LINE
  5
6A
100
AcDbEntity
  8
0
 62
9
420
12632256
370
-1
 48
1.0
  6
BYLAYER
100
AcDbLine
 10
165.5139999999999816
 20
273.8019999999999072
 30
0.0
 11
165.5139999999999816
 21
261.3019999999999072
 31
0.0
  0
LINE
  5
6B
100
AcDbEntity
  8
0
 62
9
420
12632256
370
-1
 48
1.0
  6
BYLAYER
100
AcDbLine
 10
67.8600927913299046
 20
273.9951406901305404
 30
0.0
 11
67.8600927913299046
 21
261.4951406901305404
 31
0.0
  0
LINE
  5
6C
100
AcDbEntity
  8
0
 62
9
420
12632256
370
-1
 48
1.0
  6
BYLAYER
100
AcDbLine
 10
132.8040927913298788
 20
273.9280948121247548
 30
0.0
 11
132.8040927913298788
 21
261.4280948121247548
 31
0.0
  0
LINE
  5
6D
100
AcDbEntity
  8
0
 62
9
420
12632256
370
-1
 48
1.0
  6
BYLAYER
100
AcDbLine
 10
165.5139999999999816
 20
261.3019999999999072
 30
0.0
 11
153.0139999999999816
 21
261.3019999999999072
 31
0.0
  0
LINE
  5
6E
100
AcDbEntity
  8
0
 62
9
420
12632256
370
-1
 48
1.0
  6
BYLAYER
100
AcDbLine
 10
67.8600927913299046
 20
261.4951406901305404
 30
0.0
 11
55.3600927913299046
 21
261.4951406901305404
 31
0.0
  0
LINE
  5
6F
100
AcDbEntity
  8
0
 62
9
420
12632256
370
-1
 48
1.0
  6
BYLAYER
100
AcDbLine
 10
132.8040927913298788
 20
261.4280948121247548
 30
0.0
 11
120.3040927913298788
 21
261.4280948121247548
 31
0.0
  0
LINE
  5
70
100
AcDbEntity
  8
0
 62
9
420
12632256
370
-1
 48
1.0
  6
BYLAYER
100
AcDbLine
 10
34.8186841769035453
 20
261.2429510658809022
 30
0.0
 11
22.3186841769035595
 21
261.2429510658809022
 31
0.0
  0
LINE
  5
71
100
AcDbEntity
  8
0
 62
9
420
12632256
370
-1
 48
1.0
  6
BYLAYER
100
AcDbLine
 10
99.7626841769035195
 20
261.1759051878751166
 30
0.0
 11
87.262684176903548
 21
261.1759051878751166
 31
0.0
  0
LINE
  5
72
100
AcDbEntity
  8
0
 62
9
420
12632256
370
-1
 48
1.0
  6
BYLAYER
100
AcDbLine
 10
14.4186841769035397
 20
258.6760854656409379
 30
0.0
 11
14.4186841769035539
 21
282.1929510658808908
 31
0.0
  0
LINE
  5
73
100
AcDbEntity
  8
0
 62
9
420
12632256
370
-1
 48
1.0
  6
BYLAYER
100
AcDbLine
 10
79.3626841769035138
 20
258.6090395876351522
 30
0.0
 11
79.3626841769035423
 21
282.1259051878751052
 31
0.0
  0
LINE
  5
74
100
AcDbEntity
  8
0
 62
9
420
12632256
370
-1
 48
1.0
  6
BYLAYER
100
AcDbLine
 10
47.4600927913298989
 20
258.9282750898905761
 30
0.0
 11
47.4600927913299273
 21
282.445140690130529
 31
0.0
  0
LINE
  5
75
100
AcDbEntity
  8
0
 62
9
420
12632256
370
-1
 48
1.0
  6
BYLAYER
100
AcDbLine
 10
145.1139999999999759
 20
258.7351343997599429
 30
0.0
 11
145.1140000000000043
 21
282.2519999999998959
 31
0.0
  0
LINE
  5
76
100
AcDbEntity
  8
0
 62
9
420
12632256
370
-1
 48
1.0
  6
BYLAYER
100
AcDbLine
 10
112.4040927913298731
 20
258.8612292118847904
 30
0.0
 11
112.4040927913299015
 21
282.3780948121247434
 31
0.0
  0
LINE
  5
77
100
AcDbEntity
  8
0
 62
9
420
12632256
370
-1
 48
1.0
  6
BYLAYER
100
AcDbLine
 10
42.718684176903551
 20
276.3098166661208666
 30
0.0
 11
42.7186841769035794
 21
252.7929510658809136
 31
0.0
  0
LINE
  5
78
100
AcDbEntity
  8
0
 62
9
420
12632256
370
-1
 48
1.0
  6
BYLAYER
100
AcDbLine
 10
107.6626841769035252
 20
276.2427707881150809
 30
0.0
 11
107.6626841769035536
 21
252.7259051878751279
 31
0.0
  0
LINE
  5
79
100
AcDbEntity
  8
0
 62
9
420
12632256
370
-1
 48
1.0
  6
BYLAYER
100
AcDbLine
 10
75.7600927913299103
 20
276.5620062903705048
 30
0.0
 11
75.7600927913299387
 21
253.0451406901305518
 31
0.0
  0
LINE
  5
7A
100
AcDbEntity
  8
0
 62
9
420
12632256
370
-1
 48
1.0
  6
BYLAYER
100
AcDbLine
 10
173.4139999999999873
 20
276.3688656002398716
 30
0.0
 11
173.4140000000000157
 21
252.8519999999999186
 31
0.0
  0
LINE
  5
7B
100
AcDbEntity
  8
0
 62
9
420
12632256
370
-1
 48
1.0
  6
BYLAYER
100
AcDbLine
 10
140.7040927913298844
 20
276.4949604123647191
 30
0.0
 11
140.7040927913299129
 21
252.9780948121247661
 31
0.0
  0
LINE
  5
7C
100
AcDbEntity
  8
0
 62
9
420
12632256
370
-1
 48
1.0
  6
BYLAYER
100
AcDbLine
 10
19.7518185766636094
 20
281.6429510658809363
 30
0.0
 11
43.2918185766636299
 21
281.6429510658809363
 31
0.0
  0
LINE
  5
7D
100
AcDbEntity
  8
0
 62
9
420
12632256
370
-1
 48
1.0
  6
BYLAYER
100
AcDbLine
 10
84.6958185766635836
 20
281.5759051878751507
 30
0.0
 11
108.2358185766636041
 21
281.5759051878751507
 31
0.0
  0
LINE
  5
7E
100
AcDbEntity
  8
0
 62
9
420
12632256
370
-1
 48
1.0
  6
BYLAYER
100
AcDbLine
 10
52.7932271910899686
 20
281.8951406901305745
 30
0.0
 11
76.3332271910899891
 21
281.8951406901305745
 31
0.0
  0
LINE
  5
7F
100
AcDbEntity
  8
0
 62
9
420
12632256
370
-1
 48
1.0
  6
BYLAYER
100
AcDbLine
 10
150.4471343997600457
 20
281.7019999999999413
 30
0.0
 11
173.9871343997600661
 21
281.7019999999999413
 31
0.0
  0
LINE
  5
80
100
AcDbEntity
  8
0
 62
9
420
12632256
370
-1
 48
1.0
  6
BYLAYER
100
AcDbLine
 10
117.7372271910899428
 20
281.8280948121247889
 30
0.0
 11
141.2772271910899633
 21
281.8280948121247889
 31
0.0
  0
LINE
  5
81
100
AcDbEntity
  8
0
 62
9
420
12632256
370
-1
 48
1.0
  6
BYLAYER
100
AcDbLine
 10
168.0808656002399459
 20
253.4019999999999015
 30
0.0
 11
144.563999999999993
 21
253.40199999999993
 31
0.0
  0
LINE
  5
82
100
AcDbEntity
  8
0
 62
9
420
12632256
370
-1
 48
1.0
  6
BYLAYER
100
AcDbLine
 10
70.4269583915698689
 20
253.5951406901305347
 30
0.0
 11
46.9100927913299159
 21
253.5951406901305631
 31
0.0
  0
LINE
  5
83
100
AcDbEntity
  8
0
 62
9
420
12632256
370
-1
 48
1.0
  6
BYLAYER
100
AcDbLine
 10
135.3709583915698431
 20
253.5280948121247491
 30
0.0
 11
111.8540927913298901
 21
253.5280948121247775
 31
0.0
  0
LINE
  5
84
100
AcDbEntity
  8
0
 62
9
420
12632256
370
-1
 48
1.0
  6
BYLAYER
100
AcDbLine
 10
37.3855497771435097
 20
253.3429510658808965
 30
0.0
 11
13.8686841769035709
 21
253.3429510658809249
 31
0.0
  0
LINE
  5
85
100
AcDbEntity
  8
0
 62
9
420
12632256
370
-1
 48
1.0
  6
BYLAYER
100
AcDbLine
 10
102.3295497771434839
 20
253.2759051878751109
 30
0.0
 11
78.8126841769035593
 21
253.2759051878751393
 31
0.0
  0
LINE
  5
86
100
AcDbEntity
  8
0
 62
1
420
16711680
370
-1
 48
1.0
  6
ACAD_ISO10W100
100
AcDbLine
 10
22.3186841769035595
 20
261.242951065880959
 30
0.0
 11
18.6104802444041866
 21
249.8302728703390869
 31
0.0
  0
LINE
  5
87
100
AcDbEntity
  8
0
 62
1
420
16711680
370
-1
 48
1.0
  6
ACAD_ISO10W100
100
AcDbLine
 10
87.262684176903548
 20
261.1759051878751734
 30
0.0
 11
83.554480244404175
 21
249.7632269923333013
 31
0.0
  0
LINE
  5
88
100
AcDbEntity
  8
0
 62
1
420
16711680
370
-1
 48
1.0
  6
ACAD_ISO10W100
100
AcDbLine
 10
153.0139999999999816
 20
261.3019999999999641
 30
0.0
 11
149.3057960675006086
 21
249.8893218044580919
 31
0.0
  0
LINE
  5
89
100
AcDbEntity
  8
0
 62
1
420
16711680
370
-1
 48
1.0
  6
ACAD_ISO10W100
100
AcDbLine
 10
55.3600927913299046
 20
261.4951406901305972
 30
0.0
 11
51.6518888588305316
 21
250.0824624945887251
 31
0.0
  0
LINE
  5
8A
100
AcDbEntity
  8
0
 62
1
420
16711680
370
-1
 48
1.0
  6
ACAD_ISO10W100
100
AcDbLine
 10
120.3040927913298788
 20
261.4280948121248116
 30
0.0
 11
116.5958888588305058
 21
250.0154166165829395
 31
0.0
  0
LINE
  5
8B
100
AcDbEntity
  8
0
 62
9
420
12632256
370
-1
 48
1.0
  6
BYLAYER
100
AcDbLine
 10
22.3186841769035595
 20
261.2429510658809022
 30
0.0
 11
14.4186841769035397
 21
258.676085465640881
 31
0.0
  0
LINE
  5
8C
100
AcDbEntity
  8
0
 62
9
420
12632256
370
-1
 48
1.0
  6
BYLAYER
100
AcDbLine
 10
87.262684176903548
 20
261.1759051878751166
 30
0.0
 11
79.3626841769035138
 21
258.6090395876350954
 31
0.0
  0
LINE
  5
8D
100
AcDbEntity
  8
0
 62
9
420
12632256
370
-1
 48
1.0
  6
BYLAYER
100
AcDbLine
 10
153.0139999999999816
 20
261.3019999999999072
 30
0.0
 11
145.1139999999999759
 21
258.735134399759886
 31
0.0
  0
LINE
  5
8E
100
AcDbEntity
  8
0
 62
9
420
12632256
370
-1
 48
1.0
  6
BYLAYER
100
AcDbLine
 10
55.3600927913299046
 20
261.4951406901305404
 30
0.0
 11
47.4600927913298989
 21
258.9282750898905192
 31
0.0
  0
LINE
  5
8F
100
AcDbEntity
  8
0
 62
9
420
12632256
370
-1
 48
1.0
  6
BYLAYER
100
AcDbLine
 10
120.3040927913298788
 20
261.4280948121247548
 30
0.0
 11
112.4040927913298731
 21
258.8612292118847336
 31
0.0
  0
LINE
  5
90
100
AcDbEntity
  8
0
 62
1
420
16711680
370
-1
 48
1.0
  6
ACAD_ISO10W100
100
AcDbLine
 10
153.0139999999999816
 20
273.8019999999999072
 30
0.0
 11
141.6013218044581379
 21
277.5102039324992802
 31
0.0
  0
LINE
  5
91
100
AcDbEntity
  8
0
 62
1
420
16711680
370
-1
 48
1.0
  6
ACAD_ISO10W100
100
AcDbLine
 10
55.3600927913299046
 20
273.9951406901305404
 30
0.0
 11
43.9474145957880609
 21
277.7033446226299134
 31
0.0
  0
LINE
  5
92
100
AcDbEntity
  8
0
 62
1
420
16711680
370
-1
 48
1.0
  6
ACAD_ISO10W100
100
AcDbLine
 10
120.3040927913298788
 20
273.9280948121247548
 30
0.0
 11
108.8914145957880351
 21
277.6362987446241277
 31
0.0
  0
LINE
  5
93
100
AcDbEntity
  8
0
 62
1
420
16711680
370
-1
 48
1.0
  6
ACAD_ISO10W100
100
AcDbLine
 10
22.3186841769035595
 20
273.7429510658809022
 30
0.0
 11
10.9060059813617158
 21
277.4511549983802752
 31
0.0
  0
LINE
  5
94
100
AcDbEntity
  8
0
 62
1
420
16711680
370
-1
 48
1.0
  6
ACAD_ISO10W100
100
AcDbLine
 10
87.262684176903548
 20
273.6759051878751166
 30
0.0
 11
75.8500059813617042
 21
277.3841091203744895
 31
0.0
  0
LINE
  5
95
100
AcDbEntity
  8
0
 62
9
420
12632256
370
-1
 48
1.0
  6
BYLAYER
100
AcDbLine
 10
22.318684176903588
 20
273.7429510658809022
 30
0.0
 11
19.720776944727632
 21
281.7384873854574039
 31
0.0
  0
LINE
  5
96
100
AcDbEntity
  8
0
 62
9
420
12632256
370
-1
 48
1.0
  6
BYLAYER
100
AcDbLine
 10
87.2626841769035764
 20
273.6759051878751166
 30
0.0
 11
84.6647769447276062
 21
281.6714415074516182
 31
0.0
  0
LINE
  5
97
100
AcDbEntity
  8
0
 62
9
420
12632256
370
-1
 48
1.0
  6
BYLAYER
100
AcDbLine
 10
153.0140000000000384
 20
273.8019999999999072
 30
0.0
 11
150.4160927678240682
 21
281.7975363195764089
 31
0.0
  0
LINE
  5
98
100
AcDbEntity
  8
0
 62
9
420
12632256
370
-1
 48
1.0
  6
BYLAYER
100
AcDbLine
 10
55.3600927913299614
 20
273.9951406901305404
 30
0.0
 11
52.7621855591539912
 21
281.9906770097070421
 31
0.0
  0
LINE
  5
99
100
AcDbEntity
  8
0
 62
9
420
12632256
370
-1
 48
1.0
  6
BYLAYER
100
AcDbLine
 10
120.3040927913299356
 20
273.9280948121247548
 30
0.0
 11
117.7061855591539654
 21
281.9236311317012564
 31
0.0
  0
LINE
  5
9A
100
AcDbEntity
  8
0
 62
1
420
16711680
370
-1
 48
1.0
  6
ACAD_ISO10W100
100
AcDbLine
 10
165.5139999999999816
 20
273.8019999999999072
 30
0.0
 11
169.2222039324993546
 21
285.2146781955418078
 31
0.0
  0
LINE
  5
9B
100
AcDbEntity
  8
0
 62
1
420
16711680
370
-1
 48
1.0
  6
ACAD_ISO10W100
100
AcDbLine
 10
67.8600927913299046
 20
273.9951406901305404
 30
0.0
 11
71.5682967238292775
 21
285.407818885672441
 31
0.0
  0
LINE
  5
9C
100
AcDbEntity
  8
0
 62
1
420
16711680
370
-1
 48
1.0
  6
ACAD_ISO10W100
100
AcDbLine
 10
132.8040927913298788
 20
273.9280948121247548
 30
0.0
 11
136.5122967238292517
 21
285.3407730076666553
 31
0.0
  0
LINE
  5
9D
100
AcDbEntity
  8
0
 62
1
420
16711680
370
-1
 48
1.0
  6
ACAD_ISO10W100
100
AcDbLine
 10
34.8186841769035453
 20
273.7429510658809022
 30
0.0
 11
38.5268881094029183
 21
285.1556292614228028
 31
0.0
  0
LINE
  5
9E
100
AcDbEntity
  8
0
 62
1
420
16711680
370
-1
 48
1.0
  6
ACAD_ISO10W100
100
AcDbLine
 10
99.7626841769035195
 20
273.6759051878751166
 30
0.0
 11
103.4708881094028925
 21
285.0885833834170171
 31
0.0
  0
LINE
  5
9F
100
AcDbEntity
  8
0
 62
9
420
12632256
370
-1
 48
1.0
  6
BYLAYER
100
AcDbLine
 10
67.8600927913299046
 20
273.9951406901305404
 30
0.0
 11
75.8556291109064063
 21
276.5930479223064822
 31
0.0
  0
LINE
  5
A0
100
AcDbEntity
  8
0
 62
9
420
12632256
370
-1
 48
1.0
  6
BYLAYER
100
AcDbLine
 10
165.5139999999999816
 20
273.8019999999999072
 30
0.0
 11
173.5095363195764833
 21
276.399907232175849
 31
0.0
  0
LINE
  5
A1
100
AcDbEntity
  8
0
 62
9
420
12632256
370
-1
 48
1.0
  6
BYLAYER
100
AcDbLine
 10
132.8040927913298788
 20
273.9280948121247548
 30
0.0
 11
140.7996291109063804
 21
276.5260020443006965
 31
0.0
  0
LINE
  5
A2
100
AcDbEntity
  8
0
 62
9
420
12632256
370
-1
 48
1.0
  6
BYLAYER
100
AcDbLine
 10
34.8186841769035453
 20
273.7429510658809022
 30
0.0
 11
42.814220496480047
 21
276.340858298056844
 31
0.0
  0
LINE
  5
A3
100
AcDbEntity
  8
0
 62
9
420
12632256
370
-1
 48
1.0
  6
BYLAYER
100
AcDbLine
 10
99.7626841769035195
 20
273.6759051878751166
 30
0.0
 11
107.7582204964800212
 21
276.2738124200510583
 31
0.0
  0
LINE
  5
A4
100
AcDbEntity
  8
0
 62
1
420
16711680
370
-1
 48
1.0
  6
ACAD_ISO10W100
100
AcDbLine
 10
67.8600927913299046
 20
261.4951406901305972
 30
0.0
 11
79.2727709868717483
 21
257.7869367576312243
 31
0.0
  0
LINE
  5
A5
100
AcDbEntity
  8
0
 62
1
420
16711680
370
-1
 48
1.0
  6
ACAD_ISO10W100
100
AcDbLine
 10
165.5139999999999816
 20
261.3019999999999641
 30
0.0
 11
176.9266781955418253
 21
257.5937960675005911
 31
0.0
  0
LINE
  5
A6
100
AcDbEntity
  8
0
 62
1
420
16711680
370
-1
 48
1.0
  6
ACAD_ISO10W100
100
AcDbLine
 10
132.8040927913298788
 20
261.4280948121248116
 30
0.0
 11
144.2167709868717225
 21
257.7198908796254386
 31
0.0
  0
LINE
  5
A7
100
AcDbEntity
  8
0
 62
1
420
16711680
370
-1
 48
1.0
  6
ACAD_ISO10W100
100
AcDbLine
 10
34.8186841769035453
 20
261.242951065880959
 30
0.0
 11
46.231362372445389
 21
257.5347471333815292
 31
0.0
  0
LINE
  5
A8
100
AcDbEntity
  8
0
 62
1
420
16711680
370
-1
 48
1.0
  6
ACAD_ISO10W100
100
AcDbLine
 10
99.7626841769035195
 20
261.1759051878751734
 30
0.0
 11
111.1753623724453632
 21
257.4677012553757436
 31
0.0
  0
LINE
  5
A9
100
AcDbEntity
  8
0
 62
9
420
12632256
370
-1
 48
1.0
  6
BYLAYER
100
AcDbLine
 10
34.8186841769035453
 20
261.242951065880959
 30
0.0
 11
37.3855497771435381
 21
253.3429510658809249
 31
0.0
  0
LINE
  5
AA
100
AcDbEntity
  8
0
 62
9
420
12632256
370
-1
 48
1.0
  6
BYLAYER
100
AcDbLine
 10
99.7626841769035195
 20
261.1759051878751734
 30
0.0
 11
102.3295497771435123
 21
253.2759051878751393
 31
0.0
  0
LINE
  5
AB
100
AcDbEntity
  8
0
 62
9
420
12632256
370
-1
 48
1.0
  6
BYLAYER
100
AcDbLine
 10
67.8600927913299046
 20
261.4951406901305972
 30
0.0
 11
70.4269583915698973
 21
253.5951406901305631
 31
0.0
  0
LINE
  5
AC
100
AcDbEntity
  8
0
 62
9
420
12632256
370
-1
 48
1.0
  6
BYLAYER
100
AcDbLine
 10
165.5139999999999816
 20
261.3019999999999641
 30
0.0
 11
168.0808656002399744
 21
253.40199999999993
 31
0.0
  0
LINE
  5
AD
100
AcDbEntity
  8
0
 62
9
420
12632256
370
-1
 48
1.0
  6
BYLAYER
100
AcDbLine
 10
132.8040927913298788
 20
261.4280948121248116
 30
0.0
 11
135.3709583915698715
 21
253.5280948121247775
 31
0.0
  0
LINE
  5
AE
100
AcDbEntity
  8
0
 62
9
420
12632256
370
-1
 48
1.0
  6
BYLAYER
100
AcDbLine
 10
55.3600927913299614
 20
261.4951406901305404
 30
0.0
 11
46.8999867594032338
 21
253.6059641850346509
 31
0.0
  0
LINE
  5
AF
100
AcDbEntity
  8
0
 62
9
420
12632256
370
-1
 48
1.0
  6
BYLAYER
100
AcDbLine
 10
153.0140000000000384
 20
261.3019999999999072
 30
0.0
 11
144.5538939680733108
 21
253.4128234949040177
 31
0.0
  0
LINE
  5
B0
100
AcDbEntity
  8
0
 62
9
420
12632256
370
-1
 48
1.0
  6
BYLAYER
100
AcDbLine
 10
120.3040927913299356
 20
261.4280948121247548
 30
0.0
 11
111.843986759403208
 21
253.5389183070288652
 31
0.0
  0
LINE
  5
B1
100
AcDbEntity
  8
0
 62
9
420
12632256
370
-1
 48
1.0
  6
BYLAYER
100
AcDbLine
 10
22.318684176903588
 20
261.2429510658809022
 30
0.0
 11
13.8585781449768746
 21
253.3537745607850127
 31
0.0
  0
LINE
  5
B2
100
AcDbEntity
  8
0
 62
9
420
12632256
370
-1
 48
1.0
  6
BYLAYER
100
AcDbLine
 10
87.2626841769035764
 20
261.1759051878751166
 30
0.0
 11
78.8025781449768488
 21
253.286728682779227
 31
0.0
  0
LINE
  5
B3
100
AcDbEntity
  8
0
 62
9
420
12632256
370
-1
 48
1.0
  6
BYLAYER
100
AcDbLine
 10
55.3600927913299614
 20
273.9951406901305404
 30
0.0
 11
47.4709162862340435
 21
282.455246722057268
 31
0.0
  0
LINE
  5
B4
100
AcDbEntity
  8
0
 62
9
420
12632256
370
-1
 48
1.0
  6
BYLAYER
100
AcDbLine
 10
153.0140000000000384
 20
273.8019999999999072
 30
0.0
 11
145.1248234949041205
 21
282.2621060319266348
 31
0.0
  0
LINE
  5
B5
100
AcDbEntity
  8
0
 62
9
420
12632256
370
-1
 48
1.0
  6
BYLAYER
100
AcDbLine
 10
120.3040927913299356
 20
273.9280948121247548
 30
0.0
 11
112.4149162862340177
 21
282.3882008440514824
 31
0.0
  0
LINE
  5
B6
100
AcDbEntity
  8
0
 62
9
420
12632256
370
-1
 48
1.0
  6
BYLAYER
100
AcDbLine
 10
22.3186841769036164
 20
273.7429510658809022
 30
0.0
 11
14.4295076718076984
 21
282.2030570978076298
 31
0.0
  0
LINE
  5
B7
100
AcDbEntity
  8
0
 62
9
420
12632256
370
-1
 48
1.0
  6
BYLAYER
100
AcDbLine
 10
87.2626841769036048
 20
273.6759051878751166
 30
0.0
 11
79.3735076718076868
 21
282.1360112198018442
 31
0.0
  0
LINE
  5
B8
100
AcDbEntity
  8
0
 62
9
420
12632256
370
-1
 48
1.0
  6
BYLAYER
100
AcDbLine
 10
67.8600927913299614
 20
273.9951406901305972
 30
0.0
 11
76.3318056005248735
 21
281.8951406901305745
 31
0.0
  0
LINE
  5
B9
100
AcDbEntity
  8
0
 62
9
420
12632256
370
-1
 48
1.0
  6
BYLAYER
100
AcDbLine
 10
165.5140000000000384
 20
273.8019999999999641
 30
0.0
 11
173.9857128091949505
 21
281.7019999999999413
 31
0.0
  0
LINE
  5
BA
100
AcDbEntity
  8
0
 62
9
420
12632256
370
-1
 48
1.0
  6
BYLAYER
100
AcDbLine
 10
132.8040927913299356
 20
273.9280948121248116
 30
0.0
 11
141.2758056005248477
 21
281.8280948121247889
 31
0.0
  0
LINE
  5
BB
100
AcDbEntity
  8
0
 62
9
420
12632256
370
-1
 48
1.0
  6
BYLAYER
100
AcDbLine
 10
34.8186841769036022
 20
273.742951065880959
 30
0.0
 11
43.2903969860985143
 21
281.6429510658809363
 31
0.0
  0
LINE
  5
BC
100
AcDbEntity
  8
0
 62
9
420
12632256
370
-1
 48
1.0
  6
BYLAYER
100
AcDbLine
 10
99.7626841769035764
 20
273.6759051878751734
 30
0.0
 11
108.2343969860984885
 21
281.5759051878751507
 31
0.0
  0
LINE
  5
BD
100
AcDbEntity
  8
0
 62
9
420
12632256
370
-1
 48
1.0
  6
BYLAYER
100
AcDbLine
 10
34.8186841769035453
 20
261.2429510658808454
 30
0.0
 11
42.7186841769035794
 21
252.7929510658809136
 31
0.0
  0
LINE
  5
BE
100
AcDbEntity
  8
0
 62
9
420
12632256
370
-1
 48
1.0
  6
BYLAYER
100
AcDbLine
 10
99.7626841769035195
 20
261.1759051878750597
 30
0.0
 11
107.6626841769035536
 21
252.7259051878751279
 31
0.0
  0
LINE
  5
BF
100
AcDbEntity
  8
0
 62
9
420
12632256
370
-1
 48
1.0
  6
BYLAYER
100
AcDbLine
 10
67.8600927913299046
 20
261.4951406901304836
 30
0.0
 11
75.7600927913299387
 21
253.0451406901305518
 31
0.0
  0
LINE
  5
C0
100
AcDbEntity
  8
0
 62
9
420
12632256
370
-1
 48
1.0
  6
BYLAYER
100
AcDbLine
 10
165.5139999999999816
 20
261.3019999999998504
 30
0.0
 11
173.4140000000000157
 21
252.8519999999999186
 31
0.0
  0
LINE
  5
C1
100
AcDbEntity
  8
0
 62
9
420
12632256
370
-1
 48
1.0
  6
BYLAYER
100
AcDbLine
 10
132.8040927913298788
 20
261.4280948121246979
 30
0.0
 11
140.7040927913299129
 21
252.9780948121247661
 31
0.0
  0
LINE
  5
C2
100
AcDbEntity
  8
0
 62
5
420
255
370
-1
 48
1.0
  6
ACAD_ISO07W100
100
AcDbLine
 10
45.3387724477702676
 20
274.4406859468109019
 30
0.0
 11
54.9145475346496283
 21
284.0164610336902342
 31
0.0
  0
LINE
  5
C3
100
AcDbEntity
  8
0
 62
5
420
255
370
-1
 48
1.0
  6
ACAD_ISO07W100
100
AcDbLine
 10
142.9926796564403446
 20
274.2475452566802687
 30
0.0
 11
152.5684547433197054
 21
283.823320343559601
 31
0.0
  0
LINE
  5
C4
100
AcDbEntity
  8
0
 62
5
420
255
370
-1
 48
1.0
  6
ACAD_ISO07W100
100
AcDbLine
 10
110.2827724477702418
 20
274.3736400688051162
 30
0.0
 11
119.8585475346496025
 21
283.9494151556844486
 31
0.0
  0
LINE
  5
C5
100
AcDbEntity
  8
0
 62
5
420
255
370
-1
 48
1.0
  6
ACAD_ISO07W100
100
AcDbLine
 10
12.2973638333439226
 20
274.1884963225612637
 30
0.0
 11
21.8731389202232691
 21
283.764271409440596
 31
0.0
  0
LINE
  5
C6
100
AcDbEntity
  8
0
 62
5
420
255
370
-1
 48
1.0
  6
ACAD_ISO07W100
100
AcDbLine
 10
77.241363833343911
 20
274.121450444555478
 30
0.0
 11
86.8171389202232433
 21
283.6972255314348104
 31
0.0
  0
LINE
  5
C7
100
AcDbEntity
  8
0
 62
5
420
255
370
-1
 48
1.0
  6
ACAD_ISO07W100
100
AcDbLine
 10
165.9595452566803431
 20
283.823320343559601
 30
0.0
 11
175.535320343559647
 21
274.2475452566802119
 31
0.0
  0
LINE
  5
C8
100
AcDbEntity
  8
0
 62
5
420
255
370
-1
 48
1.0
  6
ACAD_ISO07W100
100
AcDbLine
 10
133.2496380480102403
 20
283.9494151556844486
 30
0.0
 11
142.8254131348895442
 21
274.3736400688050594
 31
0.0
  0
LINE
  5
C9
100
AcDbEntity
  8
0
 62
5
420
255
370
-1
 48
1.0
  6
ACAD_ISO07W100
100
AcDbLine
 10
68.3056380480102661
 20
284.0164610336902342
 30
0.0
 11
77.88141313488957
 21
274.4406859468108451
 31
0.0
  0
LINE
  5
CA
100
AcDbEntity
  8
0
 62
5
420
255
370
-1
 48
1.0
  6
ACAD_ISO07W100
100
AcDbLine
 10
100.208229433583881
 20
283.6972255314348104
 30
0.0
 11
109.7840045204631849
 21
274.1214504445554212
 31
0.0
  0
LINE
  5
CB
100
AcDbEntity
  8
0
 62
5
420
255
370
-1
 48
1.0
  6
ACAD_ISO07W100
100
AcDbLine
 10
35.2642294335839068
 20
283.764271409440596
 30
0.0
 11
44.8400045204632107
 21
274.1884963225612069
 31
0.0
  0
LINE
  5
CC
100
AcDbEntity
  8
0
 62
5
420
255
370
-1
 48
1.0
  6
ACAD_ISO07W100
100
AcDbLine
 10
175.5353203435596185
 20
260.8564547433196026
 30
0.0
 11
165.9595452566803147
 21
251.2806796564402418
 31
0.0
  0
LINE
  5
CD
100
AcDbEntity
  8
0
 62
5
420
255
370
-1
 48
1.0
  6
ACAD_ISO07W100
100
AcDbLine
 10
142.8254131348895157
 20
260.9825495554444501
 30
0.0
 11
133.2496380480102118
 21
251.4067744685650894
 31
0.0
  0
LINE
  5
CE
100
AcDbEntity
  8
0
 62
5
420
255
370
-1
 48
1.0
  6
ACAD_ISO07W100
100
AcDbLine
 10
77.8814131348895415
 20
261.0495954334502358
 30
0.0
 11
68.3056380480102376
 21
251.473820346570875
 31
0.0
  0
LINE
  5
CF
100
AcDbEntity
  8
0
 62
5
420
255
370
-1
 48
1.0
  6
ACAD_ISO07W100
100
AcDbLine
 10
109.7840045204631565
 20
260.7303599311948119
 30
0.0
 11
100.2082294335838526
 21
251.1545848443154512
 31
0.0
  0
LINE
  5
D0
100
AcDbEntity
  8
0
 62
5
420
255
370
-1
 48
1.0
  6
ACAD_ISO07W100
100
AcDbLine
 10
44.8400045204631823
 20
260.7974058092005976
 30
0.0
 11
35.2642294335838784
 21
251.2216307223212368
 31
0.0
  0
LINE
  5
D1
100
AcDbEntity
  8
0
 62
5
420
255
370
-1
 48
1.0
  6
ACAD_ISO07W100
100
AcDbLine
 10
54.9145475346495999
 20
251.4738203465709034
 30
0.0
 11
45.3387724477702392
 21
261.0495954334501789
 31
0.0
  0
LINE
  5
D2
100
AcDbEntity
  8
0
 62
5
420
255
370
-1
 48
1.0
  6
ACAD_ISO07W100
100
AcDbLine
 10
152.5684547433196769
 20
251.2806796564402703
 30
0.0
 11
142.9926796564403162
 21
260.8564547433195457
 31
0.0
  0
LINE
  5
D3
100
AcDbEntity
  8
0
 62
5
420
255
370
-1
 48
1.0
  6
ACAD_ISO07W100
100
AcDbLine
 10
119.8585475346495741
 20
251.4067744685651178
 30
0.0
 11
110.2827724477702134
 21
260.9825495554443933
 31
0.0
  0
LINE
  5
D4
100
AcDbEntity
  8
0
 62
5
420
255
370
-1
 48
1.0
  6
ACAD_ISO07W100
100
AcDbLine
 10
21.8731389202232265
 20
251.2216307223212652
 30
0.0
 11
12.2973638333438799
 21
260.7974058092005407
 31
0.0
  0
LINE
  5
D5
100
AcDbEntity
  8
0
 62
5
420
255
370
-1
 48
1.0
  6
ACAD_ISO07W100
100
AcDbLine
 10
86.8171389202232149
 20
251.1545848443154796
 30
0.0
 11
77.2413638333438541
 21
260.7303599311947551
 31
0.0
  0
LINE
  5
D6
100
AcDbEntity
  8
0
 62
9
420
12632256
370
-1
 48
1.0
  6
BYLAYER
100
AcDbLine
 10
67.8600927913297909
 20
261.4951406901305972
 30
0.0
 11
55.3600927913299046
 21
261.4951406901305972
 31
0.0
  0
LINE
  5
D7
100
AcDbEntity
  8
0
 62
9
420
12632256
370
-1
 48
1.0
  6
BYLAYER
100
AcDbLine
 10
165.5139999999998679
 20
261.3019999999999641
 30
0.0
 11
153.0139999999999816
 21
261.3019999999999641
 31
0.0
  0
LINE
  5
D8
100
AcDbEntity
  8
0
 62
9
420
12632256
370
-1
 48
1.0
  6
BYLAYER
100
AcDbLine
 10
132.8040927913297651
 20
261.4280948121248116
 30
0.0
 11
120.3040927913298788
 21
261.4280948121248116
 31
0.0
  0
LINE
  5
D9
100
AcDbEntity
  8
0
 62
9
420
12632256
370
-1
 48
1.0
  6
BYLAYER
100
AcDbLine
 10
34.8186841769034316
 20
261.242951065880959
 30
0.0
 11
22.3186841769035595
 21
261.242951065880959
 31
0.0
  0
LINE
  5
DA
100
AcDbEntity
  8
0
 62
9
420
12632256
370
-1
 48
1.0
  6
BYLAYER
100
AcDbLine
 10
99.7626841769034058
 20
261.1759051878751734
 30
0.0
 11
87.262684176903548
 21
261.1759051878751734
 31
0.0
  0
MTEXT
  5
DB
100
AcDbEntity
  8
0
 62
256
370
-1
 48
1.0
  6
BYLAYER
100
AcDbMText
 10
159.2640000000051259
 20
267.5519999999999641
 30
0.0
 40
1.0
 41
0.0
 71
5
 72
1
  1
\H4;?\P/
  7
textstyle2
 50
0.0
 73
2
 44
1.0
  0
MTEXT
  5
DC
100
AcDbEntity
  8
0
 62
256
370
-1
 48
1.0
  6
BYLAYER
100
AcDbMText
 10
126.5540927913347957
 20
267.6780948121264032
 30
0.0
 40
1.0
 41
0.0
 71
5
 72
1
  1
\H4;>\P.
  7
textstyle0
 50
0.0
 73
2
 44
1.0
  0
MTEXT
  5
DD
100
AcDbEntity
  8
0
 62
256
370
-1
 48
1.0
  6
BYLAYER
100
AcDbMText
 10
61.6100927913347931
 20
267.745140690132132
 30
0.0
 40
1.0
 41
0.0
 71
5
 72
1
  1
\H5;"\P'
  7
textstyle3
 50
0.0
 73
2
 44
1.0
  0
MTEXT
  5
DE
100
AcDbEntity
  8
0
 62
256
370
-1
 48
1.0
  6
BYLAYER
100
AcDbMText
 10
93.5126841769036474
 20
267.4259051878711944
 30
0.0
 40
1.0
 41
0.0
 71
5
 72
1
  1
\H4;<\P,
  7
textstyle1
 50
0.0
 73
2
 44
1.0
  0
MTEXT
  5
DF
100
AcDbEntity
  8
0
 62
256
370
-1
 48
1.0
  6
BYLAYER
100
AcDbMText
 10
28.5686841769036874
 20
267.4929510658771505
 30
0.0
 40
1.0
 41
0.0
 71
5
 72
1
  1
\H4;:\P;
  7
textstyle4
 50
0.0
 73
2
 44
1.0
  0
ENDSEC
  0
SECTION
  2
OBJECTS
  0
DICTIONARY
  5
C
100
AcDbDictionary
280
0
281
1
  3
ACAD_GROUP
350
D
  3
ACAD_LAYOUT
350
1A
  3
ACAD_MLINESTYLE
350
17
  3
ACAD_PLOTSETTINGS
350
19
  3
ACAD_PLOTSTYLENAME
350
E
  3
AcDbVariableDictionary
350
E0
  3
QCAD_OBJECTS
350
E1
  0
DICTIONARY
  5
D
100
AcDbDictionary
280
0
281
1
  0
ACDBDICTIONARYWDFLT
  5
E
100
AcDbDictionary
281
1
  3
Normal
350
F
100
AcDbDictionaryWithDefault
340
F
  0
ACDBPLACEHOLDER
  5
F
  0
DICTIONARY
  5
17
100
AcDbDictionary
280
0
281
1
  3
Standard
350
18
  0
MLINESTYLE
  5
18
100
AcDbMlineStyle
  2
STANDARD
 70
0
  3

 62
256
 51
90.0
 52
90.0
 71
2
 49
0.5
 62
256
  6
BYLAYER
 49
-0.5
 62
256
  6
BYLAYER
  0
DICTIONARY
  5
19
100
AcDbDictionary
280
0
281
1
  0
DICTIONARY
  5
1A
100
AcDbDictionary
281
1
  3
Layout1
350
1E
  3
Layout2
350
26
  3
Model
350
22
  0
LAYOUT
  5
1E
100
AcDbPlotSettings
  1

  2
none_device
  4

  6

 40
0.0
 41
0.0
 42
0.0
 43
0.0
 44
0.0
 45
0.0
 46
0.0
 47
0.0
 48
0.0
 49
0.0
140
0.0
141
0.0
142
1.0
143
1.0
 70
688
 72
0
 73
0
 74
5
  7

 75
16
147
1.0
148
0.0
149
0.0
100
AcDbLayout
  1
Layout1
 70
1
 71
1
 10
0.0
 20
0.0
 11
420.0
 21
297.0
 12
0.0
 22
0.0
 32
0.0
 14
100000000000000000000.0
 24
100000000000000000000.0
 34
100000000000000000000.0
 15
-100000000000000000000.0
 25
-100000000000000000000.0
 35
-100000000000000000000.0
146
0.0
 13
0.0
 23
0.0
 33
0.0
 16
1.0
 26
0.0
 36
0.0
 17
0.0
 27
1.0
 37
0.0
 76
0
330
1B
  0
LAYOUT
  5
22
100
AcDbPlotSettings
  1

  2
none_device
  4

  6

 40
0.0
 41
0.0
 42
0.0
 43
0.0
 44
0.0
 45
0.0
 46
0.0
 47
0.0
 48
0.0
 49
0.0
140
0.0
141
0.0
142
1.0
143
1.0
 70
1712
 72
0
 73
0
 74
0
  7

 75
0
147
1.0
148
0.0
149
0.0
100
AcDbLayout
  1
Model
 70
1
 71
0
 10
0.0
 20
0.0
 11
12.0
 21
9.0
 12
0.0
 22
0.0
 32
0.0
 14
0.0
 24
0.0
 34
0.0
 15
0.0
 25
0.0
 35
0.0
146
0.0
 13
0.0
 23
0.0
 33
0.0
 16
1.0
 26
0.0
 36
0.0
 17
0.0
 27
1.0
 37
0.0
 76
0
330
1F
  0
LAYOUT
  5
26
100
AcDbPlotSettings
  1

  2
none_device
  4

  6

 40
0.0
 41
0.0
 42
0.0
 43
0.0
 44
0.0
 45
0.0
 46
0.0
 47
0.0
 48
0.0
 49
0.0
140
0.0
141
0.0
142
1.0
143
1.0
 70
688
 72
0
 73
0
 74
5
  7

 75
16
147
1.0
148
0.0
149
0.0
100
AcDbLayout
  1
Layout2
 70
1
 71
2
 10
0.0
 20
0.0
 11
12.0
 21
9.0
 12
0.0
 22
0.0
 32
0.0
 14
0.0
 24
0.0
 34
0.0
 15
0.0
 25
0.0
 35
0.0
146
0.0
 13
0.0
 23
0.0
 33
0.0
 16
1.0
 26
0.0
 36
0.0
 17
0.0
 27
1.0
 37
0.0
 76
0
330
23
  0
DICTIONARY
  5
E0
100
AcDbDictionary
281
1
  3
DIMASSOC
350
E3
  3
HIDETEXT
350
E2
  0
DICTIONARYVAR
  5
E2
100
DictionaryVariables
280
0
  1
2
  0
DICTIONARYVAR
  5
E3
100
DictionaryVariables
280
0
  1
1
  0
DICTIONARY
  5
E1
100
AcDbDictionary
281
1
  3
ColorSettings/BackgroundColor
350
E4
  3
ColorSettings/ColorMode
350
E5
  3
Grid/DisplayGrid00
350
E6
  3
Grid/DisplayGrid01
350
E7
  3
Grid/DisplayGrid02
350
E8
  3
Grid/DisplayGrid03
350
E9
  3
Grid/GridSpacingX00
350
EA
  3
Grid/GridSpacingX01
350
EB
  3
Grid/GridSpacingX02
350
EC
  3
Grid/GridSpacingX03
350
ED
  3
Grid/GridSpacingY00
350
EE
  3
Grid/GridSpacingY01
350
EF
  3
Grid/GridSpacingY02
350
F0
  3
Grid/GridSpacingY03
350
F1
  3
Grid/IsometricGrid00
350
F2
  3
Grid/IsometricGrid01
350
F3
  3
Grid/IsometricGrid02
350
F4
  3
Grid/IsometricGrid03
350
F5
  3
Grid/IsometricProjection00
350
F6
  3
Grid/IsometricProjection01
350
F7
  3
Grid/IsometricProjection02
350
F8
  3
Grid/IsometricProjection03
350
F9
  3
Grid/MetaGridSpacingX00
350
FA
  3
Grid/MetaGridSpacingX01
350
FB
  3
Grid/MetaGridSpacingX02
350
FC
  3
Grid/MetaGridSpacingX03
350
FD
  3
Grid/MetaGridSpacingY00
350
FE
  3
Grid/MetaGridSpacingY01
350
FF
  3
Grid/MetaGridSpacingY02
350
100
  3
Grid/MetaGridSpacingY03
350
101
  3
MultiPageSettings/Columns
350
102
  3
MultiPageSettings/GlueMarginsBottom
350
103
  3
MultiPageSettings/GlueMarginsLeft
350
104
  3
MultiPageSettings/GlueMarginsRight
350
105
  3
MultiPageSettings/GlueMarginsTop
350
106
  3
MultiPageSettings/PrintCropMarks
350
107
  3
MultiPageSettings/Rows
350
108
  3
PageSettings/OffsetX
350
109
  3
PageSettings/OffsetY
350
10A
  3
PageSettings/PageOrientation
350
10B
  3
PageSettings/PaperHeight
350
10C
  3
PageSettings/PaperWidth
350
10D
  3
PageSettings/Scale
350
10E
  3
PageSettings/ShowPaperBorders
350
10F
  3
QCADVersion
350
110
  3
UnitSettings/PaperUnit
350
111
  3
ViewportCenter
350
112
  3
ViewportHeight
350
113
  3
ViewportWidth
350
114
  0
XRECORD
  5
E4
330
E1
100
AcDbXrecord
280
1
1000
Weiss
  0
XRECORD
  5
E5
330
E1
100
AcDbXrecord
280
1
1000
FullColor
  0
XRECORD
  5
E6
330
E1
100
AcDbXrecord
280
1
290
1
  0
XRECORD
  5
E7
330
E1
100
AcDbXrecord
280
1
290
1
  0
XRECORD
  5
E8
330
E1
100
AcDbXrecord
280
1
290
1
  0
XRECORD
  5
E9
330
E1
100
AcDbXrecord
280
1
290
1
  0
XRECORD
  5
EA
330
E1
100
AcDbXrecord
280
1
1000
auto
  0
XRECORD
  5
EB
330
E1
100
AcDbXrecord
280
1
1000
auto
  0
XRECORD
  5
EC
330
E1
100
AcDbXrecord
280
1
1000
auto
  0
XRECORD
  5
ED
330
E1
100
AcDbXrecord
280
1
1000
auto
  0
XRECORD
  5
EE
330
E1
100
AcDbXrecord
280
1
1000
auto
  0
XRECORD
  5
EF
330
E1
100
AcDbXrecord
280
1
1000
auto
  0
XRECORD
  5
F0
330
E1
100
AcDbXrecord
280
1
1000
auto
  0
XRECORD
  5
F1
330
E1
100
AcDbXrecord
280
1
1000
auto
  0
XRECORD
  5
F2
330
E1
100
AcDbXrecord
280
1
290
0
  0
XRECORD
  5
F3
330
E1
100
AcDbXrecord
280
1
290
0
  0
XRECORD
  5
F4
330
E1
100
AcDbXrecord
280
1
290
0
  0
XRECORD
  5
F5
330
E1
100
AcDbXrecord
280
1
290
0
  0
XRECORD
  5
F6
330
E1
100
AcDbXrecord
280
1
 90
65537
  0
XRECORD
  5
F7
330
E1
100
AcDbXrecord
280
1
 90
65537
  0
XRECORD
  5
F8
330
E1
100
AcDbXrecord
280
1
 90
65537
  0
XRECORD
  5
F9
330
E1
100
AcDbXrecord
280
1
 90
65537
  0
XRECORD
  5
FA
330
E1
100
AcDbXrecord
280
1
1000
auto
  0
XRECORD
  5
FB
330
E1
100
AcDbXrecord
280
1
1000
auto
  0
XRECORD
  5
FC
330
E1
100
AcDbXrecord
280
1
1000
auto
  0
XRECORD
  5
FD
330
E1
100
AcDbXrecord
280
1
1000
auto
  0
XRECORD
  5
FE
330
E1
100
AcDbXrecord
280
1
1000
auto
  0
XRECORD
  5
FF
330
E1
100
AcDbXrecord
280
1
1000
auto
  0
XRECORD
  5
100
330
E1
100
AcDbXrecord
280
1
1000
auto
  0
XRECORD
  5
101
330
E1
100
AcDbXrecord
280
1
1000
auto
  0
XRECORD
  5
102
330
E1
100
AcDbXrecord
280
1
 90
1
  0
XRECORD
  5
103
330
E1
100
AcDbXrecord
280
1
 40
10.0
  0
XRECORD
  5
104
330
E1
100
AcDbXrecord
280
1
 40
10.0
  0
XRECORD
  5
105
330
E1
100
AcDbXrecord
280
1
 40
10.0
  0
XRECORD
  5
106
330
E1
100
AcDbXrecord
280
1
 40
10.0
  0
XRECORD
  5
107
330
E1
100
AcDbXrecord
280
1
290
0
  0
XRECORD
  5
108
330
E1
100
AcDbXrecord
280
1
 90
1
  0
XRECORD
  5
109
330
E1
100
AcDbXrecord
280
1
 40
0.0
  0
XRECORD
  5
10A
330
E1
100
AcDbXrecord
280
1
 40
0.0
  0
XRECORD
  5
10B
330
E1
100
AcDbXrecord
280
1
1000
Portrait
  0
XRECORD
  5
10C
330
E1
100
AcDbXrecord
280
1
 40
297.0
  0
XRECORD
  5
10D
330
E1
100
AcDbXrecord
280
1
 40
210.0
  0
XRECORD
  5
10E
330
E1
100
AcDbXrecord
280
1
1000
1:1
  0
XRECORD
  5
10F
330
E1
100
AcDbXrecord
280
1
290
1
  0
XRECORD
  5
110
330
E1
100
AcDbXrecord
280
1
1000
3.17.3
  0
XRECORD
  5
111
330
E1
100
AcDbXrecord
280
1
 90
4
  0
XRECORD
  5
113
330
E1
100
AcDbXrecord
280
1
 40
84.8159999999999741
  0
XRECORD
  5
114
330
E1
100
AcDbXrecord
280
1
 40
172.0799999999999557
  0
ENDSEC
  0
EOF
